<svg width="135" height="135" viewBox="0 0 135 135" fill="none" xmlns="http://www.w3.org/2000/svg">
<path d="M135 67.5C135 104.782 104.782 135 67.5 135C30.2193 135 0 104.782 0 67.5C0 30.2193 30.2193 1.52588e-05 67.5 1.52588e-05C104.782 1.52588e-05 135 30.2193 135 67.5Z" fill="#DE6724"/>
<path d="M71.718 44.2969H63.2805L65.1319 31.3415C65.2804 30.3024 66.1701 29.5312 67.2199 29.5312H67.7802C68.83 29.5312 69.7197 30.3033 69.8682 31.3415L71.718 44.2969Z" fill="#F5BB3D"/>
<path d="M122.344 74.9775C122.344 76.2934 121.782 77.5467 120.799 78.4202C119.815 79.2952 118.505 79.7072 117.199 79.5532L86.4844 75.94V59.0625L119.27 70.6335C121.112 71.2836 122.344 73.0247 122.344 74.9775Z" fill="#F5BB3D"/>
<path d="M12.6538 74.9775C12.6538 76.2934 13.2166 77.5467 14.1996 78.4202C15.1826 79.2952 16.4927 79.7072 17.7987 79.5532L48.5131 75.94V59.0625L15.7272 70.6335C13.8865 71.2836 12.6538 73.0247 12.6538 74.9775Z" fill="#F5BB3D"/>
<path d="M21.093 76.9922C21.093 71.7477 25.3431 67.5 30.586 67.5C35.8288 67.5 40.079 71.7477 40.079 76.9922C40.079 82.2367 35.8288 86.4844 30.586 86.4844C25.3431 86.4844 21.093 82.2367 21.093 76.9922Z" fill="#F5BB3D"/>
<path d="M25.3126 76.9922C25.3126 74.0794 27.6732 71.7188 30.586 71.7188C33.4988 71.7188 35.8594 74.0794 35.8594 76.9922C35.8594 79.905 33.4988 82.2656 30.586 82.2656C27.6732 82.2656 25.3126 79.905 25.3126 76.9922Z" fill="#4F6366"/>
<path d="M94.9193 76.9922C94.9193 71.7477 99.1703 67.5 104.413 67.5C109.655 67.5 113.906 71.7477 113.906 76.9922C113.906 82.2367 109.655 86.4844 104.413 86.4844C99.1703 86.4844 94.9193 82.2367 94.9193 76.9922Z" fill="#F5BB3D"/>
<path d="M99.1398 76.9922C99.1398 74.0794 101.501 71.7188 104.413 71.7188C107.326 71.7188 109.687 74.0794 109.687 76.9922C109.687 79.905 107.326 82.2656 104.413 82.2656C101.501 82.2656 99.1398 79.905 99.1398 76.9922Z" fill="#4F6366"/>
<path d="M67.4991 94.9219C54.6838 94.9219 44.296 84.5341 44.296 71.7188C44.296 58.9035 54.6838 40.0781 67.4991 40.0781C80.3136 40.0781 90.7023 58.9035 90.7023 71.7188C90.7023 84.5341 80.3136 94.9219 67.4991 94.9219Z" fill="#F5F5E6"/>
<path d="M67.4999 59.0625C72.3827 59.0625 76.8694 59.7291 80.442 60.843C80.7536 60.9411 81.093 60.8464 81.3098 60.6017C81.5256 60.357 81.5783 60.0075 81.444 59.7101C79.6016 55.6455 77.0482 51.9309 74.2202 49.4623C74.2037 49.4476 74.1833 49.436 74.1618 49.4303C72.1587 48.8493 69.8985 48.5156 67.4999 48.5156C65.5232 48.5156 63.6429 48.7422 61.9217 49.1459C61.171 49.3231 60.492 49.6979 59.9408 50.2369C57.4483 52.6751 55.2137 56.0493 53.5551 59.7084C53.4207 60.0069 53.4726 60.3562 53.6892 60.6017C53.9069 60.8456 54.2463 60.9403 54.5585 60.843C58.1305 59.7291 62.6178 59.0625 67.4999 59.0625Z" fill="#589DA8"/>
</svg>
