<svg width="80" height="14" viewBox="0 0 80 14" fill="none" xmlns="http://www.w3.org/2000/svg">
<path d="M9.35 0.964V3.956H4.624V5.622H8.024V8.461H4.624V13H0.85V0.964H9.35ZM20.7773 3.412V13H17.0033V11.538C16.7087 11.9913 16.312 12.3597 15.8133 12.643C15.326 12.9263 14.7423 13.068 14.0623 13.068C12.963 13.068 12.1017 12.6997 11.4783 11.963C10.8663 11.2263 10.5603 10.229 10.5603 8.971V3.412H14.3173V8.495C14.3173 8.94833 14.4363 9.311 14.6743 9.583C14.9237 9.84367 15.2523 9.974 15.6603 9.974C16.0797 9.974 16.4083 9.84367 16.6463 9.583C16.8843 9.311 17.0033 8.94833 17.0033 8.495V3.412H20.7773ZM29.1968 3.344C30.2962 3.344 31.1518 3.71233 31.7638 4.449C32.3872 5.18567 32.6988 6.183 32.6988 7.441V13H28.9418V7.917C28.9418 7.46367 28.8172 7.10667 28.5678 6.846C28.3298 6.574 28.0068 6.438 27.5988 6.438C27.1795 6.438 26.8508 6.574 26.6128 6.846C26.3748 7.10667 26.2558 7.46367 26.2558 7.917V13H22.4818V3.412H26.2558V4.874C26.5505 4.42067 26.9415 4.05233 27.4288 3.769C27.9275 3.48567 28.5168 3.344 29.1968 3.344Z" fill="white"/>
<path d="M48.8024 0.964V13H45.0454V6.999L43.1924 13H39.9624L38.1094 6.999V13H34.3354V0.964H38.9594L41.6114 8.189L44.1954 0.964H48.8024ZM49.9953 8.206C49.9953 7.19733 50.1653 6.32467 50.5053 5.588C50.8566 4.84 51.3326 4.27333 51.9333 3.888C52.5339 3.49133 53.2083 3.293 53.9563 3.293C54.5796 3.293 55.1179 3.42333 55.5713 3.684C56.0246 3.93333 56.3703 4.279 56.6083 4.721V3.412H60.3653V13H56.6083V11.691C56.3703 12.133 56.0246 12.4843 55.5713 12.745C55.1179 12.9943 54.5796 13.119 53.9563 13.119C53.2083 13.119 52.5339 12.9263 51.9333 12.541C51.3326 12.1443 50.8566 11.5777 50.5053 10.841C50.1653 10.093 49.9953 9.21467 49.9953 8.206ZM56.6083 8.206C56.6083 7.696 56.4779 7.29933 56.2173 7.016C55.9566 6.73267 55.6223 6.591 55.2143 6.591C54.8063 6.591 54.4719 6.73267 54.2113 7.016C53.9506 7.29933 53.8203 7.696 53.8203 8.206C53.8203 8.716 53.9506 9.11267 54.2113 9.396C54.4719 9.67933 54.8063 9.821 55.2143 9.821C55.6223 9.821 55.9566 9.67933 56.2173 9.396C56.4779 9.11267 56.6083 8.716 56.6083 8.206ZM68.027 9.787V13H66.599C63.9696 13 62.655 11.691 62.655 9.073V6.557H61.465V3.412H62.655V1.1H66.429V3.412H67.993V6.557H66.429V9.141C66.429 9.36767 66.48 9.532 66.582 9.634C66.6953 9.736 66.8766 9.787 67.126 9.787H68.027ZM76.1793 3.344C77.2786 3.344 78.1343 3.71233 78.7463 4.449C79.3696 5.18567 79.6813 6.183 79.6813 7.441V13H75.9243V7.917C75.9243 7.46367 75.7996 7.10667 75.5503 6.846C75.3123 6.574 74.9893 6.438 74.5813 6.438C74.1619 6.438 73.8333 6.574 73.5953 6.846C73.3573 7.10667 73.2383 7.46367 73.2383 7.917V13H69.4643V0.42H73.2383V4.874C73.5329 4.42067 73.9239 4.05233 74.4113 3.769C74.9099 3.48567 75.4993 3.344 76.1793 3.344Z" fill="#00ECCC"/>
</svg>
