<svg width="332" height="147" viewBox="0 0 332 147" fill="none" xmlns="http://www.w3.org/2000/svg">
<path d="M282.177 40.6725L269.254 66.4806C269.254 66.4806 310 79.8029 309.8 79.1768C309.6 78.5507 315.182 51.585 315.182 51.585L282.177 40.6725Z" fill="url(#paint0_linear_44_2)"/>
<path d="M331.051 48.6227C331.162 46.1393 319.118 35.9686 319.118 35.9686L284.939 26.6608C284.939 26.6608 269.454 29.339 268.286 31.5331C267.118 33.7271 268.286 45.6447 296.372 53.2898C324.459 60.9349 330.941 51.1062 331.051 48.6227Z" fill="url(#paint1_linear_44_2)"/>
<path d="M319.639 34.3428C318.566 24.7719 309.784 18.3212 300.434 17.9582C294.578 17.7319 289.059 20.4048 285.57 25.0666C284.439 26.5819 282.955 28.3866 284.044 30.3124C285.344 32.6117 288.443 34.1639 290.732 35.2741C296.746 38.1943 303.433 40.0148 310.11 40.5514C312.646 40.7514 316.019 40.9618 318.303 39.6412C320.218 38.531 319.85 36.2211 319.639 34.3428Z" fill="#505C70"/>
<mask id="mask0_44_2" style="mask-type:luminance" maskUnits="userSpaceOnUse" x="268" y="26" width="64" height="29">
<path d="M331.051 48.6227C331.162 46.1393 319.118 35.9686 319.118 35.9686L284.939 26.6608C284.939 26.6608 269.454 29.339 268.286 31.5331C267.118 33.7271 268.67 43.2243 296.756 50.8694C324.843 58.5145 330.941 51.1062 331.051 48.6227Z" fill="white"/>
</mask>
<g mask="url(#mask0_44_2)">
<path d="M297.062 49.8382C280.14 45.229 267.633 36.6947 268.46 30.465C268.386 30.6439 268.317 30.8228 268.27 31.0122C266.565 37.2787 279.319 46.2024 296.756 50.9536C314.193 55.6996 329.715 54.4736 331.42 48.2071C331.472 48.0177 331.509 47.8282 331.53 47.6388C329.089 53.4213 313.978 54.4421 297.062 49.8382Z" fill="url(#paint2_radial_44_2)"/>
</g>
<path d="M276.094 33.1484C275.742 33.6377 274.805 33.564 274 32.9853C273.195 32.4065 272.832 31.5383 273.184 31.049C273.537 30.5597 274.474 30.6333 275.279 31.2121C276.084 31.7961 276.447 32.659 276.094 33.1484Z" fill="url(#paint3_radial_44_2)"/>
<path d="M281.314 38.0469C280.961 38.5362 280.025 38.4626 279.219 37.8838C278.414 37.305 278.051 36.4369 278.404 35.9475C278.756 35.4582 279.693 35.5319 280.498 36.1106C281.303 36.6894 281.666 37.5576 281.314 38.0469Z" fill="url(#paint4_radial_44_2)"/>
<path d="M288.875 42.3825C288.611 42.9244 287.675 43.0191 286.786 42.5877C285.891 42.1562 285.381 41.367 285.644 40.825C285.907 40.2831 286.844 40.1884 287.733 40.6198C288.622 41.0513 289.138 41.8353 288.875 42.3825Z" fill="url(#paint5_radial_44_2)"/>
<path d="M298.624 45.9077C298.466 46.4918 297.561 46.7496 296.604 46.4918C295.646 46.234 294.999 45.55 295.157 44.9659C295.315 44.3819 296.22 44.1241 297.177 44.3819C298.135 44.6397 298.782 45.329 298.624 45.9077Z" fill="url(#paint6_radial_44_2)"/>
<path d="M308.595 48.186C308.474 48.7753 307.585 49.091 306.617 48.8911C305.643 48.6911 304.959 48.0492 305.08 47.4599C305.201 46.8706 306.091 46.5549 307.059 46.7549C308.032 46.9548 308.721 47.5967 308.595 48.186Z" fill="url(#paint7_radial_44_2)"/>
<path d="M317.377 48.849C317.319 49.4488 316.466 49.8539 315.482 49.7592C314.498 49.6593 313.746 49.091 313.804 48.4912C313.862 47.8914 314.714 47.4862 315.698 47.5809C316.682 47.6756 317.434 48.2439 317.377 48.849Z" fill="url(#paint8_radial_44_2)"/>
<path d="M326.658 47.1916C326.811 47.7756 326.158 48.4544 325.201 48.7069C324.243 48.9595 323.338 48.6911 323.185 48.1071C323.033 47.5231 323.685 46.8443 324.643 46.5918C325.606 46.3392 326.505 46.6075 326.658 47.1916Z" fill="url(#paint9_radial_44_2)"/>
<path d="M320.044 33.1168C318.866 23.8248 309.952 17.4741 300.545 17.0216C294.647 16.7375 289.127 19.2735 285.66 23.7564C284.534 25.2139 283.066 26.9502 284.181 28.8286C285.512 31.07 288.654 32.6117 290.963 33.7114C297.046 36.6052 303.796 38.4468 310.521 39.0361C313.073 39.2571 316.472 39.4991 318.755 38.2416C320.67 37.1893 320.276 34.9426 320.044 33.1168Z" fill="url(#paint10_radial_44_2)"/>
<path opacity="0.48" d="M307.069 21.1519C307.501 21.2466 307.995 21.3992 308.521 21.615C309.047 21.8307 309.61 22.1043 310.189 22.441C310.768 22.7778 311.363 23.1724 311.947 23.6301C312.531 24.0826 313.109 24.5983 313.657 25.1665C314.204 25.7348 314.725 26.3557 315.193 27.0239C315.661 27.6921 316.082 28.4077 316.435 29.1653C316.787 29.923 317.077 30.7175 317.282 31.5488C317.487 32.3749 317.613 33.2378 317.65 34.1218C317.687 35.0057 317.629 35.916 317.482 36.8473C317.482 36.8473 317.471 36.6368 317.403 36.2475C317.335 35.8581 317.213 35.2951 316.971 34.5848C316.729 33.8745 316.372 33.0221 315.824 32.0592C315.277 31.1016 314.535 30.0388 313.525 28.9338C313.078 28.4445 312.52 27.9131 311.889 27.3659C311.252 26.8187 310.542 26.2609 309.8 25.7137C309.058 25.1718 308.29 24.6404 307.548 24.1458C306.806 23.6512 306.09 23.1934 305.475 22.7883C304.854 22.3831 304.333 22.0254 303.975 21.7254C303.618 21.4255 303.428 21.1888 303.47 21.0204C303.518 20.852 303.802 20.7573 304.38 20.7678C304.959 20.7784 305.843 20.8889 307.069 21.1519Z" fill="#DCFFFA"/>
<path d="M275.715 43.2506L277.062 44.2503C277.294 44.4503 277.757 44.7712 277.783 45.0764C277.883 46.1393 277.788 46.497 277.725 47.3126C277.657 48.2018 275.405 45.7552 274.926 43.9452C274.731 43.2086 275.137 42.7613 275.715 43.2506Z" fill="#A3B0D6"/>
<path d="M318.745 54.963L317.077 55.1419C316.777 55.1945 316.214 55.2418 316.035 55.4891C315.414 56.352 315.309 56.7098 314.951 57.4412C314.556 58.2462 317.745 57.2728 319.071 55.9574C319.613 55.4312 319.492 54.8314 318.745 54.963Z" fill="#A3B0D6"/>
<path d="M297.693 52.6321C297.519 52.2848 297.004 52.0322 296.72 51.9112C296.162 51.6692 295.483 51.6481 294.92 51.9007C294.804 51.9533 294.715 52.048 294.683 52.169C294.515 52.832 294.983 54.7735 295.836 54.7472C296.225 54.7367 296.651 54.2684 296.925 54.0264C297.235 53.7528 297.609 53.416 297.73 53.0004C297.767 52.8688 297.751 52.7426 297.693 52.6321Z" fill="#A3B0D6"/>
<path opacity="0.2" d="M299.745 18.6685C300.013 18.6685 300.292 18.6737 300.561 18.6895C304.933 18.9 309.174 20.4627 312.494 23.0829C315.961 25.819 318.061 29.3916 318.571 33.4062L318.603 33.6587C318.724 34.59 318.86 35.6529 318.629 36.3159C318.418 36.9262 318.597 37.6049 319.087 38.0259C325.779 43.8241 329.173 47.5915 329.552 48.7122C329.452 49.1857 328.884 50.3222 327.374 51.4745C326.006 52.5163 323.443 53.8738 319.029 54.4157C318.65 54.4631 318.303 54.642 318.05 54.9261C318.04 54.9419 318.024 54.9524 318.013 54.9682C317.782 55.1839 317.471 55.3944 317.14 55.5733C317.119 55.5259 317.092 55.4786 317.066 55.4365C316.782 54.9472 316.261 54.6525 315.703 54.6525H315.672C315.398 54.6578 315.119 54.663 314.835 54.663C310.01 54.663 304.312 53.8107 297.898 52.1322C297.767 52.0954 297.63 52.0796 297.498 52.0796C297.056 52.0796 296.625 52.269 296.32 52.6058C296.209 52.027 295.783 51.5534 295.209 51.3851C288.527 49.4488 282.997 47.1232 278.762 44.4661C278.504 44.303 278.215 44.224 277.925 44.224C277.657 44.224 277.383 44.2924 277.141 44.4345C277.078 44.4713 277.015 44.5134 276.962 44.5555C276.783 44.2503 276.636 43.9346 276.562 43.6505C276.531 43.2033 276.315 42.7876 275.957 42.5087C270.391 38.1837 269.417 34.2375 269.717 32.5696C269.728 32.5117 269.738 32.4644 269.749 32.4328C270.685 31.633 275.884 30.0493 284.229 28.5024C284.86 28.3866 285.355 27.9026 285.486 27.2764C285.633 26.5819 286.281 25.7453 286.854 25.0034L287.001 24.814C290.022 20.9099 294.662 18.6685 299.745 18.6685ZM299.745 17.09C294.183 17.09 289.043 19.5945 285.754 23.8511C285.034 24.7824 284.181 25.8295 283.944 26.9502C280.403 27.6079 269.359 29.7862 268.381 31.6278C268.286 31.8067 268.207 32.0382 268.165 32.3118C267.807 34.3007 268.723 38.8835 274.979 43.7557C274.984 43.8452 274.994 43.9399 275.026 44.0399C275.436 45.5815 277.136 47.5967 277.667 47.5967C277.757 47.5967 277.815 47.5388 277.825 47.4073C277.873 46.7812 277.936 46.4234 277.92 45.8078C281.861 48.2807 287.307 50.7484 294.767 52.9057C294.857 53.7265 295.278 54.8419 295.915 54.8419H295.936C296.325 54.8314 296.751 54.3631 297.025 54.1211C297.183 53.9843 297.351 53.8317 297.498 53.6633C304.622 55.5312 310.31 56.2468 314.835 56.2468C315.13 56.2468 315.419 56.2415 315.703 56.2363C315.43 56.6888 315.304 57.0255 315.051 57.5411C314.951 57.7463 315.083 57.8358 315.351 57.8358C316.145 57.8358 318.182 57.0465 319.171 56.0626C319.192 56.0416 319.208 56.0205 319.229 55.9995C327.979 54.9261 330.809 50.7379 331.12 48.97C331.136 48.8805 331.146 48.8016 331.146 48.7227C331.236 46.6549 322.922 39.2729 320.123 36.8473C320.502 35.7529 320.292 34.3954 320.139 33.2168C318.955 23.9143 310.042 17.5635 300.634 17.111C300.34 17.1005 300.04 17.09 299.745 17.09Z" fill="#424242"/>
<path d="M22.0258 29.4346C22.0258 29.4346 17.6136 30.8753 16.7269 34.976C15.8402 39.0767 24.8878 51.801 24.8878 51.801L56.0712 37.3798L47.5511 20.0458L22.0258 29.4346Z" fill="#C7DCF9"/>
<path d="M28.4612 33.7555C28.4612 33.7555 25.0853 36.8226 23.8902 40.3715C22.6952 43.9204 22.1756 50.3569 22.1901 52.7806C26.6607 57.4556 45.616 54.9268 45.616 54.9268L64.9649 34.7978C64.9649 34.7978 62.2604 28.8012 60.8044 27.1136C59.3484 25.4259 54.4343 23.1375 48.482 25.1199C44.7764 29.7502 28.4612 33.7555 28.4612 33.7555Z" fill="#E1ECFF"/>
<path d="M26.9403 35.3552C26.9403 35.3552 33.8107 38.0328 41.8857 35.4681C49.9607 32.9033 51.9148 24.4078 51.9148 24.4078L48.4781 25.1209L28.4613 33.7555L26.9403 35.3552Z" fill="#E1ECFF"/>
<path d="M53.8586 63.4279C53.8586 63.4279 62.7156 64.0268 65.1664 64.8152C67.6172 65.6035 73.2949 80.9209 75.9342 82.5156C78.5736 84.1103 81.0348 81.8801 84.1466 80.3026C87.2585 78.7252 90.1421 76.7624 90.2827 75.8782C90.4233 74.994 89.3647 71.362 88.305 70.5773C87.2453 69.7927 84.044 69.546 82.2678 70.5362C80.175 63.5406 77.2148 53.3443 74.0248 51.7706C70.8347 50.1968 60.9525 48.9362 60.9525 48.9362L53.8586 63.4279Z" fill="#E1ECFF"/>
<mask id="mask1_44_2" style="mask-type:luminance" maskUnits="userSpaceOnUse" x="53" y="48" width="38" height="36">
<path d="M53.8586 63.4279C53.8586 63.4279 62.7156 64.0268 65.1664 64.8152C67.6172 65.6035 73.2949 80.9209 75.9342 82.5156C78.5736 84.1103 81.0348 81.8801 84.1466 80.3026C87.2585 78.7252 90.1421 76.7624 90.2827 75.8782C90.4233 74.994 89.3647 71.362 88.305 70.5773C87.2453 69.7927 84.044 69.546 82.2678 70.5362C80.175 63.5406 77.2148 53.3443 74.0248 51.7706C70.8347 50.1968 60.9525 48.9362 60.9525 48.9362L53.8586 63.4279Z" fill="white"/>
</mask>
<g mask="url(#mask1_44_2)">
<path opacity="0.51" d="M63.5783 57.4676C63.5783 57.4676 70.7446 58.6983 72.5734 61.505C74.4023 64.3118 77.3468 80.9818 81.7437 81.6411C81.4892 86.967 72.216 88.3291 72.216 88.3291L51.7611 62.6014L63.5783 57.4676Z" fill="#E1ECFF"/>
</g>
<path d="M30.1358 60.6263C30.1358 60.6263 34.8852 72.387 39.636 75.8061C44.3868 79.2253 53.3551 79.5207 55.6997 81.7129C58.0443 83.9052 56.9226 93.6789 59.2319 96.4273C61.5412 99.1757 64.9169 100.979 68.1809 100.885C71.445 100.791 74.1376 99.3929 74.2599 97.934C74.3822 96.4751 74.3292 95.2001 72.8514 94.3275C71.3735 93.455 69.2643 92.6749 69.2274 91.7607C69.1904 90.8466 68.3107 76.9101 67.8247 73.107C67.3388 69.3039 62.0988 63.7348 55.0948 60.6623C48.6573 54.5659 38.0871 56.3625 38.0871 56.3625L30.1358 60.6263Z" fill="#E1ECFF"/>
<path d="M31.5339 63.7806C31.5339 63.7806 37.7672 64.4824 43.5336 62.3589C42.8099 56.5789 39.6024 54.6887 39.6024 54.6887L30.1358 60.6263L31.5339 63.7806Z" fill="#E1ECFF"/>
<path d="M43.8365 4.63357C39.0997 1.71255 28.8908 0.200441 22.075 7.66987C15.2593 15.1393 17.9184 23.4808 20.3484 27.4371C22.8924 31.5886 32.1016 38.259 42.6774 33.1701C53.2532 28.0812 55.3296 11.7234 43.8365 4.63357Z" fill="#E1ECFF"/>
<path d="M42.7 9.38665C46.9862 10.6917 49.4384 16.9678 47.6201 22.722C45.8018 28.4763 40.5288 32.0975 34.8784 31.7837C29.228 31.4699 23.8471 27.2695 24.3186 20.0594C24.7729 13.1306 33.3922 6.55359 42.7 9.38665Z" fill="#1C3177"/>
<path d="M27.3759 54.2665C33.2042 51.9828 29.332 45.7177 35.0653 44.6974C42.4494 46.2122 44.5329 45.9581 44.5329 45.9581C44.5329 45.9581 29.517 57.6023 27.3759 54.2665Z" fill="#E1ECFF"/>
<path d="M33.0806 38.4918L41.028 63.3388L54.3907 63.8369L67.0699 56.8571L71.3814 46.041L64.1717 19.0097L59.1268 31.1493L47.4836 39.3002L33.0806 38.4918Z" fill="#FF97C9"/>
<path d="M27.3759 54.2665C30.5184 54.2043 32.2356 52.2656 33.2386 51.4202C33.7496 50.9885 33.678 50.5784 33.5161 49.2332C33.3542 47.8879 34.2815 46.5749 35.4702 46.0613C35.9995 47.8042 36.7577 48.1749 37.3632 48.1318C37.9686 48.0887 38.8051 44.5382 40.7671 44.69C42.7291 44.8418 44.1451 47.5368 44.328 48.8503C44.5109 50.1638 43.0162 53.7873 41.266 56.2873C39.5157 58.7874 37.0738 61.8659 31.9581 62.5628C26.8423 63.2597 24.1266 60.503 22.6701 57.139C22.1787 56.0038 22.0703 54.4698 22.1917 52.7756C22.1917 52.7756 23.2318 54.3386 27.3759 54.2665Z" fill="#E1ECFF"/>
<path d="M66.6546 28.3197C66.6546 28.3197 67.1367 30.3141 66.6846 31.052C66.2325 31.79 65.6414 32.3872 65.1762 33.3393C64.711 34.2913 65.0864 38.0101 66.833 38.7515C68.5796 39.493 70.1582 37.9286 70.6881 36.9995C71.218 36.0705 71.1108 33.5394 70.52 31.7432C69.9291 29.9469 68.7117 28.3081 66.6546 28.3197Z" fill="#E1ECFF"/>
<path d="M70.1948 4.12312L70.5455 4.95851C70.5665 5.00911 70.5995 5.05383 70.6417 5.08877C70.6839 5.12371 70.734 5.14782 70.7876 5.159L71.6757 5.34049C71.7378 5.35329 71.795 5.38323 71.8409 5.42693C71.8868 5.47062 71.9196 5.52632 71.9354 5.58768C71.9513 5.64905 71.9496 5.71363 71.9306 5.77409C71.9116 5.83455 71.876 5.88847 71.8279 5.92973L71.1417 6.52365C71.1 6.55939 71.0676 6.60476 71.0475 6.65583C71.0273 6.7069 71.0198 6.76212 71.0258 6.8167L71.1236 7.71293C71.1306 7.77579 71.1198 7.83933 71.0925 7.89638C71.0652 7.95344 71.0225 8.00172 70.9692 8.03578C70.916 8.06983 70.8542 8.08829 70.791 8.08908C70.7277 8.08987 70.6655 8.07295 70.6114 8.04024L69.8351 7.57053C69.7883 7.54194 69.7352 7.52525 69.6804 7.5219C69.6256 7.51855 69.5709 7.52865 69.5209 7.55131L68.6931 7.92291C68.6354 7.94914 68.5714 7.95862 68.5085 7.95029C68.4456 7.94196 68.3863 7.91615 68.3374 7.87579C68.2884 7.83543 68.2518 7.78214 68.2316 7.72199C68.2115 7.66184 68.2086 7.59724 68.2234 7.53554L68.4309 6.65799C68.4435 6.60454 68.4429 6.54883 68.429 6.49568C68.4152 6.44254 68.3887 6.39356 68.3516 6.353L67.7429 5.67988C67.7002 5.63307 67.6715 5.57522 67.66 5.51289C67.6485 5.45056 67.6547 5.38626 67.6779 5.32728C67.7011 5.2683 67.7404 5.21702 67.7913 5.17924C67.8422 5.14147 67.9026 5.11872 67.9658 5.11358L68.8693 5.04167C68.9239 5.03711 68.9766 5.01928 69.0227 4.98974C69.0689 4.96021 69.1071 4.91985 69.1341 4.87218L69.584 4.08576C69.6154 4.03019 69.6618 3.98456 69.7178 3.95408C69.7739 3.92361 69.8374 3.90951 69.9011 3.91341C69.9648 3.9173 70.0261 3.93903 70.078 3.97611C70.1299 4.0132 70.1704 4.06414 70.1948 4.12312Z" fill="#FEC272"/>
<path d="M22.0796 87.3166L22.3738 88.0175C22.3912 88.06 22.419 88.0976 22.4545 88.1268C22.4899 88.1561 22.5321 88.1761 22.5772 88.1851L23.3219 88.34C23.3738 88.3509 23.4216 88.3761 23.46 88.4127C23.4983 88.4493 23.5257 88.4959 23.5389 88.5472C23.5522 88.5986 23.5508 88.6526 23.535 88.7032C23.5192 88.7538 23.4895 88.799 23.4494 88.8337L22.8734 89.33C22.8381 89.3603 22.8107 89.3988 22.7939 89.4421C22.777 89.4855 22.7712 89.5323 22.7768 89.5785L22.8578 90.3338C22.8633 90.3865 22.8541 90.4397 22.8311 90.4874C22.8081 90.5351 22.7723 90.5755 22.7276 90.6041C22.683 90.6326 22.6313 90.6482 22.5783 90.649C22.5253 90.6499 22.4732 90.636 22.4277 90.6089L21.7777 90.2143C21.7384 90.1906 21.6938 90.1768 21.6479 90.174C21.6021 90.1712 21.5562 90.1795 21.5142 90.1982L20.8237 90.5082C20.7753 90.5301 20.7216 90.5379 20.6689 90.5308C20.6162 90.5238 20.5666 90.502 20.5256 90.4681C20.4846 90.4342 20.454 90.3895 20.4371 90.3391C20.4203 90.2886 20.4179 90.2345 20.4303 90.1828L20.6027 89.443C20.6134 89.3977 20.6129 89.3505 20.6012 89.3055C20.5896 89.2605 20.5671 89.219 20.5359 89.1845L20.026 88.6217C19.9904 88.5825 19.9664 88.534 19.9569 88.4818C19.9473 88.4297 19.9526 88.3759 19.972 88.3265C19.9914 88.2772 20.0242 88.2343 20.0668 88.2026C20.1093 88.1709 20.1599 88.1518 20.2127 88.1473L20.9695 88.0842C21.0154 88.0807 21.0598 88.0659 21.0988 88.0412C21.1378 88.0166 21.1701 87.9828 21.193 87.9428L21.5704 87.2829C21.597 87.2369 21.6359 87.1992 21.6827 87.1742C21.7296 87.1491 21.7825 87.1377 21.8355 87.1412C21.8885 87.1447 21.9395 87.163 21.9826 87.194C22.0258 87.225 22.0594 87.2675 22.0796 87.3166Z" fill="#FEC272"/>
<path opacity="0.48" d="M38.4575 16.4397C41.6178 15.9431 44.0372 14.6344 43.8616 13.5166C43.6859 12.3988 40.9817 11.8951 37.8215 12.3917C34.6612 12.8883 32.2418 14.197 32.4174 15.3148C32.593 16.4326 35.2973 16.9363 38.4575 16.4397Z" fill="white"/>
<path d="M43.3832 52.4451C43.3832 52.4451 39.9923 49.0201 39.3423 48.9803C38.6923 48.9406 36.8066 51.3688 37.1557 52.0642C37.5049 52.7596 39.3749 55.0818 41.5343 55.893C42.3309 54.5758 43.3832 52.4451 43.3832 52.4451Z" fill="#E1ECFF"/>
<path opacity="0.5" d="M47.4836 39.3002L54.3906 63.8369L67.0698 56.8571L59.1267 31.1493L47.4836 39.3002Z" fill="#FF97C9"/>
<path d="M68.2624 77.7401C66.9433 78.7035 65.4812 79.4539 63.9295 79.964C62.4757 80.4245 61.927 81.5152 62.2308 83.5966C62.5346 85.678 62.5794 88.8971 63.4147 89.7952C64.25 90.6933 67.3285 90.4313 69.0297 88.5667C68.7706 84.6719 68.2624 77.7401 68.2624 77.7401Z" fill="#E1ECFF"/>
<path d="M77.8114 57.2928C77.8114 57.2928 75.9903 57.9572 76.0834 59.2003C76.1765 60.4435 77.6239 66.5132 78.3056 67.0941C78.9874 67.675 81.1604 66.8516 81.1604 66.8516C79.365 60.566 77.8114 57.2928 77.8114 57.2928Z" fill="#E1ECFF"/>
<path d="M2.08254 66.9736C0.851188 63.963 5.63815 61.1145 9.53444 61.5792C13.4307 62.0439 14.8533 65.7542 16.1558 67.1857C18.8766 70.173 18.6172 72.9168 16.5417 73.9765C14.4662 75.0361 3.7123 70.956 2.08254 66.9736Z" fill="#99ADF9"/>
<path d="M83.7342 26.4951C82.6549 25.427 84.1153 20.8056 86.8762 19.8719C89.6371 18.9381 92.9086 20.3438 93.5081 22.2704C94.1075 24.1969 85.9468 28.6831 83.7342 26.4951Z" fill="#99ADF9"/>
<path d="M96.7806 29.8138C96.1456 30.6105 95.6116 32.9573 96.8187 33.4547C98.0257 33.952 99.1074 31.57 98.7517 30.2739C98.396 28.9778 97.2049 29.2814 96.7806 29.8138Z" fill="#99ADF9"/>
<path opacity="0.44" d="M98.8442 10.6306C97.8978 11.0076 96.2673 12.7774 97.069 13.8095C97.8706 14.8416 99.9902 13.3103 100.325 12.0095C100.661 10.7086 99.4764 10.3793 98.8442 10.6306Z" fill="#99ADF9"/>
<path opacity="0.44" d="M7.79954 79.6735C7.04259 78.9913 4.7353 78.3097 4.16239 79.4841C3.58948 80.6585 5.90065 81.8796 7.21173 81.6113C8.52281 81.3431 8.30328 80.1291 7.79954 79.6735Z" fill="#99ADF9"/>
<path opacity="0.64" d="M15.5118 66.3413C14.0802 66.5208 14.2309 67.8005 14.6143 68.9749C14.9978 70.1494 16.5743 70.5739 17.7648 69.5949C17.1401 67.8106 15.5118 66.3413 15.5118 66.3413Z" fill="#99ADF9"/>
<path opacity="0.64" d="M7.49294 63.9343C6.47242 63.985 5.55657 65.4018 6.19841 66.6352C6.84025 67.8687 8.14931 68.8186 8.94838 68.5419C9.74745 68.2652 9.98521 66.5196 9.49146 65.3601C8.99771 64.2005 8.47396 63.8849 7.49294 63.9343Z" fill="#99ADF9"/>
<path opacity="0.64" d="M90.4051 21.1026C89.838 21.2459 89.2374 21.8133 89.247 22.4663C89.2567 23.1193 89.7896 23.7217 90.4101 23.682C91.0306 23.6424 91.616 22.6799 91.533 21.9575C91.45 21.2352 90.8378 20.9942 90.4051 21.1026Z" fill="#99ADF9"/>
<path opacity="0.64" d="M84.4372 22.0093C84.4372 22.0093 85.1509 22.8161 84.9714 23.6712C84.7919 24.5263 83.4867 24.3663 83.4867 24.3663C83.4867 24.3663 83.7718 22.9072 84.4372 22.0093Z" fill="#99ADF9"/>
<path d="M181.531 67.8661C196.406 67.8661 208.464 55.8078 208.464 40.9331C208.464 26.0583 196.406 14 181.531 14C166.656 14 154.598 26.0583 154.598 40.9331C154.598 55.8078 166.656 67.8661 181.531 67.8661Z" fill="#68E1FD"/>
<path opacity="0.09" d="M195.617 40.0037C195.617 40.0037 200.545 21.1483 185.973 14.3682C185.973 14.3682 207.541 17.1854 208.464 40.9331L195.617 40.0037Z" fill="black"/>
<path d="M243.282 53.7041C243.282 45.7492 215.636 39.6121 181.531 39.6121C147.427 39.6121 119.775 46.0415 119.775 54.0139L119.775 59.017L123.597 59.017C132.312 64.5054 154.961 68.4214 181.531 68.4214C208.102 68.4214 230.745 64.5054 239.46 59.017L242.382 59.017C242.624 59.017 242.856 58.921 243.027 58.75C243.198 58.579 243.294 58.3471 243.294 58.1052L243.282 53.7041Z" fill="#C9C9C9"/>
<path d="M181.531 72.7232C215.635 72.7232 243.282 66.2727 243.282 58.3157C243.282 50.3586 215.635 43.9081 181.531 43.9081C147.427 43.9081 119.78 50.3586 119.78 58.3157C119.78 66.2727 147.427 72.7232 181.531 72.7232Z" fill="#E6E6E6"/>
<path d="M181.531 72.5479C192.6 72.5479 201.573 70.4544 201.573 67.872C201.573 65.2896 192.6 63.1961 181.531 63.1961C170.462 63.1961 161.489 65.2896 161.489 67.872C161.489 70.4544 170.462 72.5479 181.531 72.5479Z" fill="#24285B"/>
<path opacity="0.09" d="M201.567 67.872C201.567 67.872 222.083 53.9613 195.612 43.9081L195.612 40.0038C195.612 40.0038 242.329 42.2365 243.276 53.7041L243.276 58.3157C243.276 58.3157 245.059 67.872 200.72 72.016L201.567 67.872Z" fill="black"/>
<path d="M161.489 67.872C161.489 67.872 164.014 79.4273 158.24 82.6536C152.465 85.88 146.17 92.6834 150.758 100.188C155.346 107.693 156.603 117.185 149.18 120.242C141.757 123.299 139.881 140.348 139.881 140.348L220.943 140.348C220.943 140.348 221.796 120.072 212.281 115.8C202.766 111.527 210.58 110.019 207.348 94.8986C204.116 79.778 196.132 89.796 201.573 67.8779L161.489 67.872Z" fill="#24285B"/>
<path d="M169.45 75.2014C169.918 75.2014 170.297 74.822 170.297 74.3539C170.297 73.8859 169.918 73.5064 169.45 73.5064C168.982 73.5064 168.602 73.8859 168.602 74.3539C168.602 74.822 168.982 75.2014 169.45 75.2014Z" fill="white"/>
<path d="M157.503 96.1143C157.971 96.1143 158.351 95.7349 158.351 95.2668C158.351 94.7987 157.971 94.4193 157.503 94.4193C157.035 94.4193 156.656 94.7987 156.656 95.2668C156.656 95.7349 157.035 96.1143 157.503 96.1143Z" fill="white"/>
<path d="M211.65 121.241C212.118 121.241 212.497 120.862 212.497 120.394C212.497 119.926 212.118 119.546 211.65 119.546C211.182 119.546 210.802 119.926 210.802 120.394C210.802 120.862 211.182 121.241 211.65 121.241Z" fill="white"/>
<path d="M188.229 127.057C188.698 127.057 189.077 126.678 189.077 126.209C189.077 125.741 188.698 125.362 188.229 125.362C187.761 125.362 187.382 125.741 187.382 126.209C187.382 126.678 187.761 127.057 188.229 127.057Z" fill="white"/>
<path d="M172.641 137.18C173.109 137.18 173.489 136.801 173.489 136.333C173.489 135.865 173.109 135.485 172.641 135.485C172.173 135.485 171.794 135.865 171.794 136.333C171.794 136.801 172.173 137.18 172.641 137.18Z" fill="white"/>
<path d="M155.44 124.304C155.908 124.304 156.287 123.925 156.287 123.457C156.287 122.988 155.908 122.609 155.44 122.609C154.972 122.609 154.592 122.988 154.592 123.457C154.592 123.925 154.972 124.304 155.44 124.304Z" fill="white"/>
<path d="M198.528 90.9358C198.996 90.9358 199.376 90.5563 199.376 90.0883C199.376 89.6202 198.996 89.2408 198.528 89.2408C198.06 89.2408 197.681 89.6202 197.681 90.0883C197.681 90.5563 198.06 90.9358 198.528 90.9358Z" fill="white"/>
<path d="M190.468 69.2864C190.936 69.2864 191.316 68.907 191.316 68.4389C191.316 67.9709 190.936 67.5914 190.468 67.5914C190 67.5914 189.621 67.9709 189.621 68.4389C189.621 68.907 190 69.2864 190.468 69.2864Z" fill="white"/>
<path opacity="0.23" d="M175.323 27.8695C178.74 26.7692 180.845 23.8123 180.025 21.2651C179.204 18.7179 175.77 17.5449 172.353 18.6452C168.936 19.7455 166.831 22.7024 167.652 25.2496C168.472 27.7968 171.907 28.9698 175.323 27.8695Z" fill="white"/>
<path d="M176.743 81.0352L180.675 81.9602L178.463 91.3593L174.532 90.4343L176.743 81.0352Z" fill="#68E1FD"/>
<path opacity="0.45" d="M176.743 81.0352L180.675 81.9602L178.463 91.3593L174.532 90.4343L176.743 81.0352Z" fill="white"/>
<path d="M171.407 93.0353L193.988 98.3484L190.26 114.194L167.679 108.881L171.407 93.0353Z" fill="white"/>
<path d="M168.643 92.397L196.728 99.0017L185.658 81.1749L168.643 92.397Z" fill="#68E1FD"/>
<path d="M174.72 100.396L180.842 101.837L178.579 111.452L172.457 110.011L174.72 100.396Z" fill="#24285B"/>
<path d="M184.314 98.8423L190.544 100.308L189.232 105.884L183.002 104.418L184.314 98.8423Z" fill="#68E1FD"/>
<path d="M165.002 107.88L193.221 114.707C196.658 115.543 196.301 120.552 192.777 120.867C192.067 120.92 191.354 120.897 190.649 120.797C183.255 119.856 184.652 118.845 180.088 118.792C172.489 118.711 170.894 114.169 167.27 114.461C164.774 114.66 161.706 113.836 161.168 111.463C160.653 109.265 162.804 107.348 165.002 107.88Z" fill="#FFD200"/>
<path d="M129.53 104.56C128.761 104.965 128.091 105.535 127.571 106.231C127.05 106.927 126.691 107.73 126.52 108.581C126.192 110.399 126.812 112.474 131.038 112.953C138.916 113.853 143.008 106.863 139.174 103.637C136.485 101.363 132.014 103.239 129.53 104.56Z" fill="#FFD200"/>
<path d="M128.781 102.696C128.014 103.098 127.346 103.666 126.826 104.359C126.305 105.051 125.945 105.851 125.771 106.699C125.444 108.517 126.064 110.592 130.289 111.071C138.168 111.966 142.26 104.981 138.425 101.755C135.737 99.4985 131.236 101.375 128.781 102.696Z" fill="#FFD200"/>
<path opacity="0.09" d="M128.781 102.696C128.014 103.098 127.346 103.666 126.826 104.359C126.305 105.051 125.945 105.851 125.771 106.699C125.444 108.517 126.064 110.592 130.289 111.071C138.168 111.966 142.26 104.981 138.425 101.755C135.737 99.4985 131.236 101.375 128.781 102.696Z" fill="black"/>
<path d="M201.714 74.5994C201.228 74.2587 200.674 74.0296 200.09 73.9285C199.506 73.8274 198.907 73.857 198.335 74.0149C197.114 74.3949 196.026 75.4294 197.114 78.1648C199.113 83.2089 204.648 83.4252 205.355 80.0702C205.852 77.7557 203.321 75.6574 201.714 74.5994Z" fill="#FFD200"/>
<path d="M200.808 73.5941C200.323 73.2534 199.768 73.0242 199.184 72.9232C198.6 72.8221 198.001 72.8517 197.429 73.0096C196.208 73.3837 195.121 74.4241 196.208 77.1595C198.207 82.2036 203.742 82.4198 204.449 79.0649C204.946 76.7503 202.397 74.6813 200.808 73.5941Z" fill="#FFD200"/>
<path opacity="0.09" d="M200.808 73.5941C200.323 73.2534 199.768 73.0242 199.184 72.9232C198.6 72.8221 198.001 72.8517 197.429 73.0096C196.208 73.3837 195.121 74.4241 196.208 77.1595C198.207 82.2036 203.742 82.4198 204.449 79.0649C204.946 76.7503 202.397 74.6813 200.808 73.5941Z" fill="black"/>
<path d="M227.016 118.787C229.689 118.787 231.855 116.62 231.855 113.947C231.855 111.274 229.689 109.107 227.016 109.107C224.343 109.107 222.176 111.274 222.176 113.947C222.176 116.62 224.343 118.787 227.016 118.787Z" fill="#FFD200"/>
<path d="M225.853 116.975C228.526 116.975 230.692 114.808 230.692 112.135C230.692 109.462 228.526 107.296 225.853 107.296C223.18 107.296 221.013 109.462 221.013 112.135C221.013 114.808 223.18 116.975 225.853 116.975Z" fill="#FFD200"/>
<path opacity="0.09" d="M225.853 116.975C228.526 116.975 230.692 114.808 230.692 112.135C230.692 109.462 228.526 107.296 225.853 107.296C223.18 107.296 221.013 109.462 221.013 112.135C221.013 114.808 223.18 116.975 225.853 116.975Z" fill="black"/>
<path d="M120.815 133.808L153.4 133.808C154.142 133.82 154.872 134.004 155.53 134.347C156.189 134.69 156.758 135.182 157.193 135.783C157.813 136.607 159.046 137.537 161.489 138.308C167.176 140.103 169.45 140.646 176.645 140.459C182.659 140.313 193.326 141.003 196.389 136.859C197.046 135.93 197.913 135.17 198.92 134.64C199.926 134.11 201.044 133.825 202.181 133.808L238.583 133.808C239.129 133.8 239.671 133.906 240.174 134.118C240.678 134.33 241.131 134.645 241.507 135.041C241.883 135.438 242.172 135.908 242.357 136.422C242.542 136.936 242.618 137.483 242.581 138.028C242.376 140.138 240.541 142.254 234 142.254C220.926 142.254 218.5 142.072 211.65 145.474C204.8 148.876 188.82 144.58 178.334 146.374C167.848 148.169 158.83 140.997 152.868 142.254C148.268 143.218 127.227 146.088 118.798 140.827C118.095 140.392 117.553 139.74 117.255 138.968C116.957 138.196 116.919 137.349 117.147 136.554C117.376 135.759 117.858 135.06 118.52 134.565C119.182 134.069 119.988 133.803 120.815 133.808Z" fill="#FFD200"/>
<defs>
<linearGradient id="paint0_linear_44_2" x1="298.837" y1="46.3605" x2="287.871" y2="73.7484" gradientUnits="userSpaceOnUse">
<stop stop-color="#00ECCC"/>
<stop offset="0.1086" stop-color="#0AEECF" stop-opacity="0.8503"/>
<stop offset="0.2905" stop-color="#24F2D5" stop-opacity="0.5996"/>
<stop offset="0.5219" stop-color="#4DF8E1" stop-opacity="0.2806"/>
<stop offset="0.7255" stop-color="#78FFEC" stop-opacity="0"/>
<stop offset="1" stop-color="#78FFEC" stop-opacity="0"/>
</linearGradient>
<linearGradient id="paint1_linear_44_2" x1="267.648" y1="33.7141" x2="330.499" y2="50.8255" gradientUnits="userSpaceOnUse">
<stop stop-color="#8690BB"/>
<stop offset="0.265" stop-color="#6E76A6"/>
<stop offset="0.6652" stop-color="#B0BEE1"/>
<stop offset="0.8836" stop-color="#6E76A6"/>
<stop offset="1" stop-color="#8A90B3"/>
</linearGradient>
<radialGradient id="paint2_radial_44_2" cx="0" cy="0" r="1" gradientUnits="userSpaceOnUse" gradientTransform="translate(298.377 45.0028) rotate(15.2292) scale(23.5852 22.5701)">
<stop offset="0.2278" stop-color="#00ECCC"/>
<stop offset="1" stop-color="#00CCB1"/>
</radialGradient>
<radialGradient id="paint3_radial_44_2" cx="0" cy="0" r="1" gradientUnits="userSpaceOnUse" gradientTransform="translate(274.515 31.957) rotate(40.8275) scale(1.91648 1.43277)">
<stop offset="0.065" stop-color="#00ECCC"/>
<stop offset="0.2517" stop-color="#00E7C7"/>
<stop offset="0.4807" stop-color="#00D8BB"/>
<stop offset="0.7318" stop-color="#00BFA5"/>
<stop offset="0.9973" stop-color="#009C87"/>
<stop offset="1" stop-color="#009C87"/>
</radialGradient>
<radialGradient id="paint4_radial_44_2" cx="0" cy="0" r="1" gradientUnits="userSpaceOnUse" gradientTransform="translate(279.734 36.8554) rotate(40.8275) scale(1.91648 1.43277)">
<stop offset="0.065" stop-color="#00ECCC"/>
<stop offset="0.2517" stop-color="#00E7C7"/>
<stop offset="0.4807" stop-color="#00D8BB"/>
<stop offset="0.7318" stop-color="#00BFA5"/>
<stop offset="0.9973" stop-color="#009C87"/>
<stop offset="1" stop-color="#009C87"/>
</radialGradient>
<radialGradient id="paint5_radial_44_2" cx="0" cy="0" r="1" gradientUnits="userSpaceOnUse" gradientTransform="translate(287.114 41.4827) rotate(30.7505) scale(1.91643 1.43279)">
<stop offset="0.065" stop-color="#00ECCC"/>
<stop offset="0.2517" stop-color="#00E7C7"/>
<stop offset="0.4807" stop-color="#00D8BB"/>
<stop offset="0.7318" stop-color="#00BFA5"/>
<stop offset="0.9973" stop-color="#009C87"/>
<stop offset="1" stop-color="#009C87"/>
</radialGradient>
<radialGradient id="paint6_radial_44_2" cx="0" cy="0" r="1" gradientUnits="userSpaceOnUse" gradientTransform="translate(296.728 45.3466) rotate(20.2724) scale(1.91652 1.43272)">
<stop offset="0.065" stop-color="#00ECCC"/>
<stop offset="0.2517" stop-color="#00E7C7"/>
<stop offset="0.4807" stop-color="#00D8BB"/>
<stop offset="0.7318" stop-color="#00BFA5"/>
<stop offset="0.9973" stop-color="#009C87"/>
<stop offset="1" stop-color="#009C87"/>
</radialGradient>
<radialGradient id="paint7_radial_44_2" cx="0" cy="0" r="1" gradientUnits="userSpaceOnUse" gradientTransform="translate(306.669 47.7391) rotate(16.7135) scale(1.91652 1.43269)">
<stop offset="0.065" stop-color="#00ECCC"/>
<stop offset="0.2517" stop-color="#00E7C7"/>
<stop offset="0.4807" stop-color="#00D8BB"/>
<stop offset="0.7318" stop-color="#00BFA5"/>
<stop offset="0.9973" stop-color="#009C87"/>
<stop offset="1" stop-color="#009C87"/>
</radialGradient>
<radialGradient id="paint8_radial_44_2" cx="0" cy="0" r="1" gradientUnits="userSpaceOnUse" gradientTransform="translate(315.415 48.6055) rotate(10.7717) scale(1.91647 1.43285)">
<stop offset="0.065" stop-color="#00ECCC"/>
<stop offset="0.2517" stop-color="#00E7C7"/>
<stop offset="0.4807" stop-color="#00D8BB"/>
<stop offset="0.7318" stop-color="#00BFA5"/>
<stop offset="0.9973" stop-color="#009C87"/>
<stop offset="1" stop-color="#009C87"/>
</radialGradient>
<radialGradient id="paint9_radial_44_2" cx="0" cy="0" r="1" gradientUnits="userSpaceOnUse" gradientTransform="translate(324.725 47.6522) rotate(-9.72982) scale(1.9164 1.43281)">
<stop offset="0.065" stop-color="#00ECCC"/>
<stop offset="0.2517" stop-color="#00E7C7"/>
<stop offset="0.4807" stop-color="#00D8BB"/>
<stop offset="0.7318" stop-color="#00BFA5"/>
<stop offset="0.9973" stop-color="#009C87"/>
<stop offset="1" stop-color="#009C87"/>
</radialGradient>
<radialGradient id="paint10_radial_44_2" cx="0" cy="0" r="1" gradientUnits="userSpaceOnUse" gradientTransform="translate(298.792 35.1334) rotate(26.501) scale(18.8828 18.2156)">
<stop stop-color="#78FFEC"/>
<stop offset="0.0939" stop-color="#73FEEB"/>
<stop offset="0.2099" stop-color="#64FCE7"/>
<stop offset="0.3375" stop-color="#4AF8E0"/>
<stop offset="0.4724" stop-color="#28F2D7"/>
<stop offset="0.5999" stop-color="#00ECCC"/>
<stop offset="1" stop-color="#00CCB1"/>
</radialGradient>
</defs>
</svg>
