<svg width="51" height="52" viewBox="0 0 51 52" fill="none" xmlns="http://www.w3.org/2000/svg">
<path d="M1.02547 50.7427C1.99123 51.7893 5.96913 49.9642 9.10891 48.5006C11.4616 47.4072 20.8767 43.5442 25.5566 41.5404C26.8202 41 28.6581 40.2938 29.9812 38.5537C31.1554 37.0051 34.2697 30.4278 27.9986 23.7653C21.634 17.0007 15.0779 18.8684 12.6273 20.6043C11.1851 21.6253 10.0109 23.927 9.4833 25.0969C7.25397 30.0406 4.07591 39.0983 2.78256 42.6593C1.83382 45.2843 0.0682235 49.7046 1.02547 50.7427Z" fill="#FFC107"/>
<path d="M8.85358 26.586C8.91314 27.3263 9.06204 28.5303 9.57258 30.849C9.92144 32.4401 10.4915 34.1079 10.9553 35.2098C12.3465 38.524 14.2993 39.8599 16.2776 40.932C19.6386 42.7529 21.9232 43.0932 21.9232 43.0932L19.1834 44.2121C19.1834 44.2121 17.5241 43.8675 15.2608 42.7529C13.1038 41.6893 10.8574 39.8896 9.2152 36.367C8.50471 34.8396 8.09203 33.3591 7.85378 32.1848C7.56023 30.7298 7.51343 29.9045 7.51343 29.9045L8.85358 26.586Z" fill="#FF8F00"/>
<path d="M5.48812 35.214C5.48812 35.214 5.82847 37.9752 8.10885 41.4595C10.7806 45.5353 14.5118 46.2032 14.5118 46.2032L12.0314 47.2243C12.0314 47.2243 9.2618 46.3777 6.62831 42.7827C4.98609 40.5406 4.52661 37.8603 4.52661 37.8603L5.48812 35.214Z" fill="#FF8F00"/>
<path d="M3.12712 41.7573C3.12712 41.7573 3.74827 44.1398 5.10969 45.9182C6.73063 48.0411 8.79404 48.658 8.79404 48.658L6.8923 49.5004C6.8923 49.5004 5.45005 49.1983 3.87165 47.1988C2.6719 45.6799 2.33154 43.9356 2.33154 43.9356L3.12712 41.7573Z" fill="#FF8F00"/>
<path opacity="0.44" d="M2.09308 47.8071C2.00799 47.6157 2.00799 47.3987 2.09733 47.2115L12.9334 24.7396L14.716 31.4403L3.3141 47.9093C3.00778 48.3687 2.31857 48.3092 2.09308 47.8071Z" fill="#FFFDE7"/>
<path d="M15.5754 33.6909C20.6382 39.6131 26.4029 38.8728 28.3217 37.3752C30.2447 35.8734 31.7635 30.7128 26.722 24.8885C21.438 18.7876 15.4563 20.5277 14.0736 21.8465C12.6909 23.1654 10.9295 28.258 15.5754 33.6909Z" fill="url(#paint0_linear_14_1941)"/>
<path d="M32.9634 36.1287C31.117 34.5801 30.1342 34.8566 28.8153 35.4055C27.1135 36.1117 24.4375 36.635 20.8042 35.4055L21.8976 32.772C24.0546 33.4995 25.616 33.1463 26.9646 32.3508C28.7004 31.3297 31.0744 29.93 34.7673 33.0315C36.3074 34.3248 37.8858 35.1842 39.043 34.7928C39.8854 34.512 40.3321 33.257 40.5576 32.2572C40.5788 32.1678 40.6129 31.9126 40.6384 31.6871C40.8426 30.1257 41.183 26.7562 43.6931 25.0331C46.3776 23.1909 49.1983 23.1909 49.1983 23.1909L49.7089 28.2622C48.4113 28.0708 47.5093 28.3346 46.7478 28.7558C43.8803 30.3512 46.3776 36.4776 41.9147 38.5367C37.622 40.5321 34.1121 37.0902 32.9634 36.1287Z" fill="#03A9F4"/>
<path d="M17.171 29.662L15.3246 28.007C18.7154 24.2205 17.822 21.4381 17.171 19.413C17.0391 19.0046 16.9158 18.6174 16.8349 18.2473C16.5456 16.9369 16.4861 15.7967 16.5754 14.8012C15.2735 13.1803 14.6992 11.4827 14.6609 11.3679C13.8696 8.97262 14.4652 6.63693 15.8309 4.44589C18.592 0 23.591 0 23.591 0L25.2587 4.46291C23.9909 4.41186 19.8343 4.47567 18.558 6.48802C16.9455 9.02367 18.0049 10.5893 18.0815 10.768C18.3921 10.3638 18.7069 10.0405 18.9877 9.78947C21.0255 7.98133 22.7954 7.72181 23.9228 7.82392C25.1906 7.93879 26.3393 8.57695 27.1605 9.62355C28.0581 10.7722 28.4283 12.2656 28.1432 13.6227C27.8667 14.9459 26.986 16.0648 25.6629 16.7753C23.3527 18.0176 21.4297 17.8474 20.1406 17.4177C20.1491 17.4475 20.1534 17.4815 20.1619 17.5113C20.2087 17.724 20.3023 18.0218 20.4129 18.3664C21.1659 20.6979 22.5657 24.3992 17.171 29.662ZM20.298 13.695C20.5448 13.8737 20.8043 14.0226 21.0723 14.129C21.9658 14.4864 22.94 14.3672 24.0462 13.7716C24.6971 13.4228 24.7737 13.0484 24.7992 12.925C24.8758 12.5549 24.7482 12.0826 24.4716 11.7295C24.2291 11.4189 23.9484 11.2573 23.6123 11.2232C22.9741 11.1679 22.1104 11.5721 21.2468 12.3421C20.8341 12.7123 20.5193 13.1675 20.298 13.695Z" fill="#F44336"/>
<path d="M24.561 30.3554L21.9189 30.2831C21.9189 30.2831 23.174 23.1952 27.237 22.004C27.9985 21.7827 28.8324 21.5573 29.6705 21.4339C30.1683 21.3573 30.9554 21.2424 31.3425 21.0978C31.4319 20.4298 31.1511 19.5789 30.8363 18.6132C30.5895 17.8644 30.3342 17.0944 30.1981 16.252C29.9343 14.6098 30.3725 13.159 31.4319 12.1592C32.7252 10.9467 34.8142 10.5595 37.1711 11.0956C38.5155 11.4019 39.5068 12.0613 40.379 12.64C41.6255 13.4696 42.353 13.8908 43.8761 12.8654C45.7183 11.6231 43.3103 6.76031 42.0297 3.95238L46.8074 1.9613C47.4498 3.36527 50.5513 10.5893 48.505 14.7119C47.8157 16.0988 46.6287 17.0178 45.0716 17.3624C41.6851 18.1197 39.7025 16.8008 38.256 15.8393C37.571 15.3841 36.9712 15.0267 36.3202 14.8395C31.7978 13.5504 38.1113 20.2043 35.1545 23.1952C33.3804 24.9863 29.0451 25.4586 28.7643 25.5267C25.9734 26.1989 24.561 30.3554 24.561 30.3554Z" fill="#F48FB1"/>
<path d="M16.571 14.8012C16.4902 15.7372 16.4519 16.2945 16.6944 17.5113C17.8644 18.3707 20.4128 18.3707 20.4128 18.3707C20.3022 18.0261 20.2043 17.7283 20.1618 17.5155C20.1533 17.4858 20.149 17.4517 20.1405 17.4219C17.5495 16.1286 16.571 14.8012 16.571 14.8012Z" fill="#C92B27"/>
<path d="M11.2699 18.9918L6.87085 16.8348L9.06189 13.6695L12.5122 15.9542L11.2699 18.9918Z" fill="#FFC107"/>
<path d="M4.78625 13.0186C2.5399 12.7165 0.251012 10.8105 0 10.5935L2.20806 8.00259C2.876 8.56843 4.29273 9.51718 5.24147 9.64481L4.78625 13.0186Z" fill="#FB8C00"/>
<path d="M8.75144 7.34741L5.51807 6.28805C5.8882 5.15637 5.98605 3.93535 5.7946 2.75687L9.15561 2.21655C9.43215 3.92684 9.29176 5.70094 8.75144 7.34741Z" fill="#03A9F4"/>
<path d="M28.9443 4.81812L32.2693 4.09078L33.2294 8.47968L29.9044 9.20702L28.9443 4.81812Z" fill="#FB8C00"/>
<path d="M37.1922 5.85836L34.8523 3.38652C36.0776 2.22506 36.3584 0.706227 36.3584 0.689209L39.7194 1.23803C39.6768 1.50606 39.2471 3.91408 37.1922 5.85836Z" fill="#FFC107"/>
<path d="M38.4927 18.9668L41.4652 18.0378L42.4805 21.2865L39.508 22.2155L38.4927 18.9668Z" fill="#FB8C00"/>
<path d="M39.3579 46.3862L35.9756 45.9862C36.1203 44.7822 35.2226 43.3059 34.9758 42.9783L37.6987 40.9362C37.9029 41.2042 39.677 43.6591 39.3579 46.3862Z" fill="#F44336"/>
<path d="M49.0664 42.0722C47.7943 41.8807 46.4925 41.8041 45.2076 41.8509L45.0928 38.4474C46.5861 38.3963 48.0964 38.4814 49.5727 38.7069L49.0664 42.0722Z" fill="#FB8C00"/>
<path d="M44.4902 46.7571L46.8816 44.3352L50.1724 47.5844L47.7811 50.0064L44.4902 46.7571Z" fill="#F48FB1"/>
<path d="M37.4641 25.2421L39.9231 28.0537L37.1115 30.5127L34.6525 27.7011L37.4641 25.2421Z" fill="#F44336"/>
<defs>
<linearGradient id="paint0_linear_14_1941" x1="29.502" y1="24.607" x2="16.8377" y2="32.2056" gradientUnits="userSpaceOnUse">
<stop offset="0.0235" stop-color="#8F4700"/>
<stop offset="1" stop-color="#703E2D"/>
</linearGradient>
</defs>
</svg>
