<svg width="106" height="109" viewBox="0 0 106 109" fill="none" xmlns="http://www.w3.org/2000/svg">
<path d="M52.7704 107.684C81.8352 106.981 105.365 105.08 105.325 103.437C105.285 101.795 81.6914 101.034 52.6265 101.737C23.5617 102.44 0.0321941 104.341 0.0719076 105.983C0.111621 107.625 23.7055 108.386 52.7704 107.684Z" fill="#F2C47F"/>
<path d="M47.586 47.2476C47.586 45.3586 46.0547 43.8273 44.1657 43.8273C42.2768 43.8273 40.7455 45.3586 40.7455 47.2476V100.782C40.7455 102.671 42.2768 104.202 44.1657 104.202C46.0547 104.202 47.586 102.671 47.586 100.782V47.2476Z" fill="#127D00" stroke="black" stroke-width="0.594824"/>
<path d="M64.5385 46.0579C64.5385 44.169 63.0072 42.6377 61.1182 42.6377C59.2293 42.6377 57.698 44.169 57.698 46.0579V100.782C57.698 102.671 59.2293 104.202 61.1182 104.202C63.0072 104.202 64.5385 102.671 64.5385 100.782V46.0579Z" fill="#127D00" stroke="black" stroke-width="0.594824"/>
<path d="M72.5686 20.9266C72.5686 9.92145 63.6471 1 52.6419 1C41.6368 1 32.7153 9.92145 32.7153 20.9266V76.8401C32.7153 87.8452 41.6368 96.7667 52.6419 96.7667C63.6471 96.7667 72.5686 87.8452 72.5686 76.8401V20.9266Z" fill="#127D00" stroke="black" stroke-width="0.594824"/>
<path d="M52.642 39.0688C59.705 39.0688 65.4307 33.3431 65.4307 26.2801C65.4307 19.217 59.705 13.4913 52.642 13.4913C45.579 13.4913 39.8533 19.217 39.8533 26.2801C39.8533 33.3431 45.579 39.0688 52.642 39.0688Z" fill="white" stroke="black" stroke-width="0.594824"/>
<path d="M52.642 33.7153C56.7484 33.7153 60.0773 30.3864 60.0773 26.28C60.0773 22.1736 56.7484 18.8447 52.642 18.8447C48.5356 18.8447 45.2067 22.1736 45.2067 26.28C45.2067 30.3864 48.5356 33.7153 52.642 33.7153Z" fill="#127D00" stroke="black" stroke-width="0.594824"/>
<path d="M52.6419 31.0386C55.27 31.0386 57.4005 28.9081 57.4005 26.28C57.4005 23.6519 55.27 21.5214 52.6419 21.5214C50.0138 21.5214 47.8833 23.6519 47.8833 26.28C47.8833 28.9081 50.0138 31.0386 52.6419 31.0386Z" fill="#010101"/>
<path d="M55.6161 25.9826C56.7659 25.9826 57.6979 25.0505 57.6979 23.9007C57.6979 22.7509 56.7659 21.8188 55.6161 21.8188C54.4663 21.8188 53.5342 22.7509 53.5342 23.9007C53.5342 25.0505 54.4663 25.9826 55.6161 25.9826Z" fill="white" stroke="black" stroke-width="0.594824"/>
<path d="M65.1847 50.9171C68.42 47.4341 65.1847 48.1571 65.1847 48.1571L55.2256 49.9802C55.3764 52.9543 61.9495 54.4001 65.1847 50.9171Z" fill="white" stroke="black" stroke-width="0.594824"/>
<path d="M36.2843 50.2217C36.8791 50.2217 47.7347 52.3036 69.8919 47.0989" stroke="black" stroke-width="0.594824"/>
<path d="M61.2669 8.4353C61.2669 9.91374 57.8514 9.92236 53.088 9.92236C48.3247 9.92236 44.017 9.91374 44.017 8.4353C44.017 6.95687 47.7299 5.46118 52.4932 5.46118C57.2566 5.46118 61.2669 6.95687 61.2669 8.4353Z" fill="#135808"/>
</svg>
