<svg width="106" height="90" viewBox="0 0 106 90" fill="none" xmlns="http://www.w3.org/2000/svg">
<path d="M52.7704 88.6693C81.8352 87.9664 105.365 86.0654 105.325 84.4233C105.285 82.7812 81.6914 82.0199 52.6265 82.7228C23.5617 83.4258 0.0321941 85.3268 0.0719076 86.9689C0.111621 88.6109 23.7055 89.3723 52.7704 88.6693Z" fill="#F2C47F"/>
<path d="M69.2968 56.3187C63.7946 32.0796 55.3187 47.6937 49.2217 66.4307C48.6269 49.0321 18.616 26.912 30.1874 17.6551C41.3403 8.73272 67.2152 7.98919 77.7733 17.6551C87.6331 26.6818 68.5532 35.2024 69.2968 56.3187Z" fill="url(#paint0_linear_96_64)" stroke="black" stroke-width="0.594824"/>
<path d="M38.7023 79.4939C41.5631 79.1947 44.1851 79.3163 46.1081 79.7491C47.0711 79.9659 47.8459 80.2576 48.3872 80.6038C48.9306 80.9518 49.206 81.3325 49.2467 81.7212C49.2875 82.1099 49.0965 82.5394 48.637 82.992C48.1793 83.4429 47.4816 83.8887 46.5843 84.3001C44.7924 85.1215 42.2525 85.7833 39.3917 86.0827C36.5306 86.3819 33.9089 86.2603 31.9855 85.8276C31.0228 85.6108 30.2477 85.319 29.7067 84.9728C29.1634 84.6248 28.888 84.2442 28.8472 83.8554C28.8065 83.4667 28.9971 83.0373 29.4569 82.5846C29.9146 82.1337 30.6124 81.6879 31.5094 81.2766C33.3016 80.4551 35.8412 79.7934 38.7023 79.4939Z" fill="#7C151B" stroke="black" stroke-width="0.452034"/>
<path d="M29.0177 84.3351C30.2606 83.657 32.9052 82.3011 33.5378 82.3011" stroke="black" stroke-width="0.452034"/>
<path d="M33.425 85.9174C33.9523 85.164 35.0973 83.5895 35.459 83.3183" stroke="black" stroke-width="0.452034"/>
<path d="M66.1588 78.8991C63.2977 78.5999 60.676 78.7215 58.7526 79.1543C57.7899 79.3711 57.0148 79.6628 56.4738 80.009C55.9305 80.357 55.655 80.7377 55.6143 81.1264C55.5736 81.5151 55.7642 81.9446 56.224 82.3973C56.6817 82.8481 57.3794 83.294 58.2764 83.7053C60.0686 84.5267 62.6083 85.1885 65.4694 85.488C68.3302 85.7872 70.9521 85.6655 72.8752 85.2328C73.8382 85.016 74.613 84.7242 75.1543 84.378C75.6977 84.03 75.9731 83.6494 76.0138 83.2606C76.0545 82.8719 75.8636 82.4425 75.4041 81.9898C74.9464 81.5389 74.2487 81.0931 73.3514 80.6818C71.5595 79.8603 69.0196 79.1986 66.1588 78.8991Z" fill="#7C151B" stroke="black" stroke-width="0.452034"/>
<path d="M75.8434 83.7404C74.6002 83.0623 71.956 81.7064 71.3231 81.7064" stroke="black" stroke-width="0.452034"/>
<path d="M71.4361 85.3226C70.9088 84.5692 69.7635 82.9948 69.4021 82.7235" stroke="black" stroke-width="0.452034"/>
<path d="M87.5252 48.9176C86.0158 52.3887 84.1787 55.3134 82.4379 57.2365C81.5662 58.1992 80.7302 58.8981 79.9834 59.2937C79.233 59.691 78.6186 59.7603 78.1469 59.5551C77.6752 59.3499 77.3067 58.8535 77.0854 58.0338C76.8653 57.2175 76.8064 56.1295 76.9162 54.8355C77.1354 52.2507 78.0214 48.9128 79.5307 45.4414C81.0401 41.97 82.8772 39.0456 84.618 37.1225C85.4897 36.1598 86.3257 35.4609 87.0728 35.0653C87.8229 34.6677 88.4373 34.5987 88.909 34.8039C89.3807 35.0088 89.7492 35.5055 89.9705 36.3251C90.1906 37.1412 90.2495 38.2295 90.1397 39.5235C89.9205 42.1083 89.0345 45.4462 87.5252 48.9176Z" fill="#D81925" stroke="black" stroke-width="0.594824"/>
<path d="M27.2609 45.9708C28.8131 49.4234 29.7404 52.75 29.9911 55.3321C30.1169 56.6247 30.0714 57.7132 29.8612 58.532C29.6503 59.3546 29.288 59.8555 28.8187 60.0663C28.3497 60.2772 27.7344 60.2159 26.9792 59.8278C26.2274 59.4415 25.3827 58.7526 24.4994 57.8009C22.7349 55.8993 20.8621 52.9977 19.3102 49.5451C17.758 46.0927 16.8309 42.7659 16.5799 40.184C16.4541 38.8915 16.4999 37.8026 16.7099 36.9839C16.9208 36.1615 17.2833 35.6604 17.7523 35.4495C18.2213 35.2387 18.8367 35.3002 19.5918 35.6883C20.3437 36.0747 21.1883 36.7632 22.0716 37.7152C23.8362 39.6166 25.709 42.5184 27.2609 45.9708Z" fill="#D81925" stroke="black" stroke-width="0.594824"/>
<path d="M80.45 1C74.9479 25.2391 31.9719 22.8598 25.8749 4.12283C25.2801 21.5214 26.3398 54.0898 29.7413 68.5125C33.4589 84.2754 69.5945 89.1827 77.7733 68.5125C82.6916 56.0825 79.7065 22.1163 80.45 1Z" fill="url(#paint1_linear_96_64)" stroke="black" stroke-width="0.594824"/>
<path d="M33.6076 48.7346C40.2994 51.5104 57.9062 55.3966 74.7992 48.7346" stroke="black" stroke-width="0.594824"/>
<path d="M59.9286 35.0552C59.9134 38.344 59.9185 41.3636 60.783 43.5377C61.2101 44.6122 61.8418 45.4628 62.7754 46.0359C63.7117 46.6105 64.9813 46.924 66.7155 46.8675C68.3215 46.8149 69.5148 46.4499 70.4091 45.8533C71.3013 45.2582 71.9199 44.4165 72.3497 43.3673C73.2181 41.2476 73.2969 38.3359 73.3121 35.0525C73.3267 31.839 72.4127 29.0043 71.1285 26.9801C69.8324 24.9366 68.2088 23.788 66.8336 23.788C65.3105 23.788 63.596 24.9479 62.2401 26.9855C60.8937 29.0088 59.9431 31.8425 59.9286 35.0552Z" fill="white" stroke="black" stroke-width="0.594824"/>
<path d="M61.305 40.0805C61.2839 44.6633 60.3747 46.504 66.8071 47.0988C72.2334 46.504 72.2123 44.7136 72.2334 40.1305C71.9737 35.4998 69.8249 31.8211 66.8071 31.8071C63.7893 31.7934 61.3258 35.4974 61.305 40.0805Z" fill="#161212"/>
<path d="M31.8784 33.8623C31.8632 37.1513 31.8683 40.1707 32.7329 42.345C33.1599 43.4193 33.7916 44.2702 34.7252 44.843C35.6615 45.4179 36.9311 45.7311 38.6653 45.6746C40.2714 45.6219 41.4646 45.257 42.3589 44.6607C43.2514 44.0653 43.8698 43.2236 44.2995 42.1746C45.168 40.0547 45.2468 37.1433 45.2619 33.8596C45.2765 30.6463 44.3626 27.8114 43.0783 25.7872C41.7822 23.744 40.1589 22.5951 38.7834 22.5951C37.2604 22.5951 35.5458 23.755 34.1899 25.7926C32.8435 27.8162 31.893 30.6496 31.8784 33.8623Z" fill="white" stroke="black" stroke-width="0.594824"/>
<path d="M33.2549 38.8876C33.2337 43.4707 32.3246 45.3114 38.757 45.9062C44.1833 45.3114 44.1622 43.5207 44.1833 38.9376C43.9236 34.3071 41.7748 30.6282 38.757 30.6145C35.7391 30.6005 33.2757 34.3045 33.2549 38.8876Z" fill="#161212"/>
<path d="M49.5191 43.0838C49.0233 43.5299 48.151 44.6006 48.6269 45.3144C49.2217 46.2066 56.3596 46.3553 56.5083 45.3144C56.6273 44.4816 56.1612 43.4803 55.9135 43.0838" stroke="black" stroke-width="0.594824"/>
<path d="M79.0379 17.6179C79.0379 27.9158 78.4883 36.0179 78.2194 36.0946C77.1139 36.4105 76.7323 32.5257 75.8401 21.5214C74.0812 15.3617 75.2822 14.8942 75.6176 14.1976C79.0379 7.09692 78.9629 8.73269 79.0379 17.6179Z" fill="#8D080F"/>
<path d="M87.0436 37.863C85.7775 41.0519 85.5244 39.4066 85.2924 39.566C84.3375 40.2212 83.3004 43.6417 83.9139 40.6843C83.2135 39.6636 84.3719 38.2369 84.7624 37.8791C88.3314 34.6075 88.0738 35.1494 87.0436 37.863Z" fill="#8D080F"/>
<path d="M57.46 39.8596C57.46 39.3409 55.3163 38.9203 52.6717 38.9203C50.0271 38.9203 47.8834 39.3409 47.8834 39.8596C47.8834 40.3783 50.0271 40.281 52.6717 40.281C55.3163 40.281 57.46 40.3783 57.46 39.8596Z" fill="#9C0D16"/>
<path d="M54.7238 36.1419C54.7238 35.6229 53.6519 35.2024 52.3297 35.2024C51.0074 35.2024 49.9355 35.6229 49.9355 36.1419C49.9355 36.6606 51.0074 36.5633 52.3297 36.5633C53.6519 36.5633 54.7238 36.6606 54.7238 36.1419Z" fill="#9C0D16"/>
<path d="M59.5419 76.8228C59.5419 77.3415 57.3981 77.7621 54.7535 77.7621C52.109 77.7621 49.9652 77.3415 49.9652 76.8228C49.9652 76.3038 52.109 76.4011 54.7535 76.4011C57.3981 76.4011 59.5419 76.3038 59.5419 76.8228Z" fill="#890B13"/>
<path d="M57.6566 55.4389C61.7805 51.627 57.8782 52.5234 57.8782 52.5234L52.8918 52.6486L48.1213 52.356C47.8123 55.3176 53.5324 59.2506 57.6566 55.4389Z" fill="white" stroke="black" stroke-width="0.594824"/>
<defs>
<linearGradient id="paint0_linear_96_64" x1="52.7607" y1="92.0509" x2="52.7607" y2="10.8146" gradientUnits="userSpaceOnUse">
<stop stop-color="#D81925"/>
<stop offset="1" stop-color="#99121B"/>
</linearGradient>
<linearGradient id="paint1_linear_96_64" x1="53.1988" y1="1" x2="53.1988" y2="82.2363" gradientUnits="userSpaceOnUse">
<stop stop-color="#D81925"/>
<stop offset="1" stop-color="#99121B"/>
</linearGradient>
</defs>
</svg>
