<svg width="101" height="103" viewBox="0 0 101 103" fill="none" xmlns="http://www.w3.org/2000/svg">
<path d="M22.0259 29.4346C22.0259 29.4346 17.6137 30.8753 16.727 34.976C15.8403 39.0766 24.8878 51.8009 24.8878 51.8009L56.0713 37.3798L47.5511 20.0458L22.0259 29.4346Z" fill="#C7DCF9"/>
<path d="M28.4612 33.7555C28.4612 33.7555 25.0852 36.8226 23.8902 40.3715C22.6951 43.9204 22.1755 50.3569 22.1901 52.7805C26.6606 57.4556 45.616 54.9268 45.616 54.9268L64.9649 34.7978C64.9649 34.7978 62.2603 28.8012 60.8043 27.1135C59.3483 25.4259 54.4343 23.1375 48.4819 25.1199C44.7763 29.7502 28.4612 33.7555 28.4612 33.7555Z" fill="#E1ECFF"/>
<path d="M26.9403 35.3552C26.9403 35.3552 33.8107 38.0328 41.8857 35.4681C49.9607 32.9033 51.9148 24.4078 51.9148 24.4078L48.4781 25.1209L28.4613 33.7555L26.9403 35.3552Z" fill="#E1ECFF"/>
<path d="M53.8586 63.4279C53.8586 63.4279 62.7155 64.0268 65.1663 64.8152C67.6172 65.6035 73.2948 80.9209 75.9342 82.5156C78.5735 84.1103 81.0347 81.8801 84.1466 80.3026C87.2584 78.7252 90.1421 76.7624 90.2826 75.8782C90.4232 74.994 89.3647 71.362 88.3049 70.5773C87.2452 69.7927 84.044 69.546 82.2678 70.5362C80.175 63.5406 77.2147 53.3443 74.0247 51.7706C70.8347 50.1968 60.9525 48.9362 60.9525 48.9362L53.8586 63.4279Z" fill="#E1ECFF"/>
<mask id="mask0_16_2074" style="mask-type:luminance" maskUnits="userSpaceOnUse" x="53" y="48" width="38" height="36">
<path d="M53.8586 63.4279C53.8586 63.4279 62.7155 64.0268 65.1663 64.8152C67.6172 65.6035 73.2948 80.9209 75.9342 82.5156C78.5735 84.1103 81.0347 81.8801 84.1466 80.3026C87.2584 78.7252 90.1421 76.7624 90.2826 75.8782C90.4232 74.994 89.3647 71.362 88.3049 70.5773C87.2452 69.7927 84.044 69.546 82.2678 70.5362C80.175 63.5406 77.2147 53.3443 74.0247 51.7706C70.8347 50.1968 60.9525 48.9362 60.9525 48.9362L53.8586 63.4279Z" fill="white"/>
</mask>
<g mask="url(#mask0_16_2074)">
<path opacity="0.51" d="M63.5783 57.4676C63.5783 57.4676 70.7445 58.6983 72.5734 61.505C74.4022 64.3118 77.3468 80.9818 81.7437 81.6411C81.4891 86.967 72.216 88.3291 72.216 88.3291L51.7611 62.6014L63.5783 57.4676Z" fill="#E1ECFF"/>
</g>
<path d="M30.1359 60.6263C30.1359 60.6263 34.8852 72.387 39.636 75.8061C44.3869 79.2253 53.3552 79.5207 55.6998 81.7129C58.0444 83.9052 56.9226 93.6789 59.232 96.4273C61.5413 99.1757 64.9169 100.979 68.181 100.885C71.445 100.791 74.1377 99.3929 74.26 97.934C74.3823 96.4751 74.3293 95.2001 72.8514 94.3275C71.3736 93.455 69.2644 92.6749 69.2274 91.7607C69.1905 90.8466 68.3107 76.9101 67.8248 73.107C67.3388 69.3039 62.0989 63.7348 55.0949 60.6623C48.6574 54.5659 38.0871 56.3625 38.0871 56.3625L30.1359 60.6263Z" fill="#E1ECFF"/>
<path d="M31.5339 63.7806C31.5339 63.7806 37.7673 64.4824 43.5337 62.3589C42.81 56.5789 39.6024 54.6887 39.6024 54.6887L30.1359 60.6263L31.5339 63.7806Z" fill="#E1ECFF"/>
<path d="M43.8364 4.63357C39.0996 1.71255 28.8907 0.200441 22.0749 7.66987C15.2592 15.1393 17.9183 23.4808 20.3483 27.4371C22.8923 31.5886 32.1015 38.259 42.6773 33.1701C53.2531 28.0812 55.3295 11.7234 43.8364 4.63357Z" fill="#E1ECFF"/>
<path d="M42.7 9.38665C46.9862 10.6917 49.4384 16.9678 47.6201 22.722C45.8018 28.4763 40.5288 32.0975 34.8784 31.7837C29.228 31.4699 23.8471 27.2695 24.3186 20.0594C24.7729 13.1306 33.3922 6.55359 42.7 9.38665Z" fill="#1C3177"/>
<path d="M27.3758 54.2665C33.2041 51.9828 29.332 45.7177 35.0652 44.6974C42.4494 46.2122 44.5328 45.9581 44.5328 45.9581C44.5328 45.9581 29.5169 57.6023 27.3758 54.2665Z" fill="#E1ECFF"/>
<path d="M33.0805 38.4918L41.028 63.3388L54.3906 63.8369L67.0698 56.8571L71.3814 46.041L64.1716 19.0097L59.1267 31.1493L47.4836 39.3002L33.0805 38.4918Z" fill="#FF97C9"/>
<path d="M27.376 54.2665C30.5185 54.2043 32.2357 52.2656 33.2387 51.4202C33.7497 50.9885 33.6781 50.5784 33.5162 49.2332C33.3543 47.8879 34.2816 46.5749 35.4703 46.0613C35.9996 47.8042 36.7578 48.1749 37.3633 48.1318C37.9688 48.0887 38.8053 44.5382 40.7672 44.69C42.7292 44.8418 44.1452 47.5368 44.3281 48.8503C44.511 50.1638 43.0164 53.7873 41.2661 56.2873C39.5158 58.7874 37.074 61.8659 31.9582 62.5628C26.8425 63.2597 24.1267 60.503 22.6702 57.139C22.1788 56.0038 22.0704 54.4698 22.1918 52.7756C22.1918 52.7756 23.2319 54.3386 27.376 54.2665Z" fill="#E1ECFF"/>
<path d="M66.6545 28.3197C66.6545 28.3197 67.1366 30.314 66.6845 31.052C66.2324 31.79 65.6414 32.3872 65.1762 33.3392C64.711 34.2913 65.0864 38.0101 66.8329 38.7515C68.5795 39.493 70.1581 37.9286 70.688 36.9995C71.218 36.0705 71.1108 33.5394 70.5199 31.7431C69.929 29.9469 68.7117 28.3081 66.6545 28.3197Z" fill="#E1ECFF"/>
<path d="M70.1948 4.12312L70.5456 4.95851C70.5666 5.00911 70.5996 5.05383 70.6418 5.08877C70.684 5.12371 70.7341 5.14782 70.7877 5.159L71.6757 5.34049C71.7378 5.35329 71.7951 5.38323 71.841 5.42693C71.8869 5.47062 71.9196 5.52632 71.9355 5.58768C71.9513 5.64905 71.9496 5.71363 71.9306 5.77409C71.9116 5.83455 71.876 5.88847 71.8279 5.92973L71.1417 6.52365C71.1 6.55939 71.0677 6.60476 71.0475 6.65583C71.0273 6.7069 71.0199 6.76212 71.0259 6.8167L71.1237 7.71293C71.1306 7.77579 71.1198 7.83933 71.0926 7.89638C71.0653 7.95344 71.0226 8.00172 70.9693 8.03578C70.916 8.06983 70.8543 8.08829 70.791 8.08908C70.7278 8.08987 70.6656 8.07295 70.6115 8.04024L69.8352 7.57053C69.7883 7.54194 69.7352 7.52525 69.6804 7.5219C69.6257 7.51855 69.5709 7.52865 69.5209 7.55131L68.6932 7.92291C68.6354 7.94914 68.5714 7.95862 68.5086 7.95029C68.4457 7.94196 68.3864 7.91615 68.3374 7.87579C68.2885 7.83543 68.2519 7.78214 68.2317 7.72199C68.2116 7.66184 68.2087 7.59724 68.2234 7.53554L68.431 6.65799C68.4436 6.60454 68.4429 6.54883 68.4291 6.49568C68.4153 6.44254 68.3887 6.39356 68.3517 6.353L67.743 5.67988C67.7003 5.63307 67.6715 5.57522 67.66 5.51289C67.6485 5.45056 67.6547 5.38626 67.6779 5.32728C67.7012 5.2683 67.7404 5.21702 67.7913 5.17924C67.8422 5.14147 67.9027 5.11872 67.9659 5.11358L68.8694 5.04167C68.924 5.03711 68.9766 5.01928 69.0228 4.98974C69.0689 4.96021 69.1071 4.91985 69.1341 4.87218L69.5841 4.08576C69.6155 4.03019 69.6618 3.98456 69.7179 3.95408C69.774 3.92361 69.8375 3.90951 69.9011 3.91341C69.9648 3.9173 70.0262 3.93903 70.0781 3.97611C70.13 4.0132 70.1705 4.06414 70.1948 4.12312Z" fill="#FEC272"/>
<path d="M22.0797 87.3166L22.3738 88.0175C22.3913 88.0601 22.419 88.0976 22.4545 88.1268C22.49 88.1561 22.5322 88.1761 22.5772 88.1851L23.3219 88.3401C23.3738 88.3509 23.4217 88.3761 23.46 88.4127C23.4984 88.4493 23.5257 88.4959 23.539 88.5473C23.5523 88.5986 23.5509 88.6526 23.5351 88.7032C23.5192 88.7539 23.4896 88.799 23.4494 88.8337L22.8735 89.33C22.8381 89.3603 22.8108 89.3988 22.7939 89.4421C22.7771 89.4855 22.7712 89.5323 22.7769 89.5785L22.8579 90.3338C22.8634 90.3865 22.8541 90.4397 22.8311 90.4874C22.8081 90.5351 22.7723 90.5755 22.7277 90.6041C22.683 90.6326 22.6314 90.6482 22.5784 90.6491C22.5254 90.6499 22.4732 90.636 22.4277 90.6089L21.7778 90.2143C21.7384 90.1906 21.6939 90.1768 21.648 90.174C21.6021 90.1712 21.5562 90.1795 21.5143 90.1982L20.8238 90.5083C20.7753 90.5301 20.7217 90.538 20.669 90.5309C20.6163 90.5238 20.5666 90.502 20.5256 90.4681C20.4847 90.4342 20.454 90.3895 20.4372 90.3391C20.4203 90.2887 20.418 90.2345 20.4304 90.1828L20.6028 89.443C20.6134 89.3977 20.6129 89.3505 20.6013 89.3055C20.5896 89.2605 20.5672 89.219 20.5359 89.1845L20.026 88.6217C19.9904 88.5825 19.9665 88.534 19.9569 88.4818C19.9474 88.4297 19.9526 88.3759 19.9721 88.3265C19.9915 88.2772 20.0243 88.2343 20.0668 88.2026C20.1094 88.1709 20.1599 88.1518 20.2128 88.1473L20.9695 88.0843C21.0155 88.0807 21.0599 88.0659 21.0989 88.0412C21.1378 88.0166 21.1702 87.9828 21.1931 87.9428L21.5705 87.2829C21.597 87.2369 21.6359 87.1992 21.6828 87.1742C21.7296 87.1492 21.7826 87.1377 21.8356 87.1413C21.8886 87.1448 21.9395 87.163 21.9827 87.194C22.0258 87.225 22.0594 87.2675 22.0797 87.3166Z" fill="#FEC272"/>
<path opacity="0.48" d="M38.4575 16.4397C41.6178 15.9431 44.0372 14.6344 43.8616 13.5166C43.6859 12.3988 40.9817 11.8951 37.8215 12.3917C34.6612 12.8883 32.2418 14.197 32.4174 15.3148C32.593 16.4326 35.2973 16.9363 38.4575 16.4397Z" fill="white"/>
<path d="M43.3832 52.4451C43.3832 52.4451 39.9923 49.0201 39.3423 48.9803C38.6923 48.9406 36.8066 51.3688 37.1557 52.0642C37.5049 52.7596 39.3749 55.0818 41.5343 55.893C42.3309 54.5758 43.3832 52.4451 43.3832 52.4451Z" fill="#E1ECFF"/>
<path opacity="0.5" d="M47.4836 39.3002L54.3906 63.8369L67.0698 56.8571L59.1267 31.1493L47.4836 39.3002Z" fill="#FF97C9"/>
<path d="M68.2625 77.7401C66.9434 78.7035 65.4813 79.4539 63.9296 79.964C62.4757 80.4245 61.927 81.5152 62.2309 83.5966C62.5347 85.678 62.5794 88.8971 63.4148 89.7952C64.2501 90.6932 67.3285 90.4313 69.0298 88.5667C68.7707 84.6719 68.2625 77.7401 68.2625 77.7401Z" fill="#E1ECFF"/>
<path d="M77.8114 57.2928C77.8114 57.2928 75.9903 57.9572 76.0834 59.2003C76.1766 60.4435 77.624 66.5132 78.3057 67.0941C78.9875 67.675 81.1604 66.8516 81.1604 66.8516C79.365 60.566 77.8114 57.2928 77.8114 57.2928Z" fill="#E1ECFF"/>
<path d="M2.08267 66.9736C0.85131 63.963 5.63827 61.1145 9.53456 61.5792C13.4309 62.0439 14.8534 65.7542 16.1559 67.1858C18.8767 70.173 18.6173 72.9169 16.5418 73.9765C14.4663 75.0361 3.71242 70.956 2.08267 66.9736Z" fill="#99ADF9"/>
<path d="M83.7343 26.4952C82.655 25.427 84.1153 20.8056 86.8762 19.8719C89.6372 18.9381 92.9087 20.3439 93.5081 22.2704C94.1076 24.1969 85.9469 28.6832 83.7343 26.4952Z" fill="#99ADF9"/>
<path d="M96.7806 29.8138C96.1455 30.6105 95.6116 32.9573 96.8186 33.4547C98.0256 33.952 99.1073 31.57 98.7517 30.2739C98.396 28.9778 97.2048 29.2814 96.7806 29.8138Z" fill="#99ADF9"/>
<path opacity="0.44" d="M98.8441 10.6306C97.8978 11.0077 96.2672 12.7774 97.0689 13.8096C97.8706 14.8417 99.9902 13.3104 100.325 12.0095C100.661 10.7086 99.4763 10.3793 98.8441 10.6306Z" fill="#99ADF9"/>
<path opacity="0.44" d="M7.79948 79.6735C7.04252 78.9913 4.73524 78.3097 4.16233 79.4841C3.58942 80.6585 5.90059 81.8796 7.21167 81.6113C8.52275 81.3431 8.30322 80.1291 7.79948 79.6735Z" fill="#99ADF9"/>
<path opacity="0.64" d="M15.5118 66.3413C14.0803 66.5208 14.2309 67.8006 14.6144 68.975C14.9979 70.1494 16.5743 70.5739 17.7648 69.595C17.1402 67.8106 15.5118 66.3413 15.5118 66.3413Z" fill="#99ADF9"/>
<path opacity="0.64" d="M7.49288 63.9343C6.47236 63.9851 5.55651 65.4018 6.19835 66.6352C6.84019 67.8687 8.14925 68.8186 8.94832 68.5419C9.74739 68.2652 9.98515 66.5196 9.4914 65.3601C8.99765 64.2006 8.4739 63.8849 7.49288 63.9343Z" fill="#99ADF9"/>
<path opacity="0.64" d="M90.405 21.1026C89.838 21.246 89.2373 21.8133 89.247 22.4663C89.2566 23.1194 89.7896 23.7217 90.4101 23.6821C91.0306 23.6424 91.616 22.6799 91.533 21.9575C91.45 21.2352 90.8377 20.9943 90.405 21.1026Z" fill="#99ADF9"/>
<path opacity="0.64" d="M84.4371 22.0094C84.4371 22.0094 85.1508 22.8161 84.9713 23.6712C84.7919 24.5263 83.4866 24.3663 83.4866 24.3663C83.4866 24.3663 83.7717 22.9072 84.4371 22.0094Z" fill="#99ADF9"/>
</svg>
