<svg width="106" height="96" viewBox="0 0 106 96" fill="none" xmlns="http://www.w3.org/2000/svg">
<path d="M22.4546 12.7954C12.4616 29.3315 4.01506 78.0774 4.01506 78.0774C4.01506 78.0774 -0.202805 93.0997 2.67671 89.0816C15.4654 71.2369 11.153 77.0364 15.4654 70.9395C19.7779 64.8425 19.0344 74.211 27.5106 82.836C35.9869 91.4609 32.1205 73.1701 38.2175 69.3037C44.3144 65.4373 49.8165 71.3856 59.185 77.0364C68.5535 82.6872 66.0255 70.0472 69.297 65.8835C72.5685 61.7197 79.8551 63.2068 84.1676 65.8835L84.2161 65.9135C88.5333 68.5935 95.6492 73.0104 103.946 70.0472C112.273 67.0731 78.3681 45.2133 68.2561 22.9074C58.1441 0.601519 34.9459 -7.87469 22.4546 12.7954Z" fill="url(#paint0_linear_96_261)" stroke="black" stroke-width="0.594824"/>
<path d="M58.8715 29.0546C58.2621 32.2149 56.864 34.8993 55.1122 36.6868C53.3584 38.4763 51.2789 39.3427 49.2827 38.9578C47.3037 38.5763 45.4862 36.6092 44.3111 33.8596C43.1435 31.1267 42.6507 27.7053 43.2574 24.5595C43.876 21.3516 44.7822 17.2821 46.0575 14.1216C46.6961 12.539 47.4179 11.2093 48.2245 10.3295C49.0272 9.45456 49.8772 9.06019 50.8013 9.23834C51.7485 9.42095 52.8183 10.3025 53.8848 11.7191C54.94 13.1205 55.9501 14.9897 56.7935 17.0418C58.4858 21.1598 59.4738 25.9303 58.8715 29.0546Z" fill="white" stroke="black" stroke-width="0.594824"/>
<path d="M48.1385 38.3943C51.1017 38.9657 54.2074 35.7809 55.0752 31.2807C55.9429 26.7806 54.2443 22.6693 51.281 22.0979C48.3178 21.5265 45.2122 24.7113 44.3444 29.2115C43.4766 33.7116 45.1753 37.8229 48.1385 38.3943Z" fill="#161212"/>
<path d="M21.8854 30.2443C22.4948 33.4046 23.8929 36.089 25.6447 37.8765C27.3985 39.666 29.478 40.5324 31.4742 40.1475C33.4532 39.766 35.2707 37.7989 36.4458 35.0493C37.6134 32.3164 38.1062 28.8949 37.4995 25.7492C36.8809 22.5413 35.9747 18.4718 34.6994 15.3112C34.0608 13.7287 33.339 12.399 32.5324 11.5192C31.7297 10.6443 30.8797 10.2499 29.9556 10.428C29.0084 10.6106 27.9386 11.4922 26.8721 12.9088C25.8169 14.3102 24.8068 16.1794 23.9634 18.2315C22.2711 22.3495 21.2828 27.12 21.8854 30.2443Z" fill="white" stroke="black" stroke-width="0.594824"/>
<path d="M32.6187 39.5839C29.6555 40.1553 26.5498 36.9704 25.6821 32.4703C24.8143 27.9702 26.5129 23.8589 29.4762 23.2874C32.4394 22.716 35.545 25.9009 36.4128 30.401C37.2806 34.9012 35.5819 39.0125 32.6187 39.5839Z" fill="#161212"/>
<path d="M52.7704 94.1989C81.8352 93.496 105.365 91.5949 105.325 89.9529C105.285 88.3108 81.6914 87.5495 52.6265 88.2524C23.5617 88.9553 0.0321941 90.8563 0.0719076 92.4984C0.111621 94.1405 23.7055 94.9018 52.7704 94.1989Z" fill="#F2C47F"/>
<path d="M52.9909 51.1134C56.2261 47.6304 52.9909 48.3534 52.9909 48.3534L43.0317 50.1766C43.1825 53.1507 49.7556 54.5964 52.9909 51.1134Z" fill="white" stroke="black" stroke-width="0.594824"/>
<path d="M24.0904 50.4181C24.6852 50.4181 35.5408 52.4999 57.698 47.2952" stroke="black" stroke-width="0.594824"/>
<defs>
<linearGradient id="paint0_linear_96_261" x1="53.4598" y1="1.00005" x2="53.4598" y2="89.7645" gradientUnits="userSpaceOnUse">
<stop stop-color="#9E05E7"/>
<stop offset="1" stop-color="#FF9800"/>
</linearGradient>
</defs>
</svg>
