<svg width="106" height="76" viewBox="0 0 106 76" fill="none" xmlns="http://www.w3.org/2000/svg">
<path d="M52.7704 74.1253C81.8352 73.4223 105.365 71.5213 105.325 69.8793C105.285 68.2372 81.6914 67.4758 52.6265 68.1788C23.5617 68.8817 0.0321941 70.7827 0.0719076 72.4248C0.111621 74.0669 23.7055 74.8282 52.7704 74.1253Z" fill="#F2C47F"/>
<path d="M55.6824 20.4162L35.161 24.1338C36.4601 22.2747 35.6601 7.62212 38.73 3.01759C40.217 0.786998 43.0424 0.786998 44.2321 1.23312C48.8687 2.97208 55.7553 16.5213 55.6824 20.4162Z" fill="#00485F" stroke="#030303" stroke-width="0.594824"/>
<path d="M51.8996 14.4555C51.4464 14.8308 47.5973 15.4414 45.7295 15.6998C45.703 15.2668 45.8797 14.2562 46.7963 13.6789C47.942 12.9574 50.3257 13.03 51.2016 12.7593C52.0775 12.4887 52.4659 13.9864 51.8996 14.4555Z" fill="#13718F"/>
<path d="M50.4126 11.7788C49.9593 12.1541 46.1102 12.7647 44.2424 13.0231C44.216 12.5901 44.3926 11.5795 45.3093 11.0022C46.4549 10.2807 48.8387 10.3533 49.7145 10.0826C50.5904 9.81197 50.9788 11.3097 50.4126 11.7788Z" fill="#13718F"/>
<path d="M48.628 8.80464C48.1748 9.17997 44.3256 9.79056 42.4579 10.049C42.4314 9.61598 42.6081 8.60538 43.5247 8.0281C44.6703 7.30658 47.0541 7.37914 47.93 7.1085C48.8059 6.83785 49.1943 8.33562 48.628 8.80464Z" fill="#13718F"/>
<path d="M46.5705 5.87157C46.2 6.1901 43.3701 6.34118 42.0011 6.37717C42.0359 5.94444 42.2866 4.96357 43.0138 4.49931C43.9227 3.91906 45.62 4.27239 46.28 4.10733C46.9402 3.94256 47.0336 5.47334 46.5705 5.87157Z" fill="#13718F"/>
<path d="M44.172 3.12671C43.8936 3.45268 41.8159 3.66414 40.8115 3.72898C40.8463 3.29654 41.0509 2.31181 41.594 1.83297C42.2727 1.23428 43.2604 1.60664 43.8552 1.83297C44.3406 2.01767 44.52 2.71926 44.172 3.12671Z" fill="#13718F"/>
<path d="M82.6705 32.6645C84.2244 36.2076 85.1098 39.6296 85.2927 42.2924C85.384 43.6248 85.2984 44.7505 85.0441 45.6005C84.7892 46.4523 84.3791 46.9876 83.8494 47.2199C83.3197 47.4522 82.6482 47.3915 81.849 47.0019C81.0514 46.6132 80.1654 45.9139 79.2467 44.9438C77.4119 43.0058 75.4939 40.0365 73.9402 36.4937C72.3862 32.9506 71.5009 29.5286 71.3179 26.8659C71.2266 25.5332 71.3123 24.4078 71.5666 23.5575C71.8212 22.706 72.2316 22.1703 72.7613 21.9381C73.291 21.7058 73.9625 21.7668 74.7617 22.1561C75.5593 22.5451 76.4453 23.2443 77.3637 24.2142C79.1988 26.1521 81.1168 29.1215 82.6705 32.6645Z" fill="#1A9DC7" stroke="black" stroke-width="0.594824"/>
<path d="M18.5645 41.042C16.2286 43.8549 14.5554 46.7508 13.7328 49.1513C13.3211 50.3522 13.1278 51.4137 13.1608 52.2705C13.1939 53.1273 13.4502 53.7451 13.9005 54.1189C14.3505 54.4925 15.0045 54.6314 15.853 54.5065C16.7012 54.3815 17.7092 53.9967 18.8143 53.3715C21.0226 52.1221 23.5622 49.9456 25.8984 47.1327C28.2346 44.3201 29.9075 41.4239 30.7302 39.0238C31.1418 37.8225 31.3351 36.7611 31.3021 35.9045C31.2694 35.0474 31.0127 34.43 30.5627 34.0561C30.1124 33.6823 29.4584 33.5437 28.6099 33.6686C27.7617 33.7935 26.7538 34.1783 25.6486 34.8035C23.4403 36.0529 20.9007 38.2291 18.5645 41.042Z" fill="#1A9DC7" stroke="black" stroke-width="0.594824"/>
<path d="M70.6723 63.8113C67.8111 63.5118 65.1895 63.6338 63.2664 64.0665C62.3034 64.283 61.5283 64.5748 60.9873 64.9213C60.444 65.269 60.1686 65.6496 60.1278 66.0384C59.9616 67.6271 60.1442 68.7273 60.5713 69.4934C60.9945 70.2524 61.6755 70.7158 62.5803 70.9953C63.4918 71.2767 64.6158 71.3668 65.8982 71.3837C66.6114 71.3933 67.3567 71.3805 68.1347 71.3671C68.7653 71.3564 69.4175 71.3451 70.0917 71.3451C70.8019 71.3451 71.4875 71.3534 72.1462 71.3611C74.2674 71.3867 76.1086 71.4087 77.5901 71.142C78.5537 70.9686 79.3397 70.6759 79.9372 70.1989C80.5303 69.7257 80.955 69.0568 81.1742 68.0962C81.4237 67.0038 81.245 66.2659 80.7994 65.7412C80.3423 65.2026 79.5702 64.846 78.5424 64.6022C77.519 64.3595 76.2803 64.2366 74.9261 64.1373C74.5392 64.1088 74.1431 64.0823 73.7404 64.0555C72.7405 63.9886 71.7016 63.919 70.6723 63.8113Z" fill="#075169" stroke="black" stroke-width="0.452034"/>
<path d="M81.1289 68.2811C79.7314 68.0539 76.787 67.6515 76.1898 67.8614" stroke="black" stroke-width="0.452034"/>
<path d="M79.2484 70.5519C78.4153 70.1623 76.6371 69.3694 76.1886 69.3149" stroke="black" stroke-width="0.452034"/>
<path d="M37.4968 63.8113C40.358 63.5118 42.9796 63.6338 44.903 64.0665C45.8657 64.283 46.6408 64.5748 47.1818 64.9213C47.7252 65.269 48.0009 65.6496 48.0413 66.0384C48.2076 67.6271 48.0249 68.7273 47.5979 69.4934C47.1749 70.2524 46.4939 70.7158 45.5888 70.9953C44.6773 71.2767 43.5533 71.3668 42.2709 71.3837C41.5577 71.3933 40.8124 71.3805 40.0344 71.3671C39.4039 71.3564 38.7516 71.3451 38.0777 71.3451C37.3675 71.3451 36.6816 71.3534 36.0229 71.3611C33.9017 71.3867 32.0605 71.4087 30.5793 71.142C29.6154 70.9686 28.8294 70.6759 28.2319 70.1989C27.6388 69.7257 27.2141 69.0568 26.9949 68.0962C26.7454 67.0038 26.9244 66.2659 27.3697 65.7412C27.8271 65.2026 28.5992 64.846 29.6267 64.6022C30.6501 64.3595 31.8888 64.2366 33.243 64.1373C33.6299 64.1088 34.0264 64.0823 34.4287 64.0555C35.4286 63.9886 36.4675 63.919 37.4968 63.8113Z" fill="#075169" stroke="black" stroke-width="0.452034"/>
<path d="M27.0402 68.2811C28.4377 68.0539 31.3824 67.6515 31.9793 67.8614" stroke="black" stroke-width="0.452034"/>
<path d="M28.9207 70.5519C29.7537 70.1623 31.5319 69.3694 31.9807 69.3149" stroke="black" stroke-width="0.452034"/>
<path d="M73.8039 5.09949C65.4764 -0.70005 20.2939 10.5326 18.634 16.5499C13.8754 33.7998 33.0781 70.0757 54.9183 67.4073C87.782 63.3923 77.6974 7.81099 73.8039 5.09949Z" fill="url(#paint0_linear_96_38)" stroke="black" stroke-width="0.594824"/>
<path d="M71.2757 28.2977C61.2827 28.8925 54.8187 29.9334 52.8362 30.3795C52.8362 22.3494 56.1375 12.3861 61.6098 12.3861C67.0822 12.3861 71.2757 22.8946 71.2757 28.2977Z" fill="white" stroke="black" stroke-width="0.594824"/>
<path d="M46.2095 32.5563C36.4383 34.7327 30.2221 36.7884 28.3357 37.5442C27.0586 29.6164 28.7336 19.2548 34.1361 18.3846C39.5389 17.5141 45.3503 27.2222 46.2095 32.5563Z" fill="white" stroke="black" stroke-width="0.594824"/>
<path d="M37.222 46.1424C41.4352 48.8191 54.3232 46.0234 65.6249 34.8407C63.4934 50.4052 53.5202 78.7387 37.222 46.1424Z" fill="#D0F4FF" stroke="black" stroke-width="0.594824"/>
<path d="M33.8018 35.7329L45.9957 32.6101C46.4715 30.4687 43.1206 25.2738 41.3858 22.9442C39.4029 22.9939 35.0509 23.9554 33.5044 27.4054C31.9578 30.8554 33.0582 34.3946 33.8018 35.7329Z" fill="black" stroke="black" stroke-width="0.297412"/>
<path d="M55.2155 19.2266C53.9068 19.8214 53.1829 26.7116 52.9849 30.0821L67.7068 28.4464C67.4094 25.6209 66.9632 24.1339 66.5171 22.3494C64.995 16.2611 56.8512 18.4831 55.2155 19.2266Z" fill="#0B0B0B" stroke="black" stroke-width="0.297412"/>
<path d="M82.7308 35.1634C81.388 30.3516 80.88 33.312 80.0166 33.5532C79.1529 33.7941 79.8524 33.3242 81.1953 38.136C82.5381 42.9478 82.3986 42.384 82.9791 42.2219C83.8428 41.9807 84.0736 39.9752 82.7308 35.1634Z" fill="#207A96"/>
<path d="M51.3535 30.7884C51.0757 31.0531 48.6441 31.5489 47.4631 31.7639C47.4342 31.4704 47.4631 30.7884 47.5859 30.3242C47.6252 30.1755 50.3126 29.8534 50.8622 29.6511C51.4115 29.4489 51.7006 30.458 51.3535 30.7884Z" fill="#136079"/>
<path d="M56.3596 48.4663C59.4824 39.5439 55.0212 43.1129 55.0212 43.1129L50.8574 45.0461L46.2006 46.4772C46.8891 49.3743 53.2367 57.3887 56.3596 48.4663Z" fill="white" stroke="black" stroke-width="0.594824"/>
<defs>
<linearGradient id="paint0_linear_96_38" x1="48.1287" y1="3.48484" x2="48.1287" y2="67.5468" gradientUnits="userSpaceOnUse">
<stop stop-color="#1A9DC7"/>
<stop offset="1" stop-color="#0A5E79"/>
</linearGradient>
</defs>
</svg>
