<svg width="106" height="81" viewBox="0 0 106 81" fill="none" xmlns="http://www.w3.org/2000/svg">
<path d="M52.7704 78.7718C81.8352 78.0689 105.365 76.1679 105.325 74.5258C105.285 72.8837 81.6914 72.1224 52.6265 72.8253C23.5617 73.5282 0.0321941 75.4293 0.0719076 77.0713C0.111621 78.7134 23.7055 79.4747 52.7704 78.7718Z" fill="#F2C47F"/>
<path d="M48.4372 15.482L33.9826 21.6794C33.9181 19.4123 27.8988 13.2228 28.1941 7.6969C28.3901 4.02327 30.13 3.8469 31.2435 3.34487C35.7585 1.31057 46.1748 12.3107 48.4372 15.482Z" fill="#A4790D" stroke="#030303" stroke-width="0.594824"/>
<path d="M34.1004 17.6483C33.2935 16.4096 34.0831 16.3554 35.9669 15.1283C37.8504 13.9012 39.5585 12.7987 40.3657 14.0374C41.1725 15.2761 38.8896 15.1824 37.0058 16.4096C35.1223 17.6367 34.9072 18.887 34.1004 17.6483Z" fill="#BC9122"/>
<path d="M35.3243 13.6683C34.5174 12.4299 35.307 12.3755 37.1905 11.1483C39.0743 9.92122 40.7824 8.819 41.5892 10.0577C42.3961 11.2964 40.1135 11.2025 38.2297 12.4296C36.3462 13.6567 36.1311 14.907 35.3243 13.6683Z" fill="#BC9122"/>
<path d="M30.8854 12.9257C30.0785 11.6873 30.8682 11.6328 32.7517 10.4057C34.6352 9.1786 36.3435 8.07639 37.1504 9.31511C37.9573 10.5535 35.6743 10.4599 33.7908 11.687C31.907 12.9141 31.6923 14.1644 30.8854 12.9257Z" fill="#BC9122"/>
<path d="M30.3161 8.70571C29.5089 7.46699 30.2988 7.41286 32.1823 6.18574C34.0658 4.95861 35.7742 3.85611 36.5811 5.09483C37.3879 6.33355 35.105 6.23986 33.2215 7.46699C31.3377 8.69411 31.123 9.94443 30.3161 8.70571Z" fill="#BC9122"/>
<path d="M18.0961 48.5476C16.391 46.1285 15.3667 43.59 15.0785 41.4514C14.788 39.2966 15.2504 37.6362 16.3895 36.8334C17.5283 36.0307 19.2477 36.1536 21.1794 37.1517C23.0965 38.1421 25.1424 39.9601 26.8477 42.3796C28.5528 44.7987 29.5771 47.3371 29.8653 49.4758C30.1556 51.6306 29.6931 53.291 28.5543 54.0937C27.4152 54.8965 25.6959 54.7736 23.7645 53.7755C21.8473 52.7851 19.8012 50.9671 18.0961 48.5476Z" fill="#F2BA28" stroke="black" stroke-width="0.594824"/>
<path d="M86.9249 44.3838C88.6299 41.9647 89.6539 39.4263 89.9424 37.2876C90.2327 35.1329 89.7702 33.4724 88.6314 32.6697C87.4923 31.867 85.773 31.9898 83.8413 32.9879C81.9245 33.9783 79.8783 35.7964 78.1732 38.2158C76.4679 40.635 75.4439 43.1734 75.1557 45.3121C74.8651 47.4668 75.3276 49.1273 76.4664 49.93C77.6055 50.7327 79.3248 50.6099 81.2565 49.6118C83.1733 48.6214 85.2195 46.8033 86.9249 44.3838Z" fill="#F2BA28" stroke="black" stroke-width="0.594824"/>
<path d="M88.232 40.3504C90.8409 34.5 88.376 34.8402 88.232 35.435C85.0973 48.3724 87.7062 32.2515 85.0973 38.1019C82.4881 43.9526 81.9989 47.2099 82.7049 47.5248C83.7551 47.9929 85.6228 46.201 88.232 40.3504Z" fill="#C99717"/>
<path d="M70.6199 69.745C67.7588 69.4458 65.1371 69.5675 63.2137 70.0002C62.251 70.217 61.4759 70.5088 60.9349 70.855C60.3916 71.203 60.1162 71.5836 60.0754 71.9724C60.0347 72.3611 60.2253 72.7905 60.6851 73.2432C61.1428 73.6941 61.8406 74.1399 62.7376 74.5512C64.5298 75.3727 67.0694 76.0344 69.9305 76.3339C72.7913 76.6331 75.4133 76.5115 77.3363 76.0787C78.2994 75.8619 79.0741 75.5702 79.6154 75.224C80.1588 74.876 80.4342 74.4953 80.4749 74.1066C80.5157 73.7179 80.3247 73.2884 79.8652 72.8358C79.4075 72.3849 78.7098 71.939 77.8125 71.5277C76.0206 70.7063 73.4807 70.0445 70.6199 69.745Z" fill="#B88B17" stroke="black" stroke-width="0.452034"/>
<path d="M80.3045 74.5863C79.0614 73.9082 76.4171 72.5523 75.7842 72.5523" stroke="black" stroke-width="0.452034"/>
<path d="M75.8972 76.1685C75.3698 75.4152 74.2248 73.8407 73.8632 73.5695" stroke="black" stroke-width="0.452034"/>
<path d="M37.2151 69.745C40.0759 69.4458 42.6976 69.5675 44.621 70.0002C45.5837 70.217 46.3588 70.5088 46.8998 70.855C47.4434 71.203 47.7188 71.5836 47.7596 71.9724C47.8 72.3611 47.6094 72.7905 47.1499 73.2432C46.6922 73.6941 45.9942 74.1399 45.0972 74.5512C43.3052 75.3727 40.7653 76.0344 37.9045 76.3339C35.0434 76.6331 32.4217 76.5115 30.4984 76.0787C29.5357 75.8619 28.7606 75.5702 28.2196 75.224C27.6762 74.876 27.4005 74.4953 27.3601 74.1066C27.3193 73.7179 27.51 73.2884 27.9698 72.8358C28.4272 72.3849 29.1252 71.939 30.0222 71.5277C31.8144 70.7063 34.354 70.0445 37.2151 69.745Z" fill="#B88B17" stroke="black" stroke-width="0.452034"/>
<path d="M27.5303 74.5863C28.7735 73.9082 31.4177 72.5523 32.0506 72.5523" stroke="black" stroke-width="0.452034"/>
<path d="M31.9376 76.1685C32.4649 75.4152 33.6103 73.8407 33.9719 73.5695" stroke="black" stroke-width="0.452034"/>
<path d="M46.2476 1.21448C38.6338 3.23688 33.905 19.5053 26.6184 35.2682C21.7111 46.4211 22.0085 61.4841 33.905 67.5374C75.9888 88.951 89.8184 47.3133 80.3012 33.1863C70.7841 19.0592 55.7647 -1.31352 46.2476 1.21448Z" fill="url(#paint0_linear_96_204)" stroke="black" stroke-width="0.594824"/>
<path d="M34.6486 27.3867C41.6874 32.5914 58.5605 40.116 69.7432 28.5764C74.6505 50.1387 42.9761 72.7421 34.6486 27.3867Z" fill="#372802" stroke="black" stroke-width="0.594824"/>
<path d="M59.8703 17.2878C60.5362 20.4359 60.2781 23.4544 59.338 25.7861C58.3969 28.1202 56.7891 29.7345 54.7661 30.1625C52.7434 30.5905 50.6196 29.7651 48.814 28.0122C47.0099 26.261 45.552 23.6054 44.8861 20.4573C44.2202 17.3092 44.4781 14.2908 45.4185 11.9591C46.3595 9.62529 47.9673 8.01064 49.99 7.58266C52.0127 7.15469 54.1368 7.98 55.9424 9.73295C57.7462 11.4844 59.2044 14.1397 59.8703 17.2878Z" fill="white" stroke="black" stroke-width="0.594824"/>
<path d="M54.9698 30.1627C58.5056 29.4148 60.603 25.1737 59.6546 20.6899C58.7061 16.206 55.071 13.1775 51.5352 13.9254C47.9995 14.6733 45.902 18.9144 46.8505 23.3982C47.7989 27.8821 51.4341 30.9106 54.9698 30.1627Z" fill="#161212"/>
<path d="M44.9092 60.6969C46.892 62.283 53.5936 64.5038 64.5384 60.6969" stroke="black" stroke-width="0.594824"/>
<path d="M46.6937 56.6818C53.9803 59.2098 54.4264 59.0611 61.4156 55.9383" stroke="black" stroke-width="0.594824"/>
<path d="M62.0866 67.8199C58.8939 70.2646 53.0236 69.6695 49.9471 69.6695C48.7001 69.6695 48.0015 71.1973 50.1967 71.5191C52.9406 71.9212 57.9294 71.5994 60.3405 71.117C62.7516 70.6343 66.0776 64.764 62.0866 67.8199Z" fill="#76590E"/>
<path d="M61.4005 19.6567C60.9784 18.1643 60.8535 16.8928 61.1215 16.817C61.3894 16.7415 61.9486 17.8898 62.3706 19.3825C62.7926 20.8749 61.9394 22.4586 61.6714 22.5344C61.4037 22.6103 61.8225 21.1491 61.4005 19.6567Z" fill="#B68A1A"/>
<path d="M43.8377 22.5175C43.6075 20.9838 43.1976 19.7739 42.9222 19.8152C42.6468 19.8566 42.6106 21.1337 42.8408 22.6674C43.0712 24.2012 44.5012 25.2927 44.7766 25.2513C45.0517 25.21 44.0682 24.0513 43.8377 22.5175Z" fill="#B68A1A"/>
<path d="M63.1777 20.1302C63.0998 18.5809 63.2622 17.314 63.5403 17.3C63.8183 17.286 64.1068 18.5304 64.1845 20.0796C64.2624 21.6285 63.0766 22.9817 62.7985 22.9957C62.5204 23.0094 63.2553 21.6791 63.1777 20.1302Z" fill="#B68A1A"/>
<path d="M42.4137 23.6813C41.8462 22.2376 41.1762 21.15 40.9171 21.2517C40.6581 21.3537 40.9079 22.6064 41.4754 24.0498C42.0425 25.4934 43.6804 26.2378 43.9394 26.1358C44.1988 26.0341 42.9809 25.1246 42.4137 23.6813Z" fill="#B68A1A"/>
<path d="M59.3337 41.9599L58.2928 34.5246L54.2777 34.6733L49.3704 34.0785C49.2217 37.0526 56.1612 42.5051 59.3337 41.9599Z" fill="white" stroke="black" stroke-width="0.594824"/>
<path d="M60.5258 41.6798L59.1851 34.3759L62.4566 33.4837L65.7281 31.9966C66.4419 36.7552 62.3103 41.2337 60.5258 41.6798Z" fill="white" stroke="black" stroke-width="0.594824"/>
<defs>
<linearGradient id="paint0_linear_96_204" x1="53.4" y1="1.00004" x2="53.4" y2="73.5445" gradientUnits="userSpaceOnUse">
<stop stop-color="#F2BA28"/>
<stop offset="1" stop-color="#9A7106"/>
</linearGradient>
</defs>
</svg>
