<svg width="106" height="96" viewBox="0 0 106 96" fill="none" xmlns="http://www.w3.org/2000/svg">
<path d="M22.4546 12.7954C12.4616 29.3315 4.01506 78.0774 4.01506 78.0774C4.01506 78.0774 -0.202805 93.0997 2.67671 89.0816C15.4654 71.2369 11.153 77.0364 15.4654 70.9395C19.7779 64.8425 19.0344 74.211 27.5106 82.836C35.9869 91.4609 32.1205 73.1701 38.2175 69.3037C44.3144 65.4373 49.8165 71.3856 59.185 77.0364C68.5535 82.6872 66.0255 70.0472 69.297 65.8835C72.5685 61.7197 79.8551 63.2068 84.1676 65.8835L84.2161 65.9135C88.5333 68.5935 95.6492 73.0104 103.946 70.0472C112.273 67.0731 78.3681 45.2133 68.2561 22.9074C58.1441 0.601519 34.9459 -7.87469 22.4546 12.7954Z" fill="url(#paint0_linear_96_315)" stroke="black" stroke-width="0.594824"/>
<path d="M52.7704 94.1989C81.8352 93.496 105.365 91.5949 105.325 89.9529C105.285 88.3108 81.6914 87.5495 52.6265 88.2524C23.5617 88.9553 0.0321941 90.8563 0.0719076 92.4984C0.111621 94.1405 23.7055 94.9018 52.7704 94.1989Z" fill="#F2C47F"/>
<path d="M40.448 35.3987C47.511 35.3987 53.2367 29.673 53.2367 22.61C53.2367 15.547 47.511 9.82129 40.448 9.82129C33.385 9.82129 27.6593 15.547 27.6593 22.61C27.6593 29.673 33.385 35.3987 40.448 35.3987Z" fill="white" stroke="black" stroke-width="0.594824"/>
<path d="M40.448 30.0453C44.5544 30.0453 47.8833 26.7164 47.8833 22.61C47.8833 18.5036 44.5544 15.1747 40.448 15.1747C36.3416 15.1747 33.0127 18.5036 33.0127 22.61C33.0127 26.7164 36.3416 30.0453 40.448 30.0453Z" fill="#7D0071" stroke="black" stroke-width="0.594824"/>
<path d="M40.448 27.3686C43.0761 27.3686 45.2066 25.2381 45.2066 22.61C45.2066 19.9819 43.0761 17.8514 40.448 17.8514C37.8199 17.8514 35.6895 19.9819 35.6895 22.61C35.6895 25.2381 37.8199 27.3686 40.448 27.3686Z" fill="#010101"/>
<path d="M43.4222 22.3126C44.572 22.3126 45.5041 21.3805 45.5041 20.2307C45.5041 19.0809 44.572 18.1488 43.4222 18.1488C42.2724 18.1488 41.3403 19.0809 41.3403 20.2307C41.3403 21.3805 42.2724 22.3126 43.4222 22.3126Z" fill="white" stroke="black" stroke-width="0.594824"/>
<path d="M59.1285 47.2164C54.5811 58.2703 31.2875 59.1462 25.9671 48.7034C20.6467 38.2607 33.0609 46.091 41.704 45.9961C50.5395 45.8991 63.6759 36.1627 59.1285 47.2164Z" fill="#111111" stroke="black" stroke-width="0.594824"/>
<path d="M45.7345 49.3732C50.386 43.4125 46.9033 45.2207 45.8936 45.4319C44.8839 45.6431 43.1357 46.3054 41.135 46.1754C39.0642 46.041 35.8128 45.3457 35.8128 45.3457C35.5035 48.3073 41.0833 55.3336 45.7345 49.3732Z" fill="white" stroke="black" stroke-width="0.594824"/>
<defs>
<linearGradient id="paint0_linear_96_315" x1="53.4598" y1="1.00005" x2="53.4598" y2="89.7645" gradientUnits="userSpaceOnUse">
<stop stop-color="#9E05E7"/>
<stop offset="1" stop-color="#FF9800"/>
</linearGradient>
</defs>
</svg>
