<svg width="69" height="62" viewBox="0 0 69 62" fill="none" xmlns="http://www.w3.org/2000/svg">
<path d="M18.113 14.763C11.3353 10.6393 11.0873 31.3165 16.8539 36.0461C21.7198 36.8803 25.3129 35.9289 26.5498 35.352L27.3404 30.2301C30.7563 31.8364 34.7602 31.7418 37.3849 30.239L38.9554 35.013C44.6143 36.6157 50.5711 34.5019 50.8237 33.8623C53.1181 28.0492 52.7065 37.5409 53.9059 31.2165C55.0398 25.2372 51.1599 11.071 46.8746 13.2462C30.1844 21.7187 32.1391 23.2972 18.113 14.763Z" fill="#6400C9" stroke="black" stroke-width="0.546171"/>
<path d="M12.5376 18.3719L22.5994 20.5549C22.3586 19.09 22.0418 14.542 24.1436 11.3194L30.1795 1L16.6537 10.9508C14.6371 12.6621 13.0596 15.7212 12.5376 18.3719Z" fill="#330B5A" stroke="#030303" stroke-width="0.546171"/>
<path d="M18.178 17.3368C18.4104 16.3974 17.9104 16.5337 16.4819 16.1803C15.0531 15.8267 13.7599 15.5126 13.5274 16.4521C13.2949 17.3915 14.6863 16.8425 16.1151 17.1961C17.5436 17.5494 17.9455 18.2763 18.178 17.3368Z" fill="#4B1580"/>
<path d="M20.1434 16.1947C20.5135 15.3006 19.9989 15.3606 18.6391 14.7977C17.2793 14.2348 16.0474 13.7311 15.6772 14.6253C15.3069 15.5194 16.7648 15.1843 18.1247 15.7472C19.4845 16.3101 19.7733 17.089 20.1434 16.1947Z" fill="#4B1580"/>
<path d="M22.5637 15.1207C22.9859 14.2498 22.4685 14.2795 21.1441 13.6376C19.8198 12.9957 18.6196 12.4203 18.1975 13.2912C17.7753 14.1621 19.2502 13.9133 20.5746 14.5553C21.899 15.1972 22.1416 15.9916 22.5637 15.1207Z" fill="#4B1580"/>
<path d="M22.6735 12.2018C23.0957 11.3309 22.5783 11.3607 21.2539 10.7188C19.9297 10.0768 18.7296 9.50145 18.3074 10.3724C17.8853 11.2433 19.3602 10.9947 20.6846 11.6364C22.009 12.2784 22.2514 13.0728 22.6735 12.2018Z" fill="#4B1580"/>
<path d="M24.5369 9.35893C24.959 8.48801 24.5801 8.58478 23.7062 8.16129C22.8322 7.73761 22.0395 7.35969 21.6174 8.23061C21.1953 9.10153 22.2971 8.672 23.1712 9.09569C24.045 9.51917 24.1147 10.2298 24.5369 9.35893Z" fill="#4B1580"/>
<path d="M51.5761 18.7414L41.5143 20.9245C41.7552 19.4595 42.0719 14.9116 39.9701 11.689L33.9342 1.36955L47.4602 11.3204C49.4766 13.0317 51.0543 16.0907 51.5761 18.7414Z" fill="#330B5A" stroke="#030303" stroke-width="0.546171"/>
<path d="M45.9357 17.7064C45.7035 16.7669 46.2033 16.9032 47.632 16.5496C49.0606 16.1962 50.354 15.8822 50.5863 16.8216C50.8188 17.7611 49.4274 17.212 47.9988 17.5656C46.5701 17.919 46.1682 18.6458 45.9357 17.7064Z" fill="#4B1580"/>
<path d="M43.9703 16.5642C43.6001 15.6701 44.1147 15.7301 45.4746 15.1672C46.8344 14.6043 48.0663 14.1006 48.4366 14.9949C48.8068 15.889 47.349 15.5539 45.9892 16.1168C44.6293 16.6797 44.3404 17.4585 43.9703 16.5642Z" fill="#4B1580"/>
<path d="M41.55 15.4902C41.1279 14.6193 41.6453 14.6491 42.9695 14.0072C44.2938 13.3652 45.494 12.7899 45.9161 13.6608C46.3383 14.5317 44.8634 14.2829 43.539 14.9248C42.2146 15.5668 41.9722 16.3612 41.55 15.4902Z" fill="#4B1580"/>
<path d="M41.4401 12.5714C41.0179 11.7005 41.5353 11.7303 42.8597 11.0883C44.184 10.4464 45.3842 9.87101 45.8063 10.7419C46.2285 11.6129 44.7534 11.3642 43.429 12.006C42.1048 12.6479 41.8622 13.4423 41.4401 12.5714Z" fill="#4B1580"/>
<path d="M39.5767 9.72849C39.1546 8.85757 39.5335 8.95434 40.4073 8.53085C41.2814 8.10717 42.0742 7.72925 42.4963 8.60017C42.9185 9.47109 41.8164 9.04157 40.9426 9.46505C40.0685 9.88873 39.9988 10.5994 39.5767 9.72849Z" fill="#4B1580"/>
<path d="M16.3886 22.25C7.01154 29.6489 9.41032 45.3114 15.4462 49.6923C20.3528 50.2375 23.8834 49.0757 25.0842 48.4267L25.5709 43.267C29.0757 44.6689 33.0671 44.3377 35.5983 42.6827L37.448 47.3558C43.1919 48.6214 49.0134 46.1596 49.2277 45.5061C51.1748 39.5676 51.3245 49.0669 52.1483 42.6827C52.9272 36.647 48.8605 18.9093 44.068 18.5506C28.4604 17.3824 28.9471 17.0903 16.3886 22.25Z" fill="#6400C9" stroke="black" stroke-width="0.546171"/>
<path d="M34.5471 61.0114C53.5749 60.5512 68.9789 59.3067 68.9529 58.2317C68.9269 57.1566 53.4808 56.6582 34.4529 57.1184C15.4251 57.5786 0.0210765 58.8231 0.0470756 59.8981C0.0730748 60.9732 15.5193 61.4716 34.5471 61.0114Z" fill="#F2C47F"/>
<path d="M11.0958 41.4253C10.4552 43.254 9.49201 44.7653 8.46221 45.7322C7.42442 46.7065 6.36386 47.0916 5.50287 46.79C4.64199 46.4884 4.05349 45.5256 3.85065 44.1167C3.64934 42.7183 3.8399 40.9366 4.48054 39.1079C5.12119 37.2792 6.08426 35.7679 7.11406 34.801C8.15185 33.8267 9.21261 33.4416 10.0734 33.7432C10.9344 34.0448 11.5228 35.0078 11.7257 36.4165C11.927 37.8149 11.7364 39.5966 11.0958 41.4253Z" fill="#500996" stroke="black" stroke-width="0.546171"/>
<path d="M57.3524 36.2216C58.2344 37.9469 58.6641 39.6866 58.6538 41.0992C58.6433 42.5227 58.1904 43.5562 57.3781 43.9715C56.566 44.3866 55.463 44.1485 54.3029 43.3235C53.1518 42.5047 51.9933 41.1375 51.1113 39.4122C50.2293 37.6869 49.7996 35.9472 49.8099 34.5346C49.8204 33.1113 50.2733 32.0778 51.0856 31.6625C51.8977 31.2472 53.0007 31.4853 54.1608 32.3105C55.3119 33.1292 56.4704 34.4963 57.3524 36.2216Z" fill="#500996" stroke="black" stroke-width="0.546171"/>
<path d="M11.2929 17.5387C2.3364 16.1758 10.3194 55.2144 16.3553 59.5953C21.2618 60.1405 24.7925 58.9786 25.9932 58.3297L26.6747 53.6565C30.1794 55.0584 34.1709 54.7274 36.7021 53.0724L38.5518 57.7454C44.2956 59.011 50.1173 57.9122 50.3315 57.2588C52.2785 51.3203 53.1097 37.9416 53.9336 31.5576C54.7124 25.5217 56.5366 12.2258 52.0838 14.0338C36.0206 20.5567 27.6482 22.9905 11.2929 17.5387Z" fill="url(#paint0_linear_16_2161)" stroke="black" stroke-width="0.546171"/>
<path d="M29.5953 47.8268L30.4715 43.4347L23.9488 43.7267C23.8514 45.6738 27.5183 48.1839 29.5953 47.8268Z" fill="white" stroke="black" stroke-width="0.546171"/>
<path d="M34.171 47.3401L32.516 43.1539L38.8439 42.2777C38.9413 44.2248 36.2479 47.697 34.171 47.3401Z" fill="white" stroke="black" stroke-width="0.546171"/>
<path d="M20.3468 43.4347C20.7362 43.4347 27.843 44.7976 42.3486 41.3902" stroke="black" stroke-width="0.546171"/>
<path d="M42.4156 35.822C40.9983 37.2823 39.2816 38.1727 37.6583 38.4385C36.0349 38.7045 34.5189 38.3452 33.4706 37.3279C32.4223 36.3106 32.0179 34.8061 32.235 33.1754C32.4521 31.5447 33.2907 29.8021 34.7079 28.3418C36.125 26.8815 37.8417 25.9911 39.4652 25.7252C41.0887 25.4594 42.6046 25.8186 43.6529 26.836C44.7012 27.8533 45.1056 29.3578 44.8885 30.9885C44.6715 32.6191 43.8327 34.3617 42.4156 35.822Z" fill="white" stroke="black" stroke-width="0.546171"/>
<path d="M28.2346 29.8284C29.4784 31.439 30.1153 33.265 30.1474 34.9096C30.1795 36.5543 29.6083 38.0037 28.4521 38.8966C27.2959 39.7894 25.749 39.9757 24.166 39.5287C22.5829 39.0816 20.9773 38.0035 19.7335 36.3929C18.4898 34.7825 17.8529 32.9563 17.8207 31.3117C17.7886 29.667 18.3599 28.2176 19.516 27.3247C20.6722 26.4319 22.2192 26.2458 23.8021 26.6927C25.3853 27.1397 26.9908 28.2178 28.2346 29.8284Z" fill="white" stroke="black" stroke-width="0.546171"/>
<path d="M33.7202 37.6801C35.138 39.056 37.5415 38.8791 39.0886 37.2849C40.6357 35.6908 40.7406 33.283 39.3228 31.9071C37.9051 30.5312 35.5015 30.7081 33.9544 32.3023C32.4073 33.8964 32.3024 36.3042 33.7202 37.6801Z" fill="#161212"/>
<path d="M28.387 39.1377C29.9507 37.9301 30.1177 35.5259 28.7599 33.7676C27.4021 32.0094 25.0338 31.5629 23.4701 32.7704C21.9064 33.978 21.7395 36.3822 23.0972 38.1405C24.455 39.8987 26.8233 40.3452 28.387 39.1377Z" fill="#161212"/>
<path d="M36.7021 53.0726C37.4485 52.7157 39.136 51.7681 39.9148 50.8335" stroke="#0D0A11" stroke-width="0.546171"/>
<path d="M23.17 51.8884C23.8365 52.3785 25.4674 53.4206 26.6586 53.6673" stroke="#0D0A11" stroke-width="0.546171"/>
<path d="M12.0637 23.8667C12.0637 28.0605 11.4534 31.4602 10.7007 31.4602C9.94798 31.4602 9.33777 28.0605 9.33777 23.8667C9.33777 19.6729 9.94798 20.4593 10.7007 20.4593C11.4534 20.4593 12.0637 19.6729 12.0637 23.8667Z" fill="#791ED5"/>
<path d="M38.5478 24.7808C37.6326 25.2205 36.8266 25.444 36.7477 25.2797C36.6688 25.1153 37.3466 24.6257 38.2619 24.1858C39.177 23.7462 40.2945 24.1186 40.3733 24.283C40.4524 24.4471 39.4631 24.341 38.5478 24.7808Z" fill="#791ED5"/>
<path d="M25.3848 26.2906C26.1344 26.9756 26.8418 27.4218 26.9647 27.2871C27.0875 27.1525 26.5795 26.4884 25.8299 25.8034C25.0803 25.1185 23.9031 25.1531 23.7801 25.2877C23.6572 25.4222 24.6352 25.6058 25.3848 26.2906Z" fill="#791ED5"/>
<path d="M57.8278 38.9564C58.9793 42.989 57.9674 41.8764 57.2437 42.083C56.5199 42.2898 56.7401 44.1572 55.5887 40.1247C54.4372 36.0921 54.4204 33.9357 54.9072 33.7967C55.6309 33.5899 56.6763 34.9239 57.8278 38.9564Z" fill="#791ED5"/>
<path d="M32.9053 38.105C32.9053 38.2526 32.2951 38.3723 31.5424 38.3723C30.7897 38.3723 30.1794 38.2526 30.1794 38.105C30.1794 37.9572 30.7897 37.9848 31.5424 37.9848C32.2951 37.9848 32.9053 37.9572 32.9053 38.105Z" fill="#791ED5"/>
<path d="M32.5159 38.8838C32.5159 39.0314 32.0365 39.1511 31.445 39.1511C30.8535 39.1511 30.3741 39.0314 30.3741 38.8838C30.3741 38.736 30.8535 38.7637 31.445 38.7637C32.0365 38.7637 32.5159 38.736 32.5159 38.8838Z" fill="#791ED5"/>
<path d="M32.1265 39.6626C32.1265 39.8102 31.8214 39.9299 31.445 39.9299C31.0687 39.9299 30.7635 39.8102 30.7635 39.6626C30.7635 39.5148 31.0687 39.5425 31.445 39.5425C31.8214 39.5425 32.1265 39.5148 32.1265 39.6626Z" fill="#791ED5"/>
<defs>
<linearGradient id="paint0_linear_16_2161" x1="31.1486" y1="13.8664" x2="43.03" y2="57.5509" gradientUnits="userSpaceOnUse">
<stop stop-color="#6400C9"/>
<stop offset="1" stop-color="#410281"/>
</linearGradient>
</defs>
</svg>
