<svg width="87" height="85" viewBox="0 0 87 85" fill="none" xmlns="http://www.w3.org/2000/svg">
<path d="M19.3401 32.2947L1.71082 67.5029C1.71082 67.5029 57.2975 85.6777 57.0247 84.8235C56.7519 83.9693 64.3678 47.1819 64.3678 47.1819L19.3401 32.2947Z" fill="url(#paint0_linear_7_1008)"/>
<path d="M86.0167 43.1407C86.1675 39.7527 69.737 25.8775 69.737 25.8775L23.1085 13.1796C23.1085 13.1796 1.98356 16.8332 0.390041 19.8264C-1.20348 22.8197 0.39004 39.0779 38.7063 49.5076C77.0227 59.9373 85.866 46.5287 86.0167 43.1407Z" fill="url(#paint1_linear_7_1008)"/>
<path d="M70.4476 23.6595C68.9833 10.6027 57.0031 1.80243 44.2478 1.30714C36.2586 0.998486 28.7289 4.64492 23.9699 11.0047C22.4266 13.0719 20.4024 15.534 21.8882 18.1611C23.6612 21.2979 27.8891 23.4155 31.0115 24.93C39.216 28.9138 48.3393 31.3974 57.4482 32.1296C60.908 32.4024 65.5091 32.6895 68.6244 30.8878C71.2372 29.3732 70.7347 26.2221 70.4476 23.6595Z" fill="#505C70"/>
<mask id="mask0_7_1008" style="mask-type:luminance" maskUnits="userSpaceOnUse" x="0" y="13" width="87" height="38">
<path d="M86.0167 43.1407C86.1674 39.7527 69.7369 25.8775 69.7369 25.8775L23.1085 13.1796C23.1085 13.1796 1.98353 16.8332 0.390009 19.8264C-1.20351 22.8197 0.914005 35.776 39.2303 46.2057C77.5466 56.6354 85.866 46.5287 86.0167 43.1407Z" fill="white"/>
</mask>
<g mask="url(#mask0_7_1008)">
<path d="M39.6467 44.7988C16.5621 38.5109 -0.500035 26.8681 0.626916 18.3693C0.526423 18.6134 0.433109 18.8574 0.368507 19.1158C-1.95717 27.6649 15.4424 39.8388 39.2303 46.3206C63.0183 52.7951 84.1935 51.1227 86.5192 42.5736C86.591 42.3152 86.6412 42.0568 86.6699 41.7984C83.3393 49.6871 62.724 51.0796 39.6467 44.7988Z" fill="url(#paint2_radial_7_1008)"/>
</g>
<path d="M11.0422 22.0301C10.5613 22.6976 9.28358 22.5971 8.18534 21.8076C7.0871 21.018 6.59182 19.8336 7.07275 19.166C7.55368 18.4985 8.83136 18.599 9.9296 19.3886C11.0278 20.1853 11.5231 21.3625 11.0422 22.0301Z" fill="url(#paint3_radial_7_1008)"/>
<path d="M18.1628 28.7128C17.6819 29.3804 16.4042 29.2799 15.3059 28.4903C14.2077 27.7007 13.7124 26.5163 14.1934 25.8488C14.6743 25.1812 15.952 25.2817 17.0502 26.0713C18.1484 26.8609 18.6437 28.0453 18.1628 28.7128Z" fill="url(#paint4_radial_7_1008)"/>
<path d="M28.4776 34.6275C28.1187 35.3669 26.841 35.4961 25.6279 34.9075C24.4077 34.3189 23.7114 33.2422 24.0703 32.5028C24.4292 31.7635 25.7069 31.6343 26.92 32.2229C28.1331 32.8115 28.8365 33.881 28.4776 34.6275Z" fill="url(#paint5_radial_7_1008)"/>
<path d="M41.7785 39.4368C41.5632 40.2336 40.3286 40.5853 39.0222 40.2336C37.7158 39.8818 36.8329 38.9487 37.0482 38.1519C37.2635 37.3552 38.4982 37.0035 39.8046 37.3552C41.111 37.7069 41.9939 38.6472 41.7785 39.4368Z" fill="url(#paint6_radial_7_1008)"/>
<path d="M55.381 42.5449C55.2159 43.3488 54.0028 43.7795 52.682 43.5068C51.3541 43.234 50.421 42.3583 50.5861 41.5543C50.7512 40.7504 51.9642 40.3197 53.285 40.5925C54.6129 40.8653 55.5533 41.741 55.381 42.5449Z" fill="url(#paint7_radial_7_1008)"/>
<path d="M67.3611 43.4493C67.2821 44.2676 66.1193 44.8203 64.777 44.6911C63.4347 44.5547 62.4082 43.7795 62.4872 42.9612C62.5661 42.1429 63.729 41.5902 65.0713 41.7194C66.4136 41.8486 67.44 42.6238 67.3611 43.4493Z" fill="url(#paint8_radial_7_1008)"/>
<path d="M80.0232 41.1883C80.2314 41.985 79.3413 42.911 78.0349 43.2555C76.7285 43.6001 75.4939 43.234 75.2857 42.4372C75.0775 41.6405 75.9676 40.7145 77.274 40.37C78.5876 40.0254 79.815 40.3915 80.0232 41.1883Z" fill="url(#paint9_radial_7_1008)"/>
<path d="M71.0002 21.987C69.3923 9.31063 57.2327 0.646752 44.3984 0.0294421C36.3518 -0.358171 28.8221 3.10164 24.0917 9.21732C22.5557 11.2056 20.553 13.5744 22.0747 16.1369C23.8908 19.1948 28.176 21.2979 31.3272 22.7981C39.625 26.7461 48.8344 29.2584 58.0079 30.0623C61.4893 30.3638 66.1263 30.694 69.2415 28.9784C71.8543 27.5428 71.316 24.4778 71.0002 21.987Z" fill="url(#paint10_radial_7_1008)"/>
<path opacity="0.48" d="M53.2993 5.66418C53.8879 5.79338 54.5626 6.00154 55.2804 6.29584C55.9982 6.59014 56.7662 6.9634 57.5558 7.42279C58.3454 7.88219 59.1565 8.42054 59.9533 9.04503C60.75 9.66234 61.5396 10.3658 62.2861 11.141C63.0327 11.9162 63.7433 12.7632 64.3821 13.6749C65.021 14.5865 65.5952 15.5627 66.0761 16.5963C66.5571 17.6299 66.9519 18.7138 67.2318 19.848C67.5118 20.9749 67.684 22.1521 67.7343 23.358C67.7845 24.5639 67.7056 25.8057 67.5046 27.0762C67.5046 27.0762 67.4902 26.7891 67.3969 26.2579C67.3036 25.7268 67.1385 24.9587 66.8083 23.9897C66.4781 23.0206 65.99 21.8578 65.2435 20.5442C64.497 19.2378 63.4849 17.7879 62.1067 16.2805C61.4966 15.6129 60.7357 14.8879 59.8743 14.1414C59.0058 13.3949 58.0368 12.634 57.0247 11.8875C56.0126 11.1482 54.9646 10.4232 53.9525 9.74847C52.9404 9.07374 51.9641 8.44925 51.1243 7.89654C50.2773 7.34383 49.5667 6.85573 49.0786 6.44658C48.5905 6.03743 48.3321 5.71442 48.3895 5.48473C48.4541 5.25503 48.8417 5.12583 49.6313 5.14018C50.4209 5.15454 51.6268 5.30528 53.2993 5.66418Z" fill="#DCFFFA"/>
<path d="M10.5256 35.8119L12.3631 37.1757C12.679 37.4485 13.3106 37.8863 13.3465 38.3027C13.4829 39.7526 13.3537 40.2407 13.2676 41.3533C13.1742 42.5664 10.102 39.2286 9.44885 36.7594C9.18326 35.7545 9.73597 35.1443 10.5256 35.8119Z" fill="#A3B0D6"/>
<path d="M69.2274 51.7902L66.9519 52.0342C66.5428 52.106 65.7747 52.1706 65.5307 52.508C64.6837 53.6852 64.5401 54.1733 64.052 55.171C63.5137 56.2693 67.8635 54.9413 69.6724 53.1468C70.4117 52.429 70.2467 51.6107 69.2274 51.7902Z" fill="#A3B0D6"/>
<path d="M40.5082 48.6103C40.2713 48.1366 39.5679 47.792 39.1802 47.6269C38.4194 47.2967 37.4934 47.268 36.7254 47.6126C36.5674 47.6844 36.4454 47.8136 36.4023 47.9787C36.1726 48.8831 36.8115 51.5318 37.9743 51.4959C38.5055 51.4815 39.0869 50.8427 39.4602 50.5125C39.8837 50.1392 40.3933 49.6798 40.5584 49.1128C40.6087 48.9333 40.5871 48.7611 40.5082 48.6103Z" fill="#A3B0D6"/>
<path opacity="0.2" d="M43.3075 2.27615C43.6736 2.27615 44.0541 2.28333 44.4201 2.30486C50.3851 2.59198 56.1706 4.72386 60.6999 8.29852C65.4302 12.0311 68.2943 16.905 68.9905 22.3818L69.0336 22.7263C69.1987 23.9969 69.3853 25.4468 69.0695 26.3512C68.7824 27.1839 69.0264 28.1099 69.694 28.6841C78.8244 36.5943 83.4543 41.7338 83.9711 43.2627C83.8347 43.9087 83.0595 45.4592 80.9994 47.0311C79.1331 48.4524 75.6374 50.3043 69.615 51.0437C69.0982 51.1083 68.6245 51.3523 68.2799 51.7399C68.2655 51.7615 68.244 51.7758 68.2297 51.7974C67.9138 52.0917 67.4903 52.3788 67.0381 52.6228C67.0094 52.5582 66.9735 52.4936 66.9376 52.4362C66.55 51.7686 65.8394 51.3667 65.0785 51.3667H65.0354C64.6622 51.3739 64.2817 51.381 63.8941 51.381C57.3119 51.381 49.5381 50.2182 40.7881 47.9284C40.6086 47.8782 40.422 47.8566 40.2425 47.8566C39.6396 47.8566 39.051 48.115 38.6347 48.5744C38.4839 47.7848 37.9025 47.1388 37.1201 46.9091C28.004 44.2676 20.4599 41.0949 14.6816 37.47C14.3298 37.2475 13.9351 37.1398 13.5403 37.1398C13.1742 37.1398 12.8009 37.2331 12.4707 37.4269C12.3846 37.4772 12.2985 37.5346 12.2267 37.592C11.9826 37.1757 11.7816 36.745 11.6812 36.3574C11.6381 35.7473 11.3438 35.1802 10.8557 34.7998C3.26133 28.8995 1.93339 23.5159 2.34254 21.2405C2.3569 21.1615 2.37125 21.0969 2.38561 21.0539C3.6633 19.9628 10.7552 17.8022 22.1395 15.6919C23.0009 15.534 23.6756 14.8736 23.8551 14.0194C24.0561 13.0719 24.939 11.9306 25.7214 10.9185L25.9224 10.6601C30.0426 5.33399 36.3736 2.27615 43.3075 2.27615ZM43.3075 0.122742C35.7204 0.122742 28.7074 3.53948 24.2212 9.34651C23.2378 10.617 22.0749 12.0454 21.7519 13.5744C16.9211 14.4716 1.85444 17.4433 0.519322 19.9556C0.390117 20.1997 0.282447 20.5155 0.225023 20.8888C-0.263083 23.6021 0.985894 29.8541 9.52057 36.501C9.52775 36.623 9.5421 36.7522 9.58517 36.8886C10.1451 38.9918 12.4636 41.7409 13.1885 41.7409C13.3106 41.7409 13.3895 41.662 13.4039 41.4825C13.4685 40.6283 13.5546 40.1402 13.5331 39.3004C18.9094 42.6741 26.3387 46.0406 36.5171 48.9836C36.6392 50.1033 37.2134 51.6251 38.0819 51.6251H38.1107C38.6418 51.6107 39.2232 50.9719 39.5965 50.6417C39.8118 50.4551 40.0415 50.2469 40.2425 50.0172C49.9616 52.5654 57.721 53.5416 63.8941 53.5416C64.2961 53.5416 64.6909 53.5344 65.0785 53.5273C64.7052 54.1446 64.533 54.604 64.1884 55.3074C64.052 55.5874 64.2315 55.7094 64.5976 55.7094C65.6815 55.7094 68.4594 54.6327 69.8088 53.2904C69.8375 53.2617 69.8591 53.233 69.8878 53.2043C81.8248 51.7399 85.6866 46.0262 86.1101 43.6144C86.1317 43.4924 86.146 43.3847 86.146 43.277C86.268 40.4561 74.9268 30.3853 71.108 27.0762C71.6249 25.5832 71.3377 23.7313 71.1296 22.1234C69.5145 9.43264 57.3549 0.768764 44.5206 0.151454C44.1187 0.137098 43.7095 0.122742 43.3075 0.122742Z" fill="#424242"/>
<defs>
<linearGradient id="paint0_linear_7_1008" x1="42.069" y1="40.0544" x2="27.108" y2="77.4178" gradientUnits="userSpaceOnUse">
<stop stop-color="#00ECCC"/>
<stop offset="0.1086" stop-color="#0AEECF" stop-opacity="0.8503"/>
<stop offset="0.2905" stop-color="#24F2D5" stop-opacity="0.5996"/>
<stop offset="0.5219" stop-color="#4DF8E1" stop-opacity="0.2806"/>
<stop offset="0.7255" stop-color="#78FFEC" stop-opacity="0"/>
<stop offset="1" stop-color="#78FFEC" stop-opacity="0"/>
</linearGradient>
<linearGradient id="paint1_linear_7_1008" x1="-0.479997" y1="22.8018" x2="85.2626" y2="46.1458" gradientUnits="userSpaceOnUse">
<stop stop-color="#8690BB"/>
<stop offset="0.265" stop-color="#6E76A6"/>
<stop offset="0.6652" stop-color="#B0BEE1"/>
<stop offset="0.8836" stop-color="#6E76A6"/>
<stop offset="1" stop-color="#8A90B3"/>
</linearGradient>
<radialGradient id="paint2_radial_7_1008" cx="0" cy="0" r="1" gradientUnits="userSpaceOnUse" gradientTransform="translate(41.4407 38.2023) rotate(15.2292) scale(32.1756 30.7908)">
<stop offset="0.2278" stop-color="#00ECCC"/>
<stop offset="1" stop-color="#00CCB1"/>
</radialGradient>
<radialGradient id="paint3_radial_7_1008" cx="0" cy="0" r="1" gradientUnits="userSpaceOnUse" gradientTransform="translate(8.88747 20.4048) rotate(40.8275) scale(2.61452 1.95463)">
<stop offset="0.065" stop-color="#00ECCC"/>
<stop offset="0.2517" stop-color="#00E7C7"/>
<stop offset="0.4807" stop-color="#00D8BB"/>
<stop offset="0.7318" stop-color="#00BFA5"/>
<stop offset="0.9973" stop-color="#009C87"/>
<stop offset="1" stop-color="#009C87"/>
</radialGradient>
<radialGradient id="paint4_radial_7_1008" cx="0" cy="0" r="1" gradientUnits="userSpaceOnUse" gradientTransform="translate(16.0077 27.0873) rotate(40.8275) scale(2.61452 1.95463)">
<stop offset="0.065" stop-color="#00ECCC"/>
<stop offset="0.2517" stop-color="#00E7C7"/>
<stop offset="0.4807" stop-color="#00D8BB"/>
<stop offset="0.7318" stop-color="#00BFA5"/>
<stop offset="0.9973" stop-color="#009C87"/>
<stop offset="1" stop-color="#009C87"/>
</radialGradient>
<radialGradient id="paint5_radial_7_1008" cx="0" cy="0" r="1" gradientUnits="userSpaceOnUse" gradientTransform="translate(26.0756 33.4) rotate(30.7505) scale(2.61445 1.95466)">
<stop offset="0.065" stop-color="#00ECCC"/>
<stop offset="0.2517" stop-color="#00E7C7"/>
<stop offset="0.4807" stop-color="#00D8BB"/>
<stop offset="0.7318" stop-color="#00BFA5"/>
<stop offset="0.9973" stop-color="#009C87"/>
<stop offset="1" stop-color="#009C87"/>
</radialGradient>
<radialGradient id="paint6_radial_7_1008" cx="0" cy="0" r="1" gradientUnits="userSpaceOnUse" gradientTransform="translate(39.192 38.6713) rotate(20.2724) scale(2.61458 1.95456)">
<stop offset="0.065" stop-color="#00ECCC"/>
<stop offset="0.2517" stop-color="#00E7C7"/>
<stop offset="0.4807" stop-color="#00D8BB"/>
<stop offset="0.7318" stop-color="#00BFA5"/>
<stop offset="0.9973" stop-color="#009C87"/>
<stop offset="1" stop-color="#009C87"/>
</radialGradient>
<radialGradient id="paint7_radial_7_1008" cx="0" cy="0" r="1" gradientUnits="userSpaceOnUse" gradientTransform="translate(52.7535 41.9353) rotate(16.7135) scale(2.61458 1.95452)">
<stop offset="0.065" stop-color="#00ECCC"/>
<stop offset="0.2517" stop-color="#00E7C7"/>
<stop offset="0.4807" stop-color="#00D8BB"/>
<stop offset="0.7318" stop-color="#00BFA5"/>
<stop offset="0.9973" stop-color="#009C87"/>
<stop offset="1" stop-color="#009C87"/>
</radialGradient>
<radialGradient id="paint8_radial_7_1008" cx="0" cy="0" r="1" gradientUnits="userSpaceOnUse" gradientTransform="translate(64.6849 43.1172) rotate(10.7717) scale(2.6145 1.95474)">
<stop offset="0.065" stop-color="#00ECCC"/>
<stop offset="0.2517" stop-color="#00E7C7"/>
<stop offset="0.4807" stop-color="#00D8BB"/>
<stop offset="0.7318" stop-color="#00BFA5"/>
<stop offset="0.9973" stop-color="#009C87"/>
<stop offset="1" stop-color="#009C87"/>
</radialGradient>
<radialGradient id="paint9_radial_7_1008" cx="0" cy="0" r="1" gradientUnits="userSpaceOnUse" gradientTransform="translate(77.3854 41.8167) rotate(-9.72982) scale(2.61441 1.95468)">
<stop offset="0.065" stop-color="#00ECCC"/>
<stop offset="0.2517" stop-color="#00E7C7"/>
<stop offset="0.4807" stop-color="#00D8BB"/>
<stop offset="0.7318" stop-color="#00BFA5"/>
<stop offset="0.9973" stop-color="#009C87"/>
<stop offset="1" stop-color="#009C87"/>
</radialGradient>
<radialGradient id="paint10_radial_7_1008" cx="0" cy="0" r="1" gradientUnits="userSpaceOnUse" gradientTransform="translate(42.0065 24.7381) rotate(26.501) scale(25.7605 24.8503)">
<stop stop-color="#78FFEC"/>
<stop offset="0.0939" stop-color="#73FEEB"/>
<stop offset="0.2099" stop-color="#64FCE7"/>
<stop offset="0.3375" stop-color="#4AF8E0"/>
<stop offset="0.4724" stop-color="#28F2D7"/>
<stop offset="0.5999" stop-color="#00ECCC"/>
<stop offset="1" stop-color="#00CCB1"/>
</radialGradient>
</defs>
</svg>
