<svg width="106" height="75" viewBox="0 0 106 75" fill="none" xmlns="http://www.w3.org/2000/svg">
<path d="M25.0335 13.9787C10.7102 25.2804 14.3743 49.2048 23.5941 55.8965C31.0888 56.7293 36.4818 54.9546 38.316 53.9634L39.0595 46.0819C44.4129 48.2233 50.5099 47.7174 54.3762 45.1894L57.2016 52.3276C65.9753 54.2608 74.8676 50.5003 75.1951 49.5022C78.1692 40.4311 78.3979 54.9413 79.6562 45.1894C80.8459 35.9699 74.6341 8.8757 67.3136 8.32787C43.4731 6.5434 44.2166 6.09728 25.0335 13.9787Z" fill="#6400C9" stroke="black" stroke-width="0.594824"/>
<path d="M52.7704 73.1863C81.8352 72.4834 105.365 70.5824 105.325 68.9403C105.285 67.2982 81.6914 66.5369 52.6265 67.2398C23.5617 67.9427 0.0321941 69.8437 0.0719076 71.4858C0.111621 73.1279 23.7055 73.8892 52.7704 73.1863Z" fill="#F2C47F"/>
<path d="M26.321 6.33608C15.6142 0.659377 17.1012 32.2109 26.321 38.9027C33.8158 39.7355 39.2087 37.9608 41.0429 36.9695L41.7864 29.0881C47.1398 31.2295 53.2368 30.7239 57.1031 28.1959L59.9286 35.3338C68.7022 37.2669 77.5945 33.5065 77.922 32.5083C80.8961 23.4373 81.1248 37.9474 82.3832 28.1959C83.5728 18.9761 76.3787 -2.27489 70.0406 1.42878C45.3554 15.8533 48.4782 18.0839 26.321 6.33608Z" fill="#6400C9" stroke="black" stroke-width="0.594824"/>
<path d="M16.9487 43.2687C15.9702 46.062 14.4989 48.3705 12.9259 49.8475C11.3407 51.3357 9.72068 51.924 8.40553 51.4633C7.09055 51.0026 6.19162 49.5319 5.88178 47.3799C5.57428 45.2439 5.86536 42.5222 6.84394 39.7289C7.82251 36.9356 9.2936 34.6271 10.8666 33.1502C12.4518 31.6619 14.0721 31.0737 15.387 31.5343C16.7021 31.995 17.6009 33.466 17.9108 35.6178C18.2183 37.7538 17.9272 40.4754 16.9487 43.2687Z" fill="#500996" stroke="black" stroke-width="0.594824"/>
<path d="M87.6054 35.3201C88.9527 37.9554 89.6091 40.6128 89.5933 42.7705C89.5773 44.9449 88.8855 46.5236 87.6447 47.158C86.4042 47.792 84.7193 47.4283 82.9473 46.1682C81.189 44.9175 79.4194 42.8291 78.0722 40.1937C76.7249 37.5584 76.0685 34.901 76.0843 32.7433C76.1003 30.5692 76.7921 28.9905 78.0329 28.3561C79.2734 27.7218 80.9582 28.0855 82.7302 29.3459C84.4885 30.5966 86.2581 32.6847 87.6054 35.3201Z" fill="#500996" stroke="black" stroke-width="0.594824"/>
<path d="M17.2499 6.7822C3.56895 4.70031 15.7629 64.3314 24.9827 71.0232C32.4774 71.856 37.8704 70.0813 39.7046 69.09L40.7455 61.9518C46.0989 64.0932 52.1959 63.5876 56.0622 61.0596L58.8876 68.1975C67.6613 70.1307 76.5539 68.4524 76.8811 67.4543C79.8552 58.3832 81.1248 37.9474 82.3832 28.1959C83.5728 18.9761 86.3593 -1.33329 79.5578 1.42848C55.0213 11.3921 42.2326 15.1097 17.2499 6.7822Z" fill="url(#paint0_linear_96_340)" stroke="black" stroke-width="0.594824"/>
<path d="M46.3963 48.7173L46.5451 46.338L36.5817 46.7841C36.433 49.7583 43.2239 49.2625 46.3963 48.7173Z" fill="white" stroke="black" stroke-width="0.594824"/>
<path d="M55.9135 51.5427L55.7648 45.1483L60.3747 44.2561C61.0884 49.0147 57.6979 51.0966 55.9135 51.5427Z" fill="white" stroke="black" stroke-width="0.594824"/>
<path d="M31.0796 46.338C31.6744 46.338 42.53 48.4199 64.6872 43.2151" stroke="black" stroke-width="0.594824"/>
<path d="M64.7895 34.7098C62.6246 36.9404 60.0023 38.3004 57.5228 38.7064C55.043 39.1127 52.7273 38.564 51.126 37.01C49.5248 35.456 48.9071 33.1579 49.2387 30.6671C49.5703 28.1762 50.8512 25.5144 53.0161 23.2838C55.1807 21.0532 57.803 19.6932 60.2828 19.2869C62.7626 18.8809 65.0782 19.4296 66.6795 20.9836C68.2808 22.5376 68.8985 24.8357 68.5669 27.3265C68.2353 29.8174 66.954 32.4792 64.7895 34.7098Z" fill="white" stroke="black" stroke-width="0.594824"/>
<path d="M43.128 25.5546C45.0279 28.0147 46.0007 30.8039 46.0498 33.3161C46.0989 35.8284 45.2263 38.0423 43.4602 39.4062C41.6942 40.7699 39.3313 41.0545 36.9133 40.3716C34.4951 39.6888 32.0426 38.042 30.1427 35.5818C28.2429 33.1219 27.27 30.3325 27.221 27.8202C27.1719 25.308 28.0445 23.0941 29.8105 21.7301C31.5766 20.3665 33.9395 20.0822 36.3575 20.7647C38.7757 21.4476 41.2282 23.0944 43.128 25.5546Z" fill="white" stroke="black" stroke-width="0.594824"/>
<path d="M51.5072 37.548C53.6728 39.6497 57.3442 39.3795 59.7074 36.9444C62.0706 34.5093 62.2308 30.8315 60.0651 28.7298C57.8995 26.628 54.2281 26.8983 51.8649 29.3334C49.5017 31.7685 49.3415 35.4463 51.5072 37.548Z" fill="#161212"/>
<path d="M43.361 39.7744C45.7495 37.9299 46.0045 34.2574 43.9306 31.5717C41.8566 28.886 38.239 28.204 35.8505 30.0485C33.4619 31.8929 33.2069 35.5654 35.2809 38.2511C37.3549 40.9369 40.9724 41.6188 43.361 39.7744Z" fill="#161212"/>
<path d="M56.0621 61.0599C57.2021 60.5147 59.7798 59.0672 60.9694 57.6396" stroke="#0D0A11" stroke-width="0.594824"/>
<path d="M35.3921 59.251C36.4101 59.9996 38.9013 61.5914 40.7208 61.9682" stroke="#0D0A11" stroke-width="0.594824"/>
<path d="M18.4271 16.4481C18.4271 22.854 17.495 28.0471 16.3452 28.0471C15.1954 28.0471 14.2633 22.854 14.2633 16.4481C14.2633 10.0421 15.1954 11.2434 16.3452 11.2434C17.495 11.2434 18.4271 10.0421 18.4271 16.4481Z" fill="#791ED5"/>
<path d="M58.8814 17.8444C57.4836 18.516 56.2523 18.8574 56.1318 18.6064C56.0114 18.3554 57.0467 17.6074 58.4448 16.9355C59.8426 16.264 61.5495 16.8329 61.67 17.084C61.7907 17.3347 60.2796 17.1726 58.8814 17.8444Z" fill="#791ED5"/>
<path d="M38.7751 20.1506C39.9201 21.1969 41.0006 21.8786 41.1883 21.6727C41.376 21.4672 40.6 20.4528 39.455 19.4065C38.3099 18.3602 36.5118 18.4131 36.3238 18.6186C36.1362 18.8241 37.6301 19.1046 38.7751 20.1506Z" fill="#791ED5"/>
<path d="M88.3314 39.4975C90.0903 45.6572 88.5447 43.9578 87.4392 44.2734C86.3337 44.5892 86.6701 47.4417 84.9112 41.282C83.1523 35.1223 83.1267 31.8285 83.8702 31.6161C84.9757 31.3003 86.5725 33.3378 88.3314 39.4975Z" fill="#791ED5"/>
<path d="M50.2626 38.197C50.2626 38.4224 49.3306 38.6053 48.1808 38.6053C47.031 38.6053 46.0989 38.4224 46.0989 38.197C46.0989 37.9712 47.031 38.0134 48.1808 38.0134C49.3306 38.0134 50.2626 37.9712 50.2626 38.197Z" fill="#791ED5"/>
<path d="M49.6678 39.3866C49.6678 39.612 48.9355 39.7949 48.032 39.7949C47.1285 39.7949 46.3962 39.612 46.3962 39.3866C46.3962 39.1609 47.1285 39.2031 48.032 39.2031C48.9355 39.2031 49.6678 39.1609 49.6678 39.3866Z" fill="#791ED5"/>
<path d="M49.073 40.5762C49.073 40.8017 48.6069 40.9846 48.032 40.9846C47.4571 40.9846 46.9911 40.8017 46.9911 40.5762C46.9911 40.3505 47.4571 40.3927 48.032 40.3927C48.6069 40.3927 49.073 40.3505 49.073 40.5762Z" fill="#791ED5"/>
<defs>
<linearGradient id="paint0_linear_96_340" x1="47.5794" y1="1.1727" x2="65.7281" y2="67.9004" gradientUnits="userSpaceOnUse">
<stop stop-color="#6400C9"/>
<stop offset="1" stop-color="#410281"/>
</linearGradient>
</defs>
</svg>
