<svg width="106" height="87" viewBox="0 0 106 87" fill="none" xmlns="http://www.w3.org/2000/svg">
<path d="M52.7704 85.1295C81.8352 84.4266 105.365 82.5256 105.325 80.8835C105.285 79.2414 81.6914 78.4801 52.6265 79.183C23.5617 79.8859 0.0321941 81.7869 0.0719076 83.429C0.111621 85.0711 23.7055 85.8324 52.7704 85.1295Z" fill="#F2C47F"/>
<path d="M82.6705 47.4979C84.2244 43.9548 85.1098 40.5328 85.2927 37.8701C85.384 36.5374 85.2984 35.412 85.0441 34.5617C84.7892 33.7102 84.3791 33.1748 83.8494 32.9423C83.3197 32.71 82.6482 32.7709 81.849 33.1606C81.0514 33.5493 80.1654 34.2485 79.2467 35.2184C77.4119 37.1563 75.4939 40.1257 73.9402 43.6687C72.3862 47.2118 71.5009 50.6338 71.3179 53.2965C71.2266 54.6293 71.3123 55.7547 71.5666 56.605C71.8212 57.4565 72.2316 57.9918 72.7613 58.2241C73.291 58.4566 73.9625 58.3957 74.7617 58.0061C75.5593 57.6174 76.4453 56.9181 77.3637 55.9483C79.1988 54.0103 81.1168 51.041 82.6705 47.4979Z" fill="#1A9DC7" stroke="black" stroke-width="0.594824"/>
<path d="M18.5645 58.1373C16.2286 55.3244 14.5554 52.4282 13.7328 50.0281C13.3211 48.8271 13.1278 47.7656 13.1608 46.9088C13.1939 46.0516 13.4502 45.4342 13.9005 45.0604C14.3505 44.6865 15.0045 44.5479 15.853 44.6728C16.7012 44.7978 17.7092 45.1826 18.8143 45.8078C21.0226 47.0572 23.5622 49.2337 25.8984 52.0463C28.2346 54.8592 29.9075 57.7554 30.7302 60.1555C31.1418 61.3565 31.3351 62.4179 31.3021 63.2748C31.2694 64.1319 31.0127 64.7494 30.5627 65.1232C30.1124 65.497 29.4584 65.6356 28.6099 65.5107C27.7617 65.3858 26.7538 65.001 25.6486 64.3758C23.4403 63.1264 20.9007 60.9499 18.5645 58.1373Z" fill="#1A9DC7" stroke="black" stroke-width="0.594824"/>
<path d="M55.2155 20.4162L34.6941 24.1338C35.9932 22.2747 35.1934 7.62212 38.263 3.01759C39.7501 0.786998 42.5755 0.786998 43.7652 1.23312C48.4018 2.97208 55.2884 16.5213 55.2155 20.4162Z" fill="#00485F" stroke="#030303" stroke-width="0.594824"/>
<path d="M70.6723 74.8155C67.8111 74.5161 65.1895 74.638 63.2664 75.0707C62.3034 75.2872 61.5283 75.579 60.9873 75.9255C60.444 76.2732 60.1686 76.6539 60.1278 77.0426C59.9616 78.6313 60.1442 79.7315 60.5713 80.4976C60.9945 81.2566 61.6755 81.72 62.5803 81.9995C63.4918 82.2809 64.6158 82.371 65.8982 82.388C66.6114 82.3975 67.3567 82.3847 68.1347 82.3713C68.7653 82.3606 69.4175 82.3493 70.0917 82.3493C70.8019 82.3493 71.4875 82.3576 72.1462 82.3654C74.2674 82.3909 76.1086 82.4129 77.5901 82.1462C78.5537 81.9728 79.3397 81.6801 79.9372 81.2031C80.5303 80.7299 80.955 80.061 81.1742 79.1004C81.4237 78.008 81.245 77.2701 80.7994 76.7455C80.3423 76.2068 79.5702 75.8502 78.5424 75.6064C77.519 75.3637 76.2803 75.2409 74.9261 75.1415C74.5392 75.113 74.1431 75.0865 73.7404 75.0597C72.7405 74.9928 71.7016 74.9232 70.6723 74.8155Z" fill="#075169" stroke="black" stroke-width="0.452034"/>
<path d="M81.1289 79.2853C79.7314 79.0581 76.787 78.6557 76.1898 78.8657" stroke="black" stroke-width="0.452034"/>
<path d="M79.2484 81.5561C78.4153 81.1665 76.6371 80.3736 76.1886 80.3192" stroke="black" stroke-width="0.452034"/>
<path d="M37.4968 74.8155C40.358 74.5161 42.9796 74.638 44.903 75.0707C45.8657 75.2872 46.6408 75.579 47.1818 75.9255C47.7252 76.2732 48.0006 76.6539 48.0413 77.0426C48.2076 78.6313 48.0249 79.7315 47.5979 80.4976C47.1746 81.2566 46.4936 81.72 45.5888 81.9995C44.6773 82.2809 43.5533 82.371 42.2709 82.388C41.5577 82.3975 40.8124 82.3847 40.0344 82.3713C39.4039 82.3606 38.7516 82.3493 38.0777 82.3493C37.3672 82.3493 36.6816 82.3576 36.0229 82.3654C33.9017 82.3909 32.0605 82.4129 30.5793 82.1462C29.6154 81.9728 28.8294 81.6801 28.2319 81.2031C27.6388 80.7299 27.2141 80.061 26.9949 79.1004C26.7454 78.008 26.9244 77.2701 27.3697 76.7455C27.8268 76.2068 28.5992 75.8502 29.6267 75.6064C30.6501 75.3637 31.8888 75.2409 33.243 75.1415C33.6299 75.113 34.0264 75.0865 34.4287 75.0597C35.4286 74.9928 36.4675 74.9232 37.4968 74.8155Z" fill="#075169" stroke="black" stroke-width="0.452034"/>
<path d="M27.0402 79.2853C28.4377 79.0581 31.3824 78.6557 31.9793 78.8657" stroke="black" stroke-width="0.452034"/>
<path d="M28.9207 81.5561C29.7537 81.1665 31.5319 80.3736 31.9807 80.3192" stroke="black" stroke-width="0.452034"/>
<path d="M73.804 16.1037C65.4764 10.3042 20.2939 21.5368 18.6338 27.5541C13.8752 44.804 33.0782 81.0799 54.918 78.4115C87.7821 74.3965 77.6974 18.8152 73.804 16.1037Z" fill="url(#paint0_linear_96_389)" stroke="black" stroke-width="0.594824"/>
<path d="M71.2757 39.3019C61.2827 39.8967 54.8187 40.9376 52.8362 41.3838C52.8362 33.3536 56.1375 23.3903 61.6098 23.3903C67.0822 23.3903 71.2757 33.8988 71.2757 39.3019Z" fill="white" stroke="black" stroke-width="0.594824"/>
<path d="M46.2096 43.5605C36.4381 45.737 30.2222 47.7927 28.3357 48.5484C27.0586 40.6206 28.7333 30.259 34.1361 29.3888C39.5389 28.5183 45.3503 38.2264 46.2096 43.5605Z" fill="white" stroke="black" stroke-width="0.594824"/>
<path d="M37.222 57.1466C41.4352 59.8233 54.3232 57.0276 65.6249 45.8449C63.4934 61.4094 53.5202 89.7429 37.222 57.1466Z" fill="#D0F4FF" stroke="black" stroke-width="0.594824"/>
<path d="M33.8018 46.7371L45.9957 43.6143C46.4715 41.473 43.1206 36.2781 41.3858 33.9484C39.4029 33.9981 35.0509 34.9596 33.5044 38.4096C31.9578 41.8596 33.0582 45.3988 33.8018 46.7371Z" fill="black" stroke="black" stroke-width="0.297412"/>
<path d="M55.2155 30.2308C53.9068 30.8256 53.1829 37.7158 52.9849 41.0863L67.7068 39.4506C67.4094 36.6252 66.9632 35.1381 66.5171 33.3536C64.995 27.2653 56.8512 29.4873 55.2155 30.2308Z" fill="#0B0B0B" stroke="black" stroke-width="0.297412"/>
<path d="M43.1703 58.1875H40.3448C40.3448 59.4961 42.4267 60.5171 43.4677 60.8642L43.1703 58.1875Z" fill="white" stroke="black" stroke-width="0.594824"/>
<path d="M46.4603 57.6736L43.6869 58.2128C43.9367 59.4976 46.1753 60.1023 47.2633 60.2441L46.4603 57.6736Z" fill="white" stroke="black" stroke-width="0.594824"/>
<path d="M49.6613 56.7573L46.8879 57.2968C47.1378 58.5813 49.3764 59.1862 50.4643 59.3278L49.6613 56.7573Z" fill="white" stroke="black" stroke-width="0.594824"/>
<path d="M50.4408 56.1255L53.1148 55.2134C53.5374 56.4518 51.8966 58.0905 51.0234 58.755L50.4408 56.1255Z" fill="white" stroke="black" stroke-width="0.594824"/>
<path d="M53.7123 54.6385L56.2563 53.2802C56.6787 54.5186 55.1681 56.6035 54.2949 57.2679L53.7123 54.6385Z" fill="white" stroke="black" stroke-width="0.594824"/>
<path d="M56.8363 53.0027L59.3804 51.6445C59.8027 52.8829 58.2921 54.9677 57.4189 55.6322L56.8363 53.0027Z" fill="white" stroke="black" stroke-width="0.594824"/>
<path d="M59.8104 50.9208L62.2046 49.2651C62.6269 50.5036 61.2663 52.8858 60.3931 53.5502L59.8104 50.9208Z" fill="white" stroke="black" stroke-width="0.594824"/>
<path d="M62.5936 48.5415L64.4352 47.332C64.8575 48.5704 64.0495 50.5065 63.1763 51.171L62.5936 48.5415Z" fill="white" stroke="black" stroke-width="0.594824"/>
<path d="M44.5086 65.3254C43.4379 66.634 43.765 67.4569 44.0624 67.7047L45.2521 68.8943L44.5086 65.3254Z" fill="white" stroke="black" stroke-width="0.594824"/>
<path d="M46.4418 66.2177C45.9659 66.5745 45.7476 68.3492 45.6982 69.1918C46.2931 69.6876 47.453 70.6193 47.334 70.3814C47.215 70.1435 46.6895 67.5063 46.4418 66.2177Z" fill="white" stroke="black" stroke-width="0.594824"/>
<path d="M48.6724 67.7047C48.4243 68.5476 47.8991 70.3517 47.7802 70.8275L49.4159 71.5711L48.6724 67.7047Z" fill="white"/>
<path d="M50.6055 68.4482L50.1594 71.7198L52.2413 72.0172L50.6055 68.4482Z" fill="white"/>
<path d="M52.8362 68.4482V71.7198L55.2155 70.6788L52.8362 68.4482Z" fill="white"/>
<path d="M54.7693 67.1099L55.6615 70.2327L57.2973 68.7456C57.3467 68.5969 57.3865 68.2103 57.1486 67.8534C56.9107 67.4965 55.4631 67.2092 54.7693 67.1099Z" fill="white"/>
<path d="M56.5538 65.4741L58.0409 67.4073C58.4373 66.9612 59.2305 65.9797 59.2305 65.6229C59.2305 65.266 57.4461 65.3751 56.5538 65.4741Z" fill="white"/>
<path d="M48.6724 67.7047C48.4243 68.5476 47.8991 70.3517 47.7802 70.8275L49.4159 71.5711L48.6724 67.7047Z" stroke="black" stroke-width="0.594824"/>
<path d="M50.6055 68.4482L50.1594 71.7198L52.2413 72.0172L50.6055 68.4482Z" stroke="black" stroke-width="0.594824"/>
<path d="M52.8362 68.4482V71.7198L55.2155 70.6788L52.8362 68.4482Z" stroke="black" stroke-width="0.594824"/>
<path d="M54.7693 67.1099L55.6615 70.2327L57.2973 68.7456C57.3467 68.5969 57.3865 68.2103 57.1486 67.8534C56.9107 67.4965 55.4631 67.2092 54.7693 67.1099Z" stroke="black" stroke-width="0.594824"/>
<path d="M56.5538 65.4741L58.0409 67.4073C58.4373 66.9612 59.2305 65.9797 59.2305 65.6229C59.2305 65.266 57.4461 65.3751 56.5538 65.4741Z" stroke="black" stroke-width="0.594824"/>
<path d="M83.5195 42.6201C82.177 47.4319 81.669 44.4715 80.8054 44.2306C79.9417 43.9894 80.6415 44.4596 81.9843 39.6474C83.3271 34.8356 83.1873 35.3998 83.7682 35.5616C84.6319 35.8028 84.8624 37.8082 83.5195 42.6201Z" fill="#207A96"/>
<path d="M51.2005 41.9786C50.9625 42.2165 49.0192 42.4744 48.0776 42.5734C48.0776 42.276 48.1966 41.5919 48.6725 41.235C49.2673 40.7889 50.4569 40.9376 50.9031 40.7889C51.3492 40.6402 51.4979 41.6812 51.2005 41.9786Z" fill="#136079"/>
<path d="M51.1525 39.7528C50.85 39.9889 48.3818 40.2444 47.1853 40.3428C47.1853 40.0478 47.3364 39.3694 47.9407 39.0152C48.6965 38.5726 50.2079 38.7201 50.7745 38.5726C51.3413 38.4251 51.5302 39.4577 51.1525 39.7528Z" fill="#136079"/>
<path d="M51.4327 14.4555C50.9797 14.8308 47.1306 15.4414 45.2625 15.6998C45.2364 15.2668 45.4127 14.2562 46.3294 13.6789C47.4753 12.9574 49.8587 13.03 50.7346 12.7593C51.6105 12.4887 51.9989 13.9864 51.4327 14.4555Z" fill="#13718F"/>
<path d="M49.9456 11.7788C49.4926 12.1541 45.6435 12.7647 43.7755 13.0231C43.7493 12.5901 43.9257 11.5795 44.8423 11.0022C45.9882 10.2807 48.3717 10.3533 49.2476 10.0826C50.1234 9.81197 50.5119 11.3097 49.9456 11.7788Z" fill="#13718F"/>
<path d="M48.1612 8.80464C47.7082 9.17997 43.8591 9.79056 41.9911 10.049C41.9649 9.61598 42.1412 8.60538 43.0579 8.0281C44.2038 7.30658 46.5873 7.37914 47.4631 7.1085C48.339 6.83785 48.7274 8.33562 48.1612 8.80464Z" fill="#13718F"/>
<path d="M46.1037 5.87126C45.7334 6.18979 42.9032 6.34117 41.5345 6.37686C41.569 5.94442 41.8198 4.96355 42.5469 4.49929C43.4561 3.91904 45.1532 4.27207 45.8134 4.10731C46.4734 3.94224 46.5668 5.47302 46.1037 5.87126Z" fill="#13718F"/>
<path d="M43.705 3.12674C43.4266 3.4527 41.3489 3.66386 40.3448 3.7287C40.3793 3.29626 40.584 2.31183 41.127 1.8327C41.8057 1.2343 42.7937 1.60666 43.3883 1.8327C43.8736 2.01739 44.053 2.71928 43.705 3.12674Z" fill="#13718F"/>
<path d="M51.1103 37.3734C50.7433 37.6096 47.7459 37.865 46.2931 37.9635C46.2931 37.6685 46.4766 36.9901 47.2106 36.6358C48.1281 36.1933 49.9635 36.3408 50.6517 36.1933C51.3396 36.0458 51.5692 37.0784 51.1103 37.3734Z" fill="#136079"/>
<path d="M51.8762 34.9941C51.3149 35.2303 46.7306 35.4858 44.5087 35.5842C44.5087 35.2892 44.7891 34.6108 45.9119 34.2566C47.3153 33.814 50.122 33.9615 51.1746 33.814C52.2271 33.6665 52.5781 34.6991 51.8762 34.9941Z" fill="#136079"/>
<defs>
<linearGradient id="paint0_linear_96_389" x1="48.1287" y1="14.489" x2="48.1287" y2="78.551" gradientUnits="userSpaceOnUse">
<stop stop-color="#1A9DC7"/>
<stop offset="1" stop-color="#0A5E79"/>
</linearGradient>
</defs>
</svg>
