<svg width="106" height="79" viewBox="0 0 106 79" fill="none" xmlns="http://www.w3.org/2000/svg">
<path d="M52.7704 77.5393C81.8352 76.8364 105.365 74.9354 105.325 73.2933C105.285 71.6512 81.6914 70.8899 52.6265 71.5928C23.5617 72.2958 0.0321941 74.1968 0.0719076 75.8389C0.111621 77.4809 23.7055 78.2423 52.7704 77.5393Z" fill="#F2C47F"/>
<path d="M59.0363 55.767L58.2927 45.9524L63.3487 44.614C61.8617 49.3726 59.9285 52.9416 59.0363 55.767Z" fill="white" stroke="black" stroke-width="0.594824"/>
<path d="M71.2534 18.3885L62.2424 5.49895C64.4489 4.97432 65.18 5.86239 68.481 1L75.4172 10.2198C75.0883 12.7891 73.8977 15.528 71.2534 18.3885Z" fill="#024E40" stroke="#030303" stroke-width="0.594824"/>
<path d="M84.7699 42.0036C86.8078 39.8471 88.2678 37.5499 88.9875 35.5897C89.3477 34.6088 89.5172 33.7264 89.4914 32.995C89.4658 32.2658 89.2472 31.7084 88.8531 31.3361C88.4587 30.9634 87.8901 30.7769 87.1605 30.7924C86.4289 30.8082 85.5575 31.0276 84.5986 31.4425C82.6821 32.2723 80.4715 33.8599 78.4336 36.0167C76.3957 38.1733 74.9357 40.4705 74.216 42.4307C73.8558 43.4116 73.6863 44.294 73.7122 45.0253C73.7377 45.7546 73.9563 46.3119 74.3504 46.6843C74.7448 47.057 75.3134 47.2434 76.043 47.228C76.7746 47.2122 77.646 46.9927 78.6049 46.5778C80.5214 45.7481 82.7321 44.1605 84.7699 42.0036Z" fill="#139D84" stroke="black" stroke-width="0.594824"/>
<path d="M85.9655 39.5288C89.6561 34.0208 87.2031 37.546 85.9358 38.879C85.9358 38.879 84.9784 39.3623 83.1246 41.3889C79.0462 46.3286 78.0341 45.7459 78.8009 45.6469C80.2757 45.4569 81.8871 44.4689 85.9655 39.5288Z" fill="#0D7B67"/>
<path d="M26.7154 34.4062C24.3813 32.1289 21.9166 30.4468 19.8279 29.5629C18.7825 29.1203 17.846 28.8842 17.0757 28.8633C16.3057 28.8425 15.7326 29.0364 15.3611 29.4174C14.9893 29.7984 14.8097 30.376 14.8492 31.1451C14.8891 31.9148 15.1484 32.8451 15.6163 33.8795C16.5516 35.9459 18.2936 38.3683 20.6277 40.6456C22.9618 42.9229 25.4264 44.6048 27.5151 45.489C28.5605 45.9312 29.4971 46.1677 30.2674 46.1885C31.0374 46.209 31.6105 46.0151 31.982 45.6344C32.3537 45.2534 32.5334 44.6758 32.4938 43.9067C32.454 43.1367 32.1949 42.2064 31.7268 41.1723C30.7914 39.1059 29.0495 36.6835 26.7154 34.4062Z" fill="#139D84" stroke="black" stroke-width="0.594824"/>
<path d="M52.3445 3.69988H52.3537L52.3632 3.69929C62.0395 3.089 68.4967 8.22501 73.3567 16.0505C76.6811 21.4036 80.0038 27.8536 80.0038 34.7794C80.0038 43.1073 77.0889 50.8412 72.347 56.5988C71.2462 57.9354 70.7775 59.6806 70.6062 61.5162C70.4346 63.3488 70.5565 65.3106 70.6681 67.1046L70.6687 67.1144C70.7814 68.9286 70.8807 70.551 70.6838 71.7585C70.5857 72.3589 70.4188 72.8253 70.1681 73.1539C69.9254 73.4719 69.5911 73.6786 69.109 73.7431L69.104 73.7437L69.0992 73.7443C65.5585 74.3347 58.8908 74.484 55.0212 74.484C54.7821 74.484 54.6087 74.42 54.4737 74.3192C54.3345 74.2154 54.217 74.0581 54.1177 73.8433C53.9148 73.4038 53.8209 72.7994 53.7361 72.1409C53.7275 72.0737 53.7188 72.0056 53.7102 71.9372C53.6379 71.3629 53.5621 70.7612 53.3991 70.2922C53.3066 70.0257 53.1767 69.7732 52.9801 69.5853C52.7749 69.3893 52.5125 69.2792 52.1958 69.2792C51.9216 69.2792 51.7185 69.4345 51.5763 69.618C51.4368 69.7976 51.3291 70.0359 51.2375 70.2887C51.1174 70.6209 51.0073 71.0343 50.8943 71.4578C50.8375 71.6713 50.7801 71.8875 50.72 72.0972C50.535 72.7453 50.3218 73.3568 50.0244 73.8032C49.7332 74.2401 49.3867 74.484 48.9243 74.484C48.2827 74.484 47.6546 74.4964 46.9774 74.5098C44.3483 74.5619 40.9762 74.6291 33.1837 74.0387C33.0267 74.0268 32.911 73.9807 32.8209 73.9132C32.729 73.8445 32.6472 73.7404 32.5788 73.5884C32.4375 73.2747 32.3721 72.8003 32.3727 72.1635C32.3736 71.2175 32.5166 70.013 32.6799 68.6389C32.7361 68.1666 32.7947 67.6744 32.8506 67.1655C33.0674 65.1934 33.2411 63.0021 33.0567 60.8824C32.8726 58.7625 32.3287 56.6928 31.0929 54.9782C27.0933 49.4279 24.6852 42.3489 24.6852 34.7794C24.6852 27.9758 28.2538 22.2869 31.6262 17.0968C36.6858 9.31026 43.2018 3.69988 52.3445 3.69988Z" fill="url(#paint0_linear_96_115)" stroke="black" stroke-width="0.594824"/>
<path d="M65.6457 30.7745C64.4614 33.7674 62.5904 36.1461 60.5377 37.5781C58.4825 39.0116 56.2784 39.478 54.3881 38.7297C52.498 37.9817 51.2099 36.1336 50.6924 33.6817C50.1755 31.2328 50.439 28.2179 51.6236 25.2251C52.8079 22.2325 54.6789 19.8535 56.7317 18.4215C58.7868 16.988 60.9909 16.5216 62.881 17.2699C64.7713 18.0179 66.0594 19.8663 66.5769 22.3179C67.0938 24.7668 66.83 27.7816 65.6457 30.7745Z" fill="white" stroke="black" stroke-width="0.594824"/>
<path d="M34.0591 29.5361C34.6685 32.6966 36.0663 35.3808 37.8184 37.1682C39.5722 38.9578 41.6517 39.8244 43.648 39.4393C45.6442 39.0544 47.2523 37.477 48.215 35.1634C49.1766 32.8528 49.4761 29.8412 48.8667 26.6806C48.2573 23.5203 46.8594 20.8361 45.1074 19.0484C43.3535 17.2592 41.274 16.3925 39.2778 16.7774C37.2819 17.1625 35.6735 18.74 34.711 21.0533C33.7492 23.3642 33.4497 26.3758 34.0591 29.5361Z" fill="white" stroke="black" stroke-width="0.594824"/>
<path d="M53.8564 38.6898C56.6625 39.8003 60.3044 37.246 61.9909 32.9845C63.6774 28.7231 62.7698 24.3682 59.9638 23.2577C57.1577 22.1472 53.5158 24.7015 51.8293 28.963C50.1428 33.2245 51.0504 37.5793 53.8564 38.6898Z" fill="#161212"/>
<path d="M44.7924 38.8757C41.8292 39.4471 38.7235 36.2623 37.8558 31.7621C36.988 27.262 38.6867 23.1507 41.6499 22.5793C44.6131 22.0078 47.7187 25.1927 48.5865 29.6928C49.4543 34.193 47.7556 38.3043 44.7924 38.8757Z" fill="#161212"/>
<path d="M32.7153 42.5321C42.6786 47.2907 55.1105 49.4023 69.1483 41.7886C61.8617 54.2799 45.8015 66.3251 32.7153 42.5321Z" fill="#044237" stroke="black" stroke-width="0.594824"/>
<path d="M67.5125 27.6413C66.4897 34.1921 68.2483 28.1421 68.2209 26.3032C68.2209 26.3032 68.209 27.0113 68.2209 24.2647C67.8099 18.8676 64.9339 17.3829 65.4306 17.9757C66.3856 19.1153 67.8646 21.2451 67.5125 27.6413Z" fill="#0D7B67"/>
<path d="M32.3382 25.4615C33.3883 20.3553 32.8783 21.7834 32.4717 23.5272C32.4717 23.5272 32.1235 25.8996 32.0182 26.617C31.8766 30.6544 34.0322 32.6476 33.6269 31.9888C32.8476 30.7225 32.7001 30.944 32.3382 25.4615Z" fill="#0D7B67"/>
<path d="M40.2993 63.4797C46.545 65.5616 54.129 66.7513 63.7949 62.4388" stroke="#171618" stroke-width="0.594824"/>
<path d="M40.2993 63.4797C46.545 65.5616 54.129 66.7513 63.7949 62.4388" stroke="#171618" stroke-width="0.594824"/>
<path d="M44.4631 66.0078C48.5279 67.1974 52.7907 67.7922 60.3747 65.2642" stroke="#171618" stroke-width="0.594824"/>
<path d="M52.0471 39.8732C52.0471 39.5348 51.115 39.2606 49.9652 39.2606C48.8154 39.2606 47.8833 39.5348 47.8833 39.8732C47.8833 40.2114 48.8154 40.148 49.9652 40.148C51.115 40.148 52.0471 40.2114 52.0471 39.8732Z" fill="#0C6454"/>
<path d="M51.4523 38.608C51.4523 38.3823 50.7201 38.1997 49.8166 38.1997C48.913 38.1997 48.1808 38.3823 48.1808 38.608C48.1808 38.8335 48.913 38.7913 49.8166 38.7913C50.7201 38.7913 51.4523 38.8335 51.4523 38.608Z" fill="#0C6454"/>
<path d="M50.8575 37.4184C50.8575 37.1927 50.3915 37.0101 49.8166 37.0101C49.2417 37.0101 48.7756 37.1927 48.7756 37.4184C48.7756 37.6439 49.2417 37.6016 49.8166 37.6016C50.3915 37.6016 50.8575 37.6439 50.8575 37.4184Z" fill="#0C6454"/>
<path d="M61.2669 10.61C61.2669 13.9606 57.8514 13.9805 53.088 13.9805C48.3247 13.9805 44.017 13.9606 44.017 10.61C44.017 7.25903 47.7299 3.86853 52.4932 3.86853C57.2566 3.86853 61.2669 7.25903 61.2669 10.61Z" fill="#0C8D76"/>
<path d="M69.7432 68.387C69.8621 66.6026 69.3961 63.1823 69.1483 61.6953C68.9996 63.331 68.7022 66.8107 68.7022 67.6435C68.7022 68.6844 68.1074 70.915 67.0665 71.5098C66.0255 72.1047 67.0665 72.5508 67.2152 72.8482C67.3639 73.1456 68.8509 72.6995 69.297 72.2534C69.7432 71.8073 69.5945 70.6176 69.7432 68.387Z" fill="#0B7663"/>
<path d="M66.8107 4.88715C67.8594 3.84502 68.0732 4.60698 69.6581 6.20141C71.243 7.79583 72.67 9.24364 71.6213 10.2861C70.5729 11.3282 70.2 9.07382 68.6151 7.47969C67.0302 5.88526 65.7623 5.92928 66.8107 4.88715Z" fill="#116959"/>
<path d="M61.4156 55.4695L60.6721 45.6549L65.5794 43.7217C64.0924 48.4803 62.3079 52.6441 61.4156 55.4695Z" fill="white" stroke="black" stroke-width="0.594824"/>
<defs>
<linearGradient id="paint0_linear_96_115" x1="52.3445" y1="3.3528" x2="52.3445" y2="74.793" gradientUnits="userSpaceOnUse">
<stop stop-color="#139D84"/>
<stop offset="1" stop-color="#07836C"/>
</linearGradient>
</defs>
</svg>
