<svg width="106" height="90" viewBox="0 0 106 90" fill="none" xmlns="http://www.w3.org/2000/svg">
<path d="M52.7704 88.6693C81.8352 87.9664 105.365 86.0654 105.325 84.4233C105.285 82.7812 81.6914 82.0199 52.6265 82.7228C23.5617 83.4258 0.0321941 85.3268 0.0719076 86.9689C0.111621 88.6109 23.7055 89.3723 52.7704 88.6693Z" fill="#F2C47F"/>
<path d="M87.5251 45.4414C86.0157 41.9703 84.1786 39.0456 82.4379 37.1225C81.5662 36.1598 80.7301 35.4609 79.9833 35.0653C79.233 34.668 78.6185 34.5987 78.1468 34.8039C77.6751 35.0091 77.3066 35.5055 77.0854 36.3251C76.8653 37.1415 76.8064 38.2295 76.9161 39.5235C77.1353 42.1083 78.0213 45.4462 79.5307 48.9176C81.04 52.389 82.8772 55.3134 84.6179 57.2365C85.4896 58.1992 86.3257 58.8981 87.0727 59.2937C87.8228 59.6913 88.4373 59.7603 88.909 59.5551C89.3807 59.3502 89.7492 58.8535 89.9704 58.0338C90.1905 57.2177 90.2494 56.1295 90.1397 54.8355C89.9205 52.2507 89.0345 48.9128 87.5251 45.4414Z" fill="#D81925" stroke="black" stroke-width="0.594824"/>
<path d="M87.0437 56.4959C85.7776 53.3071 85.5245 54.9523 85.2925 54.7929C84.3375 54.1377 83.3004 50.7172 83.914 53.675C83.2136 54.6954 84.372 56.1221 84.7625 56.4798C88.3315 59.7514 88.0739 59.2095 87.0437 56.4959Z" fill="#8D080F"/>
<path d="M69.2968 56.3187C63.7946 32.0796 55.3187 47.6937 49.2217 66.4307C48.6269 49.0321 18.616 26.912 30.1874 17.6551C41.3403 8.73272 67.2152 7.98919 77.7733 17.6551C87.6331 26.6818 68.5532 35.2024 69.2968 56.3187Z" fill="url(#paint0_linear_96_142)" stroke="black" stroke-width="0.594824"/>
<path d="M38.7022 79.4939C41.563 79.1947 44.185 79.3163 46.1081 79.7491C47.0711 79.9659 47.8458 80.2576 48.3871 80.6038C48.9305 80.9518 49.2059 81.3325 49.2466 81.7212C49.2874 82.1099 49.0965 82.5394 48.6369 82.992C48.1792 83.4429 47.4815 83.8887 46.5842 84.3001C44.7923 85.1215 42.2524 85.7833 39.3916 86.0827C36.5305 86.3819 33.9088 86.2603 31.9854 85.8276C31.0227 85.6108 30.2477 85.319 29.7067 84.9728C29.1633 84.6248 28.8879 84.2442 28.8472 83.8554C28.8064 83.4667 28.997 83.0373 29.4568 82.5846C29.9146 82.1337 30.6123 81.6879 31.5093 81.2766C33.3015 80.4551 35.8411 79.7934 38.7022 79.4939Z" fill="#7C151B" stroke="black" stroke-width="0.452034"/>
<path d="M29.0176 84.3351C30.2605 83.657 32.9051 82.3011 33.5379 82.3011" stroke="black" stroke-width="0.452034"/>
<path d="M33.4249 85.9174C33.9522 85.164 35.0973 83.5895 35.4589 83.3183" stroke="black" stroke-width="0.452034"/>
<path d="M66.1587 78.8991C63.2976 78.5999 60.6759 78.7215 58.7525 79.1543C57.7898 79.3711 57.0148 79.6628 56.4738 80.009C55.9304 80.357 55.655 80.7377 55.6142 81.1264C55.5735 81.5151 55.7641 81.9446 56.2239 82.3973C56.6817 82.8481 57.3794 83.294 58.2764 83.7053C60.0686 84.5267 62.6082 85.1885 65.4693 85.488C68.3301 85.7872 70.9521 85.6655 72.8752 85.2328C73.8382 85.016 74.6129 84.7242 75.1542 84.378C75.6976 84.03 75.973 83.6494 76.0137 83.2606C76.0545 82.8719 75.8635 82.4425 75.404 81.9898C74.9463 81.5389 74.2486 81.0931 73.3513 80.6818C71.5594 79.8603 69.0195 79.1986 66.1587 78.8991Z" fill="#7C151B" stroke="black" stroke-width="0.452034"/>
<path d="M75.8434 83.7404C74.6002 83.0623 71.9559 81.7064 71.323 81.7064" stroke="black" stroke-width="0.452034"/>
<path d="M71.436 85.3226C70.9087 84.5692 69.7633 82.9948 69.402 82.7235" stroke="black" stroke-width="0.452034"/>
<path d="M27.2608 49.5451C28.813 46.0927 29.7403 42.7659 29.991 40.184C30.1168 38.8915 30.0713 37.8026 29.861 36.9839C29.6502 36.1615 29.2879 35.6604 28.8186 35.4495C28.3496 35.2387 27.7342 35.3002 26.9791 35.6883C26.2272 36.0747 25.3826 36.7632 24.4993 37.7152C22.7347 39.6166 20.8619 42.5184 19.31 45.9708C17.7578 49.4231 16.8308 52.75 16.5798 55.3321C16.454 56.6247 16.4998 57.7132 16.7098 58.532C16.9206 59.3546 17.2832 59.8555 17.7522 60.0663C18.2212 60.2772 18.8366 60.2159 19.5917 59.8278C20.3435 59.4412 21.1882 58.7526 22.0715 57.8009C23.8361 55.8993 25.7089 52.9977 27.2608 49.5451Z" fill="#D81925" stroke="black" stroke-width="0.594824"/>
<path d="M80.45 1C74.9479 25.2391 31.9718 22.8598 25.8749 4.12283C25.28 21.5214 26.3397 54.0898 29.7412 68.5125C33.4589 84.2754 69.5944 89.1827 77.7733 68.5125C82.6916 56.0825 79.7064 22.1163 80.45 1Z" fill="url(#paint1_linear_96_142)" stroke="black" stroke-width="0.594824"/>
<path d="M33.6075 48.7346C40.2993 51.5104 57.9061 55.3966 74.7991 48.7346C57.4303 75.6207 40.1009 59.9372 33.6075 48.7346Z" fill="#FFB1B1" stroke="black" stroke-width="0.594824"/>
<path d="M59.9286 35.0552C59.9134 38.344 59.9185 41.3636 60.783 43.5377C61.2101 44.6122 61.8418 45.4628 62.7754 46.0359C63.7117 46.6105 64.9813 46.924 66.7155 46.8675C68.3215 46.8149 69.5148 46.4499 70.4091 45.8533C71.3013 45.2582 71.9199 44.4165 72.3497 43.3673C73.2181 41.2476 73.2969 38.3359 73.3121 35.0525C73.3267 31.839 72.4127 29.0043 71.1285 26.9801C69.8324 24.9366 68.2088 23.788 66.8336 23.788C65.3105 23.788 63.596 24.9479 62.2401 26.9855C60.8937 29.0088 59.9431 31.8425 59.9286 35.0552Z" fill="white" stroke="black" stroke-width="0.594824"/>
<path d="M61.3049 40.0805C61.2838 44.6633 60.3746 46.504 66.807 47.0988C72.2333 46.504 72.2122 44.7136 72.2333 40.1305C71.9737 35.4998 69.8249 31.8211 66.807 31.8071C63.7892 31.7934 61.3257 35.4974 61.3049 40.0805Z" fill="#161212"/>
<path d="M31.8784 33.8623C31.8632 37.1513 31.8683 40.1707 32.7329 42.345C33.1599 43.4193 33.7916 44.2702 34.7252 44.843C35.6615 45.4179 36.9311 45.7311 38.6653 45.6746C40.2714 45.6219 41.4646 45.257 42.3589 44.6607C43.2514 44.0653 43.8698 43.2236 44.2995 42.1746C45.168 40.0547 45.2468 37.1433 45.2619 33.8596C45.2765 30.6463 44.3626 27.8114 43.0783 25.7872C41.7822 23.744 40.1589 22.5951 38.7834 22.5951C37.2604 22.5951 35.5458 23.755 34.1899 25.7926C32.8435 27.8162 31.893 30.6496 31.8784 33.8623Z" fill="white" stroke="black" stroke-width="0.594824"/>
<path d="M33.2549 38.8876C33.2337 43.4707 32.3246 45.3114 38.757 45.9062C44.1833 45.3114 44.1622 43.5207 44.1833 38.9376C43.9236 34.3071 41.7748 30.6282 38.757 30.6145C35.7391 30.6005 33.2757 34.3045 33.2549 38.8876Z" fill="#161212"/>
<path d="M49.5191 43.0838C49.0233 43.5299 48.151 44.6006 48.6268 45.3144C49.2216 46.2066 56.3595 46.3553 56.5082 45.3144C56.6272 44.4816 56.1612 43.4803 55.9134 43.0838" stroke="black" stroke-width="0.594824"/>
<path d="M79.0378 17.6179C79.0378 27.9158 78.4882 36.0179 78.2193 36.0946C77.1139 36.4105 76.7323 32.5257 75.84 21.5214C74.0812 15.3617 75.2821 14.8942 75.6176 14.1976C79.0378 7.09692 78.9629 8.73269 79.0378 17.6179Z" fill="#8D080F"/>
<path d="M57.46 39.8596C57.46 39.3409 55.3162 38.9203 52.6716 38.9203C50.027 38.9203 47.8833 39.3409 47.8833 39.8596C47.8833 40.3783 50.027 40.281 52.6716 40.281C55.3162 40.281 57.46 40.3783 57.46 39.8596Z" fill="#9C0D16"/>
<path d="M54.7239 36.1419C54.7239 35.6229 53.652 35.2024 52.3297 35.2024C51.0074 35.2024 49.9355 35.6229 49.9355 36.1419C49.9355 36.6606 51.0074 36.5633 52.3297 36.5633C53.652 36.5633 54.7239 36.6606 54.7239 36.1419Z" fill="#9C0D16"/>
<path d="M59.5419 76.8228C59.5419 77.3415 57.3981 77.7621 54.7535 77.7621C52.109 77.7621 49.9652 77.3415 49.9652 76.8228C49.9652 76.3038 52.109 76.4011 54.7535 76.4011C57.3981 76.4011 59.5419 76.3038 59.5419 76.8228Z" fill="#890B13"/>
<path d="M52.647 58.6979L52.3445 52.601L47.4372 52.1549L43.1274 51.5601C42.9787 54.5342 49.4745 59.2431 52.647 58.6979Z" fill="white" stroke="black" stroke-width="0.594824"/>
<path d="M53.9532 58.8939L54.3241 52.72L61.4156 52.3036C61.0299 57.1 55.7921 58.8648 53.9532 58.8939Z" fill="white" stroke="black" stroke-width="0.594824"/>
<defs>
<linearGradient id="paint0_linear_96_142" x1="52.7607" y1="92.0509" x2="52.7607" y2="10.8146" gradientUnits="userSpaceOnUse">
<stop stop-color="#D81925"/>
<stop offset="1" stop-color="#99121B"/>
</linearGradient>
<linearGradient id="paint1_linear_96_142" x1="53.1987" y1="1" x2="53.1987" y2="82.2363" gradientUnits="userSpaceOnUse">
<stop stop-color="#D81925"/>
<stop offset="1" stop-color="#99121B"/>
</linearGradient>
</defs>
</svg>
