<svg width="106" height="90" viewBox="0 0 106 90" fill="none" xmlns="http://www.w3.org/2000/svg">
<path d="M52.7704 88.6693C81.8352 87.9664 105.365 86.0654 105.325 84.4233C105.285 82.7812 81.6914 82.0199 52.6265 82.7228C23.5617 83.4258 0.0321941 85.3268 0.0719076 86.9689C0.111621 88.6109 23.7055 89.3723 52.7704 88.6693Z" fill="#F2C47F"/>
<path d="M69.2968 56.3187C63.7946 32.0796 55.3187 47.6937 49.2217 66.4307C48.6269 49.0321 18.616 26.912 30.1874 17.6551C41.3403 8.73272 67.2152 7.98919 77.7733 17.6551C87.6331 26.6818 68.5532 35.2024 69.2968 56.3187Z" fill="url(#paint0_linear_96_304)" stroke="black" stroke-width="0.594824"/>
<path d="M38.7022 79.4939C41.563 79.1947 44.185 79.3163 46.1081 79.7491C47.0711 79.9659 47.8458 80.2576 48.3871 80.6038C48.9305 80.9518 49.2059 81.3325 49.2466 81.7212C49.2874 82.1099 49.0965 82.5394 48.6369 82.992C48.1792 83.4429 47.4815 83.8887 46.5842 84.3001C44.7923 85.1215 42.2524 85.7833 39.3916 86.0827C36.5305 86.3819 33.9088 86.2603 31.9854 85.8276C31.0227 85.6108 30.2477 85.319 29.7067 84.9728C29.1633 84.6248 28.8879 84.2442 28.8472 83.8554C28.8064 83.4667 28.997 83.0373 29.4568 82.5846C29.9146 82.1337 30.6123 81.6879 31.5093 81.2766C33.3015 80.4551 35.8411 79.7934 38.7022 79.4939Z" fill="#7C151B" stroke="black" stroke-width="0.452034"/>
<path d="M29.0176 84.3351C30.2605 83.657 32.9051 82.3011 33.5379 82.3011" stroke="black" stroke-width="0.452034"/>
<path d="M33.4247 85.9174C33.9523 85.164 35.0973 83.5895 35.459 83.3183" stroke="black" stroke-width="0.452034"/>
<path d="M66.1587 78.8991C63.2976 78.5999 60.6759 78.7215 58.7525 79.1543C57.7898 79.3711 57.0148 79.6628 56.4738 80.009C55.9304 80.357 55.655 80.7377 55.6142 81.1264C55.5735 81.5151 55.7641 81.9446 56.2239 82.3973C56.6817 82.8481 57.3794 83.294 58.2764 83.7053C60.0686 84.5267 62.6082 85.1885 65.4693 85.488C68.3301 85.7872 70.9521 85.6655 72.8752 85.2328C73.8382 85.016 74.6129 84.7242 75.1542 84.378C75.6976 84.03 75.973 83.6494 76.0137 83.2606C76.0545 82.8719 75.8635 82.4425 75.404 81.9898C74.9463 81.5389 74.2486 81.0931 73.3513 80.6818C71.5594 79.8603 69.0195 79.1986 66.1587 78.8991Z" fill="#7C151B" stroke="black" stroke-width="0.452034"/>
<path d="M75.8434 83.7404C74.6002 83.0623 71.9559 81.7064 71.323 81.7064" stroke="black" stroke-width="0.452034"/>
<path d="M71.436 85.3226C70.9087 84.5692 69.7636 82.9948 69.402 82.7235" stroke="black" stroke-width="0.452034"/>
<path d="M87.5251 48.9176C86.0157 52.3887 84.1786 55.3134 82.4379 57.2365C81.5662 58.1992 80.7301 58.8981 79.9833 59.2937C79.233 59.691 78.6185 59.7603 78.1468 59.5551C77.6751 59.3499 77.3066 58.8535 77.0854 58.0338C76.8653 57.2175 76.8064 56.1295 76.9161 54.8355C77.1353 52.2507 78.0213 48.9128 79.5307 45.4414C81.04 41.97 82.8772 39.0456 84.6179 37.1225C85.4896 36.1598 86.3257 35.4609 87.0727 35.0653C87.8228 34.6677 88.4373 34.5987 88.909 34.8039C89.3807 35.0088 89.7492 35.5055 89.9704 36.3251C90.1905 37.1412 90.2494 38.2295 90.1397 39.5235C89.9205 42.1083 89.0345 45.4462 87.5251 48.9176Z" fill="#D81925" stroke="black" stroke-width="0.594824"/>
<path d="M27.2608 45.9708C28.813 49.4234 29.7403 52.75 29.991 55.3321C30.1168 56.6247 30.0713 57.7132 29.861 58.532C29.6502 59.3546 29.2879 59.8555 28.8186 60.0663C28.3496 60.2772 27.7342 60.2159 26.9791 59.8278C26.2272 59.4415 25.3826 58.7526 24.4993 57.8009C22.7347 55.8993 20.8619 52.9977 19.31 49.5451C17.7578 46.0927 16.8308 42.7659 16.5798 40.184C16.454 38.8915 16.4998 37.8026 16.7098 36.9839C16.9206 36.1615 17.2832 35.6604 17.7522 35.4495C18.2212 35.2387 18.8366 35.3002 19.5917 35.6883C20.3435 36.0747 21.1882 36.7632 22.0715 37.7152C23.8361 39.6166 25.7089 42.5184 27.2608 45.9708Z" fill="#D81925" stroke="black" stroke-width="0.594824"/>
<path d="M80.45 1C74.9479 25.2391 31.9718 22.8598 25.8749 4.12283C25.28 21.5214 26.3397 54.0898 29.7412 68.5125C33.4589 84.2754 69.5944 89.1827 77.7733 68.5125C82.6916 56.0825 79.7064 22.1163 80.45 1Z" fill="url(#paint1_linear_96_304)" stroke="black" stroke-width="0.594824"/>
<path d="M74.7991 48.7346C57.9061 55.3966 40.2993 51.5104 33.6076 48.7346C32.864 55.9222 34.6262 76.3273 53.8316 75.353C74.353 74.3121 76.1872 58.2021 74.7991 48.7346Z" fill="#FFB1B1" stroke="black" stroke-width="0.594824"/>
<path d="M65.5793 65.6871C65.4306 64.0514 62.9026 52.3036 62.7539 52.0062L68.9996 50.8165C68.3551 56.0212 65.6983 66.9957 65.5793 65.6871Z" fill="white" stroke="black" stroke-width="0.594824"/>
<path d="M44.6119 66.1332C44.7606 64.4975 46.545 52.4523 46.6937 52.1549L39.8533 50.9652C40.4978 56.1699 44.4929 67.4418 44.6119 66.1332Z" fill="white" stroke="black" stroke-width="0.594824"/>
<path d="M59.9286 35.0552C59.9134 38.344 59.9185 41.3636 60.783 43.5377C61.2101 44.6122 61.8418 45.4628 62.7754 46.0359C63.7117 46.6105 64.9813 46.924 66.7155 46.8675C68.3215 46.8149 69.5148 46.4499 70.4091 45.8533C71.3016 45.2582 71.9199 44.4165 72.3497 43.3673C73.2181 41.2476 73.2969 38.3359 73.3121 35.0525C73.3267 31.839 72.4127 29.0043 71.1285 26.9801C69.8324 24.9366 68.2091 23.788 66.8336 23.788C65.3105 23.788 63.596 24.9479 62.2401 26.9855C60.8937 29.0088 59.9431 31.8425 59.9286 35.0552Z" fill="white" stroke="black" stroke-width="0.594824"/>
<path d="M61.3049 40.0805C61.2838 44.6633 60.3746 46.504 66.807 47.0988C72.2333 46.504 72.2122 44.7136 72.2333 40.1305C71.9737 35.4998 69.8249 31.8211 66.807 31.8071C63.7892 31.7934 61.3257 35.4974 61.3049 40.0805Z" fill="#161212"/>
<path d="M31.8784 33.8623C31.8632 37.1513 31.8683 40.1707 32.7329 42.345C33.1602 43.4193 33.7916 44.2702 34.7252 44.843C35.6615 45.4179 36.9311 45.7311 38.6653 45.6746C40.2714 45.6219 41.4646 45.257 42.3589 44.6607C43.2514 44.0653 43.8698 43.2236 44.2995 42.1746C45.168 40.0547 45.2471 37.1433 45.2619 33.8596C45.2768 30.6463 44.3626 27.8114 43.0783 25.7872C41.7822 23.744 40.1589 22.5951 38.7834 22.5951C37.2604 22.5951 35.5458 23.755 34.1899 25.7926C32.8435 27.8162 31.8933 30.6496 31.8784 33.8623Z" fill="white" stroke="black" stroke-width="0.594824"/>
<path d="M33.2549 38.8876C33.2337 43.4707 32.3246 45.3114 38.757 45.9062C44.1833 45.3114 44.1622 43.5207 44.1833 38.9376C43.9236 34.3071 41.7748 30.6282 38.757 30.6145C35.7391 30.6005 33.2757 34.3045 33.2549 38.8876Z" fill="#161212"/>
<path d="M49.5191 43.0838C49.0233 43.5299 48.151 44.6006 48.6268 45.3144C49.2216 46.2066 56.3595 46.3553 56.5082 45.3144C56.6272 44.4816 56.1612 43.4803 55.9134 43.0838" stroke="black" stroke-width="0.594824"/>
<path d="M79.0378 17.6176C79.0378 27.9158 77.596 20.255 77.3271 20.3318C76.2216 20.6476 76.7323 32.5257 75.84 21.5214C74.0812 15.3617 75.2821 14.8942 75.6176 14.1974C79.0378 7.09694 78.9629 8.73271 79.0378 17.6176Z" fill="#8D080F"/>
<path d="M87.0437 37.863C85.7776 41.0519 85.5245 39.4066 85.2925 39.566C84.3375 40.2212 83.3004 43.6417 83.914 40.6843C83.2136 39.6636 84.372 38.2369 84.7625 37.8791C88.3315 34.6075 88.0739 35.1494 87.0437 37.863Z" fill="#8D080F"/>
<path d="M57.46 33.1378C57.46 32.6191 55.3162 32.1985 52.6716 32.1985C50.027 32.1985 47.8833 32.6191 47.8833 33.1378C47.8833 33.6568 50.027 33.5595 52.6716 33.5595C55.3162 33.5595 57.46 33.6568 57.46 33.1378Z" fill="#9C0D16"/>
<path d="M57.46 36.8854C57.46 36.3665 55.3162 35.9459 52.6716 35.9459C50.027 35.9459 47.8833 36.3665 47.8833 36.8854C47.8833 37.4041 50.027 37.3069 52.6716 37.3069C55.3162 37.3069 57.46 37.4041 57.46 36.8854Z" fill="#9C0D16"/>
<path d="M56.0919 30.4016C56.0919 29.8829 54.4074 29.4623 52.3296 29.4623C50.2519 29.4623 48.5674 29.8829 48.5674 30.4016C48.5674 30.9206 50.2519 30.823 52.3296 30.823C54.4074 30.823 56.0919 30.9206 56.0919 30.4016Z" fill="#9C0D16"/>
<path d="M54.7239 27.6654C54.7239 27.1467 53.652 26.7261 52.3297 26.7261C51.0074 26.7261 49.9355 27.1467 49.9355 27.6654C49.9355 28.1841 51.0074 28.0868 52.3297 28.0868C53.652 28.0868 54.7239 28.1841 54.7239 27.6654Z" fill="#9C0D16"/>
<path d="M59.5419 76.8228C59.5419 77.3415 57.3981 77.7621 54.7535 77.7621C52.109 77.7621 49.9652 77.3415 49.9652 76.8228C49.9652 76.3038 52.109 76.4011 54.7535 76.4011C57.3981 76.4011 59.5419 76.3038 59.5419 76.8228Z" fill="#890B13"/>
<defs>
<linearGradient id="paint0_linear_96_304" x1="52.7607" y1="92.0509" x2="52.7607" y2="10.8146" gradientUnits="userSpaceOnUse">
<stop stop-color="#D81925"/>
<stop offset="1" stop-color="#99121B"/>
</linearGradient>
<linearGradient id="paint1_linear_96_304" x1="53.1987" y1="1" x2="53.1987" y2="82.2363" gradientUnits="userSpaceOnUse">
<stop stop-color="#D81925"/>
<stop offset="1" stop-color="#99121B"/>
</linearGradient>
</defs>
</svg>
