<svg width="106" height="76" viewBox="0 0 106 76" fill="none" xmlns="http://www.w3.org/2000/svg">
<path d="M52.7704 74.6461C81.8352 73.9432 105.365 72.0422 105.325 70.4001C105.285 68.7581 81.6914 67.9967 52.6265 68.6996C23.5617 69.4026 0.0321941 71.3036 0.0719076 72.9457C0.111621 74.5877 23.7055 75.3491 52.7704 74.6461Z" fill="#F2C47F"/>
<path d="M28.0076 14.5463C13.6842 25.848 17.3483 49.7724 26.5681 56.4641C34.0629 57.2969 39.4559 55.5222 41.29 54.531L42.0336 46.6495C47.387 48.7909 53.4839 48.2853 57.3503 45.7573L60.1757 52.8952C68.9493 54.8284 77.8417 51.0679 78.1691 50.0698C81.1432 40.9987 81.372 55.5089 82.6303 45.7573C83.82 36.5375 75.7253 8.95584 68.4048 8.40801C44.5642 6.62354 47.1907 6.66488 28.0076 14.5463Z" fill="#6400C9" stroke="black" stroke-width="0.594824"/>
<path d="M30.0386 5.43388C19.3318 -0.242822 20.0753 32.7785 29.2951 39.4703C36.7899 40.3031 42.1829 38.5284 44.017 37.5371L44.7605 29.6557C50.114 31.7971 56.2109 31.2915 60.0773 28.7635L62.9027 35.9014C71.6763 37.8345 80.569 34.0741 80.8961 33.076C83.8702 24.0049 84.0989 38.5153 85.3573 28.7635C86.5469 19.5437 75.4865 -2.28485 69.1483 1.41882C44.4631 15.8433 52.1958 17.1817 30.0386 5.43388Z" fill="#6400C9" stroke="black" stroke-width="0.594824"/>
<path d="M20.224 7.34982C6.54309 5.26794 18.737 64.8991 27.9568 71.5908C35.4515 72.4236 40.8445 70.6489 42.6787 69.6576L43.7196 62.5195C49.073 64.6608 55.17 64.1552 59.0363 61.6272L61.8617 68.7651C70.6354 70.6983 79.528 69.02 79.8552 68.0219C82.8293 58.9508 84.0989 38.515 85.3573 28.7635C86.5469 19.5437 89.3334 -0.765662 82.5319 1.99611C57.9954 11.9597 45.2067 15.6774 20.224 7.34982Z" fill="url(#paint0_linear_96_442)" stroke="black" stroke-width="0.594824"/>
<path d="M67.6613 43.7828C45.5041 48.9875 34.6485 46.9056 34.0537 46.9056C34.0537 61.1641 58.8704 56.9614 62.4566 55.1017C66.4716 53.0198 67.4135 47.2583 67.6613 43.7828Z" fill="#8114EF" stroke="black" stroke-width="0.594824"/>
<path d="M49.2217 52.7224L48.4782 47.0716L39.5558 47.3518C39.4071 50.3259 46.0492 53.2676 49.2217 52.7224Z" fill="white" stroke="black" stroke-width="0.594824"/>
<path d="M57.2518 52.2763L56.2109 46.1793L63.3488 44.8237C64.0626 49.5823 59.0363 51.8302 57.2518 52.2763Z" fill="white" stroke="black" stroke-width="0.594824"/>
<path d="M67.7636 35.2774C65.5987 37.508 62.9764 38.8681 60.4969 39.274C58.0171 39.6803 55.7014 39.1316 54.1002 37.5776C52.4989 36.0236 51.8812 33.7255 52.2128 31.2347C52.5444 28.7439 53.8254 26.082 55.9902 23.8514C58.1548 21.6208 60.7771 20.2608 63.2569 19.8545C65.7367 19.4485 68.0524 19.9973 69.6536 21.5512C71.2549 23.1052 71.8726 25.4033 71.541 27.8942C71.2094 30.385 69.9281 33.0468 67.7636 35.2774Z" fill="white" stroke="black" stroke-width="0.594824"/>
<path d="M46.1022 26.1222C48.002 28.5824 48.9749 31.3715 49.0239 33.8837C49.073 36.396 48.2004 38.6099 46.4344 39.9739C44.6683 41.3375 42.3054 41.6221 39.8874 40.9393C37.4692 40.2564 35.0167 38.6096 33.1169 36.1494C31.217 33.6895 30.2441 30.9001 30.1951 28.3879C30.146 25.8756 31.0186 23.6617 32.7846 22.2978C34.5507 20.9341 36.9136 20.6498 39.3316 21.3324C41.7498 22.0152 44.2023 23.662 46.1022 26.1222Z" fill="white" stroke="black" stroke-width="0.594824"/>
<path d="M54.4813 38.1156C56.647 40.2173 60.3183 39.9471 62.6816 37.512C65.0448 35.0769 65.205 31.3991 63.0393 29.2974C60.8737 27.1957 57.2023 27.4659 54.8391 29.901C52.4759 32.3361 52.3157 36.0139 54.4813 38.1156Z" fill="#161212"/>
<path d="M46.3352 40.342C48.7237 38.4975 48.9787 34.8251 46.9047 32.1393C44.8308 29.4536 41.2132 28.7716 38.8246 30.6161C36.4361 32.4606 36.1811 36.133 38.2551 38.8188C40.329 41.5045 43.9466 42.1865 46.3352 40.342Z" fill="#161212"/>
<path d="M59.0363 61.6275C60.1763 61.0824 62.754 59.6349 63.9436 58.2073" stroke="#0D0A11" stroke-width="0.594824"/>
<path d="M38.3661 59.8187C39.3842 60.5673 41.8753 62.159 43.6949 62.5358" stroke="#0D0A11" stroke-width="0.594824"/>
<path d="M21.4012 17.0157C21.4012 23.4217 20.4691 28.6148 19.3193 28.6148C18.1695 28.6148 17.2374 23.4217 17.2374 17.0157C17.2374 10.6097 18.1695 11.811 19.3193 11.811C20.4691 11.811 21.4012 10.6097 21.4012 17.0157Z" fill="#791ED5"/>
<path d="M26.4697 12.7981C26.4697 14.1514 25.5376 15.2485 24.3878 15.2485C23.238 15.2485 22.3059 14.1514 22.3059 12.7981C22.3059 11.4446 23.238 11.6983 24.3878 11.6983C25.5376 11.6983 26.4697 11.4446 26.4697 12.7981Z" fill="#791ED5"/>
<path d="M62.7478 18.578C61.3499 19.2499 60.1186 19.591 59.9982 19.34C59.8777 19.0893 60.913 18.3413 62.3111 17.6694C63.709 16.9976 65.4158 17.5665 65.5363 17.8175C65.657 18.0685 64.1459 17.9064 62.7478 18.578Z" fill="#791ED5"/>
<path d="M45.43 23.2468C46.2574 24.5589 47.119 25.502 47.3543 25.3536C47.5898 25.2049 47.1101 24.0212 46.2827 22.709C45.4556 21.3971 43.7074 20.9721 43.4718 21.1209C43.2363 21.2693 44.6029 21.9349 45.43 23.2468Z" fill="#791ED5"/>
<path d="M53.2368 38.7646C53.2368 38.99 52.3047 39.1729 51.1549 39.1729C50.0051 39.1729 49.073 38.99 49.073 38.7646C49.073 38.5388 50.0051 38.5811 51.1549 38.5811C52.3047 38.5811 53.2368 38.5388 53.2368 38.7646Z" fill="#791ED5"/>
<path d="M52.0471 39.8228C52.0471 40.0482 51.3149 40.2311 50.4113 40.2311C49.5078 40.2311 48.7756 40.0482 48.7756 39.8228C48.7756 39.597 49.5078 39.6395 50.4113 39.6395C51.3149 39.6395 52.0471 39.597 52.0471 39.8228Z" fill="#791ED5"/>
<path d="M54.7239 39.8228C54.7239 40.0482 54.2578 40.2311 53.6829 40.2311C53.108 40.2311 52.642 40.0482 52.642 39.8228C52.642 39.597 53.108 39.6395 53.6829 39.6395C54.2578 39.6395 54.7239 39.597 54.7239 39.8228Z" fill="#791ED5"/>
<defs>
<linearGradient id="paint0_linear_96_442" x1="50.5535" y1="1.74033" x2="68.7022" y2="68.468" gradientUnits="userSpaceOnUse">
<stop stop-color="#6400C9"/>
<stop offset="1" stop-color="#410281"/>
</linearGradient>
</defs>
</svg>
