<svg width="106" height="93" viewBox="0 0 106 93" fill="none" xmlns="http://www.w3.org/2000/svg">
<path d="M52.7704 91.0981C81.8352 90.3951 105.365 88.4941 105.325 86.852C105.285 85.21 81.6914 84.4486 52.6265 85.1516C23.5617 85.8545 0.0321941 87.7555 0.0719076 89.3976C0.111621 91.0396 23.7055 91.801 52.7704 91.0981Z" fill="#F2C47F"/>
<path d="M52.3345 1C46.8324 12.4504 47.8733 6.35341 43.6968 20.8314L59.1952 18.161C57.7272 15.7516 55.4573 14.2348 52.3345 1Z" fill="#024E40" stroke="#030303" stroke-width="0.594824"/>
<path d="M47.9399 15.6502C47.8664 14.1739 48.5761 14.5245 50.8212 14.4133C53.0667 14.3017 55.0974 14.2096 55.1709 15.6862C55.244 17.1626 53.3192 15.9319 51.0737 16.0434C48.8286 16.1549 48.0131 17.1269 47.9399 15.6502Z" fill="#116959"/>
<path d="M48.958 12.2175C48.8991 10.7403 49.606 11.4582 51.0973 11.399C52.5882 11.3399 53.7038 10.9437 53.7627 12.4209C53.8216 13.8982 52.5341 12.6235 51.0428 12.683C49.5516 12.7422 49.0166 13.6945 48.958 12.2175Z" fill="#116959"/>
<path d="M49.7227 8.96827C49.7661 8.22593 50.4052 8.75652 51.1719 8.63577C51.939 8.51502 52.3759 8.09567 52.4425 9.27461C52.4999 10.29 51.8313 9.52622 51.0643 9.64727C50.2973 9.76802 49.9526 10.4286 49.7227 8.96827Z" fill="#116959"/>
<path d="M84.1702 56.5705C84.8807 59.4512 85.0193 62.1696 84.68 64.2301C84.5098 65.2609 84.2228 66.1127 83.8401 66.736C83.4582 67.3579 82.9936 67.7353 82.4669 67.8653C81.9405 67.995 81.3537 67.8772 80.7265 67.5043C80.0977 67.1301 79.4473 66.51 78.8174 65.6764C77.5584 64.01 76.417 61.5394 75.7064 58.6583C74.9956 55.7776 74.857 53.0593 75.1967 50.9988C75.3665 49.968 75.6535 49.1162 76.0363 48.4928C76.4182 47.8709 76.8827 47.4935 77.4094 47.3635C77.9361 47.2335 78.5229 47.3516 79.1502 47.7246C79.7789 48.0987 80.4291 48.7188 81.059 49.5525C82.3179 51.2189 83.4594 53.6895 84.1702 56.5705Z" fill="#139D84" stroke="black" stroke-width="0.594824"/>
<path d="M28.7164 55.1277C27.1865 58.0073 25.3506 60.3598 23.6301 61.8377C22.7691 62.5773 21.9488 63.0874 21.2213 63.3417C20.4942 63.596 19.8892 63.5855 19.4193 63.336C18.9494 63.0862 18.6023 62.5907 18.406 61.846C18.2097 61.1007 18.1735 60.1356 18.3043 59.0081C18.5663 56.7549 19.4883 53.917 21.0182 51.0374C22.5484 48.1576 24.384 45.8054 26.1048 44.3272C26.9659 43.5879 27.7858 43.0775 28.5136 42.8232C29.2408 42.5692 29.8454 42.5793 30.3153 42.8292C30.7852 43.079 31.1323 43.5742 31.3289 44.3192C31.5252 45.0645 31.5615 46.0296 31.4303 47.1571C31.1686 49.4103 30.2466 52.2479 28.7164 55.1277Z" fill="#139D84" stroke="black" stroke-width="0.594824"/>
<path d="M52.3446 17.2586H52.3538L52.3634 17.258C62.0397 16.6477 68.4968 21.7837 73.3568 29.6092C76.6813 34.9624 80.0039 41.4123 80.0039 48.3382C80.0039 56.666 77.089 64.3999 72.3471 70.1575C71.2461 71.4941 70.7776 73.2393 70.606 75.0749C70.4347 76.9076 70.5566 78.8693 70.6682 80.6633L70.6688 80.6731C70.7815 82.4873 70.8808 84.1097 70.6839 85.3172C70.5858 85.9177 70.4189 86.384 70.1682 86.7126C69.9255 87.0306 69.5913 87.2373 69.1092 87.3018L69.1041 87.3024L69.0993 87.303C65.5583 87.8934 58.891 88.0427 55.0213 88.0427C54.7822 88.0427 54.6088 87.9787 54.4738 87.8779C54.3346 87.7741 54.2171 87.6168 54.1178 87.402C53.915 86.9625 53.821 86.3581 53.7362 85.6997C53.7276 85.6324 53.719 85.5643 53.7103 85.4959C53.6381 84.9216 53.5622 84.32 53.3992 83.8509C53.3065 83.5845 53.1768 83.332 52.9802 83.144C52.775 82.948 52.5127 82.838 52.1959 82.838C51.9217 82.838 51.7186 82.9932 51.5764 83.1767C51.4369 83.3563 51.3293 83.5946 51.2377 83.8474C51.1175 84.1796 51.0075 84.593 50.8944 85.0165C50.8376 85.23 50.7802 85.4463 50.7202 85.6559C50.5349 86.304 50.3219 86.9155 50.0245 87.3619C49.7333 87.7988 49.3869 88.0427 48.9244 88.0427C48.2829 88.0427 47.6547 88.0552 46.9775 88.0685C44.3484 88.1206 40.9763 88.1878 33.1839 87.5974C33.0268 87.5855 32.9111 87.5395 32.821 87.4719C32.7291 87.4032 32.6473 87.2991 32.5789 87.1472C32.4376 86.8334 32.3722 86.359 32.3728 85.7223C32.3737 84.7762 32.5168 83.5717 32.68 82.1976C32.7362 81.7253 32.7948 81.2331 32.8508 80.7242C33.0676 78.7521 33.2413 76.5608 33.0569 74.4411C32.8728 72.3212 32.3288 70.2515 31.093 68.5369C27.0934 62.9866 24.6853 55.9076 24.6853 48.3382C24.6853 41.5346 28.2539 35.8457 31.6263 30.6555C36.6859 22.869 43.2019 17.2586 52.3446 17.2586Z" fill="url(#paint0_linear_96_470)" stroke="black" stroke-width="0.594824"/>
<path d="M65.6458 44.3332C64.4615 47.3261 62.5905 49.7048 60.5378 51.1368C58.4827 52.5703 56.2785 53.0367 54.3885 52.2884C52.4981 51.5404 51.2101 49.6923 50.6926 47.2404C50.1757 44.7915 50.4392 41.7767 51.6238 38.7838C52.808 35.7912 54.6791 33.4122 56.7318 31.9802C58.7869 30.5467 60.991 30.0803 62.8811 30.8286C64.7714 31.5766 66.0595 33.425 66.577 35.8766C67.0939 38.3255 66.8304 41.3404 65.6458 44.3332Z" fill="white" stroke="black" stroke-width="0.594824"/>
<path d="M34.0591 43.0948C34.6685 46.2554 36.0664 48.9395 37.8184 50.727C39.5722 52.5165 41.6518 53.3831 43.648 52.998C45.6442 52.6131 47.2523 51.0357 48.215 48.7221C49.1766 46.4115 49.4761 43.3999 48.8667 40.2393C48.2573 37.079 46.8594 34.3949 45.1074 32.6071C43.3535 30.8179 41.274 29.9512 39.2778 30.3361C37.2819 30.7212 35.6735 32.2987 34.7107 34.612C33.7492 36.9229 33.4497 39.9345 34.0591 43.0948Z" fill="white" stroke="black" stroke-width="0.594824"/>
<path d="M53.8566 52.2485C56.6626 53.359 60.3045 50.8047 61.991 46.5432C63.6775 42.2818 62.7699 37.9269 59.9639 36.8164C57.1578 35.7059 53.5159 38.2603 51.8294 42.5217C50.1429 46.7832 51.0505 51.138 53.8566 52.2485Z" fill="#161212"/>
<path d="M44.7923 52.4344C41.8291 53.0058 38.7234 49.821 37.8556 45.3208C36.9878 40.8207 38.6865 36.7094 41.6498 36.138C44.613 35.5666 47.7186 38.7514 48.5864 43.2515C49.4542 47.7517 47.7555 51.863 44.7923 52.4344Z" fill="#161212"/>
<path d="M33.1614 62.1678C43.1247 66.9264 55.4078 64.7256 69.4456 57.1118C57.6681 71.4905 40.3489 66.4735 33.1614 62.1678Z" fill="#044237" stroke="black" stroke-width="0.594824"/>
<path d="M83.9913 59.313C84.4885 65.9244 84.0909 61.6483 83.6448 59.8638C83.6448 59.8638 83.0499 58.9715 82.4352 56.2948C81.3202 49.9867 80.1523 49.9951 80.7709 50.459C81.9605 51.3513 82.876 53.0049 83.9913 59.313Z" fill="#0D7B67"/>
<path d="M67.5126 41.2C66.4901 47.7508 68.2487 41.7008 68.2211 39.8619C68.2211 39.8619 68.2092 40.5701 68.2211 37.8235C67.81 32.4263 64.9341 30.9416 65.4307 31.5344C66.3857 32.6741 67.8648 34.8038 67.5126 41.2Z" fill="#0D7B67"/>
<path d="M68.7023 37.6314C68.4049 42.8361 68.7023 41.349 68.851 39.5646C68.851 39.5646 68.851 37.1668 68.851 36.4417C68.4049 32.4267 65.9824 30.7677 66.4791 31.3604C67.4341 32.5004 67.5477 32.2595 68.7023 37.6314Z" fill="#0D7B67"/>
<path d="M40.2993 77.0384C46.545 79.1203 54.129 80.31 63.7949 75.9975" stroke="#171618" stroke-width="0.594824"/>
<path d="M40.2993 77.0384C46.545 79.1203 54.129 80.31 63.7949 75.9975" stroke="#171618" stroke-width="0.594824"/>
<path d="M44.4631 79.5665C48.5279 80.7561 52.7907 81.3509 60.3747 78.8229" stroke="#171618" stroke-width="0.594824"/>
<path d="M48.7756 54.1199C48.7756 53.8945 47.8435 53.7115 46.6937 53.7115C45.5439 53.7115 44.6118 53.8945 44.6118 54.1199C44.6118 54.3456 45.5439 54.3031 46.6937 54.3031C47.8435 54.3031 48.7756 54.3456 48.7756 54.1199Z" fill="#0C6454"/>
<path d="M52.3445 52.6328C52.3445 52.4074 51.6123 52.2245 50.7088 52.2245C49.8052 52.2245 49.073 52.4074 49.073 52.6328C49.073 52.8586 49.8052 52.816 50.7088 52.816C51.6123 52.816 52.3445 52.8586 52.3445 52.6328Z" fill="#0C6454"/>
<path d="M50.8575 50.9771C50.8575 50.7514 50.3915 50.5688 49.8166 50.5688C49.2417 50.5688 48.7756 50.7514 48.7756 50.9771C48.7756 51.2026 49.2417 51.1603 49.8166 51.1603C50.3915 51.1603 50.8575 51.2026 50.8575 50.9771Z" fill="#0C6454"/>
<path d="M61.267 20.5302C61.267 22.0083 57.8515 22.0172 53.0882 22.0172C48.3248 22.0172 44.0171 22.0083 44.0171 20.5302C44.0171 19.0517 47.73 17.556 52.4933 17.556C57.2567 17.556 61.267 19.0517 61.267 20.5302Z" fill="#0C8D76"/>
<path d="M69.7432 81.9457C69.8621 80.1613 69.3961 76.741 69.1483 75.254C68.9996 76.8897 68.7022 80.3695 68.7022 81.2022C68.7022 82.2432 68.1074 84.4737 67.0665 85.0686C66.0255 85.6634 67.0665 86.1095 67.2152 86.4069C67.3639 86.7043 68.8509 86.2582 69.297 85.8121C69.7432 85.366 69.5945 84.1763 69.7432 81.9457Z" fill="#0B7663"/>
<path d="M54.3595 66.4411C57.8467 62.0391 54.129 63.5261 54.129 63.5261L49.2217 64.4184L44.4631 64.8645C44.6142 67.8383 50.8724 70.8428 54.3595 66.4411Z" fill="white" stroke="black" stroke-width="0.594824"/>
<defs>
<linearGradient id="paint0_linear_96_470" x1="52.3446" y1="16.9115" x2="52.3446" y2="88.3517" gradientUnits="userSpaceOnUse">
<stop stop-color="#139D84"/>
<stop offset="1" stop-color="#07836C"/>
</linearGradient>
</defs>
</svg>
