<svg width="69" height="62" viewBox="0 0 69 62" fill="none" xmlns="http://www.w3.org/2000/svg">
<path d="M14.4873 8.61017C8.04001 19.2789 2.59049 50.7288 2.59049 50.7288C2.59049 50.7288 -0.130795 60.4209 1.72701 57.8285C9.97804 46.3154 7.19572 50.0572 9.97804 46.1236C12.7604 42.1899 12.2807 48.2343 17.7494 53.7989C23.2181 59.3636 20.7236 47.5627 24.6572 45.0682C28.5908 42.5737 32.1407 46.4114 38.185 50.0572C44.2294 53.703 42.5984 45.5479 44.7091 42.8615C46.8198 40.1751 51.521 41.1346 54.3033 42.8615L54.3346 42.8809C57.12 44.61 61.711 47.4597 67.0636 45.5479C72.4364 43.6291 50.5616 29.5256 44.0375 15.1342C37.5134 0.742908 22.5465 -4.72578 14.4873 8.61017Z" fill="url(#paint0_linear_16_2116)" stroke="black" stroke-width="0.546171"/>
<path d="M37.9828 19.1003C37.5896 21.1393 36.6876 22.8712 35.5574 24.0244C34.4258 25.179 33.0842 25.738 31.7963 25.4897C30.5195 25.2435 29.3469 23.9743 28.5887 22.2004C27.8354 20.4372 27.5174 18.2297 27.9089 16.2002C28.308 14.1305 28.8927 11.5049 29.7155 9.46578C30.1274 8.44476 30.5931 7.58685 31.1135 7.01925C31.6314 6.45473 32.1798 6.20029 32.776 6.31523C33.3872 6.43305 34.0774 7.00179 34.7655 7.91574C35.4463 8.8199 36.0979 10.0259 36.6421 11.3499C37.7339 14.0067 38.3714 17.0845 37.9828 19.1003Z" fill="white" stroke="black" stroke-width="0.546171"/>
<path d="M31.0578 25.126C32.9696 25.4947 34.9733 23.4399 35.5332 20.5365C36.0931 17.6331 34.9971 14.9806 33.0853 14.6119C31.1735 14.2432 29.1698 16.2981 28.6099 19.2015C28.05 22.1049 29.146 24.7574 31.0578 25.126Z" fill="#161212"/>
<path d="M14.12 19.8678C14.5132 21.9068 15.4153 23.6387 16.5455 24.792C17.677 25.9465 19.0187 26.5055 20.3066 26.2572C21.5834 26.011 22.756 24.7419 23.5141 22.9679C24.2675 21.2047 24.5854 18.9972 24.194 16.9677C23.7948 14.898 23.2102 12.2725 22.3874 10.2333C21.9754 9.2123 21.5097 8.35438 20.9893 7.78679C20.4714 7.22226 19.923 6.96782 19.3268 7.08276C18.7157 7.20058 18.0255 7.76932 17.3374 8.68327C16.6566 9.58743 16.0049 10.7934 15.4607 12.1174C14.3689 14.7743 13.7313 17.8521 14.12 19.8678Z" fill="white" stroke="black" stroke-width="0.546171"/>
<path d="M21.045 25.8936C19.1332 26.2622 17.1295 24.2074 16.5696 21.304C16.0097 18.4006 17.1057 15.7481 19.0175 15.3794C20.9293 15.0108 22.933 17.0656 23.4929 19.969C24.0528 22.8724 22.9568 25.5249 21.045 25.8936Z" fill="#161212"/>
<path d="M34.0464 61.1301C52.7985 60.6766 67.9792 59.4501 67.9536 58.3906C67.928 57.3312 52.7057 56.84 33.9536 57.2935C15.2015 57.747 0.020771 58.9735 0.0463934 60.033C0.0720157 61.0924 15.2943 61.5836 34.0464 61.1301Z" fill="#F2C47F"/>
<defs>
<linearGradient id="paint0_linear_16_2116" x1="34.4913" y1="1.00003" x2="34.4913" y2="58.2691" gradientUnits="userSpaceOnUse">
<stop stop-color="#9E05E7"/>
<stop offset="1" stop-color="#FF9800"/>
</linearGradient>
</defs>
</svg>
