<svg width="106" height="66" viewBox="0 0 106 66" fill="none" xmlns="http://www.w3.org/2000/svg">
<path d="M52.7704 64.2816C81.8352 63.5787 105.365 61.6777 105.325 60.0356C105.285 58.3935 81.6914 57.6322 52.6265 58.3351C23.5617 59.038 0.0321941 60.939 0.0719076 62.5811C0.111621 64.2232 23.7055 64.9845 52.7704 64.2816Z" fill="#F2C47F"/>
<path d="M74.1888 54.0652C71.3277 53.766 68.7061 53.8876 66.7827 54.3204C65.82 54.5372 65.0449 54.8289 64.5039 55.1751C63.9605 55.5231 63.6851 55.9038 63.6444 56.2925C63.6036 56.6812 63.7943 57.1107 64.2541 57.5633C64.7118 58.0142 65.4095 58.46 66.3065 58.8714C68.0987 59.6928 70.6383 60.3545 73.4994 60.654C76.3603 60.9532 78.9822 60.8316 80.9053 60.3989C81.8683 60.182 82.6431 59.8903 83.1844 59.5441C83.7277 59.1961 84.0031 58.8154 84.0439 58.4267C84.0846 58.038 83.8937 57.6085 83.4342 57.1559C82.9765 56.705 82.2787 56.2592 81.3815 55.8479C79.5895 55.0264 77.0497 54.3647 74.1888 54.0652Z" fill="#B00658" stroke="black" stroke-width="0.452034"/>
<path d="M83.8735 58.9064C82.6303 58.2283 79.986 56.8724 79.3531 56.8724" stroke="black" stroke-width="0.452034"/>
<path d="M79.4661 60.4887C78.9388 59.7353 77.7935 58.1608 77.4321 57.8896" stroke="black" stroke-width="0.452034"/>
<path d="M32.754 54.3626C35.6148 54.0634 38.2367 54.185 40.1598 54.6178C41.1228 54.8346 41.8976 55.1264 42.4389 55.4725C42.9823 55.8205 43.2577 56.2012 43.2984 56.5899C43.3391 56.9786 43.1482 57.4081 42.6887 57.8608C42.231 58.3116 41.5333 58.7575 40.636 59.1688C38.8441 59.9902 36.3042 60.652 33.4434 60.9515C30.5823 61.2507 27.9606 61.129 26.0372 60.6963C25.0745 60.4795 24.2994 60.1877 23.7584 59.8415C23.2151 59.4936 22.9397 59.1129 22.8989 58.7241C22.8582 58.3354 23.0488 57.906 23.5086 57.4533C23.9663 57.0024 24.6641 56.5566 25.561 56.1453C27.3533 55.3238 29.8929 54.6621 32.754 54.3626Z" fill="#B00658" stroke="black" stroke-width="0.452034"/>
<path d="M23.0694 59.2039C24.3123 58.5258 26.9569 57.1699 27.5895 57.1699" stroke="black" stroke-width="0.452034"/>
<path d="M27.4767 60.7861C28.004 60.0327 29.149 58.4583 29.5107 58.187" stroke="black" stroke-width="0.452034"/>
<path d="M76.5836 8.4353L71.2302 16.0193L72.1225 17.0603L77.4759 9.17883L76.5836 8.4353Z" fill="#EB1E80" stroke="black" stroke-width="0.594824"/>
<path d="M35.392 16.9115L28.2542 9.77364L28.9977 8.88141L36.433 15.8706L35.392 16.9115Z" fill="#EB1E80" stroke="black" stroke-width="0.594824"/>
<path d="M53.8316 61.0772C68.1219 61.0772 79.7064 49.4926 79.7064 35.2024C79.7064 20.9121 68.1219 9.32751 53.8316 9.32751C39.5413 9.32751 27.9567 20.9121 27.9567 35.2024C27.9567 49.4926 39.5413 61.0772 53.8316 61.0772Z" fill="url(#paint0_linear_96_231)" stroke="black" stroke-width="0.594824"/>
<path d="M25.28 10.8146C27.7439 10.8146 29.7412 8.81723 29.7412 6.35339C29.7412 3.88955 27.7439 1.89221 25.28 1.89221C22.8162 1.89221 20.8188 3.88955 20.8188 6.35339C20.8188 8.81723 22.8162 10.8146 25.28 10.8146Z" fill="#EB1E80" stroke="black" stroke-width="0.594824"/>
<path d="M80.0039 9.92236C82.4677 9.92236 84.4651 7.92502 84.4651 5.46118C84.4651 2.99734 82.4677 1 80.0039 1C77.5401 1 75.5427 2.99734 75.5427 5.46118C75.5427 7.92502 77.5401 9.92236 80.0039 9.92236Z" fill="#EB1E80" stroke="black" stroke-width="0.594824"/>
<path d="M49.073 43.8273H61.1182C60.2756 45.7605 57.8169 49.8351 54.129 49.4782C50.4411 49.1213 49.2217 45.5621 49.073 43.8273Z" fill="#FFA5A5" stroke="black" stroke-width="0.594824"/>
<path d="M59.1851 43.8273H56.2109C57.5493 45.017 57.8964 45.4134 57.9954 46.3553C58.5902 45.8795 59.0364 44.4718 59.1851 43.8273Z" fill="white" stroke="black" stroke-width="0.594824"/>
<path d="M67.5125 26.8749C67.5125 28.5118 66.209 30.0703 63.9287 31.2367C61.6645 32.3951 58.5155 33.1205 55.0212 33.1205C51.5269 33.1205 48.3779 32.3951 46.1137 31.2367C43.8335 30.0703 42.5299 28.5118 42.5299 26.8749C42.5299 25.2379 43.8335 23.6795 46.1137 22.513C48.3779 21.3546 51.5269 20.6292 55.0212 20.6292C58.5155 20.6292 61.6645 21.3546 63.9287 22.513C66.209 23.6795 67.5125 25.2379 67.5125 26.8749Z" fill="white" stroke="black" stroke-width="0.594824"/>
<path d="M64.6872 30.8899C64.5385 30.7412 62.9027 32.9718 55.0213 33.1205C48.3295 32.2283 46.0989 31.4847 45.9502 30.8899C45.9502 28.5082 50.0934 24.4955 55.0213 24.4955C59.9491 24.4955 64.6872 28.5082 64.6872 30.8899Z" fill="black"/>
<path d="M35.8382 42.0428C35.5408 43.0341 35.1244 44.9872 35.8382 44.8683C36.552 44.7493 37.8211 43.7283 38.3662 43.2325" stroke="black" stroke-width="0.594824"/>
<path d="M42.0318 46.504C41.7344 47.4953 41.318 49.4484 42.0318 49.3294C42.7456 49.2105 44.0147 48.1895 44.5598 47.6937" stroke="black" stroke-width="0.594824"/>
<path d="M69.4871 42.8215C70.2609 43.5817 71.8669 44.9272 72.1013 44.2283C72.3354 43.5293 72.0029 41.8838 71.8072 41.1483" stroke="black" stroke-width="0.594824"/>
<path d="M63.5388 47.5801C64.3127 48.3403 65.9187 49.6858 66.1531 48.9869C66.3871 48.2879 66.0546 46.6424 65.8589 45.9069" stroke="black" stroke-width="0.594824"/>
<path d="M62.4566 14.0861C62.4566 15.5646 59.0411 15.5732 54.2777 15.5732C49.5144 15.5732 45.2067 15.5646 45.2067 14.0861C45.2067 12.6077 48.9196 11.112 53.6829 11.112C58.4463 11.112 62.4566 12.6077 62.4566 14.0861Z" fill="#C51B6D"/>
<path d="M82.978 4.56897C82.978 6.0474 81.7413 6.05603 80.0166 6.05603C78.2919 6.05603 76.7323 6.0474 76.7323 4.56897C76.7323 3.09053 78.0766 1.59485 79.8013 1.59485C81.526 1.59485 82.978 3.09053 82.978 4.56897Z" fill="#C21E6D"/>
<path d="M28.5516 6.94824C28.5516 5.46981 27.3149 5.46118 25.5902 5.46118C23.8655 5.46118 22.3059 5.46981 22.3059 6.94824C22.3059 8.42668 23.6502 9.92236 25.3749 9.92236C27.0996 9.92236 28.5516 8.42668 28.5516 6.94824Z" fill="#C21E6D"/>
<path d="M45.2067 56.3186C45.2067 54.8402 49.217 58.2518 53.9803 58.2518C58.7437 58.2518 62.4566 54.8402 62.4566 56.3186C62.4566 57.7971 58.7437 59.2928 53.9803 59.2928C49.217 59.2928 45.2067 57.7971 45.2067 56.3186Z" fill="#7D053F"/>
<defs>
<linearGradient id="paint0_linear_96_231" x1="53.8316" y1="9.0301" x2="53.8316" y2="61.3746" gradientUnits="userSpaceOnUse">
<stop stop-color="#EB1E80"/>
<stop offset="1" stop-color="#9E0D53"/>
</linearGradient>
</defs>
</svg>
