<svg width="106" height="100" viewBox="0 0 106 100" fill="none" xmlns="http://www.w3.org/2000/svg">
<path d="M68.7893 1C65.6252 13.3033 68.7548 7.96866 62.627 21.7347L52.4894 9.7109C55.164 8.81302 57.8773 9.11429 68.7893 1Z" fill="#061815" stroke="#030303" stroke-width="0.594824"/>
<path d="M62.717 15.0381C63.7241 13.9558 62.9553 13.7673 61.3094 12.2362C59.6632 10.7051 58.1687 9.32692 57.162 10.4092C56.1549 11.4915 58.4203 11.7898 60.0662 13.3209C61.7124 14.8519 61.7103 16.1207 62.717 15.0381Z" fill="#444444"/>
<path d="M64.1488 11.7565C65.1451 10.6641 64.142 10.758 63.0391 9.75249C61.9366 8.74694 61.3382 7.72562 60.3419 8.81772C59.3459 9.91011 61.1515 9.76408 62.254 10.7696C63.3565 11.7755 63.1528 12.8485 64.1488 11.7565Z" fill="#444444"/>
<path d="M65.6561 8.77819C66.101 8.18247 65.2703 8.17682 64.7614 7.59033C64.2523 7.00413 64.1883 6.40187 63.3782 7.26079C62.6804 8.00075 63.6836 7.84729 64.1925 8.43349C64.7017 9.01999 64.5399 9.74716 65.6561 8.77819Z" fill="#444444"/>
<path d="M9.24445 5.80591C14.7965 17.2322 10.6664 12.6276 19.4142 24.8971L26.9533 11.0948C24.1531 10.748 21.5543 11.5837 9.24445 5.80591Z" fill="#061815" stroke="#030303" stroke-width="0.594824"/>
<path d="M17.9917 18.3528C16.7896 17.4927 17.5051 17.1548 18.8131 15.3266C20.1212 13.4982 21.3111 11.8499 22.5135 12.71C23.7157 13.5701 21.5553 14.3137 20.2473 16.1418C18.9393 17.9703 19.1941 19.2132 17.9917 18.3528Z" fill="#444444"/>
<path d="M15.9348 15.4221C14.741 14.5501 15.7429 14.4424 16.623 13.2373C17.5033 12.0325 17.8864 10.9121 19.0802 11.7841C20.274 12.6562 18.4753 12.8727 17.5952 14.0778C16.7152 15.2829 17.1286 16.2941 15.9348 15.4221Z" fill="#444444"/>
<path d="M13.8645 12.8037C13.3098 12.3085 14.1226 12.1375 14.5048 11.4614C14.8867 10.7857 14.8296 10.1829 15.7947 10.8631C16.6257 11.4493 15.6121 11.4986 15.2299 12.1746C14.848 12.8507 15.1517 13.5311 13.8645 12.8037Z" fill="#444444"/>
<path d="M22.4546 16.9475C12.4615 33.4836 4.01506 82.2295 4.01506 82.2295C4.01506 82.2295 -0.202805 97.2518 2.67671 93.2337C15.4654 75.389 11.1529 81.1885 15.4654 75.0916C19.7779 68.9946 19.0343 78.3631 27.5106 86.9881C35.9868 95.613 32.1205 77.3222 38.2174 73.4558C44.3144 69.5894 49.8165 75.5377 59.185 81.1885C68.5535 86.8393 66.0254 74.1993 69.297 70.0356C72.5685 65.8718 79.8551 67.3589 84.1676 70.0356L84.2161 70.0656C88.5336 72.7456 95.6492 77.1625 103.945 74.1993C112.273 71.2252 78.3681 49.3654 68.256 27.0595C58.144 4.75362 34.9459 -3.72259 22.4546 16.9475Z" fill="url(#paint0_linear_96_250)" stroke="black" stroke-width="0.594824"/>
<path d="M58.8715 33.2068C58.2621 36.3671 56.864 39.0515 55.1122 40.839C53.3584 42.6285 51.2789 43.4948 49.2827 43.11C47.3037 42.7284 45.4862 40.7613 44.3111 38.0118C43.1435 35.2788 42.6507 31.8574 43.2574 28.7117C43.876 25.5038 44.7822 21.4343 46.0575 18.2737C46.6961 16.6912 47.4179 15.3615 48.2245 14.4817C49.0272 13.6067 49.8772 13.2124 50.8013 13.3905C51.7485 13.5731 52.8183 14.4546 53.8848 15.8712C54.94 17.2726 55.9501 19.1419 56.7935 21.194C58.4858 25.312 59.4738 30.0825 58.8715 33.2068Z" fill="white" stroke="black" stroke-width="0.594824"/>
<path d="M48.1382 42.5464C51.1014 43.1178 54.2071 39.933 55.0749 35.4328C55.9426 30.9327 54.244 26.8214 51.2807 26.25C48.3175 25.6786 45.2119 28.8634 44.3441 33.3636C43.4763 37.8637 45.175 41.975 48.1382 42.5464Z" fill="#161212"/>
<path d="M21.8854 34.3964C22.4948 37.5567 23.8929 40.2411 25.6447 42.0286C27.3985 43.8181 29.478 44.6845 31.4742 44.2996C33.4532 43.9181 35.2707 41.951 36.4458 39.2014C37.6134 36.4685 38.1062 33.047 37.4995 29.9013C36.8809 26.6934 35.9747 22.6239 34.6994 19.4633C34.0608 17.8808 33.339 16.5511 32.5324 15.6713C31.7297 14.7964 30.8797 14.402 29.9557 14.5801C29.0084 14.7627 27.9386 15.6443 26.8721 17.0609C25.8169 18.4623 24.8069 20.3315 23.9634 22.3836C22.2711 26.5016 21.2831 31.2721 21.8854 34.3964Z" fill="white" stroke="black" stroke-width="0.594824"/>
<path d="M32.6187 43.736C29.6555 44.3074 26.5498 41.1225 25.6821 36.6224C24.8143 32.1223 26.5129 28.011 29.4762 27.4395C32.4394 26.8681 35.545 30.053 36.4128 34.5531C37.2806 39.0533 35.5819 43.1646 32.6187 43.736Z" fill="#161212"/>
<path d="M55.8218 54.1666C51.2741 65.2205 31.0501 65.2205 25.73 54.7778C20.4096 44.335 32.0473 56.065 40.6904 55.9698C49.5259 55.8728 60.3693 43.1127 55.8218 54.1666Z" fill="#101010" stroke="black" stroke-width="0.594824"/>
<path d="M44.541 58.8383C49.1923 52.8776 45.0288 55.2572 45.0288 55.2572C45.0288 55.2572 41.8248 56.4278 39.8241 56.2978C37.7532 56.1634 34.6194 54.811 34.6194 54.811C34.3101 57.7727 39.8898 64.799 44.541 58.8383Z" fill="white" stroke="black" stroke-width="0.594824"/>
<path d="M52.7704 98.351C81.8352 97.6481 105.365 95.7471 105.325 94.105C105.285 92.4629 81.6914 91.7016 52.6265 92.4045C23.5617 93.1075 0.0321941 95.0085 0.0719076 96.6506C0.111621 98.2926 23.7055 99.054 52.7704 98.351Z" fill="#F2C47F"/>
<defs>
<linearGradient id="paint0_linear_96_250" x1="53.4598" y1="5.15215" x2="53.4598" y2="93.9166" gradientUnits="userSpaceOnUse">
<stop stop-color="#9E05E7"/>
<stop offset="1" stop-color="#FF9800"/>
</linearGradient>
</defs>
</svg>
