<svg width="106" height="71" viewBox="0 0 106 71" fill="none" xmlns="http://www.w3.org/2000/svg">
<path d="M52.7704 68.8329C81.8352 68.1299 105.365 66.2289 105.325 64.5868C105.285 62.9448 81.6914 62.1834 52.6265 62.8864C23.5617 63.5893 0.0321941 65.4903 0.0719076 67.1324C0.111621 68.7745 23.7055 69.5358 52.7704 68.8329Z" fill="#F2C47F"/>
<path d="M19.5742 19.0919L30.9294 8.21075C28.868 7.26498 26.0881 6.4132 23.8004 1L13.6884 7.54307C14.1345 11.5581 16.6625 16.168 19.5742 19.0919Z" fill="#330B5A" stroke="#030303" stroke-width="0.594824"/>
<path d="M23.0786 11.0638C22.087 9.96726 21.8327 10.7167 20.1654 12.2246C18.4981 13.7325 16.9962 15.1027 17.9878 16.1992C18.9794 17.2955 19.4716 15.0643 21.1389 13.5564C22.8062 12.0486 24.0702 12.1601 23.0786 11.0638Z" fill="#4B1580"/>
<path d="M23.3097 7.5993C22.4933 6.36713 22.1298 7.07021 20.2561 8.3122C18.3821 9.55419 16.6922 10.6844 17.5089 11.9168C18.3256 13.149 19.1456 11.0163 21.0196 9.77458C22.8936 8.53259 24.1263 8.83178 23.3097 7.5993Z" fill="#4B1580"/>
<path d="M24.0158 3.61664C23.2728 2.33866 22.8689 3.01914 20.9251 4.14871C18.9815 5.27828 17.2282 6.30732 17.9709 7.5853C18.7138 8.86358 19.6578 6.78288 21.6014 5.65331C23.5453 4.52404 24.7584 4.89491 24.0158 3.61664Z" fill="#4B1580"/>
<path d="M82.4373 19.0919L71.0822 8.21074C73.1435 7.26497 74.034 7.99303 76.3214 2.57983L84.9252 10.267C85.1045 12.851 84.4719 15.7698 82.4373 19.0919Z" fill="#024E40" stroke="#030303" stroke-width="0.594824"/>
<path d="M78.0043 11.4921C78.9959 10.3955 79.2499 11.1453 80.9172 12.6532C82.5848 14.1611 84.0867 15.531 83.0951 16.6275C82.1036 17.7241 81.6111 15.4929 79.9438 13.985C78.2765 12.4771 77.0128 12.5886 78.0043 11.4921Z" fill="#116959"/>
<path d="M19.7853 18.547C12.2468 31.1112 14.5806 56.0037 18.0009 65.8355C25.4956 66.6683 39.9523 66.1912 41.7864 65.2L42.2397 56.8959C49.0804 56.8959 51.7571 57.2106 57.5564 56.0037L60.3821 64.0338C69.1557 65.967 83.5505 64.1572 83.8776 63.1591C86.8518 54.088 88.7849 38.4736 84.7699 23.1569C81.1875 9.4917 58.3002 -0.636071 46.1063 2.04064C25.7089 6.51818 21.5698 15.5729 19.7853 18.547Z" fill="url(#paint0_linear_96_419)" stroke="black" stroke-width="0.594824"/>
<path d="M61.4745 41.9771C64.7097 38.4941 61.4745 39.2171 61.4745 39.2171L51.515 41.0403C51.6661 44.0144 58.2392 45.4601 61.4745 41.9771Z" fill="white" stroke="black" stroke-width="0.594824"/>
<path d="M32.5741 41.2818C33.1689 41.2818 44.0245 43.3636 66.1817 38.1589" stroke="black" stroke-width="0.594824"/>
<path d="M66.284 29.6535C64.1191 31.8841 61.4968 33.2442 59.017 33.6505C56.5375 34.0564 54.2215 33.5077 52.6206 31.9537C51.0193 30.3998 50.4016 28.1017 50.7332 25.6108C51.0648 23.12 52.3458 20.4582 54.5103 18.2276C56.6752 15.997 59.2975 14.6369 61.7773 14.2309C64.2568 13.8247 66.5728 14.3734 68.174 15.9274C69.775 17.4814 70.393 19.7798 70.0611 22.2703C69.7295 24.7611 68.4485 27.423 66.284 29.6535Z" fill="white" stroke="black" stroke-width="0.594824"/>
<path d="M44.6225 20.4983C46.5221 22.9585 47.4953 25.7477 47.5443 28.2599C47.5934 30.7721 46.7208 32.9864 44.9548 34.35C43.1887 35.7139 40.8258 35.9983 38.4078 35.3154C35.9896 34.6328 33.5371 32.9861 31.6372 30.5259C29.7374 28.0657 28.7645 25.2762 28.7155 22.7643C28.6664 20.2518 29.539 18.0378 31.305 16.6742C33.0711 15.3103 35.4337 15.0259 37.852 15.7085C40.2702 16.3914 42.7227 18.0381 44.6225 20.4983Z" fill="white" stroke="black" stroke-width="0.594824"/>
<path d="M53.0017 32.4918C55.1673 34.5935 58.8387 34.3233 61.2019 31.8882C63.5651 29.4531 63.7253 25.7753 61.5597 23.6735C59.394 21.5718 55.7227 21.8421 53.3594 24.2772C50.9962 26.7123 50.836 30.3901 53.0017 32.4918Z" fill="#161212"/>
<path d="M44.8555 34.7181C47.2441 32.8737 47.4991 29.2012 45.4251 26.5155C43.3511 23.8298 39.7336 23.1478 37.345 24.9923C34.9565 26.8367 34.7015 30.5092 36.7755 33.1949C38.8494 35.8806 42.467 36.5626 44.8555 34.7181Z" fill="#161212"/>
<path d="M57.5566 56.0037C58.6966 55.4586 61.2743 54.9803 63.6536 53.642" stroke="#0D0A11" stroke-width="0.594824"/>
<path d="M42.3886 56.9132C40.7529 56.9132 38.6136 56.9721 35.9943 56.2039" stroke="#0D0A11" stroke-width="0.594824"/>
<path d="M60.3758 12.7883C58.9777 13.4601 57.7467 13.8012 57.6263 13.5505C57.5055 13.2995 58.5411 12.5515 59.9392 11.8797C61.3371 11.2078 63.0439 11.7771 63.1644 12.0278C63.2851 12.2788 61.7737 12.1167 60.3758 12.7883Z" fill="#791ED5"/>
<path d="M57.9966 12.0623C56.5984 12.7341 55.3675 13.0752 55.247 12.8242C55.1263 12.5735 56.1618 11.8255 57.56 11.1537C58.9578 10.4818 60.6647 11.0508 60.7851 11.3018C60.9059 11.5528 59.3944 11.3904 57.9966 12.0623Z" fill="#791ED5"/>
<path d="M40.2696 15.0947C41.4146 16.141 42.4948 16.8223 42.6828 16.6168C42.8705 16.4113 42.0945 15.3966 40.9495 14.3506C39.8044 13.3043 38.0063 13.3572 37.8183 13.5627C37.6307 13.7682 39.1246 14.0484 40.2696 15.0947Z" fill="#791ED5"/>
<path d="M41.7567 14.3687C42.9017 15.4147 43.9819 16.0963 44.1699 15.8908C44.3575 15.6853 43.5816 14.6706 42.4365 13.6243C41.2915 12.5783 39.4934 12.6312 39.3054 12.8367C39.1177 13.0422 40.6116 13.3224 41.7567 14.3687Z" fill="#791ED5"/>
<path d="M51.7572 33.9016C51.7572 34.1273 50.8251 34.3102 49.6753 34.3102C48.5255 34.3102 47.5934 34.1273 47.5934 33.9016C47.5934 33.6761 48.5255 33.7183 49.6753 33.7183C50.8251 33.7183 51.7572 33.6761 51.7572 33.9016Z" fill="#791ED5"/>
<path d="M49.3779 35.3886C49.3779 35.6143 48.6453 35.7973 47.7421 35.7973C46.8386 35.7973 46.1063 35.6143 46.1063 35.3886C46.1063 35.1632 46.8386 35.2054 47.7421 35.2054C48.6453 35.2054 49.3779 35.1632 49.3779 35.3886Z" fill="#791ED5"/>
<path d="M54.1364 35.3886C54.1364 35.6143 53.4039 35.7973 52.5006 35.7973C51.5971 35.7973 50.8649 35.6143 50.8649 35.3886C50.8649 35.1632 51.5971 35.2054 52.5006 35.2054C53.4039 35.2054 54.1364 35.1632 54.1364 35.3886Z" fill="#791ED5"/>
<path d="M50.865 32.4145C50.865 32.6402 50.3989 32.8231 49.824 32.8231C49.2491 32.8231 48.7831 32.6402 48.7831 32.4145C48.7831 32.1891 49.2491 32.2313 49.824 32.2313C50.3989 32.2313 50.865 32.1891 50.865 32.4145Z" fill="#791ED5"/>
<path d="M82.8507 18.4025L71.4955 7.52134C73.5571 6.57587 74.4473 7.30394 76.735 1.89044L85.3385 9.57765C85.5179 12.1619 84.8853 15.0807 82.8507 18.4025Z" fill="#330B5A" stroke="#030303" stroke-width="0.594824"/>
<path d="M78.4177 10.803C79.4093 9.70646 79.6636 10.4559 81.3309 11.9638C82.9982 13.4717 84.5001 14.8419 83.5086 15.9384C82.517 17.0347 82.0248 14.8035 80.3575 13.2956C78.6902 11.7877 77.4262 11.8993 78.4177 10.803Z" fill="#4B1580"/>
<path d="M76.8783 4.81815C77.8699 3.7216 78.1242 4.47107 79.7915 5.97895C81.4588 7.48683 82.9607 8.85701 81.9691 9.95357C80.9775 11.0498 80.4853 8.81864 78.818 7.31076C77.1507 5.80288 75.8867 5.91442 76.8783 4.81815Z" fill="#4B1580"/>
<defs>
<linearGradient id="paint0_linear_96_419" x1="49.0739" y1="-3.88351" x2="67.2226" y2="62.8442" gradientUnits="userSpaceOnUse">
<stop stop-color="#6400C9"/>
<stop offset="1" stop-color="#410281"/>
</linearGradient>
</defs>
</svg>
