<svg width="106" height="81" viewBox="0 0 106 81" fill="none" xmlns="http://www.w3.org/2000/svg">
<path d="M52.7704 78.8548C81.8352 78.1518 105.365 76.2508 105.325 74.6088C105.285 72.9667 81.6914 72.2053 52.6265 72.9083C23.5617 73.6112 0.0321941 75.5122 0.0719076 77.1543C0.111621 78.7964 23.7055 79.5577 52.7704 78.8548Z" fill="#F2C47F"/>
<path d="M30.7821 1C28.4029 5.9073 21.4137 13.1939 28.9977 23.0085L39.1097 10.9633C36.433 10.0711 35.8382 11.5581 30.7821 1Z" fill="#024E40" stroke="#030303" stroke-width="0.594824"/>
<path d="M76.3095 22.8068L67.2985 9.91729C69.505 9.39235 70.236 10.2804 73.537 5.41833L80.4732 14.6381C80.1443 17.2075 78.9537 19.9463 76.3095 22.8068Z" fill="#024E40" stroke="#030303" stroke-width="0.594824"/>
<path d="M84.17 44.3273C84.8805 47.208 85.0191 49.9264 84.6797 51.9868C84.5096 53.0177 84.2226 53.8694 83.8398 54.4928C83.458 55.1147 82.9934 55.4921 82.4667 55.6221C81.9403 55.7518 81.3535 55.634 80.7262 55.261C80.0975 54.8869 79.4471 54.2668 78.8171 53.4331C77.5582 51.7667 76.4167 49.2961 75.7062 46.4151C74.9954 43.5344 74.8568 40.816 75.1964 38.7556C75.3663 37.7247 75.6533 36.8729 76.036 36.2496C76.4179 35.6277 76.8825 35.2503 77.4092 35.1203C77.9359 34.9903 78.5227 35.1084 79.1499 35.4813C79.7787 35.8555 80.4288 36.4756 81.0587 37.3092C82.3177 38.9756 83.4591 41.4462 84.17 44.3273Z" fill="#139D84" stroke="black" stroke-width="0.594824"/>
<path d="M28.7163 42.8845C27.1864 45.7641 25.3505 48.1166 23.63 49.5944C22.769 50.3341 21.9487 50.8442 21.2212 51.0984C20.494 51.3527 19.8891 51.3423 19.4192 51.0928C18.9493 50.843 18.6022 50.3475 18.4059 49.6028C18.2096 48.8574 18.1733 47.8923 18.3042 46.7648C18.5662 44.5117 19.4882 41.6738 21.0181 38.7942C22.5483 35.9144 24.3839 33.5621 26.1047 32.084C26.9657 31.3446 27.7857 30.8343 28.5135 30.58C29.2406 30.326 29.8453 30.3361 30.3152 30.5859C30.7851 30.8358 31.1322 31.331 31.3288 32.076C31.5251 32.8213 31.5613 33.7864 31.4302 34.9139C31.1685 37.1671 30.2465 40.0047 28.7163 42.8845Z" fill="#139D84" stroke="black" stroke-width="0.594824"/>
<path d="M52.3445 5.01537H52.354L52.3632 5.01478C62.0395 4.40449 68.4967 9.5405 73.3567 17.366C76.6811 22.7191 80.0038 29.1691 80.0038 36.0949C80.0038 44.4228 77.0889 52.1567 72.347 57.9143C71.2462 59.2508 70.7778 60.9961 70.6062 62.8317C70.4349 64.6643 70.5565 66.6261 70.6681 68.4201L70.6687 68.4299C70.7814 70.2441 70.8807 71.8665 70.6838 73.074C70.586 73.6744 70.4188 74.1408 70.1684 74.4694C69.9257 74.7874 69.5914 74.994 69.109 75.0586L69.1043 75.0592L69.0995 75.0598C65.5585 75.6501 58.8908 75.7994 55.0212 75.7994C54.7821 75.7994 54.6087 75.7355 54.4737 75.6347C54.3345 75.5309 54.217 75.3735 54.118 75.1588C53.9148 74.7192 53.8209 74.1149 53.7361 73.4564C53.7275 73.3892 53.7188 73.3211 53.7102 73.2527C53.6379 72.6784 53.5621 72.0767 53.3991 71.6077C53.3066 71.3412 53.177 71.0887 52.9801 70.9008C52.7749 70.7048 52.5128 70.5947 52.1958 70.5947C51.9216 70.5947 51.7185 70.75 51.5763 70.9335C51.4371 71.1131 51.3291 71.3513 51.2375 71.6041C51.1174 71.9364 51.0073 72.3498 50.8946 72.7733C50.8375 72.9868 50.7801 73.203 50.72 73.4127C50.535 74.0608 50.3221 74.6723 50.0244 75.1187C49.7332 75.5556 49.3867 75.7994 48.9243 75.7994C48.2827 75.7994 47.6549 75.8119 46.9774 75.8253C44.3486 75.8774 40.9765 75.9446 33.184 75.3542C33.0267 75.3423 32.911 75.2962 32.8209 75.2287C32.7293 75.16 32.6472 75.0559 32.5788 74.9039C32.4375 74.5902 32.3721 74.1158 32.3727 73.479C32.3736 72.533 32.5169 71.3284 32.6802 69.9544C32.7364 69.4821 32.7947 68.9899 32.8506 68.481C33.0677 66.5089 33.2411 64.3176 33.057 62.1979C32.8726 60.0779 32.3287 58.0083 31.0932 56.2937C27.0933 50.7434 24.6852 43.6644 24.6852 36.0949C24.6852 29.2913 28.2538 23.6024 31.6265 18.4123C36.6858 10.6258 43.2018 5.01537 52.3445 5.01537Z" fill="url(#paint0_linear_96_173)" stroke="black" stroke-width="0.594824"/>
<path d="M64.5385 56.785C68.5833 53.454 68.8013 47.8626 68.4048 45.632L64.5385 47.5652C65.7281 49.4686 65.0836 54.5544 64.5385 56.785Z" fill="white" stroke="black" stroke-width="0.594824"/>
<path d="M40.7455 60.4827C36.7007 57.1517 36.4726 53.6422 36.8693 51.4116L40.7455 52.1552C40.4481 54.3857 40.2003 58.2521 40.7455 60.4827Z" fill="white" stroke="black" stroke-width="0.594824"/>
<path d="M65.6457 32.09C64.4614 35.0828 62.5904 37.4615 60.5377 38.8936C58.4825 40.3271 56.2784 40.7935 54.3881 40.0452C52.498 39.2972 51.2099 37.4491 50.6924 34.9972C50.1755 32.5483 50.439 29.5334 51.6236 26.5406C52.8079 23.548 54.6789 21.169 56.7317 19.737C58.7868 18.3035 60.9906 17.8371 62.881 18.5854C64.7713 19.3334 66.0594 21.1818 66.5769 23.6334C67.0938 26.0823 66.83 29.0971 65.6457 32.09Z" fill="white" stroke="black" stroke-width="0.594824"/>
<path d="M34.059 30.8515C34.6684 34.0121 36.0662 36.6963 37.8183 38.4837C39.5721 40.2733 41.6516 41.1399 43.6479 40.7548C45.6441 40.3699 47.2522 38.7924 48.2149 36.4789C49.1765 34.1683 49.4759 31.1567 48.8665 27.9961C48.2572 24.8358 46.8593 22.1516 45.1073 20.3639C43.3534 18.5747 41.2739 17.708 39.2777 18.0929C37.2818 18.478 35.6733 20.0555 34.7106 22.3688C33.7491 24.6796 33.4496 27.6912 34.059 30.8515Z" fill="white" stroke="black" stroke-width="0.594824"/>
<path d="M53.8564 40.0053C56.6625 41.1158 60.3044 38.5615 61.9909 34.3C63.6774 30.0385 62.7698 25.6837 59.9638 24.5732C57.1577 23.4627 53.5158 26.017 51.8293 30.2785C50.1428 34.5399 51.0504 38.8948 53.8564 40.0053Z" fill="#161212"/>
<path d="M44.7924 40.1912C41.8292 40.7626 38.7235 37.5777 37.8558 33.0776C36.988 28.5775 38.6867 24.4662 41.6499 23.8947C44.6131 23.3233 47.7187 26.5082 48.5865 31.0083C49.4543 35.5085 47.7556 39.6198 44.7924 40.1912Z" fill="#161212"/>
<path d="M33.1615 49.9246C43.1248 54.6832 55.4079 52.4823 69.4458 44.8686" stroke="black" stroke-width="0.594824"/>
<path d="M83.9913 47.0698C84.4885 53.6812 84.0909 49.405 83.6448 47.6206C83.6448 47.6206 83.0499 46.7283 82.4352 44.0516C81.3202 37.7435 80.1523 37.7518 80.7709 38.2158C81.9605 39.108 82.876 40.7616 83.9913 47.0698Z" fill="#0D7B67"/>
<path d="M67.5125 28.9567C66.49 35.5075 68.2486 29.4576 68.2209 27.6187C68.2209 27.6187 68.209 28.3268 68.2209 25.5802C67.8099 20.1831 64.9339 18.6984 65.4306 19.2912C66.3856 20.4308 67.8646 22.5606 67.5125 28.9567Z" fill="#0D7B67"/>
<path d="M68.7022 25.3881C68.4047 30.5928 68.7022 29.1057 68.8509 27.3213C68.8509 27.3213 68.8509 24.9235 68.8509 24.1984C68.4048 20.1834 65.9823 18.5244 66.479 19.1172C67.434 20.2571 67.5476 20.0162 68.7022 25.3881Z" fill="#0D7B67"/>
<path d="M40.2993 64.7952C46.545 66.8771 54.129 68.0667 63.7949 63.7543" stroke="#171618" stroke-width="0.594824"/>
<path d="M40.2993 64.7952C46.545 66.8771 54.129 68.0667 63.7949 63.7543" stroke="#171618" stroke-width="0.594824"/>
<path d="M44.4631 67.3232C48.5279 68.5128 52.7907 69.1077 60.3747 66.5797" stroke="#171618" stroke-width="0.594824"/>
<path d="M52.0471 41.1132C52.0471 40.8874 51.115 40.7048 49.9652 40.7048C48.8154 40.7048 47.8833 40.8874 47.8833 41.1132C47.8833 41.3386 48.8154 41.2964 49.9652 41.2964C51.115 41.2964 52.0471 41.3386 52.0471 41.1132Z" fill="#0C6454"/>
<path d="M51.4523 39.9235C51.4523 39.6977 50.7201 39.5151 49.8166 39.5151C48.913 39.5151 48.1808 39.6977 48.1808 39.9235C48.1808 40.1489 48.913 40.1067 49.8166 40.1067C50.7201 40.1067 51.4523 40.1489 51.4523 39.9235Z" fill="#0C6454"/>
<path d="M50.8575 38.7338C50.8575 38.5081 50.3915 38.3255 49.8166 38.3255C49.2417 38.3255 48.7756 38.5081 48.7756 38.7338C48.7756 38.9593 49.2417 38.917 49.8166 38.917C50.3915 38.917 50.8575 38.9593 50.8575 38.7338Z" fill="#0C6454"/>
<path d="M61.2669 8.28686C61.2669 9.765 57.8514 9.77393 53.088 9.77393C48.3247 9.77393 44.017 9.765 44.017 8.28686C44.017 6.80843 47.7299 5.31274 52.4932 5.31274C57.2566 5.31274 61.2669 6.80843 61.2669 8.28686Z" fill="#0C8D76"/>
<path d="M31.377 15.7421C30.1672 14.8924 30.8801 14.5483 32.172 12.7088C33.4643 10.869 34.6396 9.21037 35.8495 10.0601C37.0594 10.9098 34.9052 11.6717 33.6133 13.5115C32.3213 15.3513 32.5869 16.5918 31.377 15.7421Z" fill="#116959"/>
<path d="M73.4465 14.4876C74.6332 13.6061 74.7358 14.3907 76.0765 16.1954C77.4172 17.9998 78.6226 19.637 77.436 20.5185C76.2493 21.4001 76.2023 19.1159 74.8616 17.3112C73.5208 15.5068 72.2598 15.3691 73.4465 14.4876Z" fill="#116959"/>
<path d="M30.6174 11.8695C29.3917 11.0433 30.3886 10.8979 31.2229 9.66032C32.0571 8.42309 32.3977 7.28935 33.6236 8.11556C34.8492 8.94207 33.0603 9.2264 32.2261 10.4636C31.3918 11.7012 31.8433 12.6957 30.6174 11.8695Z" fill="#116959"/>
<path d="M29.8899 7.86068C29.4438 7.26585 30.2745 7.25842 30.7822 6.67103C31.2899 6.08364 31.3529 5.48138 32.1649 6.33853C32.8641 7.077 31.8606 6.92561 31.3526 7.513C30.8449 8.10039 31.0085 8.82727 29.8899 7.86068Z" fill="#116959"/>
<path d="M69.7432 69.7025C69.8621 67.918 69.3961 64.4978 69.1483 63.0107C68.9996 64.6465 68.7022 68.1262 68.7022 68.959C68.7022 69.9999 68.1074 72.2305 67.0665 72.8253C66.0255 73.4202 67.0665 73.8663 67.2152 74.1637C67.3639 74.4611 68.8509 74.015 69.297 73.5689C69.7432 73.1228 69.5945 71.9331 69.7432 69.7025Z" fill="#0B7663"/>
<defs>
<linearGradient id="paint0_linear_96_173" x1="52.3445" y1="4.66829" x2="52.3445" y2="76.1085" gradientUnits="userSpaceOnUse">
<stop stop-color="#139D84"/>
<stop offset="1" stop-color="#07836C"/>
</linearGradient>
</defs>
</svg>
