<svg width="135" height="135" viewBox="0 0 135 135" fill="none" xmlns="http://www.w3.org/2000/svg">
<circle cx="67.5" cy="67.5" r="67.5" fill="#94E0F7"/>
<path d="M58.5199 84.8674H76.3802C76.3802 85.3538 76.2844 85.8354 76.0983 86.2848C75.9122 86.7341 75.6394 87.1424 75.2954 87.4864C74.9515 87.8303 74.5432 88.1031 74.0939 88.2892C73.6445 88.4754 73.1629 88.5712 72.6765 88.5712H62.2236C61.7373 88.5712 61.2556 88.4754 60.8063 88.2892C60.3569 88.1031 59.9486 87.8303 59.6047 87.4864C59.2608 87.1424 58.988 86.7341 58.8018 86.2848C58.6157 85.8354 58.5199 85.3538 58.5199 84.8674Z" fill="#ECF2FA"/>
<path d="M76.4558 85.1784C76.4165 85.8091 76.2164 86.4193 75.8746 86.9509C75.5328 87.4825 75.0607 87.9178 74.5031 88.2153C74.2829 88.3208 74.0524 88.4034 73.8153 88.4619L73.8279 88.4283C73.9077 88.2012 73.9327 87.9585 73.9008 87.72C73.869 87.4814 73.7812 87.2538 73.6446 87.0556C73.508 86.8574 73.3266 86.6944 73.115 86.5797C72.9034 86.465 72.6677 86.402 72.4271 86.3957L58.9485 86.0105C58.8605 85.7378 58.805 85.4557 58.7832 85.17C58.882 85.1841 58.9817 85.1911 59.0816 85.191H63.7911V85.5202H64.7787V85.191H67.3001C67.2735 85.2484 67.2441 85.3059 67.2175 85.3633L70.9577 85.3605V85.1952H76.1855C76.2759 85.1956 76.3662 85.19 76.4558 85.1784Z" fill="#8BBACC"/>
<path d="M60.9069 85.3619H61.2361V88.3246H60.9069V85.3619Z" fill="#274B5B"/>
<path opacity="0.2" d="M61.1534 85.3619H61.4826V87.9128H61.1534V85.3619Z" fill="#274B5B"/>
<path opacity="0.2" d="M63.2112 85.3619H63.5404V87.9128H63.2112V85.3619Z" fill="#274B5B"/>
<path opacity="0.2" d="M67.3268 85.3619H67.656V87.9128H67.3268V85.3619Z" fill="#274B5B"/>
<path opacity="0.2" d="M69.3846 85.3619H69.7138V87.9128H69.3846V85.3619Z" fill="#274B5B"/>
<path opacity="0.2" d="M71.4423 85.3619H71.7715V87.9128H71.4423V85.3619Z" fill="#274B5B"/>
<path opacity="0.3" d="M70.784 85.3619H71.1132V87.9128H70.784V85.3619Z" fill="white"/>
<path opacity="0.3" d="M68.8088 85.3619H69.138V87.9128H68.8088V85.3619Z" fill="white"/>
<path opacity="0.3" d="M66.751 85.3619H67.0802V87.9128H66.751V85.3619Z" fill="white"/>
<path opacity="0.3" d="M64.6932 85.3619H65.0224V87.9128H64.6932V85.3619Z" fill="white"/>
<path opacity="0.3" d="M62.6354 85.3619H62.9646V87.9128H62.6354V85.3619Z" fill="white"/>
<path opacity="0.3" d="M60.5776 85.3619H60.9068V87.9128H60.5776V85.3619Z" fill="white"/>
<path opacity="0.2" d="M65.269 85.3619H65.5982V87.9128H65.269V85.3619Z" fill="#274B5B"/>
<path d="M62.9506 85.3619H63.2798V88.3246H62.9506V85.3619Z" fill="#274B5B"/>
<path d="M64.9958 85.3619H65.325V88.3246H64.9958V85.3619Z" fill="#274B5B"/>
<path d="M67.0396 85.3619H67.3688V88.3246H67.0396V85.3619Z" fill="#274B5B"/>
<path d="M71.1272 85.3619H71.4564V88.3246H71.1272V85.3619Z" fill="#274B5B"/>
<path d="M73.171 85.3619H73.5002V88.3246H73.171V85.3619Z" fill="#274B5B"/>
<path d="M69.082 85.3619H69.4112V88.3246H69.082V85.3619Z" fill="#274B5B"/>
<path opacity="0.4" d="M122.453 57.4591H102.297C102.27 57.0753 102.239 56.691 102.201 56.3063H110.103C110.485 56.3063 110.852 56.1545 111.122 55.8845C111.392 55.6144 111.543 55.2482 111.543 54.8662C111.543 54.4843 111.392 54.118 111.122 53.848C110.852 53.5779 110.485 53.4262 110.103 53.4262H101.776C101.368 51.4455 100.721 49.5908 99.7261 48.0233C97.7776 44.9527 94.7365 43.4258 91.7415 43.1064C88.7466 42.787 85.746 43.5477 82.7987 44.3671C78.8765 45.464 74.2608 46.4516 71.3037 42.8263C69.5541 40.6774 68.8565 37.1572 69.4826 34.0894C69.6486 33.3373 69.8534 32.5944 70.0962 31.8635H80.4832C80.8651 31.8635 81.2314 31.7118 81.5015 31.4417C81.7715 31.1717 81.9232 30.8054 81.9232 30.4235C81.9232 30.0416 81.7715 29.6753 81.5015 29.4052C81.2314 29.1352 80.8651 28.9834 80.4832 28.9834H70.8554C70.928 28.5398 70.9636 28.091 70.9619 27.6415C70.9425 26.5592 70.6858 25.4943 70.21 24.522C69.7341 23.5497 69.0507 22.6937 68.2079 22.0144C66.6964 20.8251 64.9272 20.4049 63.1874 20.1051C59.3015 19.4243 55.2938 19.2184 51.5088 20.545C47.9269 16.6801 42.8826 15.3732 38.4813 17.2012C37.2247 17.7027 36.1055 18.4959 35.216 19.5154H43.8029C44.1745 19.5154 44.5308 19.6629 44.7935 19.9256C45.0562 20.1883 45.2038 20.5446 45.2038 20.9162C45.2038 21.2877 45.0562 21.644 44.7935 21.9067C44.5308 22.1694 44.1745 22.317 43.8029 22.317H33.7171C33.0699 24.4182 33.0755 26.8724 33.1078 29.1908C33.1078 29.4513 33.1148 29.7119 33.119 29.9724H37.1841C37.566 29.9724 37.9323 30.1241 38.2024 30.3942C38.4724 30.6642 38.6241 31.0305 38.6241 31.4124C38.6241 31.7944 38.4724 32.1606 38.2024 32.4307C37.9323 32.7008 37.566 32.8525 37.1841 32.8525H33.1708L33.1932 34.4158H42.6165C42.9984 34.4158 43.3647 34.5675 43.6347 34.8376C43.9048 35.1076 44.0565 35.4739 44.0565 35.8558C44.0565 36.2377 43.9048 36.604 43.6347 36.8741C43.3647 37.1441 42.9984 37.2959 42.6165 37.2959H33.231C33.231 37.625 33.2394 37.9598 33.245 38.2932C33.2786 40.6326 33.3039 43.0364 32.6959 45.2272C30.8202 51.975 24.1706 53.6041 20.5761 58.9412H35.7049C36.0868 58.9412 36.4531 59.0929 36.7231 59.363C36.9932 59.633 37.1449 59.9993 37.1449 60.3812C37.1449 60.7631 36.9932 61.1294 36.7231 61.3995C36.4531 61.6695 36.0868 61.8213 35.7049 61.8213H19.1094C18.9787 62.1705 18.8596 62.5273 18.7522 62.8915H29.4474C29.8294 62.8915 30.1956 63.0432 30.4657 63.3133C30.7357 63.5833 30.8875 63.9496 30.8875 64.3315C30.8875 64.7134 30.7357 65.0797 30.4657 65.3498C30.1956 65.6198 29.8294 65.7715 29.4474 65.7715H18.1471C17.7623 68.8784 18.1352 72.0323 19.2341 74.9637C21.6771 81.3304 27.3588 84.5578 32.6931 84.457C38.0274 84.3561 43.1179 81.4943 47.9045 78.3186C51.5214 75.9162 55.3078 73.2337 59.3337 73.6133C63.4395 73.9999 66.9542 77.4879 70.6691 79.8637C76.7192 83.7327 83.7667 84.7203 90.2805 82.6135C93.1605 81.682 96.0154 80.092 98.125 77.3016C100.172 74.5855 101.334 70.998 101.907 67.178H107.422C107.794 67.178 108.15 67.0304 108.413 66.7677C108.675 66.505 108.823 66.1487 108.823 65.7772C108.823 65.4056 108.675 65.0493 108.413 64.7866C108.15 64.5239 107.794 64.3763 107.422 64.3763H102.238C102.341 63.0876 102.389 61.7904 102.392 60.5073V60.342H122.453C122.835 60.342 123.201 60.1903 123.471 59.9202C123.741 59.6502 123.893 59.2839 123.893 58.902C123.893 58.5201 123.741 58.1538 123.471 57.8837C123.201 57.6137 122.835 57.4619 122.453 57.4619V57.4591Z" fill="url(#paint0_linear_7_247)"/>
<path d="M55.3947 81.3276C55.3947 81.3276 48.6708 89.7016 47.7589 101.445C47.7502 101.564 47.7003 101.676 47.6179 101.763C47.5354 101.849 47.4255 101.904 47.3068 101.919C47.1882 101.933 47.0682 101.906 46.9675 101.842C46.8667 101.777 46.7914 101.68 46.7545 101.566C44.4502 94.5526 39.5571 74.2745 54.8204 61.9039" fill="#26C8BC"/>
<path d="M47.6594 102.142C47.6936 102.252 47.7643 102.348 47.8597 102.413C47.7935 102.457 47.7179 102.485 47.6388 102.496C47.5598 102.506 47.4795 102.497 47.4042 102.471C47.3289 102.445 47.2608 102.402 47.2051 102.344C47.1495 102.287 47.1079 102.218 47.0836 102.142C44.7793 95.1284 39.8863 74.8502 55.1495 62.4796L55.1635 62.9461C40.5839 75.3545 45.3845 95.2166 47.6594 102.142Z" fill="#F6DF9E"/>
<path opacity="0.8" d="M46.1549 99.4302C46.1157 96.1748 46.9464 92.7638 48.0348 89.7086C48.5951 88.1453 49.2171 86.6759 49.8292 85.3661C51.7465 81.2765 52.6398 76.7818 52.4319 72.2699C52.3115 69.6588 52.2134 66.7297 52.2134 64.1214C53.4195 62.6281 53.0091 62.4936 54.6564 61.1587L55.2322 80.5823C55.2322 80.5823 48.5083 88.9564 47.5963 100.699C47.5924 100.772 47.5728 100.842 47.539 100.906C47.5051 100.97 47.4578 101.025 47.4002 101.069" fill="#1B5A6E"/>
<path d="M46.1325 88.4059C46.0754 88.4059 46.0196 88.3889 45.9722 88.3572C45.9247 88.3255 45.8877 88.2804 45.8659 88.2277C45.8441 88.175 45.8383 88.117 45.8495 88.061C45.8606 88.005 45.8881 87.9536 45.9285 87.9132C45.9688 87.8729 46.0202 87.8454 46.0762 87.8343C46.1322 87.8231 46.1902 87.8288 46.2429 87.8507C46.2957 87.8725 46.3407 87.9095 46.3724 87.957C46.4041 88.0044 46.4211 88.0602 46.4211 88.1173C46.4211 88.1938 46.3907 88.2672 46.3365 88.3213C46.2824 88.3755 46.209 88.4059 46.1325 88.4059ZM46.1325 87.994C46.1081 87.994 46.0843 88.0012 46.064 88.0148C46.0437 88.0283 46.0279 88.0476 46.0186 88.0701C46.0093 88.0926 46.0068 88.1174 46.0116 88.1413C46.0164 88.1653 46.0281 88.1872 46.0453 88.2045C46.0626 88.2217 46.0845 88.2334 46.1085 88.2382C46.1324 88.243 46.1571 88.2405 46.1797 88.2312C46.2022 88.2218 46.2215 88.206 46.235 88.1858C46.2485 88.1655 46.2558 88.1417 46.2558 88.1173C46.2554 88.0848 46.2423 88.0538 46.2192 88.031C46.1961 88.0082 46.165 87.9954 46.1325 87.9954V87.994Z" fill="#274B5B"/>
<path opacity="0.2" d="M46.1325 88.6538C46.0266 88.6538 45.9232 88.6224 45.8352 88.5636C45.7472 88.5048 45.6786 88.4212 45.6381 88.3235C45.5976 88.2257 45.587 88.1181 45.6076 88.0143C45.6283 87.9105 45.6792 87.8151 45.7541 87.7403C45.8289 87.6655 45.9243 87.6145 46.0281 87.5939C46.1319 87.5732 46.2395 87.5838 46.3372 87.6243C46.435 87.6648 46.5186 87.7334 46.5774 87.8214C46.6362 87.9094 46.6676 88.0129 46.6676 88.1187C46.6676 88.2606 46.6112 88.3967 46.5108 88.4971C46.4105 88.5974 46.2744 88.6538 46.1325 88.6538ZM46.1325 87.9128C46.0917 87.9128 46.0519 87.9248 46.0181 87.9475C45.9842 87.9701 45.9578 88.0023 45.9422 88.0399C45.9266 88.0775 45.9226 88.1189 45.9305 88.1589C45.9384 88.1988 45.9581 88.2355 45.9869 88.2643C46.0157 88.2931 46.0523 88.3127 46.0923 88.3206C46.1322 88.3286 46.1736 88.3245 46.2113 88.3089C46.2489 88.2933 46.281 88.2669 46.3037 88.2331C46.3263 88.1992 46.3384 88.1594 46.3384 88.1187C46.3384 88.0641 46.3167 88.0117 46.2781 87.9731C46.2395 87.9345 46.1871 87.9128 46.1325 87.9128Z" fill="#274B5B"/>
<path d="M47.284 77.7891C47.2269 77.7891 47.1711 77.7722 47.1237 77.7405C47.0762 77.7088 47.0392 77.6637 47.0174 77.611C46.9955 77.5582 46.9898 77.5002 47.001 77.4442C47.0121 77.3883 47.0396 77.3369 47.0799 77.2965C47.1203 77.2561 47.1717 77.2287 47.2277 77.2175C47.2837 77.2064 47.3417 77.2121 47.3944 77.2339C47.4471 77.2558 47.4922 77.2928 47.5239 77.3402C47.5556 77.3877 47.5726 77.4435 47.5726 77.5005C47.5726 77.5771 47.5422 77.6505 47.488 77.7046C47.4339 77.7587 47.3605 77.7891 47.284 77.7891ZM47.284 77.3773C47.2596 77.3773 47.2358 77.3845 47.2155 77.398C47.1952 77.4116 47.1794 77.4308 47.1701 77.4534C47.1608 77.4759 47.1583 77.5007 47.1631 77.5246C47.1678 77.5485 47.1796 77.5705 47.1968 77.5877C47.2141 77.6049 47.236 77.6167 47.2599 77.6214C47.2839 77.6262 47.3086 77.6238 47.3312 77.6144C47.3537 77.6051 47.3729 77.5893 47.3865 77.569C47.4 77.5488 47.4073 77.5249 47.4073 77.5005C47.4073 77.4678 47.3943 77.4365 47.3712 77.4134C47.348 77.3903 47.3167 77.3773 47.284 77.3773Z" fill="#274B5B"/>
<path opacity="0.2" d="M47.284 78.0357C47.1781 78.0357 47.0747 78.0043 46.9867 77.9455C46.8987 77.8867 46.8301 77.8031 46.7896 77.7053C46.7491 77.6075 46.7385 77.4999 46.7591 77.3961C46.7798 77.2923 46.8307 77.197 46.9056 77.1222C46.9804 77.0473 47.0758 76.9964 47.1796 76.9757C47.2834 76.9551 47.3909 76.9657 47.4887 77.0062C47.5865 77.0467 47.6701 77.1152 47.7289 77.2032C47.7877 77.2912 47.8191 77.3947 47.8191 77.5005C47.8191 77.6425 47.7627 77.7786 47.6623 77.8789C47.562 77.9793 47.4259 78.0357 47.284 78.0357ZM47.284 77.2946C47.2432 77.2946 47.2034 77.3067 47.1695 77.3293C47.1357 77.352 47.1093 77.3841 47.0937 77.4217C47.0781 77.4594 47.074 77.5008 47.082 77.5407C47.0899 77.5807 47.1095 77.6173 47.1383 77.6461C47.1671 77.6749 47.2038 77.6946 47.2438 77.7025C47.2837 77.7104 47.3251 77.7064 47.3628 77.6908C47.4004 77.6752 47.4325 77.6488 47.4552 77.6149C47.4778 77.5811 47.4899 77.5413 47.4899 77.5005C47.4899 77.4735 47.4845 77.4467 47.4742 77.4217C47.4638 77.3968 47.4487 77.3741 47.4296 77.3549C47.4104 77.3358 47.3877 77.3206 47.3628 77.3103C47.3378 77.2999 47.311 77.2946 47.284 77.2946Z" fill="#274B5B"/>
<path d="M87.6974 77.7891C87.6403 77.7891 87.5845 77.7722 87.5371 77.7405C87.4896 77.7088 87.4526 77.6637 87.4308 77.611C87.4089 77.5582 87.4032 77.5002 87.4144 77.4442C87.4255 77.3883 87.453 77.3369 87.4933 77.2965C87.5337 77.2561 87.5851 77.2287 87.6411 77.2175C87.6971 77.2064 87.7551 77.2121 87.8078 77.2339C87.8605 77.2558 87.9056 77.2928 87.9373 77.3402C87.969 77.3877 87.9859 77.4435 87.9859 77.5005C87.9859 77.5771 87.9555 77.6505 87.9014 77.7046C87.8473 77.7587 87.7739 77.7891 87.6974 77.7891ZM87.6974 77.3773C87.673 77.3773 87.6492 77.3845 87.6289 77.398C87.6086 77.4116 87.5928 77.4308 87.5835 77.4534C87.5742 77.4759 87.5717 77.5007 87.5765 77.5246C87.5812 77.5485 87.593 77.5705 87.6102 77.5877C87.6275 77.6049 87.6494 77.6167 87.6733 77.6214C87.6972 77.6262 87.722 77.6238 87.7446 77.6144C87.7671 77.6051 87.7863 77.5893 87.7999 77.569C87.8134 77.5488 87.8207 77.5249 87.8207 77.5005C87.8207 77.4678 87.8077 77.4365 87.7845 77.4134C87.7614 77.3903 87.7301 77.3773 87.6974 77.3773Z" fill="#274B5B"/>
<path opacity="0.2" d="M87.6973 78.0357C87.5915 78.0357 87.488 78.0043 87.4001 77.9455C87.3121 77.8867 87.2435 77.8031 87.203 77.7053C87.1625 77.6075 87.1519 77.4999 87.1725 77.3961C87.1932 77.2923 87.2441 77.197 87.319 77.1222C87.3938 77.0473 87.4891 76.9964 87.5929 76.9757C87.6967 76.9551 87.8043 76.9657 87.9021 77.0062C87.9999 77.0467 88.0835 77.1152 88.1423 77.2032C88.2011 77.2912 88.2325 77.3947 88.2325 77.5005C88.2325 77.6425 88.1761 77.7786 88.0757 77.8789C87.9754 77.9793 87.8393 78.0357 87.6973 78.0357ZM87.6973 77.2946C87.6566 77.2946 87.6168 77.3067 87.5829 77.3293C87.5491 77.352 87.5227 77.3841 87.5071 77.4217C87.4915 77.4594 87.4874 77.5008 87.4954 77.5407C87.5033 77.5807 87.5229 77.6173 87.5517 77.6461C87.5805 77.6749 87.6172 77.6946 87.6572 77.7025C87.6971 77.7104 87.7385 77.7064 87.7761 77.6908C87.8138 77.6752 87.8459 77.6488 87.8686 77.6149C87.8912 77.5811 87.9033 77.5413 87.9033 77.5005C87.9033 77.4735 87.8979 77.4467 87.8876 77.4217C87.8772 77.3968 87.8621 77.3741 87.843 77.3549C87.8238 77.3358 87.8011 77.3206 87.7761 77.3103C87.7512 77.2999 87.7244 77.2946 87.6973 77.2946Z" fill="#274B5B"/>
<path d="M87.4508 77.7891C87.3937 77.7891 87.3379 77.7722 87.2905 77.7405C87.243 77.7088 87.206 77.6637 87.1842 77.611C87.1624 77.5582 87.1566 77.5002 87.1678 77.4442C87.1789 77.3883 87.2064 77.3369 87.2468 77.2965C87.2871 77.2561 87.3385 77.2287 87.3945 77.2175C87.4505 77.2064 87.5085 77.2121 87.5612 77.2339C87.614 77.2558 87.659 77.2928 87.6907 77.3402C87.7224 77.3877 87.7394 77.4435 87.7394 77.5005C87.7394 77.5771 87.709 77.6505 87.6548 77.7046C87.6007 77.7587 87.5273 77.7891 87.4508 77.7891ZM87.4508 77.3773C87.4264 77.3773 87.4026 77.3845 87.3823 77.398C87.362 77.4116 87.3462 77.4308 87.3369 77.4534C87.3276 77.4759 87.3251 77.5007 87.3299 77.5246C87.3347 77.5485 87.3464 77.5705 87.3636 77.5877C87.3809 77.6049 87.4028 77.6167 87.4268 77.6214C87.4507 77.6262 87.4754 77.6238 87.498 77.6144C87.5205 77.6051 87.5397 77.5893 87.5533 77.569C87.5668 77.5488 87.5741 77.5249 87.5741 77.5005C87.5741 77.4678 87.5611 77.4365 87.538 77.4134C87.5148 77.3903 87.4835 77.3773 87.4508 77.3773Z" fill="#274B5B"/>
<path opacity="0.2" d="M87.4509 78.0357C87.345 78.0357 87.2416 78.0043 87.1536 77.9455C87.0656 77.8867 86.997 77.8031 86.9565 77.7053C86.916 77.6075 86.9054 77.4999 86.9261 77.3961C86.9467 77.2923 86.9977 77.197 87.0725 77.1222C87.1473 77.0473 87.2427 76.9964 87.3465 76.9757C87.4503 76.9551 87.5579 76.9657 87.6557 77.0062C87.7534 77.0467 87.837 77.1152 87.8958 77.2032C87.9546 77.2912 87.986 77.3947 87.986 77.5005C87.986 77.6425 87.9296 77.7786 87.8293 77.8789C87.7289 77.9793 87.5928 78.0357 87.4509 78.0357ZM87.4509 77.2946C87.4102 77.2946 87.3703 77.3067 87.3365 77.3293C87.3026 77.352 87.2762 77.3841 87.2606 77.4217C87.2451 77.4594 87.241 77.5008 87.2489 77.5407C87.2569 77.5807 87.2765 77.6173 87.3053 77.6461C87.3341 77.6749 87.3708 77.6946 87.4107 77.7025C87.4507 77.7104 87.4921 77.7064 87.5297 77.6908C87.5673 77.6752 87.5995 77.6488 87.6221 77.6149C87.6447 77.5811 87.6568 77.5413 87.6568 77.5005C87.6568 77.4735 87.6515 77.4467 87.6411 77.4217C87.6308 77.3968 87.6156 77.3741 87.5965 77.3549C87.5774 77.3358 87.5547 77.3206 87.5297 77.3103C87.5047 77.2999 87.4779 77.2946 87.4509 77.2946Z" fill="#274B5B"/>
<path d="M48.6442 69.394H48.9734V96.3905H48.6442V69.394Z" fill="#274B5B"/>
<path opacity="0.2" d="M48.9733 68.7357H49.3025V96.3905H48.9733V68.7357Z" fill="#274B5B"/>
<path opacity="0.3" d="M48.315 69.394H48.6442V96.3905H48.315V69.394Z" fill="white"/>
<path d="M50.5366 65.8542H50.8658V90.2171H50.5366V65.8542Z" fill="#274B5B"/>
<path opacity="0.2" d="M50.8658 65.8542H51.195V90.2171H50.8658V65.8542Z" fill="#274B5B"/>
<path opacity="0.3" d="M50.2075 65.8542H50.5367V90.2171H50.2075V65.8542Z" fill="white"/>
<path opacity="0.2" d="M84.4405 110.548C82.6729 110.546 80.9787 109.841 79.7298 108.59C78.481 107.339 77.7796 105.644 77.7796 103.876V97.3781H79.5909V103.875C79.5908 104.691 79.7962 105.494 80.1881 106.21C80.58 106.926 81.1458 107.531 81.8334 107.971C82.5209 108.41 83.3081 108.67 84.1222 108.725C84.9364 108.78 85.7514 108.63 86.4921 108.287C87.2327 107.945 87.8752 107.421 88.3603 106.765C88.8455 106.109 89.1576 105.341 89.2679 104.532C89.3782 103.724 89.2831 102.901 88.9915 102.138C88.6999 101.376 88.2211 100.7 87.5993 100.171L88.7718 98.7915C89.777 99.6462 90.5062 100.78 90.8672 102.049C91.2283 103.318 91.2049 104.666 90.8001 105.921C90.3953 107.177 89.6272 108.285 88.5929 109.104C87.5587 109.924 86.3047 110.418 84.9896 110.525C84.8065 110.541 84.6235 110.548 84.4405 110.548Z" fill="#A7594E"/>
<path opacity="0.2" d="M83.6854 107.729C83.4895 107.728 83.2938 107.714 83.0999 107.685L83.3633 105.894C83.7146 105.945 84.073 105.908 84.4069 105.788C84.7408 105.667 85.0398 105.466 85.2774 105.202C85.5151 104.939 85.684 104.62 85.7692 104.276C85.8545 103.931 85.8534 103.571 85.7661 103.227C85.6789 102.883 85.5081 102.565 85.2689 102.303C85.0297 102.041 84.7295 101.841 84.3949 101.723C84.0604 101.604 83.7017 101.57 83.3507 101.623C82.9997 101.676 82.6672 101.815 82.3827 102.027L81.3013 100.575C81.8048 100.2 82.3901 99.9503 83.0089 99.8457C83.6278 99.7412 84.2626 99.7849 84.8613 99.9733C85.46 100.162 86.0054 100.489 86.4529 100.93C86.9003 101.37 87.237 101.91 87.4353 102.505C87.6335 103.101 87.6877 103.735 87.5934 104.355C87.4991 104.976 87.2589 105.565 86.8927 106.075C86.5264 106.584 86.0445 107 85.4865 107.287C84.9285 107.574 84.3103 107.725 83.6826 107.727L83.6854 107.729Z" fill="#F08778"/>
<path opacity="0.2" d="M84.2822 96.3905C85.0094 96.3905 85.5989 95.8009 85.5989 95.0737C85.5989 94.3465 85.0094 93.757 84.2822 93.757C83.5549 93.757 82.9654 94.3465 82.9654 95.0737C82.9654 95.8009 83.5549 96.3905 84.2822 96.3905Z" fill="#F08778"/>
<path d="M86.8723 102.39C86.8381 102.5 86.7674 102.596 86.672 102.661C86.7382 102.705 86.8138 102.733 86.8928 102.743C86.9719 102.754 87.0522 102.745 87.1275 102.719C87.2028 102.693 87.2709 102.649 87.3265 102.592C87.3822 102.535 87.4238 102.466 87.448 102.39C89.7524 95.3763 94.6454 75.0981 79.3822 62.7276L79.3682 63.1941C93.9478 75.5968 89.1486 95.4631 86.8723 102.39Z" fill="white"/>
<path d="M79.2056 82.1512C79.2056 82.1512 85.9295 90.5253 86.8415 102.268C86.8501 102.387 86.9 102.5 86.9824 102.586C87.0649 102.673 87.1748 102.728 87.2935 102.743C87.4121 102.757 87.5321 102.73 87.6328 102.665C87.7336 102.601 87.8089 102.504 87.8458 102.39C90.1488 95.3763 95.0432 75.0982 79.7828 62.7276" fill="#26C8BC"/>
<path opacity="0.8" d="M88.4468 100.251C88.486 96.9956 87.6554 93.5847 86.5669 90.5295C86.0066 88.9662 85.3846 87.4967 84.7725 86.187C82.8544 82.1 81.9592 77.6078 82.1642 73.0978C82.2846 70.4867 82.3827 67.5576 82.3827 64.9493C81.1766 63.456 81.587 63.3215 79.9397 61.9866L79.3625 81.4102C79.3625 81.4102 86.0864 89.7843 86.9984 101.527C87.0023 101.599 87.0219 101.67 87.0557 101.734C87.0896 101.798 87.137 101.853 87.1945 101.897" fill="#1B5A6E"/>
<path d="M88.4384 88.4843C88.3813 88.4843 88.3255 88.4674 88.2781 88.4357C88.2306 88.404 88.1936 88.3589 88.1718 88.3062C88.15 88.2534 88.1443 88.1954 88.1554 88.1394C88.1665 88.0835 88.194 88.032 88.2344 87.9917C88.2747 87.9513 88.3261 87.9238 88.3821 87.9127C88.4381 87.9016 88.4961 87.9073 88.5488 87.9291C88.6016 87.951 88.6466 87.988 88.6783 88.0354C88.7101 88.0829 88.727 88.1387 88.727 88.1957C88.727 88.2723 88.6966 88.3457 88.6425 88.3998C88.5883 88.4539 88.5149 88.4843 88.4384 88.4843ZM88.4384 88.0725C88.414 88.0725 88.3902 88.0797 88.3699 88.0932C88.3496 88.1068 88.3339 88.126 88.3245 88.1486C88.3152 88.1711 88.3127 88.1959 88.3175 88.2198C88.3223 88.2437 88.334 88.2657 88.3512 88.2829C88.3685 88.3001 88.3904 88.3119 88.4144 88.3166C88.4383 88.3214 88.4631 88.319 88.4856 88.3096C88.5081 88.3003 88.5274 88.2845 88.5409 88.2642C88.5544 88.2439 88.5617 88.2201 88.5617 88.1957C88.5606 88.1638 88.5471 88.1335 88.5241 88.1113C88.5011 88.0891 88.4704 88.0767 88.4384 88.0767V88.0725Z" fill="#274B5B"/>
<path opacity="0.2" d="M88.4384 88.7364C88.3325 88.7364 88.2291 88.7051 88.1411 88.6463C88.0531 88.5875 87.9845 88.5039 87.944 88.4061C87.9035 88.3083 87.8929 88.2007 87.9135 88.0969C87.9342 87.9931 87.9852 87.8978 88.06 87.823C88.1348 87.7481 88.2302 87.6972 88.334 87.6765C88.4378 87.6559 88.5454 87.6665 88.6431 87.707C88.7409 87.7475 88.8245 87.816 88.8833 87.904C88.9421 87.992 88.9735 88.0955 88.9735 88.2013C88.9735 88.3432 88.9171 88.4794 88.8168 88.5797C88.7164 88.6801 88.5803 88.7364 88.4384 88.7364ZM88.4384 87.9954C88.3976 87.9954 88.3578 88.0075 88.324 88.0301C88.2901 88.0527 88.2637 88.0849 88.2481 88.1225C88.2325 88.1602 88.2285 88.2016 88.2364 88.2415C88.2444 88.2814 88.264 88.3181 88.2928 88.3469C88.3216 88.3757 88.3583 88.3953 88.3982 88.4033C88.4381 88.4112 88.4795 88.4072 88.5172 88.3916C88.5548 88.376 88.587 88.3496 88.6096 88.3157C88.6322 88.2819 88.6443 88.2421 88.6443 88.2013C88.6443 88.1467 88.6226 88.0943 88.584 88.0557C88.5454 88.0171 88.493 87.9954 88.4384 87.9954Z" fill="#274B5B"/>
<path d="M85.5989 69.3114H85.9281V97.1315H85.5989V69.3114Z" fill="#274B5B"/>
<path opacity="0.2" d="M85.2698 69.2288H85.599V94.8258H85.2698V69.2288Z" fill="#274B5B"/>
<path opacity="0.3" d="M85.9282 70.1351H86.2574V97.1315H85.9282V70.1351Z" fill="white"/>
<path d="M83.7064 66.5952H84.0356V90.9581H83.7064V66.5952Z" fill="#274B5B"/>
<path opacity="0.2" d="M83.3773 66.5952H83.7064V90.1345H83.3773V66.5952Z" fill="#274B5B"/>
<path opacity="0.3" d="M84.0356 66.5952H84.3648V90.9581H84.0356V66.5952Z" fill="white"/>
<path d="M87.3612 102.787C87.3143 102.787 87.2676 102.784 87.2211 102.778C86.9599 102.749 86.7172 102.629 86.5354 102.44C86.3536 102.25 86.2443 102.002 86.2265 101.74C85.344 90.3194 78.791 82.0448 78.7252 81.9621L79.6875 81.1889C79.7576 81.2757 81.4315 83.3741 83.2344 86.9518C84.8523 90.1611 86.8667 95.1928 87.4144 101.141C88.535 97.6218 90.16 91.1164 89.7846 84.0241C89.3083 75.0365 85.8063 67.8335 79.3919 62.6309L80.1694 61.6714C83.719 64.515 86.5317 68.1714 88.3697 72.3315C89.9036 75.814 90.7946 79.725 91.0187 83.9583C91.4221 91.5871 89.573 98.5407 88.4342 102.006C88.3617 102.234 88.2185 102.432 88.0255 102.572C87.8325 102.713 87.5998 102.788 87.3612 102.787Z" fill="#274B5B"/>
<path opacity="0.2" d="M31.1116 121H25.2688C25.0287 121 24.7983 120.905 24.6285 120.735C24.4586 120.565 24.3632 120.335 24.3632 120.094C24.3632 119.854 24.4586 119.624 24.6285 119.454C24.7983 119.284 25.0287 119.189 25.2688 119.189H31.1116C31.3518 119.189 31.5822 119.284 31.752 119.454C31.9218 119.624 32.0173 119.854 32.0173 120.094C32.0173 120.335 31.9218 120.565 31.752 120.735C31.5822 120.905 31.3518 121 31.1116 121Z" fill="#F08778"/>
<path opacity="0.2" d="M56.8795 112.93C55.3279 112.935 53.8123 112.462 52.5383 111.576C51.2643 110.691 50.2935 109.435 49.7575 107.979C49.2215 106.522 49.1463 104.937 49.542 103.436C49.9377 101.936 50.7852 100.594 51.9697 99.5913L53.1421 100.971C52.4053 101.598 51.8379 102.399 51.4925 103.303C51.147 104.206 51.0345 105.182 51.1653 106.14C51.2962 107.099 51.6662 108.008 52.2412 108.786C52.8162 109.564 53.5777 110.184 54.4556 110.59C55.3334 110.996 56.2994 111.175 57.2643 111.109C58.2293 111.044 59.1622 110.736 59.9771 110.215C60.792 109.694 61.4627 108.977 61.9272 108.128C62.3918 107.28 62.6354 106.328 62.6354 105.361V91.122H64.4467V105.361C64.4467 107.367 63.6497 109.292 62.2311 110.71C60.8125 112.129 58.8885 112.926 56.8823 112.926L56.8795 112.93Z" fill="#A7594E"/>
<path opacity="0.2" d="M70.7392 116.394C69.6167 116.392 68.5407 115.945 67.7474 115.151C66.954 114.357 66.5081 113.281 66.5073 112.158V98.1219H68.3186V112.158C68.3188 112.565 68.4216 112.966 68.6175 113.323C68.8133 113.681 69.096 113.983 69.4393 114.202C69.7826 114.422 70.1757 114.551 70.5821 114.579C70.9886 114.606 71.3955 114.531 71.7653 114.36C72.1351 114.189 72.4559 113.927 72.6981 113.6C72.9403 113.272 73.0962 112.889 73.1514 112.485C73.2066 112.082 73.1593 111.671 73.0139 111.29C72.8685 110.909 72.6296 110.572 72.3193 110.308L73.4918 108.928C74.1307 109.471 74.5942 110.191 74.8238 110.997C75.0533 111.804 75.0386 112.66 74.7815 113.458C74.5243 114.256 74.0363 114.96 73.3791 115.48C72.7219 116.001 71.9251 116.315 71.0894 116.383C70.9717 116.39 70.855 116.394 70.7392 116.394Z" fill="#F08778"/>
<path opacity="0.2" d="M66.3392 91.2047H68.1505V95.5668H66.3392V91.2047Z" fill="#F08778"/>
<path opacity="0.2" d="M57.3474 109.293C57.1514 109.293 56.9557 109.279 56.7618 109.25L57.0252 107.458C57.3765 107.509 57.735 107.473 58.0689 107.352C58.4027 107.232 58.7017 107.031 58.9394 106.767C59.177 106.503 59.3459 106.185 59.4311 105.84C59.5164 105.496 59.5153 105.136 59.4281 104.791C59.3408 104.447 59.17 104.13 58.9308 103.868C58.6916 103.605 58.3915 103.406 58.0569 103.287C57.7223 103.169 57.3636 103.135 57.0126 103.188C56.6616 103.241 56.3291 103.38 56.0446 103.592L54.9632 102.139C55.4668 101.765 56.052 101.515 56.6709 101.41C57.2897 101.306 57.9245 101.35 58.5232 101.538C59.1219 101.726 59.6674 102.054 60.1148 102.494C60.5622 102.934 60.8989 103.474 61.0972 104.07C61.2954 104.665 61.3496 105.299 61.2553 105.92C61.161 106.54 60.9209 107.13 60.5546 107.639C60.1883 108.149 59.7064 108.565 59.1484 108.852C58.5904 109.139 57.9722 109.29 57.3446 109.292L57.3474 109.293Z" fill="#F08778"/>
<path opacity="0.2" d="M72.5952 106.843C72.0256 106.843 71.4688 106.674 70.9951 106.358C70.5215 106.041 70.1524 105.592 69.9344 105.065C69.7164 104.539 69.6594 103.96 69.7705 103.401C69.8816 102.843 70.1559 102.33 70.5587 101.927C70.9615 101.524 71.4747 101.25 72.0333 101.139C72.592 101.027 73.1711 101.084 73.6974 101.302C74.2236 101.52 74.6734 101.89 74.9899 102.363C75.3064 102.837 75.4753 103.394 75.4753 103.963C75.4742 104.727 75.1704 105.459 74.6305 105.999C74.0906 106.538 73.3587 106.842 72.5952 106.843ZM72.5952 102.893C72.3835 102.893 72.1766 102.956 72.0006 103.073C71.8246 103.191 71.6875 103.358 71.6065 103.554C71.5255 103.749 71.5043 103.964 71.5456 104.172C71.5869 104.38 71.6888 104.57 71.8385 104.72C71.9881 104.87 72.1788 104.972 72.3864 105.013C72.594 105.054 72.8092 105.033 73.0048 104.952C73.2003 104.871 73.3675 104.734 73.4851 104.558C73.6027 104.382 73.6654 104.175 73.6654 103.963C73.6651 103.68 73.5522 103.408 73.3516 103.207C73.1509 103.006 72.8789 102.893 72.5952 102.893Z" fill="#F08778"/>
<path opacity="0.2" d="M58.3504 99.5185C57.781 99.5174 57.2248 99.3476 56.752 99.0305C56.2791 98.7134 55.9108 98.2633 55.6937 97.737C55.4765 97.2107 55.4202 96.6319 55.5318 96.0736C55.6435 95.5154 55.9181 95.0027 56.3209 94.6004C56.7238 94.1981 57.2369 93.9243 57.7953 93.8135C58.3537 93.7026 58.9325 93.7598 59.4584 93.9777C59.9844 94.1957 60.434 94.5646 60.7504 95.0379C61.0667 95.5112 61.2358 96.0677 61.236 96.637C61.2353 97.4017 60.9309 98.1349 60.3898 98.6752C59.8486 99.2155 59.1151 99.5189 58.3504 99.5185ZM58.3504 95.5682C58.1387 95.5682 57.9318 95.631 57.7558 95.7486C57.5798 95.8662 57.4426 96.0333 57.3616 96.2289C57.2806 96.4244 57.2594 96.6396 57.3007 96.8472C57.342 97.0548 57.4439 97.2455 57.5936 97.3952C57.7433 97.5449 57.934 97.6468 58.1416 97.6881C58.3492 97.7294 58.5644 97.7082 58.7599 97.6272C58.9555 97.5462 59.1226 97.409 59.2402 97.233C59.3578 97.057 59.4206 96.8501 59.4206 96.6384C59.4206 96.3545 59.3079 96.0821 59.1072 95.8812C58.9065 95.6802 58.6343 95.5672 58.3504 95.5668V95.5682Z" fill="#F08778"/>
<path opacity="0.2" d="M97.4512 99.5185C96.8816 99.5185 96.3248 99.3496 95.8512 99.0331C95.3775 98.7166 95.0084 98.2668 94.7904 97.7406C94.5724 97.2143 94.5154 96.6352 94.6265 96.0765C94.7376 95.5179 95.0119 95.0047 95.4147 94.6019C95.8175 94.1991 96.3307 93.9248 96.8894 93.8137C97.448 93.7026 98.0271 93.7596 98.5534 93.9776C99.0797 94.1956 99.5295 94.5647 99.8459 95.0383C100.162 95.512 100.331 96.0688 100.331 96.6384C100.33 97.4019 100.026 98.1338 99.4865 98.6737C98.9467 99.2136 98.2147 99.5174 97.4512 99.5185ZM97.4512 95.5682C97.2396 95.5682 97.0327 95.631 96.8567 95.7486C96.6807 95.8662 96.5435 96.0333 96.4625 96.2289C96.3815 96.4244 96.3603 96.6396 96.4016 96.8472C96.4429 97.0548 96.5448 97.2455 96.6945 97.3952C96.8442 97.5449 97.0349 97.6468 97.2425 97.6881C97.4501 97.7294 97.6652 97.7082 97.8608 97.6272C98.0564 97.5462 98.2235 97.409 98.3411 97.233C98.4587 97.057 98.5215 96.8501 98.5215 96.6384C98.5215 96.3545 98.4087 96.0821 98.2081 95.8812C98.0074 95.6802 97.7352 95.5672 97.4512 95.5668V95.5682Z" fill="#F08778"/>
<path opacity="0.2" d="M41.0713 103.303C41.435 103.303 41.7297 103.009 41.7297 102.645C41.7297 102.282 41.435 101.987 41.0713 101.987C40.7077 101.987 40.413 102.282 40.413 102.645C40.413 103.009 40.7077 103.303 41.0713 103.303Z" fill="#F08778"/>
<path opacity="0.2" d="M77.7796 114.58C78.1432 114.58 78.438 114.285 78.438 113.922C78.438 113.558 78.1432 113.263 77.7796 113.263C77.416 113.263 77.1212 113.558 77.1212 113.922C77.1212 114.285 77.416 114.58 77.7796 114.58Z" fill="#F08778"/>
<path opacity="0.2" d="M99.9208 117.05H98.1096C98.1081 115.762 97.596 114.528 96.6855 113.617C95.775 112.707 94.5406 112.195 93.253 112.193H92.0189V110.382H93.253C95.0208 110.384 96.7158 111.087 97.9658 112.337C99.2159 113.587 99.919 115.282 99.9208 117.05Z" fill="#A7594E"/>
<path opacity="0.2" d="M33.9931 117.398H32.1818C32.1859 113.924 33.568 110.593 36.025 108.136C38.482 105.679 41.8131 104.297 45.2878 104.292H47.9017V106.104H45.2892C42.2946 106.107 39.4235 107.298 37.3058 109.415C35.1881 111.533 33.9968 114.404 33.9931 117.398Z" fill="#F08778"/>
<path opacity="0.2" d="M112.982 117.05H111.178C111.175 113.339 109.7 109.781 107.076 107.157C104.453 104.533 100.896 103.057 97.1851 103.053H93.994V101.246H97.1851C101.374 101.252 105.389 102.919 108.351 105.882C111.312 108.845 112.978 112.861 112.982 117.05Z" fill="#F08778"/>
<path opacity="0.2" d="M42.8826 117.05H41.0714C41.0736 115.282 41.7766 113.588 43.0264 112.338C44.2761 111.088 45.9704 110.385 47.7378 110.383H48.9719V112.194H47.7378C46.4507 112.196 45.2168 112.708 44.3067 113.619C43.3966 114.529 42.8845 115.763 42.8826 117.05Z" fill="#A7594E"/>
<path opacity="0.2" d="M103.047 121H34.157C33.9168 121 33.6864 120.905 33.5166 120.735C33.3468 120.565 33.2513 120.335 33.2513 120.094C33.2513 119.854 33.3468 119.624 33.5166 119.454C33.6864 119.284 33.9168 119.189 34.157 119.189H103.047C103.288 119.189 103.518 119.284 103.688 119.454C103.858 119.624 103.953 119.854 103.953 120.094C103.953 120.335 103.858 120.565 103.688 120.735C103.518 120.905 103.288 121 103.047 121Z" fill="#F08778"/>
<path opacity="0.2" d="M22.0582 121C21.9989 121 21.9397 120.994 21.8817 120.982C21.8237 120.97 21.767 120.953 21.7122 120.931C21.6576 120.908 21.6051 120.881 21.5553 120.849C21.5051 120.815 21.4582 120.777 21.4152 120.735C21.3309 120.651 21.2643 120.551 21.2191 120.441C21.1971 120.386 21.1802 120.329 21.1687 120.272C21.1445 120.155 21.1445 120.034 21.1687 119.917C21.1802 119.859 21.1971 119.802 21.2191 119.748C21.242 119.693 21.2697 119.641 21.3017 119.591C21.368 119.491 21.4532 119.406 21.5525 119.34C21.6023 119.308 21.6548 119.28 21.7094 119.257C21.7642 119.235 21.8209 119.218 21.8789 119.207C21.9958 119.183 22.1164 119.183 22.2333 119.207C22.2912 119.218 22.348 119.235 22.4028 119.257C22.4574 119.28 22.5099 119.308 22.5597 119.34C22.6589 119.406 22.7442 119.491 22.8104 119.591C22.8425 119.641 22.8701 119.693 22.8931 119.748C22.9151 119.803 22.9325 119.859 22.9449 119.917C22.968 120.034 22.968 120.155 22.9449 120.272C22.9325 120.329 22.9151 120.386 22.8931 120.441C22.8701 120.496 22.8425 120.548 22.8104 120.598C22.7774 120.648 22.7394 120.695 22.6969 120.738C22.6539 120.78 22.607 120.818 22.5569 120.851C22.5071 120.884 22.4546 120.911 22.4 120.934C22.3452 120.956 22.2884 120.973 22.2305 120.985C22.1737 120.995 22.116 121.001 22.0582 121Z" fill="#F08778"/>
<path opacity="0.2" d="M112.265 121H106.422C106.182 121 105.952 120.905 105.782 120.735C105.612 120.565 105.516 120.335 105.516 120.094C105.516 119.854 105.612 119.624 105.782 119.454C105.952 119.284 106.182 119.189 106.422 119.189H112.265C112.505 119.189 112.735 119.284 112.905 119.454C113.075 119.624 113.17 119.854 113.17 120.094C113.17 120.335 113.075 120.565 112.905 120.735C112.735 120.905 112.505 121 112.265 121Z" fill="#F08778"/>
<path opacity="0.2" d="M115.475 121C115.416 121 115.357 120.994 115.299 120.982C115.241 120.97 115.184 120.953 115.129 120.931C115.075 120.908 115.022 120.881 114.973 120.849C114.922 120.815 114.875 120.777 114.832 120.735C114.79 120.692 114.752 120.645 114.719 120.595C114.687 120.545 114.659 120.493 114.636 120.438C114.614 120.383 114.597 120.327 114.585 120.269C114.561 120.152 114.561 120.031 114.585 119.914C114.597 119.856 114.614 119.8 114.636 119.745C114.659 119.69 114.687 119.638 114.719 119.588C114.785 119.489 114.87 119.403 114.97 119.337C115.02 119.305 115.072 119.277 115.127 119.255C115.181 119.232 115.238 119.216 115.296 119.204C115.413 119.18 115.534 119.18 115.651 119.204C115.708 119.216 115.765 119.232 115.82 119.255C115.875 119.277 115.927 119.305 115.977 119.337C116.076 119.403 116.161 119.489 116.228 119.588C116.26 119.638 116.287 119.69 116.31 119.745C116.332 119.8 116.349 119.856 116.361 119.914C116.385 120.031 116.385 120.152 116.361 120.269C116.349 120.327 116.332 120.383 116.31 120.438C116.287 120.493 116.26 120.545 116.228 120.595C116.195 120.645 116.157 120.692 116.114 120.735C116.071 120.777 116.024 120.815 115.974 120.849C115.924 120.881 115.872 120.908 115.817 120.931C115.762 120.953 115.706 120.97 115.648 120.982C115.591 120.994 115.533 121 115.475 121Z" fill="#F08778"/>
<path d="M47.1579 102.704C46.9198 102.704 46.6876 102.629 46.4952 102.489C46.3028 102.349 46.16 102.151 46.0877 101.924C44.9474 98.4581 43.0984 91.5059 43.5018 83.8756C43.7259 79.6424 44.6224 75.7313 46.1507 72.2489C47.9888 68.0888 50.8015 64.4323 54.3511 61.5887L55.1285 62.5483C48.7086 67.7523 45.2108 74.9497 44.7345 83.9415C44.3591 91.0338 45.9952 97.5392 47.1047 101.058C47.6524 95.1115 49.6668 90.0784 51.2847 86.8692C53.0889 83.2915 54.7615 81.1931 54.8315 81.1062L55.7939 81.8795C55.7687 81.9117 54.1129 83.9947 52.3703 87.4575C50.7636 90.6514 48.752 95.7069 48.2926 101.658C48.2748 101.92 48.1654 102.167 47.9836 102.357C47.8018 102.547 47.5592 102.667 47.298 102.696C47.2515 102.701 47.2047 102.704 47.1579 102.704Z" fill="#274B5B"/>
<path d="M68.7542 13.3308C68.5824 13.1365 68.3713 12.981 68.1349 12.8745C67.8985 12.768 67.6421 12.7129 67.3828 12.7129C67.1235 12.7129 66.8672 12.768 66.6307 12.8745C66.3943 12.981 66.1832 13.1365 66.0114 13.3308C62.0597 17.8036 50.9261 32.1885 50.9261 52.2943C50.9261 71.9743 55.1944 80.8121 56.8585 83.5086C57.2143 84.0844 57.989 84.4556 58.8337 84.4556H75.9334C76.7823 84.4556 77.5555 84.0872 77.9085 83.5086C79.5727 80.8121 83.8452 71.9743 83.8452 52.2943C83.8452 32.1885 72.7073 17.8036 68.7542 13.3308Z" fill="#26C8BC"/>
<path d="M67.1629 29.9696H67.4921V84.2917H67.1629V29.9696Z" fill="#274B5B"/>
<path opacity="0.2" d="M66.8337 29.9696H67.1629V84.2917H66.8337V29.9696Z" fill="#274B5B"/>
<path opacity="0.3" d="M67.4921 29.9696H67.8213V84.2917H67.4921V29.9696Z" fill="white"/>
<path d="M78.2741 29.4751H56.1413C57.4908 26.228 59.0746 23.0833 60.8802 20.0659C61.0381 19.8025 61.1945 19.5452 61.3495 19.294C64.5041 14.5719 66.9205 12 66.9205 12C66.9205 12 70.2825 15.5763 74.2454 22.041L74.3028 22.1363C75.6042 24.2879 76.9588 26.7421 78.2741 29.4751Z" fill="#ECF2FA"/>
<path d="M78.1089 29.237L76.8986 29.0633C74.8996 26.1398 69.3706 20.1737 61.7502 19.3515C61.8903 19.0881 62.4506 18.5502 62.5907 18.2994C63.6847 16.5008 64.6807 15.2919 65.4946 14.1404C65.7112 13.832 65.9981 13.5794 66.3314 13.4035C66.6647 13.2275 67.0351 13.1332 67.412 13.1283C67.7889 13.1234 68.1616 13.208 68.4994 13.3752C68.8372 13.5424 69.1305 13.7874 69.3552 14.09C71.075 16.3867 72.6399 18.7953 74.0395 21.3C74.0563 21.3308 74.2384 21.363 74.2566 21.3952C75.4403 23.5469 77.6158 24.8749 78.1089 29.237Z" fill="#8BBACC"/>
<path d="M59.471 27.3711C59.3998 27.371 59.3297 27.3523 59.2678 27.317C59.2059 27.2817 59.1542 27.231 59.1178 27.1697C59.0813 27.1084 59.0614 27.0388 59.06 26.9675C59.0586 26.8962 59.0757 26.8258 59.1096 26.7631C59.5103 26.0263 59.9501 25.2853 60.3886 24.5695C60.8088 23.8691 61.2403 23.1561 61.6269 22.4501C61.6814 22.3586 61.7692 22.2919 61.8719 22.2638C61.9745 22.2357 62.0841 22.2484 62.1776 22.2993C62.271 22.3502 62.3412 22.4353 62.3733 22.5368C62.4054 22.6383 62.3969 22.7483 62.3497 22.8437C61.9561 23.5665 61.5176 24.2921 61.089 24.9939C60.6603 25.6957 60.2205 26.434 59.8282 27.1554C59.7933 27.2199 59.7418 27.2739 59.679 27.3118C59.6162 27.3498 59.5444 27.3702 59.471 27.3711Z" fill="white"/>
<g opacity="0.4">
<path d="M71.4914 44.3671C72.0209 43.5099 72.3963 42.7828 72.4537 42.808C72.5112 42.8333 72.2072 43.6065 71.6693 44.4764C71.1314 45.3463 70.578 45.9655 70.5346 45.9305C70.4912 45.8954 70.9661 45.2272 71.4914 44.3671Z" fill="#426270"/>
<path d="M72.4419 45.1408C72.7849 44.5626 73.0224 44.0698 72.9725 44.0402C72.9226 44.0106 72.6041 44.4554 72.2612 45.0336C71.9183 45.6119 71.6807 46.1047 71.7306 46.1343C71.7805 46.1639 72.099 45.7191 72.4419 45.1408Z" fill="#426270"/>
<path d="M71.7001 44.9373C72.4734 45.2497 73.1192 45.4654 73.1009 45.5228C73.0827 45.5802 72.4005 45.4514 71.6189 45.132C70.8372 44.8126 70.2503 44.4316 70.2783 44.3868C70.3063 44.3419 70.9255 44.6277 71.7001 44.9373Z" fill="#426270"/>
<path d="M72.4313 44.7272C73.1318 45.0563 73.7243 45.2637 73.7075 45.3211C73.6907 45.3785 73.0603 45.2525 72.3431 44.9177C71.6259 44.5829 71.123 44.1766 71.1552 44.1346C71.1874 44.0926 71.7309 44.4036 72.4313 44.7272Z" fill="#426270"/>
</g>
<path d="M62.0793 84.8674H59.0774C58.2285 84.8674 57.4552 84.4976 57.1022 83.9191C55.4395 81.2155 51.1712 72.3568 51.1712 52.6291C51.1712 33.3105 61.3971 19.2604 65.7396 14.1797C61.8496 18.7883 53.4265 30.9894 53.4265 50.2155L58.3644 43.2871C58.2621 43.5561 48.2897 72.5641 62.0793 84.8674Z" fill="#F6DF9E"/>
<path d="M60.0649 84.4962H59.2413C58.3924 84.4962 57.6191 84.1264 57.2661 83.5479C55.6034 80.8443 51.3351 71.9856 51.3351 52.2579C51.3351 32.9393 61.561 18.8892 65.8951 13.8112C63.686 16.4294 60.0005 21.5157 57.2381 28.94C54.4043 35.2983 52.156 43.1961 52.156 52.2495C52.156 71.9785 56.4242 80.8373 58.087 83.5394C58.4442 84.1264 59.2174 84.4962 60.0649 84.4962Z" fill="white"/>
<path opacity="0.8" d="M72.1862 84.4556H75.1881C76.037 84.4556 76.8103 84.0872 77.1633 83.51C78.826 80.8149 83.0943 71.9813 83.0943 52.3097C83.0943 33.05 72.8684 19.0377 68.5259 13.9709C72.4159 18.5656 81.7453 30.7288 81.7453 49.9031L77.4715 42.9944C77.5681 43.2633 85.9772 72.1873 72.1862 84.4556Z" fill="#1B5A6E"/>
<path opacity="0.9" d="M56.8949 35.9805C57.0355 35.4305 57.2043 34.8882 57.4006 34.3556C57.5629 33.9198 57.75 33.4937 57.961 33.0794C58.3238 32.379 58.6376 31.9798 58.7678 32.0344C58.8981 32.089 58.8351 32.5821 58.6572 33.3344C58.5689 33.7112 58.4569 34.158 58.328 34.6441L57.9119 36.234L57.5099 37.8352C57.3894 38.3297 57.276 38.7695 57.1751 39.1435C56.972 39.8902 56.7983 40.3538 56.6526 40.3398C56.5069 40.3258 56.4215 39.8313 56.4397 39.0371C56.4534 38.5733 56.4936 38.1108 56.5602 37.6517C56.6429 37.0892 56.7547 36.5314 56.8949 35.9805Z" fill="white"/>
<path opacity="0.9" d="M56.5326 42.3773C56.6537 41.7065 56.5204 41.121 56.2349 41.0695C55.9493 41.018 55.6198 41.5199 55.4987 42.1907C55.3777 42.8614 55.511 43.447 55.7965 43.4985C56.082 43.55 56.4116 43.048 56.5326 42.3773Z" fill="white"/>
<g opacity="0.2">
<path d="M64.8432 17.1438C65.5253 16.6493 66.1599 16.2192 66.625 15.9237C67.0901 15.6281 67.3898 15.4572 67.4066 15.4838C67.4234 15.5104 67.1531 15.7178 66.7062 16.0441L64.9636 17.3049L63.2252 18.5838C62.777 18.906 62.494 19.0993 62.4758 19.0783C62.4576 19.0573 62.7083 18.822 63.1342 18.469C63.56 18.1159 64.161 17.6411 64.8432 17.1438Z" fill="#426270"/>
<path d="M65.0953 17.945C66.5956 17.3693 67.8045 16.886 67.8283 16.9407C67.8395 16.9673 67.5481 17.1228 67.0733 17.3441C66.5984 17.5654 65.9204 17.8526 65.171 18.1412C64.4215 18.4297 63.7267 18.6665 63.2224 18.8191C62.7181 18.9718 62.3987 19.0503 62.3903 19.0237C62.3693 18.9676 63.5964 18.5208 65.0953 17.945Z" fill="#426270"/>
</g>
<path d="M65.8868 39.3929C65.8297 39.3929 65.7739 39.3759 65.7265 39.3442C65.679 39.3125 65.642 39.2675 65.6202 39.2147C65.5983 39.162 65.5926 39.104 65.6037 39.048C65.6149 38.992 65.6424 38.9406 65.6827 38.9003C65.7231 38.8599 65.7745 38.8324 65.8305 38.8213C65.8865 38.8101 65.9445 38.8159 65.9972 38.8377C66.0499 38.8595 66.095 38.8965 66.1267 38.944C66.1584 38.9914 66.1753 39.0472 66.1753 39.1043C66.1753 39.1808 66.1449 39.2542 66.0908 39.3084C66.0367 39.3625 65.9633 39.3929 65.8868 39.3929ZM65.8868 38.981C65.8624 38.981 65.8386 38.9883 65.8183 39.0018C65.798 39.0154 65.7822 39.0346 65.7729 39.0571C65.7636 39.0797 65.7611 39.1044 65.7659 39.1284C65.7706 39.1523 65.7824 39.1742 65.7996 39.1915C65.8168 39.2087 65.8388 39.2205 65.8627 39.2252C65.8866 39.23 65.9114 39.2275 65.9339 39.2182C65.9565 39.2089 65.9757 39.1931 65.9893 39.1728C66.0028 39.1525 66.01 39.1287 66.01 39.1043C66.01 39.0716 65.9971 39.0403 65.9739 39.0171C65.9508 38.994 65.9195 38.981 65.8868 38.981Z" fill="#274B5B"/>
<path opacity="0.2" d="M65.8867 39.6394C65.7809 39.6394 65.6774 39.608 65.5894 39.5492C65.5014 39.4904 65.4329 39.4069 65.3924 39.3091C65.3519 39.2113 65.3413 39.1037 65.3619 38.9999C65.3826 38.8961 65.4335 38.8008 65.5084 38.7259C65.5832 38.6511 65.6785 38.6001 65.7823 38.5795C65.8861 38.5588 65.9937 38.5694 66.0915 38.6099C66.1893 38.6504 66.2729 38.719 66.3317 38.807C66.3905 38.895 66.4218 38.9985 66.4218 39.1043C66.4218 39.2462 66.3655 39.3823 66.2651 39.4827C66.1648 39.583 66.0287 39.6394 65.8867 39.6394ZM65.8867 38.8984C65.846 38.8984 65.8062 38.9105 65.7723 38.9331C65.7385 38.9557 65.7121 38.9879 65.6965 39.0255C65.6809 39.0631 65.6768 39.1045 65.6848 39.1445C65.6927 39.1844 65.7123 39.2211 65.7411 39.2499C65.7699 39.2787 65.8066 39.2983 65.8466 39.3063C65.8865 39.3142 65.9279 39.3101 65.9655 39.2945C66.0032 39.279 66.0353 39.2526 66.0579 39.2187C66.0806 39.1848 66.0927 39.145 66.0927 39.1043C66.093 39.077 66.088 39.0499 66.0778 39.0246C66.0676 38.9993 66.0525 38.9763 66.0333 38.9569C66.0142 38.9375 65.9914 38.922 65.9662 38.9115C65.941 38.901 65.914 38.8956 65.8867 38.8956V38.8984Z" fill="#274B5B"/>
<path d="M65.8868 33.7546C65.8297 33.7546 65.7739 33.7377 65.7265 33.706C65.679 33.6743 65.642 33.6292 65.6202 33.5765C65.5983 33.5237 65.5926 33.4657 65.6037 33.4097C65.6149 33.3538 65.6424 33.3023 65.6827 33.262C65.7231 33.2216 65.7745 33.1942 65.8305 33.183C65.8865 33.1719 65.9445 33.1776 65.9972 33.1994C66.0499 33.2213 66.095 33.2583 66.1267 33.3057C66.1584 33.3532 66.1753 33.409 66.1753 33.466C66.1753 33.5426 66.1449 33.616 66.0908 33.6701C66.0367 33.7242 65.9633 33.7546 65.8868 33.7546ZM65.8868 33.3428C65.8624 33.3428 65.8386 33.35 65.8183 33.3635C65.798 33.3771 65.7822 33.3963 65.7729 33.4189C65.7636 33.4414 65.7611 33.4662 65.7659 33.4901C65.7706 33.514 65.7824 33.536 65.7996 33.5532C65.8168 33.5704 65.8388 33.5822 65.8627 33.5869C65.8866 33.5917 65.9114 33.5893 65.9339 33.5799C65.9565 33.5706 65.9757 33.5548 65.9893 33.5345C66.0028 33.5143 66.01 33.4904 66.01 33.466C66.0097 33.4336 65.9965 33.4026 65.9734 33.3798C65.9504 33.357 65.9192 33.3442 65.8868 33.3442V33.3428Z" fill="#274B5B"/>
<path opacity="0.2" d="M65.8867 34.0025C65.7809 34.0025 65.6774 33.9712 65.5894 33.9124C65.5014 33.8536 65.4329 33.77 65.3924 33.6722C65.3519 33.5744 65.3413 33.4668 65.3619 33.363C65.3826 33.2592 65.4335 33.1639 65.5084 33.0891C65.5832 33.0142 65.6785 32.9633 65.7823 32.9426C65.8861 32.922 65.9937 32.9326 66.0915 32.9731C66.1893 33.0136 66.2729 33.0821 66.3317 33.1701C66.3905 33.2581 66.4218 33.3616 66.4218 33.4674C66.4218 33.6094 66.3655 33.7455 66.2651 33.8458C66.1648 33.9462 66.0287 34.0025 65.8867 34.0025ZM65.8867 33.2615C65.846 33.2615 65.8062 33.2736 65.7723 33.2962C65.7385 33.3188 65.7121 33.351 65.6965 33.3886C65.6809 33.4263 65.6768 33.4677 65.6848 33.5076C65.6927 33.5476 65.7123 33.5842 65.7411 33.613C65.7699 33.6418 65.8066 33.6615 65.8466 33.6694C65.8865 33.6773 65.9279 33.6733 65.9655 33.6577C66.0032 33.6421 66.0353 33.6157 66.0579 33.5818C66.0806 33.548 66.0927 33.5082 66.0927 33.4674C66.0927 33.4128 66.071 33.3604 66.0323 33.3218C65.9937 33.2832 65.9413 33.2615 65.8867 33.2615Z" fill="#274B5B"/>
<path d="M68.7668 35.5659C68.7097 35.5659 68.6539 35.5489 68.6065 35.5172C68.559 35.4855 68.522 35.4404 68.5002 35.3877C68.4783 35.335 68.4726 35.277 68.4838 35.221C68.4949 35.165 68.5224 35.1136 68.5627 35.0732C68.6031 35.0329 68.6545 35.0054 68.7105 34.9943C68.7665 34.9831 68.8245 34.9888 68.8772 35.0107C68.9299 35.0325 68.975 35.0695 69.0067 35.117C69.0384 35.1644 69.0553 35.2202 69.0553 35.2773C69.0553 35.3152 69.0479 35.3527 69.0334 35.3877C69.0189 35.4227 68.9976 35.4545 68.9708 35.4813C68.944 35.5081 68.9122 35.5294 68.8772 35.5439C68.8422 35.5584 68.8047 35.5659 68.7668 35.5659ZM68.7668 35.154C68.7424 35.154 68.7186 35.1612 68.6983 35.1748C68.678 35.1883 68.6622 35.2076 68.6529 35.2301C68.6436 35.2526 68.6411 35.2774 68.6459 35.3013C68.6506 35.3252 68.6624 35.3472 68.6796 35.3645C68.6969 35.3817 68.7188 35.3934 68.7427 35.3982C68.7666 35.4029 68.7914 35.4005 68.814 35.3912C68.8365 35.3818 68.8557 35.366 68.8693 35.3458C68.8828 35.3255 68.89 35.3017 68.89 35.2773C68.89 35.2446 68.8771 35.2132 68.8539 35.1901C68.8308 35.167 68.7995 35.154 68.7668 35.154Z" fill="#274B5B"/>
<path opacity="0.2" d="M68.7668 35.8138C68.661 35.8138 68.5575 35.7824 68.4695 35.7236C68.3815 35.6648 68.3129 35.5812 68.2724 35.4835C68.2319 35.3857 68.2213 35.2781 68.242 35.1743C68.2626 35.0705 68.3136 34.9751 68.3884 34.9003C68.4633 34.8255 68.5586 34.7745 68.6624 34.7539C68.7662 34.7332 68.8738 34.7438 68.9716 34.7843C69.0694 34.8248 69.1529 34.8934 69.2117 34.9814C69.2705 35.0694 69.3019 35.1729 69.3019 35.2787C69.3019 35.4206 69.2455 35.5567 69.1452 35.6571C69.0448 35.7574 68.9087 35.8138 68.7668 35.8138ZM68.7668 35.0728C68.7261 35.0728 68.6863 35.0848 68.6524 35.1075C68.6185 35.1301 68.5921 35.1623 68.5766 35.1999C68.561 35.2375 68.5569 35.2789 68.5648 35.3189C68.5728 35.3588 68.5924 35.3955 68.6212 35.4243C68.65 35.4531 68.6867 35.4727 68.7266 35.4806C68.7666 35.4886 68.808 35.4845 68.8456 35.4689C68.8832 35.4533 68.9154 35.427 68.938 35.3931C68.9606 35.3592 68.9727 35.3194 68.9727 35.2787C68.9727 35.2241 68.951 35.1717 68.9124 35.1331C68.8738 35.0945 68.8214 35.0728 68.7668 35.0728Z" fill="#274B5B"/>
<path d="M68.7668 56.0597C68.7097 56.0597 68.6539 56.0428 68.6065 56.0111C68.559 55.9794 68.522 55.9343 68.5002 55.8816C68.4783 55.8289 68.4726 55.7708 68.4838 55.7149C68.4949 55.6589 68.5224 55.6075 68.5627 55.5671C68.6031 55.5268 68.6545 55.4993 68.7105 55.4881C68.7665 55.477 68.8245 55.4827 68.8772 55.5046C68.9299 55.5264 68.975 55.5634 69.0067 55.6108C69.0384 55.6583 69.0553 55.7141 69.0553 55.7712C69.0553 55.8477 69.0249 55.9211 68.9708 55.9752C68.9167 56.0293 68.8433 56.0597 68.7668 56.0597ZM68.7668 55.6479C68.7424 55.6479 68.7186 55.6551 68.6983 55.6687C68.678 55.6822 68.6622 55.7015 68.6529 55.724C68.6436 55.7465 68.6411 55.7713 68.6459 55.7952C68.6506 55.8191 68.6624 55.8411 68.6796 55.8583C68.6969 55.8756 68.7188 55.8873 68.7427 55.8921C68.7666 55.8968 68.7914 55.8944 68.814 55.885C68.8365 55.8757 68.8557 55.8599 68.8693 55.8396C68.8828 55.8194 68.89 55.7955 68.89 55.7712C68.8897 55.7387 68.8765 55.7077 68.8535 55.6849C68.8304 55.6621 68.7992 55.6493 68.7668 55.6493V55.6479Z" fill="#274B5B"/>
<path opacity="0.2" d="M68.7668 56.3077C68.661 56.3077 68.5575 56.2763 68.4695 56.2175C68.3815 56.1587 68.3129 56.0751 68.2724 55.9773C68.2319 55.8796 68.2213 55.772 68.242 55.6682C68.2626 55.5644 68.3136 55.469 68.3884 55.3942C68.4633 55.3193 68.5586 55.2684 68.6624 55.2477C68.7662 55.2271 68.8738 55.2377 68.9716 55.2782C69.0694 55.3187 69.1529 55.3873 69.2117 55.4753C69.2705 55.5633 69.3019 55.6667 69.3019 55.7726C69.3019 55.9145 69.2455 56.0506 69.1452 56.1509C69.0448 56.2513 68.9087 56.3077 68.7668 56.3077ZM68.7668 55.5666C68.7261 55.5666 68.6863 55.5787 68.6524 55.6013C68.6185 55.624 68.5921 55.6561 68.5766 55.6938C68.561 55.7314 68.5569 55.7728 68.5648 55.8127C68.5728 55.8527 68.5924 55.8894 68.6212 55.9182C68.65 55.947 68.6867 55.9666 68.7266 55.9745C68.7666 55.9825 68.808 55.9784 68.8456 55.9628C68.8832 55.9472 68.9154 55.9208 68.938 55.887C68.9606 55.8531 68.9727 55.8133 68.9727 55.7726C68.9729 55.7454 68.9677 55.7185 68.9574 55.6933C68.9472 55.6682 68.932 55.6453 68.9129 55.626C68.8938 55.6068 68.871 55.5915 68.8459 55.581C68.8209 55.5706 68.794 55.5652 68.7668 55.5652V55.5666Z" fill="#274B5B"/>
<path d="M68.8564 60.258C68.7994 60.258 68.7436 60.241 68.6961 60.2093C68.6487 60.1776 68.6117 60.1325 68.5898 60.0798C68.568 60.0271 68.5623 59.9691 68.5734 59.9131C68.5846 59.8571 68.612 59.8057 68.6524 59.7653C68.6927 59.725 68.7442 59.6975 68.8001 59.6864C68.8561 59.6752 68.9141 59.6809 68.9669 59.7028C69.0196 59.7246 69.0647 59.7616 69.0964 59.8091C69.1281 59.8565 69.145 59.9123 69.145 59.9694C69.145 60.0459 69.1146 60.1193 69.0605 60.1734C69.0064 60.2276 68.933 60.258 68.8564 60.258ZM68.8564 59.8461C68.8321 59.8461 68.8082 59.8533 68.788 59.8669C68.7677 59.8804 68.7519 59.8997 68.7425 59.9222C68.7332 59.9447 68.7308 59.9695 68.7355 59.9934C68.7403 60.0174 68.752 60.0393 68.7693 60.0566C68.7865 60.0738 68.8085 60.0855 68.8324 60.0903C68.8563 60.095 68.8811 60.0926 68.9036 60.0833C68.9261 60.0739 68.9454 60.0581 68.9589 60.0379C68.9725 60.0176 68.9797 59.9938 68.9797 59.9694C68.9797 59.9367 68.9667 59.9053 68.9436 59.8822C68.9205 59.8591 68.8891 59.8461 68.8564 59.8461Z" fill="#274B5B"/>
<path opacity="0.2" d="M68.8565 60.5045C68.7506 60.5045 68.6472 60.4731 68.5592 60.4143C68.4712 60.3555 68.4026 60.2719 68.3621 60.1742C68.3216 60.0764 68.311 59.9688 68.3316 59.865C68.3523 59.7612 68.4032 59.6658 68.4781 59.591C68.5529 59.5162 68.6483 59.4652 68.7521 59.4446C68.8559 59.4239 68.9635 59.4345 69.0612 59.475C69.159 59.5155 69.2426 59.5841 69.3014 59.6721C69.3602 59.7601 69.3916 59.8636 69.3916 59.9694C69.3916 60.1113 69.3352 60.2474 69.2348 60.3478C69.1345 60.4481 68.9984 60.5045 68.8565 60.5045ZM68.8565 59.7635C68.8157 59.7635 68.7759 59.7755 68.7421 59.7982C68.7082 59.8208 68.6818 59.853 68.6662 59.8906C68.6506 59.9282 68.6466 59.9696 68.6545 60.0096C68.6624 60.0495 68.6821 60.0862 68.7109 60.115C68.7397 60.1438 68.7763 60.1634 68.8163 60.1713C68.8562 60.1793 68.8976 60.1752 68.9353 60.1596C68.9729 60.144 69.005 60.1177 69.0277 60.0838C69.0503 60.0499 69.0624 60.0101 69.0624 59.9694C69.0613 59.9155 69.0391 59.8642 69.0006 59.8265C68.9621 59.7888 68.9104 59.7677 68.8565 59.7677V59.7635Z" fill="#274B5B"/>
<path d="M65.6346 54.9083C65.5775 54.9083 65.5217 54.8913 65.4743 54.8596C65.4268 54.8279 65.3898 54.7828 65.368 54.7301C65.3461 54.6774 65.3404 54.6194 65.3516 54.5634C65.3627 54.5074 65.3902 54.456 65.4305 54.4156C65.4709 54.3753 65.5223 54.3478 65.5783 54.3367C65.6343 54.3255 65.6923 54.3312 65.745 54.3531C65.7977 54.3749 65.8428 54.4119 65.8745 54.4594C65.9062 54.5068 65.9231 54.5626 65.9231 54.6197C65.9231 54.6962 65.8927 54.7696 65.8386 54.8237C65.7845 54.8779 65.7111 54.9083 65.6346 54.9083ZM65.6346 54.4964C65.6102 54.4964 65.5864 54.5036 65.5661 54.5172C65.5458 54.5307 65.53 54.55 65.5207 54.5725C65.5114 54.595 65.5089 54.6198 65.5137 54.6437C65.5184 54.6677 65.5302 54.6896 65.5474 54.7069C65.5646 54.7241 65.5866 54.7358 65.6105 54.7406C65.6344 54.7454 65.6592 54.7429 65.6817 54.7336C65.7043 54.7242 65.7235 54.7084 65.7371 54.6882C65.7506 54.6679 65.7578 54.6441 65.7578 54.6197C65.7578 54.587 65.7449 54.5556 65.7217 54.5325C65.6986 54.5094 65.6673 54.4964 65.6346 54.4964Z" fill="#274B5B"/>
<path opacity="0.2" d="M65.6346 55.1548C65.5288 55.1548 65.4253 55.1234 65.3373 55.0646C65.2493 55.0058 65.1807 54.9222 65.1402 54.8245C65.0997 54.7267 65.0891 54.6191 65.1098 54.5153C65.1304 54.4115 65.1814 54.3161 65.2562 54.2413C65.3311 54.1665 65.4264 54.1155 65.5302 54.0949C65.634 54.0742 65.7416 54.0848 65.8394 54.1253C65.9372 54.1658 66.0207 54.2344 66.0795 54.3224C66.1383 54.4104 66.1697 54.5139 66.1697 54.6197C66.1697 54.7616 66.1133 54.8977 66.013 54.9981C65.9126 55.0984 65.7765 55.1548 65.6346 55.1548ZM65.6346 54.4138C65.5939 54.4138 65.5541 54.4258 65.5202 54.4485C65.4863 54.4711 65.4599 54.5033 65.4444 54.5409C65.4288 54.5785 65.4247 54.6199 65.4326 54.6599C65.4406 54.6998 65.4602 54.7365 65.489 54.7653C65.5178 54.7941 65.5545 54.8137 65.5944 54.8217C65.6344 54.8296 65.6758 54.8255 65.7134 54.8099C65.751 54.7943 65.7832 54.768 65.8058 54.7341C65.8284 54.7002 65.8405 54.6604 65.8405 54.6197C65.8405 54.5651 65.8188 54.5127 65.7802 54.4741C65.7416 54.4355 65.6892 54.4138 65.6346 54.4138Z" fill="#274B5B"/>
<path d="M65.6346 59.1051C65.5775 59.1051 65.5217 59.0882 65.4743 59.0565C65.4268 59.0247 65.3898 58.9797 65.368 58.9269C65.3461 58.8742 65.3404 58.8162 65.3516 58.7602C65.3627 58.7042 65.3902 58.6528 65.4305 58.6125C65.4709 58.5721 65.5223 58.5446 65.5783 58.5335C65.6343 58.5224 65.6923 58.5281 65.745 58.5499C65.7977 58.5718 65.8428 58.6087 65.8745 58.6562C65.9062 58.7037 65.9231 58.7594 65.9231 58.8165C65.9231 58.8931 65.8927 58.9664 65.8386 59.0206C65.7845 59.0747 65.7111 59.1051 65.6346 59.1051ZM65.6346 58.6932C65.6102 58.6932 65.5864 58.7005 65.5661 58.714C65.5458 58.7276 65.53 58.7468 65.5207 58.7693C65.5114 58.7919 65.5089 58.8167 65.5137 58.8406C65.5184 58.8645 65.5302 58.8864 65.5474 58.9037C65.5646 58.9209 65.5866 58.9327 65.6105 58.9374C65.6344 58.9422 65.6592 58.9397 65.6817 58.9304C65.7043 58.9211 65.7235 58.9053 65.7371 58.885C65.7506 58.8647 65.7578 58.8409 65.7578 58.8165C65.7575 58.7841 65.7443 58.7531 65.7213 58.7303C65.6982 58.7074 65.667 58.6946 65.6346 58.6946V58.6932Z" fill="#274B5B"/>
<path opacity="0.2" d="M65.6346 59.3474C65.5288 59.3474 65.4253 59.316 65.3373 59.2572C65.2493 59.1984 65.1807 59.1149 65.1402 59.0171C65.0997 58.9193 65.0891 58.8117 65.1098 58.7079C65.1304 58.6041 65.1814 58.5088 65.2562 58.4339C65.3311 58.3591 65.4264 58.3081 65.5302 58.2875C65.634 58.2668 65.7416 58.2774 65.8394 58.3179C65.9372 58.3584 66.0207 58.427 66.0795 58.515C66.1383 58.603 66.1697 58.7065 66.1697 58.8123C66.1697 58.9542 66.1133 59.0903 66.013 59.1907C65.9126 59.291 65.7765 59.3474 65.6346 59.3474ZM65.6346 58.6064C65.5939 58.6064 65.5541 58.6185 65.5202 58.6411C65.4863 58.6637 65.4599 58.6959 65.4444 58.7335C65.4288 58.7711 65.4247 58.8125 65.4326 58.8525C65.4406 58.8924 65.4602 58.9291 65.489 58.9579C65.5178 58.9867 65.5545 59.0063 65.5944 59.0143C65.6344 59.0222 65.6758 59.0181 65.7134 59.0026C65.751 58.987 65.7832 58.9606 65.8058 58.9267C65.8284 58.8929 65.8405 58.853 65.8405 58.8123C65.8391 58.7587 65.8167 58.7077 65.7783 58.6703C65.7398 58.6329 65.6883 58.612 65.6346 58.612V58.6064Z" fill="#274B5B"/>
<path d="M65.8868 45.0311C65.8297 45.0311 65.7739 45.0142 65.7265 44.9825C65.679 44.9508 65.642 44.9057 65.6202 44.853C65.5983 44.8003 65.5926 44.7422 65.6037 44.6863C65.6149 44.6303 65.6424 44.5789 65.6827 44.5385C65.7231 44.4982 65.7745 44.4707 65.8305 44.4595C65.8865 44.4484 65.9445 44.4541 65.9972 44.476C66.0499 44.4978 66.095 44.5348 66.1267 44.5822C66.1584 44.6297 66.1753 44.6855 66.1753 44.7426C66.1753 44.8191 66.1449 44.8925 66.0908 44.9466C66.0367 45.0007 65.9633 45.0311 65.8868 45.0311ZM65.8868 44.6193C65.8624 44.6193 65.8386 44.6265 65.8183 44.6401C65.798 44.6536 65.7822 44.6729 65.7729 44.6954C65.7636 44.7179 65.7611 44.7427 65.7659 44.7666C65.7706 44.7905 65.7824 44.8125 65.7996 44.8297C65.8168 44.847 65.8388 44.8587 65.8627 44.8635C65.8866 44.8682 65.9114 44.8658 65.9339 44.8565C65.9565 44.8471 65.9757 44.8313 65.9893 44.8111C66.0028 44.7908 66.01 44.767 66.01 44.7426C66.01 44.7099 65.9971 44.6785 65.9739 44.6554C65.9508 44.6323 65.9195 44.6193 65.8868 44.6193Z" fill="#274B5B"/>
<path opacity="0.2" d="M65.8867 45.2777C65.7809 45.2777 65.6774 45.2463 65.5894 45.1875C65.5014 45.1287 65.4329 45.0451 65.3924 44.9473C65.3519 44.8496 65.3413 44.742 65.3619 44.6382C65.3826 44.5344 65.4335 44.439 65.5084 44.3642C65.5832 44.2894 65.6785 44.2384 65.7823 44.2177C65.8861 44.1971 65.9937 44.2077 66.0915 44.2482C66.1893 44.2887 66.2729 44.3573 66.3317 44.4453C66.3905 44.5333 66.4218 44.6367 66.4218 44.7426C66.4218 44.8845 66.3655 45.0206 66.2651 45.1209C66.1648 45.2213 66.0287 45.2777 65.8867 45.2777ZM65.8867 44.5367C65.846 44.5367 65.8062 44.5487 65.7723 44.5714C65.7385 44.594 65.7121 44.6261 65.6965 44.6638C65.6809 44.7014 65.6768 44.7428 65.6848 44.7827C65.6927 44.8227 65.7123 44.8594 65.7411 44.8882C65.7699 44.917 65.8066 44.9366 65.8466 44.9445C65.8865 44.9525 65.9279 44.9484 65.9655 44.9328C66.0032 44.9172 66.0353 44.8908 66.0579 44.857C66.0806 44.8231 66.0927 44.7833 66.0927 44.7426C66.0927 44.688 66.071 44.6356 66.0323 44.597C65.9937 44.5583 65.9413 44.5367 65.8867 44.5367Z" fill="#274B5B"/>
<path d="M72.4705 27.8292C72.4134 27.8292 72.3576 27.8122 72.3102 27.7805C72.2627 27.7488 72.2258 27.7038 72.2039 27.651C72.1821 27.5983 72.1764 27.5403 72.1875 27.4843C72.1986 27.4283 72.2261 27.3769 72.2665 27.3366C72.3068 27.2962 72.3582 27.2687 72.4142 27.2576C72.4702 27.2464 72.5282 27.2522 72.5809 27.274C72.6337 27.2958 72.6787 27.3328 72.7104 27.3803C72.7422 27.4277 72.7591 27.4835 72.7591 27.5406C72.7591 27.5785 72.7516 27.616 72.7371 27.651C72.7226 27.686 72.7014 27.7179 72.6746 27.7447C72.6478 27.7714 72.616 27.7927 72.5809 27.8072C72.5459 27.8217 72.5084 27.8292 72.4705 27.8292ZM72.4705 27.4173C72.4461 27.4173 72.4223 27.4246 72.402 27.4381C72.3818 27.4517 72.366 27.4709 72.3566 27.4934C72.3473 27.516 72.3449 27.5407 72.3496 27.5647C72.3544 27.5886 72.3661 27.6105 72.3833 27.6278C72.4006 27.645 72.4226 27.6568 72.4465 27.6615C72.4704 27.6663 72.4952 27.6638 72.5177 27.6545C72.5402 27.6452 72.5595 27.6294 72.573 27.6091C72.5866 27.5888 72.5938 27.565 72.5938 27.5406C72.5938 27.5079 72.5808 27.4766 72.5577 27.4534C72.5346 27.4303 72.5032 27.4173 72.4705 27.4173Z" fill="#274B5B"/>
<path opacity="0.2" d="M72.4705 28.0757C72.3647 28.0757 72.2612 28.0443 72.1732 27.9855C72.0852 27.9267 72.0167 27.8432 71.9762 27.7454C71.9357 27.6476 71.9251 27.54 71.9457 27.4362C71.9664 27.3324 72.0173 27.2371 72.0922 27.1622C72.167 27.0874 72.2623 27.0364 72.3661 27.0158C72.4699 26.9951 72.5775 27.0057 72.6753 27.0462C72.7731 27.0867 72.8567 27.1553 72.9155 27.2433C72.9743 27.3313 73.0056 27.4348 73.0056 27.5406C73.0056 27.6825 72.9493 27.8186 72.8489 27.919C72.7486 28.0193 72.6125 28.0757 72.4705 28.0757ZM72.4705 27.3347C72.4298 27.3347 72.39 27.3468 72.3561 27.3694C72.3223 27.392 72.2959 27.4242 72.2803 27.4618C72.2647 27.4994 72.2606 27.5408 72.2686 27.5808C72.2765 27.6207 72.2961 27.6574 72.3249 27.6862C72.3537 27.715 72.3904 27.7346 72.4304 27.7426C72.4703 27.7505 72.5117 27.7464 72.5493 27.7308C72.587 27.7153 72.6191 27.6889 72.6417 27.655C72.6644 27.6211 72.6765 27.5813 72.6765 27.5406C72.6765 27.486 72.6548 27.4336 72.6161 27.395C72.5775 27.3564 72.5251 27.3347 72.4705 27.3347Z" fill="#274B5B"/>
<path d="M62.1003 27.8292C62.0433 27.8292 61.9875 27.8122 61.94 27.7805C61.8926 27.7488 61.8556 27.7038 61.8337 27.651C61.8119 27.5983 61.8062 27.5403 61.8173 27.4843C61.8284 27.4283 61.8559 27.3769 61.8963 27.3366C61.9366 27.2962 61.9881 27.2687 62.044 27.2576C62.1 27.2464 62.158 27.2522 62.2108 27.274C62.2635 27.2958 62.3086 27.3328 62.3403 27.3803C62.372 27.4277 62.3889 27.4835 62.3889 27.5406C62.3889 27.5785 62.3814 27.616 62.3669 27.651C62.3524 27.686 62.3312 27.7179 62.3044 27.7447C62.2776 27.7714 62.2458 27.7927 62.2108 27.8072C62.1758 27.8217 62.1382 27.8292 62.1003 27.8292ZM62.1003 27.4173C62.076 27.4173 62.0521 27.4246 62.0318 27.4381C62.0116 27.4517 61.9958 27.4709 61.9864 27.4934C61.9771 27.516 61.9747 27.5407 61.9794 27.5647C61.9842 27.5886 61.9959 27.6105 62.0132 27.6278C62.0304 27.645 62.0524 27.6568 62.0763 27.6615C62.1002 27.6663 62.125 27.6638 62.1475 27.6545C62.17 27.6452 62.1893 27.6294 62.2028 27.6091C62.2164 27.5888 62.2236 27.565 62.2236 27.5406C62.2236 27.5079 62.2106 27.4766 62.1875 27.4534C62.1644 27.4303 62.133 27.4173 62.1003 27.4173Z" fill="#274B5B"/>
<path opacity="0.2" d="M62.1004 28.0757C61.9945 28.0757 61.8911 28.0443 61.8031 27.9855C61.7151 27.9267 61.6465 27.8432 61.606 27.7454C61.5655 27.6476 61.5549 27.54 61.5755 27.4362C61.5962 27.3324 61.6471 27.2371 61.722 27.1622C61.7968 27.0874 61.8922 27.0364 61.996 27.0158C62.0998 26.9951 62.2074 27.0057 62.3051 27.0462C62.4029 27.0867 62.4865 27.1553 62.5453 27.2433C62.6041 27.3313 62.6355 27.4348 62.6355 27.5406C62.6355 27.6825 62.5791 27.8186 62.4787 27.919C62.3784 28.0193 62.2423 28.0757 62.1004 28.0757ZM62.1004 27.3347C62.0596 27.3347 62.0198 27.3468 61.986 27.3694C61.9521 27.392 61.9257 27.4242 61.9101 27.4618C61.8945 27.4994 61.8904 27.5408 61.8984 27.5808C61.9063 27.6207 61.926 27.6574 61.9548 27.6862C61.9835 27.715 62.0202 27.7346 62.0602 27.7426C62.1001 27.7505 62.1415 27.7464 62.1792 27.7308C62.2168 27.7153 62.2489 27.6889 62.2716 27.655C62.2942 27.6211 62.3063 27.5813 62.3063 27.5406C62.3063 27.486 62.2846 27.4336 62.246 27.395C62.2073 27.3564 62.155 27.3347 62.1004 27.3347Z" fill="#274B5B"/>
<path d="M67.2861 27.8292C67.2291 27.8292 67.1733 27.8122 67.1258 27.7805C67.0784 27.7488 67.0414 27.7038 67.0195 27.651C66.9977 27.5983 66.992 27.5403 67.0031 27.4843C67.0142 27.4283 67.0417 27.3769 67.0821 27.3366C67.1224 27.2962 67.1739 27.2687 67.2298 27.2576C67.2858 27.2464 67.3438 27.2522 67.3966 27.274C67.4493 27.2958 67.4944 27.3328 67.5261 27.3803C67.5578 27.4277 67.5747 27.4835 67.5747 27.5406C67.5747 27.5785 67.5672 27.616 67.5527 27.651C67.5382 27.686 67.517 27.7179 67.4902 27.7447C67.4634 27.7714 67.4316 27.7927 67.3966 27.8072C67.3615 27.8217 67.324 27.8292 67.2861 27.8292ZM67.2861 27.4173C67.2617 27.4173 67.2379 27.4246 67.2176 27.4381C67.1974 27.4517 67.1816 27.4709 67.1722 27.4934C67.1629 27.516 67.1605 27.5407 67.1652 27.5647C67.17 27.5886 67.1817 27.6105 67.199 27.6278C67.2162 27.645 67.2382 27.6568 67.2621 27.6615C67.286 27.6663 67.3108 27.6638 67.3333 27.6545C67.3558 27.6452 67.3751 27.6294 67.3886 27.6091C67.4022 27.5888 67.4094 27.565 67.4094 27.5406C67.4094 27.5079 67.3964 27.4766 67.3733 27.4534C67.3502 27.4303 67.3188 27.4173 67.2861 27.4173Z" fill="#274B5B"/>
<path opacity="0.2" d="M67.2861 28.0757C67.1803 28.0757 67.0769 28.0443 66.9889 27.9855C66.9009 27.9267 66.8323 27.8432 66.7918 27.7454C66.7513 27.6476 66.7407 27.54 66.7613 27.4362C66.782 27.3324 66.8329 27.2371 66.9078 27.1622C66.9826 27.0874 67.078 27.0364 67.1818 27.0158C67.2856 26.9951 67.3931 27.0057 67.4909 27.0462C67.5887 27.0867 67.6723 27.1553 67.7311 27.2433C67.7899 27.3313 67.8213 27.4348 67.8213 27.5406C67.8213 27.6825 67.7649 27.8186 67.6645 27.919C67.5642 28.0193 67.4281 28.0757 67.2861 28.0757ZM67.2861 27.3347C67.2454 27.3347 67.2056 27.3468 67.1717 27.3694C67.1379 27.392 67.1115 27.4242 67.0959 27.4618C67.0803 27.4994 67.0762 27.5408 67.0842 27.5808C67.0921 27.6207 67.1117 27.6574 67.1405 27.6862C67.1693 27.715 67.206 27.7346 67.246 27.7426C67.2859 27.7505 67.3273 27.7464 67.3649 27.7308C67.4026 27.7153 67.4347 27.6889 67.4574 27.655C67.48 27.6211 67.4921 27.5813 67.4921 27.5406C67.4921 27.486 67.4704 27.4336 67.4318 27.395C67.3931 27.3564 67.3408 27.3347 67.2861 27.3347Z" fill="#274B5B"/>
<path d="M65.8868 65.3611C65.8297 65.3611 65.7739 65.3442 65.7265 65.3125C65.679 65.2808 65.642 65.2357 65.6202 65.183C65.5983 65.1302 65.5926 65.0722 65.6037 65.0162C65.6149 64.9603 65.6424 64.9089 65.6827 64.8685C65.7231 64.8281 65.7745 64.8007 65.8305 64.7895C65.8865 64.7784 65.9445 64.7841 65.9972 64.8059C66.0499 64.8278 66.095 64.8648 66.1267 64.9122C66.1584 64.9597 66.1753 65.0155 66.1753 65.0725C66.1753 65.1491 66.1449 65.2225 66.0908 65.2766C66.0367 65.3307 65.9633 65.3611 65.8868 65.3611ZM65.8868 64.9493C65.8624 64.9493 65.8386 64.9565 65.8183 64.97C65.798 64.9836 65.7822 65.0028 65.7729 65.0254C65.7636 65.0479 65.7611 65.0727 65.7659 65.0966C65.7706 65.1205 65.7824 65.1425 65.7996 65.1597C65.8168 65.177 65.8388 65.1887 65.8627 65.1934C65.8866 65.1982 65.9114 65.1958 65.9339 65.1864C65.9565 65.1771 65.9757 65.1613 65.9893 65.141C66.0028 65.1208 66.01 65.0969 66.01 65.0725C66.0097 65.0401 65.9965 65.0091 65.9734 64.9863C65.9504 64.9635 65.9192 64.9507 65.8868 64.9507V64.9493Z" fill="#274B5B"/>
<path opacity="0.2" d="M65.8867 65.6077C65.7809 65.6077 65.6774 65.5763 65.5894 65.5175C65.5014 65.4587 65.4329 65.3751 65.3924 65.2773C65.3519 65.1795 65.3413 65.072 65.3619 64.9682C65.3826 64.8644 65.4335 64.769 65.5084 64.6942C65.5832 64.6193 65.6785 64.5684 65.7823 64.5477C65.8861 64.5271 65.9937 64.5377 66.0915 64.5782C66.1893 64.6187 66.2729 64.6873 66.3317 64.7753C66.3905 64.8633 66.4218 64.9667 66.4218 65.0725C66.4218 65.2145 66.3655 65.3506 66.2651 65.4509C66.1648 65.5513 66.0287 65.6077 65.8867 65.6077ZM65.8867 64.8666C65.846 64.8666 65.8062 64.8787 65.7723 64.9013C65.7385 64.924 65.7121 64.9561 65.6965 64.9937C65.6809 65.0314 65.6768 65.0728 65.6848 65.1127C65.6927 65.1527 65.7123 65.1894 65.7411 65.2182C65.7699 65.247 65.8066 65.2666 65.8466 65.2745C65.8865 65.2825 65.9279 65.2784 65.9655 65.2628C66.0032 65.2472 66.0353 65.2208 66.0579 65.1869C66.0806 65.1531 66.0927 65.1133 66.0927 65.0725C66.0927 65.0179 66.071 64.9656 66.0323 64.9269C65.9937 64.8883 65.9413 64.8666 65.8867 64.8666Z" fill="#274B5B"/>
<path d="M65.8868 71.3944C65.8297 71.3944 65.7739 71.3775 65.7265 71.3458C65.679 71.3141 65.642 71.269 65.6202 71.2163C65.5983 71.1635 65.5926 71.1055 65.6037 71.0495C65.6149 70.9936 65.6424 70.9421 65.6827 70.9018C65.7231 70.8614 65.7745 70.8339 65.8305 70.8228C65.8865 70.8117 65.9445 70.8174 65.9972 70.8392C66.0499 70.8611 66.095 70.8981 66.1267 70.9455C66.1584 70.993 66.1753 71.0488 66.1753 71.1058C66.1753 71.1824 66.1449 71.2558 66.0908 71.3099C66.0367 71.364 65.9633 71.3944 65.8868 71.3944ZM65.8868 70.9826C65.8624 70.9826 65.8386 70.9898 65.8183 71.0033C65.798 71.0169 65.7822 71.0361 65.7729 71.0587C65.7636 71.0812 65.7611 71.106 65.7659 71.1299C65.7706 71.1538 65.7824 71.1758 65.7996 71.193C65.8168 71.2102 65.8388 71.222 65.8627 71.2267C65.8866 71.2315 65.9114 71.2291 65.9339 71.2197C65.9565 71.2104 65.9757 71.1946 65.9893 71.1743C66.0028 71.154 66.01 71.1302 66.01 71.1058C66.0093 71.0736 65.996 71.043 65.973 71.0205C65.9499 70.998 65.919 70.9854 65.8868 70.9854V70.9826Z" fill="#274B5B"/>
<path opacity="0.2" d="M65.8867 71.6437C65.7809 71.6437 65.6774 71.6124 65.5894 71.5536C65.5014 71.4948 65.4329 71.4112 65.3924 71.3134C65.3519 71.2156 65.3413 71.108 65.3619 71.0042C65.3826 70.9004 65.4335 70.8051 65.5084 70.7303C65.5832 70.6554 65.6785 70.6045 65.7823 70.5838C65.8861 70.5632 65.9937 70.5738 66.0915 70.6143C66.1893 70.6548 66.2729 70.7233 66.3317 70.8113C66.3905 70.8993 66.4218 71.0028 66.4218 71.1086C66.4218 71.2506 66.3655 71.3867 66.2651 71.487C66.1648 71.5874 66.0287 71.6437 65.8867 71.6437ZM65.8867 70.9027C65.846 70.9027 65.8062 70.9148 65.7723 70.9374C65.7385 70.96 65.7121 70.9922 65.6965 71.0298C65.6809 71.0675 65.6768 71.1089 65.6848 71.1488C65.6927 71.1888 65.7123 71.2254 65.7411 71.2542C65.7699 71.283 65.8066 71.3027 65.8466 71.3106C65.8865 71.3185 65.9279 71.3145 65.9655 71.2989C66.0032 71.2833 66.0353 71.2569 66.0579 71.223C66.0806 71.1892 66.0927 71.1494 66.0927 71.1086C66.0927 71.054 66.071 71.0016 66.0323 70.963C65.9937 70.9244 65.9413 70.9027 65.8867 70.9027Z" fill="#274B5B"/>
<path d="M65.8868 77.4333C65.8297 77.4333 65.7739 77.4164 65.7265 77.3847C65.679 77.353 65.642 77.3079 65.6202 77.2552C65.5983 77.2024 65.5926 77.1444 65.6037 77.0884C65.6149 77.0325 65.6424 76.981 65.6827 76.9407C65.7231 76.9003 65.7745 76.8728 65.8305 76.8617C65.8865 76.8506 65.9445 76.8563 65.9972 76.8781C66.0499 76.9 66.095 76.937 66.1267 76.9844C66.1584 77.0319 66.1753 77.0877 66.1753 77.1447C66.1753 77.2213 66.1449 77.2947 66.0908 77.3488C66.0367 77.4029 65.9633 77.4333 65.8868 77.4333ZM65.8868 77.0215C65.8624 77.0215 65.8386 77.0287 65.8183 77.0422C65.798 77.0558 65.7822 77.075 65.7729 77.0976C65.7636 77.1201 65.7611 77.1449 65.7659 77.1688C65.7706 77.1927 65.7824 77.2147 65.7996 77.2319C65.8168 77.2491 65.8388 77.2609 65.8627 77.2656C65.8866 77.2704 65.9114 77.268 65.9339 77.2586C65.9565 77.2493 65.9757 77.2335 65.9893 77.2132C66.0028 77.193 66.01 77.1691 66.01 77.1447C66.01 77.112 65.9971 77.0807 65.9739 77.0576C65.9508 77.0344 65.9195 77.0215 65.8868 77.0215Z" fill="#274B5B"/>
<path opacity="0.2" d="M65.8867 77.6798C65.7809 77.6798 65.6774 77.6485 65.5894 77.5897C65.5014 77.5309 65.4329 77.4473 65.3924 77.3495C65.3519 77.2517 65.3413 77.1441 65.3619 77.0403C65.3826 76.9365 65.4335 76.8412 65.5084 76.7664C65.5832 76.6915 65.6785 76.6406 65.7823 76.6199C65.8861 76.5993 65.9937 76.6099 66.0915 76.6504C66.1893 76.6909 66.2729 76.7595 66.3317 76.8475C66.3905 76.9354 66.4218 77.0389 66.4218 77.1447C66.4218 77.2867 66.3655 77.4228 66.2651 77.5231C66.1648 77.6235 66.0287 77.6798 65.8867 77.6798ZM65.8867 76.9388C65.846 76.9388 65.8062 76.9509 65.7723 76.9735C65.7385 76.9961 65.7121 77.0283 65.6965 77.0659C65.6809 77.1036 65.6768 77.145 65.6848 77.1849C65.6927 77.2249 65.7123 77.2615 65.7411 77.2903C65.7699 77.3191 65.8066 77.3388 65.8466 77.3467C65.8865 77.3546 65.9279 77.3506 65.9655 77.335C66.0032 77.3194 66.0353 77.293 66.0579 77.2591C66.0806 77.2253 66.0927 77.1855 66.0927 77.1447C66.0927 77.0901 66.071 77.0378 66.0323 76.9991C65.9937 76.9605 65.9413 76.9388 65.8867 76.9388Z" fill="#274B5B"/>
<path d="M65.8868 83.468C65.8297 83.468 65.7739 83.4511 65.7265 83.4194C65.679 83.3877 65.642 83.3426 65.6202 83.2899C65.5983 83.2371 65.5926 83.1791 65.6037 83.1231C65.6149 83.0672 65.6424 83.0157 65.6827 82.9754C65.7231 82.935 65.7745 82.9075 65.8305 82.8964C65.8865 82.8853 65.9445 82.891 65.9972 82.9128C66.0499 82.9347 66.095 82.9717 66.1267 83.0191C66.1584 83.0666 66.1753 83.1224 66.1753 83.1794C66.1753 83.256 66.1449 83.3294 66.0908 83.3835C66.0367 83.4376 65.9633 83.468 65.8868 83.468ZM65.8868 83.0562C65.8624 83.0562 65.8386 83.0634 65.8183 83.0769C65.798 83.0905 65.7822 83.1097 65.7729 83.1323C65.7636 83.1548 65.7611 83.1796 65.7659 83.2035C65.7706 83.2274 65.7824 83.2494 65.7996 83.2666C65.8168 83.2838 65.8388 83.2956 65.8627 83.3003C65.8866 83.3051 65.9114 83.3027 65.9339 83.2933C65.9565 83.284 65.9757 83.2682 65.9893 83.2479C66.0028 83.2276 66.01 83.2038 66.01 83.1794C66.01 83.1467 65.9971 83.1154 65.9739 83.0923C65.9508 83.0692 65.9195 83.0562 65.8868 83.0562Z" fill="#274B5B"/>
<path opacity="0.2" d="M65.8867 83.7215C65.7809 83.7215 65.6774 83.6902 65.5894 83.6314C65.5014 83.5726 65.4329 83.489 65.3924 83.3912C65.3519 83.2934 65.3413 83.1858 65.3619 83.082C65.3826 82.9782 65.4335 82.8829 65.5084 82.8081C65.5832 82.7332 65.6785 82.6823 65.7823 82.6616C65.8861 82.641 65.9937 82.6516 66.0915 82.6921C66.1893 82.7326 66.2729 82.8011 66.3317 82.8891C66.3905 82.9771 66.4218 83.0806 66.4218 83.1864C66.4218 83.3284 66.3655 83.4645 66.2651 83.5648C66.1648 83.6652 66.0287 83.7215 65.8867 83.7215ZM65.8867 82.9805C65.846 82.9805 65.8062 82.9926 65.7723 83.0152C65.7385 83.0378 65.7121 83.07 65.6965 83.1076C65.6809 83.1453 65.6768 83.1867 65.6848 83.2266C65.6927 83.2666 65.7123 83.3032 65.7411 83.332C65.7699 83.3608 65.8066 83.3805 65.8466 83.3884C65.8865 83.3963 65.9279 83.3923 65.9655 83.3767C66.0032 83.3611 66.0353 83.3347 66.0579 83.3008C66.0806 83.267 66.0927 83.2272 66.0927 83.1864C66.0934 83.1589 66.0886 83.1315 66.0786 83.1059C66.0686 83.0803 66.0536 83.0569 66.0344 83.0372C66.0152 83.0175 65.9922 83.0018 65.9669 82.9911C65.9415 82.9804 65.9143 82.9749 65.8867 82.9749V82.9805Z" fill="#274B5B"/>
<path opacity="0.6" d="M67.7792 53.3436C71.6204 53.3436 74.7343 50.2297 74.7343 46.3885C74.7343 42.5474 71.6204 39.4335 67.7792 39.4335C63.9381 39.4335 60.8242 42.5474 60.8242 46.3885C60.8242 50.2297 63.9381 53.3436 67.7792 53.3436Z" fill="#5C7869"/>
<path d="M67.8619 50.7927C71.703 50.7927 74.8169 47.6788 74.8169 43.8376C74.8169 39.9965 71.703 36.8826 67.8619 36.8826C64.0207 36.8826 60.9069 39.9965 60.9069 43.8376C60.9069 47.6788 64.0207 50.7927 67.8619 50.7927Z" fill="#94E0F7"/>
<path opacity="0.2" d="M67.7792 50.3822C66.5826 50.3822 65.4129 50.0274 64.418 49.3626C63.423 48.6978 62.6476 47.7529 62.1897 46.6474C61.7317 45.5419 61.6119 44.3254 61.8454 43.1518C62.0788 41.9782 62.655 40.9002 63.5012 40.0541C64.3473 39.2079 65.4253 38.6317 66.5989 38.3983C67.7725 38.1648 68.989 38.2846 70.0945 38.7426C71.2 39.2005 72.1449 39.9759 72.8097 40.9709C73.4745 41.9658 73.8293 43.1355 73.8293 44.3321C73.8279 45.9363 73.19 47.4743 72.0557 48.6086C70.9214 49.7429 69.3834 50.3807 67.7792 50.3822ZM67.7792 38.6953C66.6641 38.6953 65.574 39.0259 64.6468 39.6455C63.7196 40.265 62.9969 41.1456 62.5702 42.1759C62.1434 43.2061 62.0318 44.3398 62.2493 45.4335C62.4669 46.5272 63.0038 47.5319 63.7924 48.3204C64.5809 49.1089 65.5855 49.6459 66.6793 49.8635C67.773 50.081 68.9066 49.9694 69.9369 49.5426C70.9672 49.1159 71.8477 48.3932 72.4673 47.466C73.0868 46.5388 73.4175 45.4487 73.4175 44.3335C73.4164 42.8384 72.822 41.4048 71.7649 40.3474C70.7078 39.29 69.2744 38.6953 67.7792 38.6939V38.6953Z" fill="#274B5B"/>
<path d="M70.1886 37.6348L66.2201 50.9636C65.2072 50.6916 64.2693 50.193 63.4774 49.5053L67.0985 37.3547C68.1365 37.215 69.1927 37.3108 70.1886 37.6348Z" fill="white"/>
<path d="M72.3977 38.8409L68.7262 51.1681C68.4935 51.1918 68.2597 51.2035 68.0258 51.2031C67.7449 51.2033 67.4642 51.1865 67.1853 51.1527L71.0978 38.0089C71.5606 38.2371 71.9966 38.5162 72.3977 38.8409Z" fill="white"/>
<path opacity="0.8" d="M62.882 45.7988C62.8427 45.7986 62.8047 45.7844 62.775 45.7587C62.7452 45.733 62.7255 45.6976 62.7195 45.6587C62.4819 44.152 62.7682 42.6093 63.5306 41.2882C63.962 40.5485 64.4691 40.1045 65.0393 39.9714C65.061 39.9645 65.0839 39.9621 65.1066 39.9644C65.1292 39.9667 65.1512 39.9737 65.171 39.985C65.1909 39.9962 65.2082 40.0114 65.2218 40.0296C65.2355 40.0479 65.2453 40.0687 65.2505 40.0909C65.2558 40.1131 65.2563 40.1361 65.2522 40.1585C65.2481 40.181 65.2395 40.2023 65.2267 40.2212C65.214 40.2401 65.1975 40.2562 65.1782 40.2684C65.159 40.2806 65.1374 40.2887 65.1149 40.2922C64.6372 40.4043 64.2002 40.7965 63.8164 41.4549C63.0921 42.7105 62.8202 44.1764 63.0459 45.6083C63.0493 45.6298 63.0483 45.6518 63.043 45.673C63.0378 45.6942 63.0284 45.7141 63.0153 45.7316C63.0023 45.7491 62.9859 45.7638 62.9671 45.7748C62.9483 45.7859 62.9274 45.7931 62.9058 45.796L62.882 45.7988Z" fill="white"/>
<path d="M72.5532 44.779C72.4961 44.779 72.4404 44.7621 72.3929 44.7304C72.3454 44.6986 72.3085 44.6536 72.2866 44.6009C72.2648 44.5481 72.2591 44.4901 72.2702 44.4341C72.2813 44.3781 72.3088 44.3267 72.3492 44.2864C72.3895 44.246 72.4409 44.2185 72.4969 44.2074C72.5529 44.1963 72.6109 44.202 72.6636 44.2238C72.7164 44.2457 72.7614 44.2826 72.7931 44.3301C72.8249 44.3776 72.8418 44.4333 72.8418 44.4904C72.8418 44.567 72.8114 44.6404 72.7573 44.6945C72.7031 44.7486 72.6298 44.779 72.5532 44.779ZM72.5532 44.3671C72.5288 44.3671 72.505 44.3744 72.4847 44.3879C72.4645 44.4015 72.4487 44.4207 72.4393 44.4432C72.43 44.4658 72.4276 44.4906 72.4323 44.5145C72.4371 44.5384 72.4488 44.5603 72.4661 44.5776C72.4833 44.5948 72.5053 44.6066 72.5292 44.6113C72.5531 44.6161 72.5779 44.6136 72.6004 44.6043C72.6229 44.595 72.6422 44.5792 72.6557 44.5589C72.6693 44.5386 72.6765 44.5148 72.6765 44.4904C72.675 44.4587 72.6614 44.4288 72.6385 44.4069C72.6155 44.3849 72.585 44.3727 72.5532 44.3728V44.3671Z" fill="#274B5B"/>
<path opacity="0.2" d="M72.5532 45.0311C72.4473 45.0311 72.3439 44.9997 72.2559 44.9409C72.1679 44.8822 72.0993 44.7986 72.0588 44.7008C72.0183 44.603 72.0077 44.4954 72.0283 44.3916C72.049 44.2878 72.1 44.1925 72.1748 44.1176C72.2496 44.0428 72.345 43.9918 72.4488 43.9712C72.5526 43.9505 72.6602 43.9611 72.758 44.0016C72.8557 44.0421 72.9393 44.1107 72.9981 44.1987C73.0569 44.2867 73.0883 44.3902 73.0883 44.496C73.0883 44.6379 73.0319 44.774 72.9316 44.8744C72.8312 44.9748 72.6951 45.0311 72.5532 45.0311ZM72.5532 44.2901C72.5125 44.2901 72.4726 44.3022 72.4388 44.3248C72.4049 44.3474 72.3785 44.3796 72.3629 44.4172C72.3473 44.4548 72.3433 44.4963 72.3512 44.5362C72.3592 44.5761 72.3788 44.6128 72.4076 44.6416C72.4364 44.6704 72.4731 44.69 72.513 44.698C72.5529 44.7059 72.5944 44.7019 72.632 44.6863C72.6696 44.6707 72.7018 44.6443 72.7244 44.6104C72.747 44.5766 72.7591 44.5367 72.7591 44.496C72.7591 44.469 72.7538 44.4422 72.7434 44.4172C72.7331 44.3922 72.7179 44.3695 72.6988 44.3504C72.6797 44.3313 72.657 44.3161 72.632 44.3058C72.607 44.2954 72.5802 44.2901 72.5532 44.2901Z" fill="#274B5B"/>
<path d="M67.7792 52.1501C66.2327 52.1501 64.7209 51.6915 63.435 50.8323C62.1492 49.9731 61.1469 48.7519 60.5551 47.3231C59.9633 45.8943 59.8084 44.3221 60.1101 42.8053C60.4119 41.2885 61.1566 39.8952 62.2501 38.8016C63.3437 37.7081 64.737 36.9634 66.2538 36.6616C67.7706 36.3599 69.3428 36.5148 70.7716 37.1066C72.2004 37.6984 73.4216 38.7007 74.2808 39.9865C75.14 41.2724 75.5986 42.7842 75.5986 44.3307C75.5963 46.4039 74.7718 48.3914 73.3059 49.8574C71.8399 51.3233 69.8524 52.1478 67.7792 52.1501ZM67.7792 38.24C66.5746 38.24 65.397 38.5972 64.3954 39.2665C63.3938 39.9357 62.6131 40.887 62.1521 41.9999C61.6911 43.1128 61.5705 44.3375 61.8055 45.519C62.0406 46.7005 62.6206 47.7857 63.4724 48.6375C64.3242 49.4893 65.4095 50.0694 66.591 50.3044C67.7725 50.5394 68.9971 50.4188 70.1101 49.9578C71.223 49.4968 72.1742 48.7162 72.8435 47.7146C73.5127 46.7129 73.87 45.5354 73.87 44.3307C73.8677 42.7162 73.2253 41.1684 72.0835 40.0269C70.9417 38.8854 69.3938 38.2433 67.7792 38.2414V38.24Z" fill="#274B5B"/>
<path d="M63.3667 84.1264V72.1158C63.3616 68.0536 64.8922 64.1397 67.6518 61.1587C70.3608 64.1314 71.8598 68.0099 71.8542 72.0318V84.111" fill="#ECF2FA"/>
<path d="M68.2331 62.7654C65.7914 65.6096 64.4496 69.2345 64.4509 72.9829V84.7862H63.4633V72.9829C63.4633 68.9775 64.9965 65.124 67.7484 62.2135C67.9137 62.3947 68.0753 62.5786 68.2331 62.7654Z" fill="white"/>
<path d="M71.0305 72.7504V84.6209L67.6237 84.6279C70.7938 78.257 69.788 69.6728 69.145 65.2967C70.3826 67.5862 71.0306 70.1478 71.0305 72.7504Z" fill="#8BBACC"/>
<g opacity="0.4">
<path d="M60.051 62.8046C60.5805 61.9473 60.9559 61.2203 61.0134 61.2455C61.0708 61.2707 60.7668 62.044 60.2289 62.9139C59.691 63.7838 59.1377 64.403 59.0943 64.3679C59.0508 64.3329 59.5257 63.6633 60.051 62.8046Z" fill="#426270"/>
<path d="M60.8907 63.3479C61.2313 62.7683 61.4669 62.2746 61.4169 62.2452C61.3668 62.2158 61.0502 62.6619 60.7096 63.2415C60.369 63.8211 60.1334 64.3148 60.1834 64.3442C60.2334 64.3736 60.5501 63.9276 60.8907 63.3479Z" fill="#426270"/>
<path d="M60.2597 63.3734C61.0329 63.6857 61.6787 63.9015 61.6605 63.9589C61.6423 64.0163 60.9601 63.8875 60.1784 63.5681C59.3968 63.2487 58.8099 62.8677 58.8379 62.8228C58.8659 62.778 59.4851 63.0638 60.2597 63.3734Z" fill="#426270"/>
<path d="M60.9909 63.1646C61.6913 63.4938 62.2839 63.7011 62.2671 63.7586C62.2503 63.816 61.6199 63.6899 60.9027 63.3551C60.1855 63.0204 59.6826 62.6141 59.7148 62.5721C59.747 62.5301 60.2905 62.8411 60.9909 63.1646Z" fill="#426270"/>
</g>
<path d="M65.9694 69.2288C65.9123 69.2288 65.8565 69.2118 65.809 69.1801C65.7616 69.1484 65.7246 69.1033 65.7028 69.0506C65.6809 68.9979 65.6752 68.9399 65.6863 68.8839C65.6975 68.8279 65.7249 68.7765 65.7653 68.7361C65.8057 68.6958 65.8571 68.6683 65.9131 68.6572C65.969 68.646 66.0271 68.6517 66.0798 68.6736C66.1325 68.6954 66.1776 68.7324 66.2093 68.7799C66.241 68.8273 66.2579 68.8831 66.2579 68.9402C66.2579 69.0167 66.2275 69.0901 66.1734 69.1442C66.1193 69.1984 66.0459 69.2288 65.9694 69.2288ZM65.9694 68.8169C65.945 68.8169 65.9211 68.8241 65.9009 68.8377C65.8806 68.8512 65.8648 68.8705 65.8555 68.893C65.8461 68.9155 65.8437 68.9403 65.8485 68.9642C65.8532 68.9881 65.865 69.0101 65.8822 69.0274C65.8994 69.0446 65.9214 69.0563 65.9453 69.0611C65.9692 69.0658 65.994 69.0634 66.0165 69.0541C66.0391 69.0447 66.0583 69.0289 66.0719 69.0087C66.0854 68.9884 66.0926 68.9646 66.0926 68.9402C66.0923 68.9077 66.0791 68.8767 66.056 68.8539C66.033 68.8311 66.0018 68.8183 65.9694 68.8183V68.8169Z" fill="#274B5B"/>
<path opacity="0.2" d="M65.9694 69.4767C65.8635 69.4767 65.7601 69.4453 65.6721 69.3865C65.5841 69.3277 65.5155 69.2441 65.475 69.1464C65.4345 69.0486 65.4239 68.941 65.4445 68.8372C65.4652 68.7334 65.5162 68.638 65.591 68.5632C65.6658 68.4884 65.7612 68.4374 65.865 68.4168C65.9688 68.3961 66.0764 68.4067 66.1742 68.4472C66.2719 68.4877 66.3555 68.5563 66.4143 68.6443C66.4731 68.7323 66.5045 68.8358 66.5045 68.9416C66.5045 69.0835 66.4481 69.2196 66.3478 69.32C66.2474 69.4203 66.1113 69.4767 65.9694 69.4767ZM65.9694 68.7357C65.9287 68.7357 65.8888 68.7477 65.855 68.7704C65.8211 68.793 65.7947 68.8252 65.7791 68.8628C65.7635 68.9004 65.7595 68.9418 65.7674 68.9818C65.7754 69.0217 65.795 69.0584 65.8238 69.0872C65.8526 69.116 65.8893 69.1356 65.9292 69.1436C65.9691 69.1515 66.0106 69.1474 66.0482 69.1318C66.0858 69.1162 66.118 69.0899 66.1406 69.056C66.1632 69.0221 66.1753 68.9823 66.1753 68.9416C66.1757 68.9143 66.1706 68.8872 66.1604 68.8619C66.1503 68.8366 66.1351 68.8136 66.116 68.7942C66.0968 68.7747 66.074 68.7593 66.0488 68.7488C66.0237 68.7383 65.9967 68.7329 65.9694 68.7329V68.7357Z" fill="#274B5B"/>
<path d="M65.9694 81.2463C65.9123 81.2463 65.8565 81.2294 65.809 81.1977C65.7616 81.166 65.7246 81.1209 65.7028 81.0682C65.6809 81.0154 65.6752 80.9574 65.6863 80.9015C65.6975 80.8455 65.7249 80.7941 65.7653 80.7537C65.8057 80.7133 65.8571 80.6859 65.9131 80.6747C65.969 80.6636 66.0271 80.6693 66.0798 80.6912C66.1325 80.713 66.1776 80.75 66.2093 80.7974C66.241 80.8449 66.2579 80.9007 66.2579 80.9577C66.2579 81.0343 66.2275 81.1077 66.1734 81.1618C66.1193 81.2159 66.0459 81.2463 65.9694 81.2463ZM65.9694 80.8345C65.945 80.8345 65.9211 80.8417 65.9009 80.8553C65.8806 80.8688 65.8648 80.888 65.8555 80.9106C65.8461 80.9331 65.8437 80.9579 65.8485 80.9818C65.8532 81.0057 65.865 81.0277 65.8822 81.0449C65.8994 81.0622 65.9214 81.0739 65.9453 81.0787C65.9692 81.0834 65.994 81.081 66.0165 81.0716C66.0391 81.0623 66.0583 81.0465 66.0719 81.0262C66.0854 81.006 66.0926 80.9821 66.0926 80.9577C66.0926 80.9251 66.0796 80.8937 66.0565 80.8706C66.0334 80.8475 66.0021 80.8345 65.9694 80.8345Z" fill="#274B5B"/>
<path opacity="0.2" d="M65.9694 81.4928C65.8635 81.4928 65.7601 81.4615 65.6721 81.4027C65.5841 81.3439 65.5155 81.2603 65.475 81.1625C65.4345 81.0647 65.4239 80.9571 65.4445 80.8533C65.4652 80.7495 65.5162 80.6542 65.591 80.5794C65.6658 80.5045 65.7612 80.4536 65.865 80.4329C65.9688 80.4123 66.0764 80.4229 66.1742 80.4634C66.2719 80.5039 66.3555 80.5725 66.4143 80.6605C66.4731 80.7484 66.5045 80.8519 66.5045 80.9577C66.5045 81.0997 66.4481 81.2358 66.3478 81.3361C66.2474 81.4365 66.1113 81.4928 65.9694 81.4928ZM65.9694 80.7518C65.9287 80.7518 65.8888 80.7639 65.855 80.7865C65.8211 80.8091 65.7947 80.8413 65.7791 80.8789C65.7635 80.9166 65.7595 80.958 65.7674 80.9979C65.7754 81.0379 65.795 81.0745 65.8238 81.1033C65.8526 81.1321 65.8893 81.1518 65.9292 81.1597C65.9691 81.1676 66.0106 81.1636 66.0482 81.148C66.0858 81.1324 66.118 81.106 66.1406 81.0721C66.1632 81.0383 66.1753 80.9985 66.1753 80.9577C66.1753 80.9031 66.1536 80.8508 66.115 80.8121C66.0764 80.7735 66.024 80.7518 65.9694 80.7518Z" fill="#274B5B"/>
<path d="M65.9694 75.2382C65.9123 75.2382 65.8565 75.2213 65.809 75.1896C65.7616 75.1579 65.7246 75.1128 65.7028 75.0601C65.6809 75.0074 65.6752 74.9493 65.6863 74.8934C65.6975 74.8374 65.7249 74.786 65.7653 74.7456C65.8057 74.7053 65.8571 74.6778 65.9131 74.6666C65.969 74.6555 66.0271 74.6612 66.0798 74.6831C66.1325 74.7049 66.1776 74.7419 66.2093 74.7893C66.241 74.8368 66.2579 74.8926 66.2579 74.9497C66.2579 75.0262 66.2275 75.0996 66.1734 75.1537C66.1193 75.2078 66.0459 75.2382 65.9694 75.2382ZM65.9694 74.8264C65.945 74.8264 65.9211 74.8336 65.9009 74.8472C65.8806 74.8607 65.8648 74.88 65.8555 74.9025C65.8461 74.925 65.8437 74.9498 65.8485 74.9737C65.8532 74.9976 65.865 75.0196 65.8822 75.0368C65.8994 75.0541 65.9214 75.0658 65.9453 75.0706C65.9692 75.0753 65.994 75.0729 66.0165 75.0636C66.0391 75.0542 66.0583 75.0384 66.0719 75.0181C66.0854 74.9979 66.0926 74.974 66.0926 74.9497C66.0926 74.917 66.0796 74.8856 66.0565 74.8625C66.0334 74.8394 66.0021 74.8264 65.9694 74.8264Z" fill="#274B5B"/>
<path opacity="0.2" d="M65.9694 75.4848C65.8635 75.4848 65.7601 75.4534 65.6721 75.3946C65.5841 75.3358 65.5155 75.2522 65.475 75.1544C65.4345 75.0567 65.4239 74.9491 65.4445 74.8453C65.4652 74.7415 65.5162 74.6461 65.591 74.5713C65.6658 74.4965 65.7612 74.4455 65.865 74.4248C65.9688 74.4042 66.0764 74.4148 66.1742 74.4553C66.2719 74.4958 66.3555 74.5644 66.4143 74.6524C66.4731 74.7404 66.5045 74.8438 66.5045 74.9497C66.5045 75.0916 66.4481 75.2277 66.3478 75.328C66.2474 75.4284 66.1113 75.4848 65.9694 75.4848ZM65.9694 74.7437C65.9287 74.7437 65.8888 74.7558 65.855 74.7785C65.8211 74.8011 65.7947 74.8332 65.7791 74.8709C65.7635 74.9085 65.7595 74.9499 65.7674 74.9898C65.7754 75.0298 65.795 75.0665 65.8238 75.0953C65.8526 75.1241 65.8893 75.1437 65.9292 75.1516C65.9691 75.1596 66.0106 75.1555 66.0482 75.1399C66.0858 75.1243 66.118 75.0979 66.1406 75.0641C66.1632 75.0302 66.1753 74.9904 66.1753 74.9497C66.1753 74.9226 66.17 74.8958 66.1596 74.8709C66.1493 74.8459 66.1341 74.8232 66.115 74.8041C66.0959 74.7849 66.0732 74.7698 66.0482 74.7594C66.0232 74.7491 65.9964 74.7437 65.9694 74.7437Z" fill="#274B5B"/>
<path d="M68.6029 69.2288C68.5458 69.2288 68.49 69.2118 68.4426 69.1801C68.3951 69.1484 68.3581 69.1033 68.3363 69.0506C68.3145 68.9979 68.3087 68.9399 68.3199 68.8839C68.331 68.8279 68.3585 68.7765 68.3989 68.7361C68.4392 68.6958 68.4906 68.6683 68.5466 68.6572C68.6026 68.646 68.6606 68.6517 68.7133 68.6736C68.7661 68.6954 68.8111 68.7324 68.8428 68.7799C68.8745 68.8273 68.8915 68.8831 68.8915 68.9402C68.8915 69.0167 68.8611 69.0901 68.8069 69.1442C68.7528 69.1984 68.6794 69.2288 68.6029 69.2288ZM68.6029 68.8169C68.5785 68.8169 68.5547 68.8241 68.5344 68.8377C68.5141 68.8512 68.4983 68.8705 68.489 68.893C68.4797 68.9155 68.4772 68.9403 68.482 68.9642C68.4868 68.9881 68.4985 69.0101 68.5157 69.0274C68.533 69.0446 68.5549 69.0563 68.5788 69.0611C68.6028 69.0658 68.6275 69.0634 68.6501 69.0541C68.6726 69.0447 68.6918 69.0289 68.7054 69.0087C68.7189 68.9884 68.7262 68.9646 68.7262 68.9402C68.7258 68.9077 68.7127 68.8767 68.6896 68.8539C68.6665 68.8311 68.6354 68.8183 68.6029 68.8183V68.8169Z" fill="#274B5B"/>
<path opacity="0.2" d="M68.6029 69.4767C68.4971 69.4767 68.3936 69.4453 68.3056 69.3865C68.2176 69.3277 68.149 69.2441 68.1085 69.1464C68.068 69.0486 68.0574 68.941 68.0781 68.8372C68.0987 68.7334 68.1497 68.638 68.2245 68.5632C68.2994 68.4884 68.3947 68.4374 68.4985 68.4168C68.6023 68.3961 68.7099 68.4067 68.8077 68.4472C68.9055 68.4877 68.9891 68.5563 69.0478 68.6443C69.1066 68.7323 69.138 68.8358 69.138 68.9416C69.138 69.0835 69.0817 69.2196 68.9813 69.32C68.8809 69.4203 68.7448 69.4767 68.6029 69.4767ZM68.6029 68.7357C68.5622 68.7357 68.5224 68.7477 68.4885 68.7704C68.4547 68.793 68.4283 68.8252 68.4127 68.8628C68.3971 68.9004 68.393 68.9418 68.401 68.9818C68.4089 69.0217 68.4285 69.0584 68.4573 69.0872C68.4861 69.116 68.5228 69.1356 68.5628 69.1436C68.6027 69.1515 68.6441 69.1474 68.6817 69.1318C68.7193 69.1162 68.7515 69.0899 68.7741 69.056C68.7968 69.0221 68.8088 68.9823 68.8088 68.9416C68.8092 68.9143 68.8042 68.8872 68.794 68.8619C68.7838 68.8366 68.7687 68.8136 68.7495 68.7942C68.7304 68.7747 68.7075 68.7593 68.6824 68.7488C68.6572 68.7383 68.6302 68.7329 68.6029 68.7329V68.7357Z" fill="#274B5B"/>
<path d="M68.6029 81.2463C68.5458 81.2463 68.49 81.2294 68.4426 81.1977C68.3951 81.166 68.3581 81.1209 68.3363 81.0682C68.3145 81.0154 68.3087 80.9574 68.3199 80.9015C68.331 80.8455 68.3585 80.7941 68.3989 80.7537C68.4392 80.7133 68.4906 80.6859 68.5466 80.6747C68.6026 80.6636 68.6606 80.6693 68.7133 80.6912C68.7661 80.713 68.8111 80.75 68.8428 80.7974C68.8745 80.8449 68.8915 80.9007 68.8915 80.9577C68.8915 81.0343 68.8611 81.1077 68.8069 81.1618C68.7528 81.2159 68.6794 81.2463 68.6029 81.2463ZM68.6029 80.8345C68.5785 80.8345 68.5547 80.8417 68.5344 80.8553C68.5141 80.8688 68.4983 80.888 68.489 80.9106C68.4797 80.9331 68.4772 80.9579 68.482 80.9818C68.4868 81.0057 68.4985 81.0277 68.5157 81.0449C68.533 81.0622 68.5549 81.0739 68.5788 81.0787C68.6028 81.0834 68.6275 81.081 68.6501 81.0716C68.6726 81.0623 68.6918 81.0465 68.7054 81.0262C68.7189 81.006 68.7262 80.9821 68.7262 80.9577C68.7262 80.9251 68.7132 80.8937 68.6901 80.8706C68.6669 80.8475 68.6356 80.8345 68.6029 80.8345Z" fill="#274B5B"/>
<path opacity="0.2" d="M68.6029 81.4928C68.4971 81.4928 68.3936 81.4615 68.3056 81.4027C68.2176 81.3439 68.149 81.2603 68.1085 81.1625C68.068 81.0647 68.0574 80.9571 68.0781 80.8533C68.0987 80.7495 68.1497 80.6542 68.2245 80.5794C68.2994 80.5045 68.3947 80.4536 68.4985 80.4329C68.6023 80.4123 68.7099 80.4229 68.8077 80.4634C68.9055 80.5039 68.9891 80.5725 69.0478 80.6605C69.1066 80.7484 69.138 80.8519 69.138 80.9577C69.138 81.0997 69.0817 81.2358 68.9813 81.3361C68.8809 81.4365 68.7448 81.4928 68.6029 81.4928ZM68.6029 80.7518C68.5622 80.7518 68.5224 80.7639 68.4885 80.7865C68.4547 80.8091 68.4283 80.8413 68.4127 80.8789C68.3971 80.9166 68.393 80.958 68.401 80.9979C68.4089 81.0379 68.4285 81.0745 68.4573 81.1033C68.4861 81.1321 68.5228 81.1518 68.5628 81.1597C68.6027 81.1676 68.6441 81.1636 68.6817 81.148C68.7193 81.1324 68.7515 81.106 68.7741 81.0721C68.7968 81.0383 68.8088 80.9985 68.8088 80.9577C68.8088 80.9307 68.8035 80.9039 68.7932 80.8789C68.7828 80.854 68.7677 80.8313 68.7485 80.8121C68.7294 80.793 68.7067 80.7778 68.6817 80.7675C68.6567 80.7571 68.63 80.7518 68.6029 80.7518Z" fill="#274B5B"/>
<path d="M68.6029 75.2382C68.5458 75.2382 68.49 75.2213 68.4426 75.1896C68.3951 75.1579 68.3581 75.1128 68.3363 75.0601C68.3145 75.0074 68.3087 74.9493 68.3199 74.8934C68.331 74.8374 68.3585 74.786 68.3989 74.7456C68.4392 74.7053 68.4906 74.6778 68.5466 74.6666C68.6026 74.6555 68.6606 74.6612 68.7133 74.6831C68.7661 74.7049 68.8111 74.7419 68.8428 74.7893C68.8745 74.8368 68.8915 74.8926 68.8915 74.9497C68.8915 75.0262 68.8611 75.0996 68.8069 75.1537C68.7528 75.2078 68.6794 75.2382 68.6029 75.2382ZM68.6029 74.8264C68.5785 74.8264 68.5547 74.8336 68.5344 74.8472C68.5141 74.8607 68.4983 74.88 68.489 74.9025C68.4797 74.925 68.4772 74.9498 68.482 74.9737C68.4868 74.9976 68.4985 75.0196 68.5157 75.0368C68.533 75.0541 68.5549 75.0658 68.5788 75.0706C68.6028 75.0753 68.6275 75.0729 68.6501 75.0636C68.6726 75.0542 68.6918 75.0384 68.7054 75.0181C68.7189 74.9979 68.7262 74.974 68.7262 74.9497C68.7262 74.917 68.7132 74.8856 68.6901 74.8625C68.6669 74.8394 68.6356 74.8264 68.6029 74.8264Z" fill="#274B5B"/>
<path opacity="0.2" d="M68.6029 75.4848C68.4971 75.4848 68.3936 75.4534 68.3056 75.3946C68.2176 75.3358 68.149 75.2522 68.1085 75.1544C68.068 75.0567 68.0574 74.9491 68.0781 74.8453C68.0987 74.7415 68.1497 74.6461 68.2245 74.5713C68.2994 74.4965 68.3947 74.4455 68.4985 74.4248C68.6023 74.4042 68.7099 74.4148 68.8077 74.4553C68.9055 74.4958 68.9891 74.5644 69.0478 74.6524C69.1066 74.7404 69.138 74.8438 69.138 74.9497C69.138 75.0916 69.0817 75.2277 68.9813 75.328C68.8809 75.4284 68.7448 75.4848 68.6029 75.4848ZM68.6029 74.7437C68.5622 74.7437 68.5224 74.7558 68.4885 74.7785C68.4547 74.8011 68.4283 74.8332 68.4127 74.8709C68.3971 74.9085 68.393 74.9499 68.401 74.9898C68.4089 75.0298 68.4285 75.0665 68.4573 75.0953C68.4861 75.1241 68.5228 75.1437 68.5628 75.1516C68.6027 75.1596 68.6441 75.1555 68.6817 75.1399C68.7193 75.1243 68.7515 75.0979 68.7741 75.0641C68.7968 75.0302 68.8088 74.9904 68.8088 74.9497C68.8088 74.9226 68.8035 74.8958 68.7932 74.8709C68.7828 74.8459 68.7677 74.8232 68.7485 74.8041C68.7294 74.7849 68.7067 74.7698 68.6817 74.7594C68.6567 74.7491 68.63 74.7437 68.6029 74.7437Z" fill="#274B5B"/>
<path d="M67.1629 61.9866H67.4921V84.2917H67.1629V61.9866Z" fill="#274B5B"/>
<path opacity="0.2" d="M66.9149 62.8088H67.2441V84.0437H66.9149V62.8088Z" fill="#274B5B"/>
<path opacity="0.8" d="M67.5733 62.8088H67.9025V83.9611H67.5733V62.8088Z" fill="white"/>
<path d="M72.5126 89.2702H62.0597C60.9139 89.269 59.8154 88.8134 59.0052 88.0032C58.195 87.193 57.7393 86.0944 57.7382 84.9487V84.3309H76.8341V84.9487C76.833 86.0944 76.3773 87.193 75.5671 88.0032C74.7569 88.8134 73.6584 89.269 72.5126 89.2702ZM59.0354 85.5664C59.1785 86.2631 59.5574 86.8892 60.1083 87.3391C60.6593 87.789 61.3485 88.0351 62.0597 88.036H72.5126C73.2238 88.0351 73.913 87.789 74.464 87.3391C75.0149 86.8892 75.3938 86.2631 75.5369 85.5664H59.0354Z" fill="#274B5B"/>
<path opacity="0.15" d="M76.0664 34.2617C76.6408 34.1234 77.2466 34.2187 77.7506 34.5268C78.2547 34.835 78.6158 35.3306 78.7546 35.9048L79.2841 38.0985C79.4224 38.6729 79.3271 39.2786 79.0189 39.7827C78.7108 40.2868 78.2152 40.6479 77.641 40.7867C77.0666 40.925 76.4608 40.8296 75.9568 40.5215C75.4527 40.2134 75.0916 39.7178 74.9528 39.1435L74.4233 36.9498C74.285 36.3755 74.3803 35.7697 74.6884 35.2657C74.9966 34.7616 75.4922 34.4005 76.0664 34.2617Z" fill="white"/>
<path opacity="0.15" d="M74.0885 33.2923C74.5779 32.9611 75.1787 32.8377 75.759 32.9493C76.3393 33.061 76.8514 33.3985 77.1829 33.8877C77.5142 34.377 77.6376 34.9779 77.5259 35.5581C77.4143 36.1384 77.0768 36.6506 76.5876 36.9821C76.0983 37.3133 75.4974 37.4367 74.9171 37.3251C74.3369 37.2134 73.8247 36.8759 73.4932 36.3867C73.1619 35.8974 73.0386 35.2965 73.1502 34.7163C73.2618 34.136 73.5994 33.6238 74.0885 33.2923Z" fill="white"/>
<g opacity="0.4">
<path d="M75.9361 50.2113C76.4657 49.354 76.8411 48.627 76.8985 48.6522C76.9559 48.6774 76.652 49.4507 76.114 50.3206C75.5761 51.1905 75.0228 51.8097 74.9794 51.7746C74.936 51.7396 75.4108 51.0714 75.9361 50.2113Z" fill="#426270"/>
<path d="M76.7756 50.7558C77.1162 50.1762 77.3518 49.6824 77.3018 49.6531C77.2517 49.6237 76.9351 50.0697 76.5945 50.6493C76.2538 51.229 76.0183 51.7227 76.0683 51.7521C76.1183 51.7815 76.435 51.3354 76.7756 50.7558Z" fill="#426270"/>
<path d="M76.1407 50.7815C76.9139 51.0938 77.5597 51.3096 77.5415 51.367C77.5233 51.4244 76.8411 51.2956 76.0594 50.9762C75.2778 50.6568 74.6908 50.2758 74.7189 50.2309C74.7469 50.1861 75.3702 50.4705 76.1407 50.7815Z" fill="#426270"/>
<path d="M76.8761 50.5713C77.5765 50.9005 78.1691 51.1079 78.1522 51.1653C78.1354 51.2227 77.5051 51.0966 76.7879 50.7619C76.0706 50.4271 75.5678 50.0208 75.6 49.9788C75.6322 49.9368 76.1757 50.2422 76.8761 50.5713Z" fill="#426270"/>
</g>
<g opacity="0.4">
<path d="M69.2697 24.8608C69.7992 24.0036 70.1746 23.2765 70.2321 23.3017C70.2895 23.327 69.9855 24.1002 69.4476 24.9701C68.9097 25.84 68.3564 26.4592 68.313 26.4242C68.2695 26.3891 68.743 25.7209 69.2697 24.8608Z" fill="#426270"/>
<path d="M70.1081 25.4066C70.4487 24.827 70.6842 24.3333 70.6342 24.3039C70.5842 24.2745 70.2675 24.7205 69.9269 25.3002C69.5863 25.8798 69.3507 26.3735 69.4008 26.4029C69.4508 26.4323 69.7675 25.9863 70.1081 25.4066Z" fill="#426270"/>
<path d="M69.477 25.431C70.2503 25.7434 70.8961 25.9591 70.8779 26.0165C70.8596 26.074 70.1775 25.9451 69.3958 25.6257C68.6141 25.3063 68.0272 24.9253 68.0552 24.8805C68.0832 24.8356 68.7038 25.12 69.477 25.431Z" fill="#426270"/>
<path d="M70.2096 25.2209C70.91 25.55 71.5026 25.7574 71.4857 25.8148C71.4689 25.8722 70.8386 25.7462 70.1214 25.4114C69.4041 25.0766 68.9013 24.6703 68.9335 24.6283C68.9657 24.5863 69.5092 24.8973 70.2096 25.2209Z" fill="#426270"/>
</g>
<path d="M56.4214 28.7761H76.998V29.188H56.4214V28.7761Z" fill="#8BBACC"/>
<path d="M78.826 30.2834H55.8387L56.1188 29.0493H78.6859L78.826 30.2834Z" fill="#274B5B"/>
<path d="M75.7695 85.0733H58.6642C57.5954 85.0733 56.6372 84.5984 56.1637 83.8336C54.3525 80.8919 50.1403 71.9407 50.1403 52.2733C50.1403 32.9982 60.2947 18.885 64.6611 13.7118C64.9752 13.3394 65.3669 13.0401 65.8087 12.8348C66.2505 12.6295 66.7318 12.5232 67.219 12.5232C67.7061 12.5232 68.1874 12.6295 68.6292 12.8348C69.071 13.0401 69.4627 13.3394 69.7768 13.7118C74.1418 18.885 84.2976 32.9982 84.2934 52.2733C84.2934 71.9365 80.0812 80.8947 78.27 83.8336C77.8035 84.5971 76.8411 85.0733 75.7695 85.0733ZM67.2147 13.758C66.7172 13.7577 66.2357 13.9339 65.856 14.2553C65.765 14.3321 65.6806 14.4165 65.6038 14.5075C61.3257 19.577 51.3744 33.4044 51.3744 52.2733C51.3744 60.7076 52.156 68.0549 53.6969 74.112C54.9675 79.1045 56.4453 81.9397 57.2144 83.185C57.4553 83.5759 58.0394 83.8378 58.6642 83.8378H75.7695C76.3985 83.8378 76.9798 83.5759 77.2179 83.1864C77.987 81.9383 79.4592 79.1017 80.7368 74.1106C82.2777 68.0535 83.0593 60.7062 83.0593 52.2719C83.0593 33.4044 73.1136 19.577 68.8327 14.5075C68.6542 14.295 68.4355 14.1201 68.189 13.9926C67.9426 13.8652 67.6733 13.7879 67.3969 13.765C67.3362 13.7604 67.2754 13.758 67.2147 13.758Z" fill="#274B5B"/>
<path d="M63.6538 84.3071H62.4197V72.5038C62.4125 68.3389 64.0069 64.3306 66.8729 61.3086L67.3253 60.8309L67.7736 61.3114C70.5886 64.3242 72.1521 68.2951 72.1469 72.4184V84.2889H70.9128V72.4212C70.9168 68.8417 69.6409 65.3788 67.3155 62.6575C64.9464 65.3897 63.6449 68.8862 63.651 72.5024L63.6538 84.3071Z" fill="#274B5B"/>
<path d="M87.6974 77.6238C87.6403 77.6238 87.5845 77.6069 87.5371 77.5752C87.4896 77.5435 87.4526 77.4984 87.4308 77.4457C87.4089 77.3929 87.4032 77.3349 87.4144 77.2789C87.4255 77.223 87.453 77.1716 87.4933 77.1312C87.5337 77.0908 87.5851 77.0634 87.6411 77.0522C87.6971 77.0411 87.7551 77.0468 87.8078 77.0686C87.8605 77.0905 87.9056 77.1275 87.9373 77.1749C87.969 77.2224 87.9859 77.2782 87.9859 77.3352C87.9859 77.4118 87.9555 77.4852 87.9014 77.5393C87.8473 77.5934 87.7739 77.6238 87.6974 77.6238ZM87.6974 77.212C87.673 77.212 87.6492 77.2192 87.6289 77.2327C87.6086 77.2463 87.5928 77.2655 87.5835 77.2881C87.5742 77.3106 87.5717 77.3354 87.5765 77.3593C87.5812 77.3832 87.593 77.4052 87.6102 77.4224C87.6275 77.4396 87.6494 77.4514 87.6733 77.4561C87.6972 77.4609 87.722 77.4585 87.7446 77.4491C87.7671 77.4398 87.7863 77.424 87.7999 77.4037C87.8134 77.3835 87.8207 77.3596 87.8207 77.3352C87.8203 77.3028 87.8071 77.2718 87.7841 77.249C87.761 77.2262 87.7298 77.2134 87.6974 77.2134V77.212Z" fill="#274B5B"/>
<path opacity="0.2" d="M87.6973 77.8718C87.5915 77.8718 87.488 77.8404 87.4001 77.7816C87.3121 77.7228 87.2435 77.6392 87.203 77.5414C87.1625 77.4436 87.1519 77.3361 87.1725 77.2323C87.1932 77.1284 87.2441 77.0331 87.319 76.9583C87.3938 76.8834 87.4891 76.8325 87.5929 76.8118C87.6967 76.7912 87.8043 76.8018 87.9021 76.8423C87.9999 76.8828 88.0835 76.9514 88.1423 77.0394C88.2011 77.1274 88.2325 77.2308 88.2325 77.3366C88.2325 77.4786 88.1761 77.6147 88.0757 77.715C87.9754 77.8154 87.8393 77.8718 87.6973 77.8718ZM87.6973 77.1307C87.6566 77.1307 87.6168 77.1428 87.5829 77.1654C87.5491 77.1881 87.5227 77.2202 87.5071 77.2578C87.4915 77.2955 87.4874 77.3369 87.4954 77.3768C87.5033 77.4168 87.5229 77.4535 87.5517 77.4823C87.5805 77.5111 87.6172 77.5307 87.6572 77.5386C87.6971 77.5466 87.7385 77.5425 87.7761 77.5269C87.8138 77.5113 87.8459 77.4849 87.8686 77.4511C87.8912 77.4172 87.9033 77.3774 87.9033 77.3366C87.9033 77.282 87.8816 77.2297 87.843 77.191C87.8043 77.1524 87.752 77.1307 87.6973 77.1307Z" fill="#274B5B"/>
<defs>
<linearGradient id="paint0_linear_7_247" x1="18.007" y1="50.4243" x2="123.893" y2="50.4243" gradientUnits="userSpaceOnUse">
<stop stop-color="#C3F6EE"/>
<stop offset="0.38" stop-color="#C6EBFD"/>
</linearGradient>
</defs>
</svg>
